<?xml version="1.0" encoding="utf-8"?>
<!-- Generator: Adobe Illustrator 19.0.1, SVG Export Plug-In . SVG Version: 6.00 Build 0)  -->
<!DOCTYPE svg PUBLIC "-//W3C//DTD SVG 1.1//EN" "http://www.w3.org/Graphics/SVG/1.1/DTD/svg11.dtd" [
	<!ENTITY ns_extend "http://ns.adobe.com/Extensibility/1.0/">
	<!ENTITY ns_ai "http://ns.adobe.com/AdobeIllustrator/10.0/">
	<!ENTITY ns_graphs "http://ns.adobe.com/Graphs/1.0/">
	<!ENTITY ns_vars "http://ns.adobe.com/Variables/1.0/">
	<!ENTITY ns_imrep "http://ns.adobe.com/ImageReplacement/1.0/">
	<!ENTITY ns_sfw "http://ns.adobe.com/SaveForWeb/1.0/">
	<!ENTITY ns_custom "http://ns.adobe.com/GenericCustomNamespace/1.0/">
	<!ENTITY ns_adobe_xpath "http://ns.adobe.com/XPath/1.0/">
]>
<svg version="1.1" xmlns:x="&ns_extend;" xmlns:i="&ns_ai;" xmlns:graph="&ns_graphs;"
	 xmlns="http://www.w3.org/2000/svg" xmlns:xlink="http://www.w3.org/1999/xlink" x="0px" y="0px" width="335px" height="887.4px"
	 viewBox="0 0 335 887.4" style="enable-background:new 0 0 335 887.4;" xml:space="preserve">
<style type="text/css">
	.st0{fill:#3781A4;}
	.st1{fill:#FFFFFF;}
	.st2{opacity:0.7;}
	.st3{opacity:0.7;fill:none;stroke:#FFFFFF;stroke-miterlimit:10;}
	.st4{opacity:0.8;}
	.st5{opacity:0.25;}
	.st6{opacity:0.5;fill:#FFFFFF;}
	.st7{opacity:0.5;}
	.st8{fill:#A5B5B8;}
	.st9{fill:#EBEBEC;}
	.st10{fill:#B6B6B7;}
	.st11{fill:#B12843;}
	.st12{fill:#449F6C;}
	.st13{opacity:0.6;}
	.st14{fill:none;stroke:#FFFFFF;stroke-width:2;stroke-linecap:round;stroke-linejoin:round;stroke-miterlimit:10;}
	.st15{fill:none;stroke:#3781A4;stroke-width:6;stroke-miterlimit:10;}
	.st16{fill:none;stroke:#3781A4;stroke-width:5;stroke-miterlimit:10;}
	.st17{opacity:0.6;fill:none;stroke:#FFFFFF;stroke-width:2;stroke-linecap:round;stroke-linejoin:round;stroke-miterlimit:10;}
	.st18{opacity:0.6;fill:#B6B6B7;}
	.st19{opacity:0.35;fill:#B6B6B7;}
	.st20{opacity:0.8;fill:#B6B6B7;}
	.st21{opacity:0.3;fill:#B6B6B7;}
	.st22{opacity:0.7;fill:#B6B6B7;}
	.st23{opacity:0.9;fill:#B6B6B7;}
	.st24{opacity:0.5;fill:#B6B6B7;}
	.st25{opacity:0.2;fill:#B6B6B7;}
	.st26{opacity:0.65;fill:#B6B6B7;}
	.st27{opacity:0.85;fill:#B6B6B7;}
	.st28{opacity:0.45;fill:#B6B6B7;}
	.st29{fill:#485154;}
	.st30{fill:none;stroke:#3781A4;stroke-width:11;stroke-linecap:round;stroke-linejoin:round;stroke-miterlimit:10;}
	.st31{fill:none;stroke:#FFFFFF;stroke-width:3;stroke-linecap:round;stroke-linejoin:round;stroke-miterlimit:10;}
	.st32{fill:none;stroke:#FFFFFF;stroke-width:3;stroke-linecap:round;stroke-linejoin:round;}
	.st33{fill:none;stroke:#FFFFFF;stroke-width:3;stroke-linecap:round;stroke-linejoin:round;stroke-dasharray:2.9465,3.9287;}
	.st34{fill:none;stroke:#FFFFFF;stroke-width:3;stroke-linecap:round;stroke-linejoin:round;stroke-dasharray:2.0068,2.6757;}
	.st35{fill:none;stroke:#FFFFFF;stroke-width:3;stroke-linecap:round;stroke-linejoin:round;stroke-dasharray:2.8093,3.7457;}
	.st36{fill:none;stroke:#FFFFFF;stroke-width:3;stroke-linecap:round;stroke-linejoin:round;stroke-dasharray:3.0503,4.067;}
	.st37{fill:none;stroke:#FFFFFF;stroke-width:3;stroke-linecap:round;stroke-linejoin:round;stroke-dasharray:2.7315,3.642;}
	.st38{fill:none;stroke:#FFFFFF;stroke-width:3;stroke-linecap:round;stroke-linejoin:round;stroke-dasharray:3.1002,4.1336;}
	.st39{fill:none;stroke:#3781A4;stroke-width:10;stroke-linecap:round;stroke-linejoin:round;stroke-miterlimit:10;}
	.st40{fill:none;stroke:#3781A4;stroke-width:10;stroke-miterlimit:10;}
	.st41{fill:none;stroke:#FFFFFF;stroke-width:3;stroke-linecap:round;stroke-linejoin:round;stroke-dasharray:3.1068,4.1424;}
	.st42{fill:none;stroke:#FFFFFF;stroke-width:3;stroke-linecap:round;stroke-linejoin:round;stroke-dasharray:1.5484,2.0645;}
	.st43{fill:none;stroke:#FFFFFF;stroke-width:3;stroke-linecap:round;stroke-linejoin:round;stroke-dasharray:2.9057,3.8743;}
	.st44{fill:none;stroke:#FFFFFF;stroke-width:3;stroke-linecap:round;stroke-linejoin:round;stroke-dasharray:3.1048,4.1397;}
	.st45{fill:none;stroke:#FFFFFF;stroke-width:3;stroke-linecap:round;stroke-linejoin:round;stroke-dasharray:2.7418,3.6557;}
	.st46{fill:none;stroke:#FFFFFF;stroke-width:3;stroke-linecap:round;stroke-linejoin:round;stroke-dasharray:3.6253,4.8338;}
	.st47{fill:none;stroke:#FFFFFF;stroke-miterlimit:10;}
	.st48{fill:none;stroke:#FFFFFF;stroke-width:2.5;stroke-linecap:round;stroke-linejoin:round;stroke-miterlimit:10;}
	.st49{fill:#FAFCFB;}
	.st50{fill:none;stroke:#00A9CD;stroke-miterlimit:10;}
	.st51{fill:none;stroke:#3781A4;stroke-width:0.8989;stroke-miterlimit:10;}
	.st52{fill:none;stroke:#B12843;stroke-width:0.8989;stroke-miterlimit:10;}
	.st53{fill:none;stroke:#3781A4;stroke-miterlimit:10;}
	.st54{fill-rule:evenodd;clip-rule:evenodd;fill:none;stroke:#3781A4;stroke-width:0.8989;stroke-miterlimit:10;}
	.st55{fill:#00A9CD;}
	.st56{fill:#0597C4;}
	.st57{fill:#2A3033;}
	.st58{fill:none;}
	.st59{fill:none;stroke:#A5B5B8;stroke-miterlimit:10;}
	.st60{fill:none;stroke:#D4D4D6;stroke-miterlimit:10;}
	.st61{fill:#231F20;}
	.st62{opacity:0.6;fill:#212628;}
	.st63{opacity:0.85;fill:#FFFFFF;}
	.st64{fill:#0F070A;}
	.st65{opacity:0.85;}
	.st66{fill:#7A7E7F;}
	.st67{opacity:0.9;fill:#FFFFFF;}
	.st68{fill:#F7F7F7;}
	.st69{fill-rule:evenodd;clip-rule:evenodd;fill:#2A3033;}
	.st70{opacity:0.75;}
	.st71{fill:none;stroke:#FFFFFF;stroke-width:2;stroke-miterlimit:10;}
	.st72{fill:#0C0110;}
	.st73{opacity:0.7;fill:#FFFFFF;}
	.st74{fill:none;stroke:#FFFFFF;stroke-width:0.4355;stroke-miterlimit:10;}
	.st75{opacity:0.6;fill:#FFFFFF;}
	.st76{opacity:0.5;fill:#FFFFFF;enable-background:new    ;}
	.st77{display:none;}
	.st78{display:inline;fill:none;}
	.st79{display:inline;}
	.st80{fill:none;stroke:#FFFFFF;stroke-width:0.5319;stroke-miterlimit:10;}
	.st81{fill:none;stroke:#F9F164;stroke-width:0.5;stroke-miterlimit:10;}
</style>
<metadata>
	<sfw  xmlns="&ns_sfw;">
		<slices></slices>
		<sliceSourceBounds  width="10354" height="8656.8" bottomLeftOrigin="true" x="-5542.2" y="-6643.9"></sliceSourceBounds>
		<optimizationSettings>
			<targetSettings  targetSettingsID="0" fileFormat="JPEGFormat">
				
					<JPEGFormat  embedICCProfile="false" optimized="true" quality="60" matteColor="#FFFFFF" progressive="false" blurAmount="0" noMatteColor="false">
					</JPEGFormat>
			</targetSettings>
		</optimizationSettings>
	</sfw>
</metadata>
<g id="Layer_1">
	<g>
		<path class="st1" d="M18.3,13.6c0.1,0,0.2,0,0.3,0.1c0.1,0,0.2,0.1,0.3,0.2c0.1,0.1,0.2,0.2,0.3,0.3l11.4,14.6
			c0-0.4-0.1-0.7-0.1-1c0-0.3,0-0.7,0-0.9V13.5h3.6v21.8H32c-0.3,0-0.6-0.1-0.8-0.2c-0.2-0.1-0.4-0.3-0.6-0.5L19.2,20.1
			c0,0.3,0.1,0.6,0.1,1c0,0.3,0,0.6,0,0.9v13.4h-3.6V13.5h2.1C18,13.5,18.2,13.5,18.3,13.6z"/>
		<path class="st1" d="M48,35.3c-0.4,0-0.6-0.1-0.8-0.2c-0.2-0.1-0.3-0.3-0.5-0.6l-0.3-1.1c-0.4,0.4-0.8,0.7-1.1,0.9
			c-0.4,0.3-0.8,0.5-1.2,0.7c-0.4,0.2-0.8,0.3-1.3,0.4c-0.5,0.1-1,0.1-1.5,0.1c-0.7,0-1.3-0.1-1.8-0.3s-1-0.4-1.4-0.8
			s-0.7-0.8-0.9-1.3s-0.3-1.1-0.3-1.8c0-0.6,0.2-1.2,0.5-1.7c0.3-0.6,0.8-1.1,1.5-1.5s1.7-0.8,2.8-1.1c1.2-0.3,2.7-0.5,4.4-0.5v-0.9
			c0-1-0.2-1.8-0.7-2.3c-0.4-0.5-1.1-0.7-1.9-0.7c-0.6,0-1.1,0.1-1.5,0.2c-0.4,0.1-0.7,0.3-1,0.5c-0.3,0.2-0.6,0.3-0.8,0.5
			c-0.2,0.1-0.5,0.2-0.8,0.2c-0.3,0-0.5-0.1-0.7-0.2s-0.3-0.3-0.4-0.5L37.6,22c1.8-1.6,3.9-2.4,6.4-2.4c0.9,0,1.7,0.1,2.4,0.4
			c0.7,0.3,1.3,0.7,1.8,1.2c0.5,0.5,0.9,1.2,1.1,1.9c0.3,0.7,0.4,1.5,0.4,2.4v9.8H48z M42.5,33c0.8,0,1.4-0.1,2-0.4s1.1-0.7,1.6-1.3
			v-2.6c-1.1,0.1-2,0.1-2.7,0.3s-1.3,0.3-1.8,0.5c-0.4,0.2-0.8,0.5-0.9,0.7c-0.2,0.3-0.3,0.6-0.3,0.9c0,0.7,0.2,1.1,0.6,1.4
			C41.4,32.8,41.9,33,42.5,33z"/>
		<path class="st1" d="M57.6,15.4c0,0.3-0.1,0.6-0.2,0.9c-0.1,0.3-0.3,0.5-0.5,0.7c-0.2,0.2-0.5,0.4-0.8,0.5s-0.6,0.2-0.9,0.2
			c-0.3,0-0.6-0.1-0.9-0.2s-0.5-0.3-0.7-0.5c-0.2-0.2-0.4-0.5-0.5-0.7c-0.1-0.3-0.2-0.6-0.2-0.9c0-0.3,0.1-0.6,0.2-0.9
			c0.1-0.3,0.3-0.5,0.5-0.8c0.2-0.2,0.5-0.4,0.7-0.5c0.3-0.1,0.6-0.2,0.9-0.2c0.3,0,0.6,0.1,0.9,0.2c0.3,0.1,0.5,0.3,0.8,0.5
			c0.2,0.2,0.4,0.5,0.5,0.8C57.5,14.7,57.6,15,57.6,15.4z M57.1,19.9v15.4h-3.7V19.9H57.1z"/>
		<path class="st1" d="M59.2,19.9h3.1c0.3,0,0.5,0.1,0.7,0.2c0.2,0.1,0.3,0.3,0.4,0.5l3,8.2c0.2,0.5,0.3,1,0.4,1.4s0.2,0.9,0.3,1.4
			c0.1-0.5,0.2-0.9,0.3-1.4s0.3-0.9,0.4-1.4l3-8.2c0.1-0.2,0.2-0.4,0.4-0.5c0.2-0.1,0.4-0.2,0.6-0.2h2.9l-6.1,15.4h-3.4L59.2,19.9z"
			/>
		<path class="st1" d="M82.8,19.6c1,0,1.9,0.2,2.7,0.5c0.8,0.3,1.5,0.8,2.1,1.4c0.6,0.6,1.1,1.3,1.4,2.2c0.3,0.9,0.5,1.9,0.5,3
			c0,0.6-0.1,0.9-0.2,1.1C89.3,27.9,89,28,88.7,28h-9.6c0.1,0.8,0.2,1.5,0.4,2.1c0.2,0.6,0.5,1.1,0.9,1.4c0.4,0.4,0.8,0.7,1.3,0.8
			c0.5,0.2,1,0.3,1.6,0.3c0.6,0,1.1-0.1,1.6-0.2s0.8-0.3,1.1-0.5c0.3-0.2,0.6-0.3,0.9-0.5c0.2-0.1,0.5-0.2,0.7-0.2
			c0.3,0,0.5,0.1,0.7,0.3l1.1,1.4c-0.4,0.5-0.9,0.9-1.4,1.2s-1,0.6-1.6,0.8c-0.6,0.2-1.1,0.3-1.7,0.4c-0.6,0.1-1.1,0.1-1.7,0.1
			c-1.1,0-2.1-0.2-3-0.5s-1.7-0.9-2.4-1.6c-0.7-0.7-1.2-1.6-1.6-2.6s-0.6-2.2-0.6-3.6c0-1.1,0.2-2,0.5-3s0.8-1.7,1.5-2.4
			c0.6-0.7,1.4-1.2,2.3-1.6C80.7,19.8,81.7,19.6,82.8,19.6z M82.9,22.3c-1.1,0-1.9,0.3-2.5,0.9c-0.6,0.6-1,1.5-1.2,2.6h7
			c0-0.5-0.1-0.9-0.2-1.4c-0.1-0.4-0.3-0.8-0.6-1.1c-0.3-0.3-0.6-0.6-1-0.8C84,22.4,83.5,22.3,82.9,22.3z"/>
		<path class="st1" d="M117.9,35.3h-3.1c-0.4,0-0.6-0.1-0.9-0.3c-0.2-0.2-0.4-0.4-0.5-0.7l-1.6-4.4h-9l-1.6,4.4
			c-0.1,0.2-0.2,0.4-0.5,0.6c-0.2,0.2-0.5,0.3-0.9,0.3h-3.2l8.6-21.8h4.1L117.9,35.3z M103.8,27.1h6.9l-2.6-7.2
			c-0.1-0.3-0.3-0.7-0.4-1.1s-0.3-0.9-0.4-1.4c-0.1,0.5-0.3,1-0.4,1.4s-0.3,0.8-0.4,1.2L103.8,27.1z"/>
		<path class="st1" d="M119.5,40.3V19.9h2.3c0.5,0,0.8,0.2,0.9,0.7l0.3,1.4c0.6-0.7,1.3-1.3,2.1-1.7c0.8-0.4,1.8-0.7,2.8-0.7
			c0.8,0,1.6,0.2,2.3,0.5s1.3,0.9,1.8,1.5s0.9,1.5,1.2,2.5c0.3,1,0.4,2.1,0.4,3.4c0,1.2-0.2,2.2-0.5,3.2c-0.3,1-0.8,1.8-1.3,2.6
			c-0.6,0.7-1.3,1.3-2.1,1.7c-0.8,0.4-1.7,0.6-2.7,0.6c-0.9,0-1.6-0.1-2.2-0.4c-0.6-0.3-1.2-0.6-1.6-1.1v6.3H119.5z M126.8,22.5
			c-0.8,0-1.4,0.2-2,0.5c-0.5,0.3-1.1,0.8-1.5,1.4v6.9c0.4,0.5,0.9,0.9,1.4,1.1c0.5,0.2,1,0.3,1.6,0.3c0.6,0,1.1-0.1,1.5-0.3
			c0.5-0.2,0.8-0.5,1.2-1c0.3-0.4,0.6-1,0.7-1.6c0.2-0.7,0.3-1.4,0.3-2.3c0-0.9-0.1-1.7-0.2-2.3s-0.4-1.1-0.6-1.5
			c-0.3-0.4-0.6-0.7-1-0.9C127.7,22.6,127.3,22.5,126.8,22.5z"/>
		<path class="st1" d="M136.6,40.3V19.9h2.3c0.5,0,0.8,0.2,0.9,0.7l0.3,1.4c0.6-0.7,1.3-1.3,2.1-1.7c0.8-0.4,1.8-0.7,2.8-0.7
			c0.8,0,1.6,0.2,2.3,0.5s1.3,0.9,1.8,1.5s0.9,1.5,1.2,2.5c0.3,1,0.4,2.1,0.4,3.4c0,1.2-0.2,2.2-0.5,3.2c-0.3,1-0.8,1.8-1.3,2.6
			c-0.6,0.7-1.3,1.3-2.1,1.7c-0.8,0.4-1.7,0.6-2.7,0.6c-0.9,0-1.6-0.1-2.2-0.4c-0.6-0.3-1.2-0.6-1.6-1.1v6.3H136.6z M143.9,22.5
			c-0.8,0-1.4,0.2-2,0.5c-0.5,0.3-1.1,0.8-1.5,1.4v6.9c0.4,0.5,0.9,0.9,1.4,1.1c0.5,0.2,1,0.3,1.6,0.3c0.6,0,1.1-0.1,1.5-0.3
			c0.5-0.2,0.8-0.5,1.2-1c0.3-0.4,0.6-1,0.7-1.6c0.2-0.7,0.3-1.4,0.3-2.3c0-0.9-0.1-1.7-0.2-2.3s-0.4-1.1-0.6-1.5
			c-0.3-0.4-0.6-0.7-1-0.9C144.8,22.6,144.4,22.5,143.9,22.5z"/>
		<path class="st1" d="M153.7,35.3V19.9h2.2c0.4,0,0.6,0.1,0.8,0.2c0.2,0.1,0.3,0.4,0.3,0.7l0.2,1.7c0.5-0.9,1.1-1.6,1.7-2.2
			c0.7-0.5,1.4-0.8,2.3-0.8c0.7,0,1.3,0.2,1.7,0.5l-0.2,2.8c-0.1,0.2-0.1,0.3-0.2,0.4c-0.1,0.1-0.2,0.1-0.4,0.1
			c-0.2,0-0.4,0-0.7-0.1s-0.6-0.1-0.9-0.1c-0.4,0-0.8,0.1-1.1,0.2c-0.3,0.1-0.6,0.3-0.9,0.5c-0.3,0.2-0.5,0.5-0.7,0.8
			c-0.2,0.3-0.4,0.7-0.5,1.1v9.5H153.7z"/>
		<path class="st1" d="M171.4,19.6c1.1,0,2.2,0.2,3.1,0.6c0.9,0.4,1.7,0.9,2.4,1.6s1.2,1.5,1.5,2.5c0.4,1,0.5,2.1,0.5,3.3
			c0,1.2-0.2,2.3-0.5,3.3c-0.4,1-0.9,1.8-1.5,2.5c-0.7,0.7-1.5,1.2-2.4,1.6c-0.9,0.4-2,0.6-3.1,0.6c-1.2,0-2.2-0.2-3.1-0.6
			s-1.7-0.9-2.4-1.6c-0.7-0.7-1.2-1.5-1.5-2.5c-0.4-1-0.5-2.1-0.5-3.3c0-1.2,0.2-2.3,0.5-3.3c0.4-1,0.9-1.8,1.5-2.5s1.5-1.2,2.4-1.6
			S170.2,19.6,171.4,19.6z M171.4,32.7c1.3,0,2.2-0.4,2.9-1.3c0.6-0.9,0.9-2.1,0.9-3.8c0-1.7-0.3-2.9-0.9-3.8
			c-0.6-0.9-1.6-1.3-2.9-1.3c-1.3,0-2.3,0.4-2.9,1.3s-0.9,2.1-0.9,3.8s0.3,2.9,0.9,3.8S170.1,32.7,171.4,32.7z"/>
		<path class="st1" d="M191.9,35.3c-0.4,0-0.6-0.1-0.8-0.2c-0.2-0.1-0.3-0.3-0.5-0.6l-0.3-1.1c-0.4,0.4-0.8,0.7-1.1,0.9
			c-0.4,0.3-0.8,0.5-1.2,0.7c-0.4,0.2-0.8,0.3-1.3,0.4c-0.5,0.1-1,0.1-1.5,0.1c-0.7,0-1.3-0.1-1.8-0.3s-1-0.4-1.4-0.8
			s-0.7-0.8-0.9-1.3s-0.3-1.1-0.3-1.8c0-0.6,0.2-1.2,0.5-1.7c0.3-0.6,0.8-1.1,1.5-1.5s1.7-0.8,2.8-1.1c1.2-0.3,2.7-0.5,4.4-0.5v-0.9
			c0-1-0.2-1.8-0.7-2.3c-0.4-0.5-1.1-0.7-1.9-0.7c-0.6,0-1.1,0.1-1.5,0.2c-0.4,0.1-0.7,0.3-1,0.5c-0.3,0.2-0.6,0.3-0.8,0.5
			c-0.2,0.1-0.5,0.2-0.8,0.2c-0.3,0-0.5-0.1-0.7-0.2s-0.3-0.3-0.4-0.5l-0.7-1.2c1.8-1.6,3.9-2.4,6.4-2.4c0.9,0,1.7,0.1,2.4,0.4
			c0.7,0.3,1.3,0.7,1.8,1.2c0.5,0.5,0.9,1.2,1.1,1.9c0.3,0.7,0.4,1.5,0.4,2.4v9.8H191.9z M186.4,33c0.8,0,1.4-0.1,2-0.4
			s1.1-0.7,1.6-1.3v-2.6c-1.1,0.1-2,0.1-2.7,0.3s-1.3,0.3-1.8,0.5c-0.4,0.2-0.8,0.5-0.9,0.7c-0.2,0.3-0.3,0.6-0.3,0.9
			c0,0.7,0.2,1.1,0.6,1.4C185.2,32.8,185.7,33,186.4,33z"/>
		<path class="st1" d="M208.1,23.1c-0.1,0.1-0.2,0.3-0.3,0.3c-0.1,0.1-0.3,0.1-0.5,0.1c-0.2,0-0.4-0.1-0.6-0.2
			c-0.2-0.1-0.4-0.2-0.6-0.4c-0.3-0.1-0.5-0.3-0.9-0.4c-0.3-0.1-0.8-0.2-1.3-0.2c-0.7,0-1.2,0.1-1.7,0.4c-0.5,0.2-0.9,0.6-1.2,1
			c-0.3,0.4-0.6,1-0.7,1.6c-0.2,0.6-0.2,1.3-0.2,2.1c0,0.8,0.1,1.6,0.3,2.2c0.2,0.6,0.4,1.2,0.8,1.6s0.7,0.8,1.2,1s1,0.3,1.6,0.3
			s1.1-0.1,1.4-0.2s0.7-0.3,0.9-0.5c0.3-0.2,0.5-0.3,0.7-0.5c0.2-0.1,0.4-0.2,0.6-0.2c0.3,0,0.5,0.1,0.7,0.3l1.1,1.4
			c-0.4,0.5-0.9,0.9-1.3,1.2s-1,0.6-1.5,0.8c-0.5,0.2-1,0.3-1.6,0.4c-0.5,0.1-1.1,0.1-1.6,0.1c-1,0-1.9-0.2-2.7-0.5
			s-1.6-0.9-2.2-1.6s-1.1-1.5-1.5-2.5c-0.4-1-0.5-2.1-0.5-3.4c0-1.1,0.2-2.2,0.5-3.2c0.3-1,0.8-1.8,1.4-2.5c0.6-0.7,1.4-1.3,2.3-1.7
			c0.9-0.4,2-0.6,3.2-0.6c1.2,0,2.2,0.2,3,0.6c0.9,0.4,1.6,0.9,2.3,1.6L208.1,23.1z"/>
		<path class="st1" d="M211.6,35.3V12.9h3.7v8.6c0.6-0.6,1.3-1,2-1.4c0.7-0.4,1.6-0.5,2.5-0.5c0.8,0,1.6,0.1,2.2,0.4
			s1.2,0.7,1.6,1.2c0.4,0.5,0.8,1.1,1,1.9s0.3,1.5,0.3,2.4v9.8h-3.7v-9.8c0-0.9-0.2-1.7-0.6-2.2c-0.4-0.5-1.1-0.8-2-0.8
			c-0.6,0-1.2,0.1-1.8,0.4c-0.6,0.3-1.1,0.7-1.6,1.2v11.2H211.6z"/>
	</g>
	<g>
		<g>
			<g id="Macbook_base_382_">
				<g>
					<path class="st1" d="M192.6,258.7H41.5c-2.6,0-4.7,2.1-4.7,4.7v96.9c0,2.6,2.1,4.7,4.7,4.7h151.1c2.6,0,4.7-2.1,4.7-4.7v-96.9
						C197.3,260.8,195.2,258.7,192.6,258.7z"/>
				</g>
			</g>
			<g id="Macbook_base_380_">
				<g>
					<path class="st8" d="M192.6,258.7H41.5c-2.6,0-4.7,2.1-4.7,4.7v4.5h160.5v-4.5C197.3,260.8,195.2,258.7,192.6,258.7z"/>
				</g>
			</g>
			<g>
				<circle class="st1" cx="42.8" cy="263.3" r="1.4"/>
				<circle class="st1" cx="47.3" cy="263.3" r="1.4"/>
				<circle class="st1" cx="51.9" cy="263.3" r="1.4"/>
			</g>
			<rect x="90.5" y="262" class="st9" width="53.2" height="3.1"/>
		</g>
		<g>
			<path class="st18" d="M119.6,301.4c0,1.4-1.1,2.5-2.5,2.5l0,0c-1.4,0-2.5-1.1-2.5-2.5v-7.5c0-1.4,1.1-2.5,2.5-2.5l0,0
				c1.4,0,2.5,1.1,2.5,2.5V301.4z"/>
			<path class="st10" d="M119.6,338.9c0,1.4-1.1,2.5-2.5,2.5l0,0c-1.4,0-2.5-1.1-2.5-2.5v-7.5c0-1.4,1.1-2.5,2.5-2.5l0,0
				c1.4,0,2.5,1.1,2.5,2.5V338.9z"/>
			<path class="st19" d="M102,313.9c1.4,0,2.5,1.1,2.5,2.5l0,0c0,1.4-1.1,2.5-2.5,2.5h-7.5c-1.4,0-2.5-1.1-2.5-2.5l0,0
				c0-1.4,1.1-2.5,2.5-2.5H102z"/>
			<path class="st20" d="M139.6,313.9c1.4,0,2.5,1.1,2.5,2.5l0,0c0,1.4-1.1,2.5-2.5,2.5h-7.5c-1.4,0-2.5-1.1-2.5-2.5l0,0
				c0-1.4,1.1-2.5,2.5-2.5H139.6z"/>
			<path class="st21" d="M102.8,321.7c1.2-0.7,2.7-0.3,3.4,0.9l0,0c0.7,1.2,0.3,2.7-0.9,3.4l-6.5,3.8c-1.2,0.7-2.7,0.3-3.4-0.9l0,0
				c-0.7-1.2-0.3-2.7,0.9-3.4L102.8,321.7z"/>
			<path class="st22" d="M135.3,302.9c1.2-0.7,2.7-0.3,3.4,0.9l0,0c0.7,1.2,0.3,2.7-0.9,3.4l-6.5,3.8c-1.2,0.7-2.7,0.3-3.4-0.9l0,0
				c-0.7-1.2-0.3-2.7,0.9-3.4L135.3,302.9z"/>
			<path class="st23" d="M122.4,330.6c-0.7-1.2-0.3-2.7,0.9-3.4l0,0c1.2-0.7,2.7-0.3,3.4,0.9l3.8,6.5c0.7,1.2,0.3,2.7-0.9,3.4l0,0
				c-1.2,0.7-2.7,0.3-3.4-0.9L122.4,330.6z"/>
			<path class="st24" d="M103.6,298.1c-0.7-1.2-0.3-2.7,0.9-3.4l0,0c1.2-0.7,2.7-0.3,3.4,0.9l3.8,6.5c0.7,1.2,0.3,2.7-0.9,3.4l0,0
				c-1.2,0.7-2.7,0.3-3.4-0.9L103.6,298.1z"/>
			<path class="st25" d="M107.4,328.1c0.7-1.2,2.2-1.6,3.4-0.9l0,0c1.2,0.7,1.6,2.2,0.9,3.4l-3.8,6.5c-0.7,1.2-2.2,1.6-3.4,0.9l0,0
				c-1.2-0.7-1.6-2.2-0.9-3.4L107.4,328.1z"/>
			<path class="st26" d="M126.1,295.6c0.7-1.2,2.2-1.6,3.4-0.9l0,0c1.2,0.7,1.6,2.2,0.9,3.4l-3.8,6.5c-0.7,1.2-2.2,1.6-3.4,0.9l0,0
				c-1.2-0.7-1.6-2.2-0.9-3.4L126.1,295.6z"/>
			<path class="st27" d="M128.8,326c-1.2-0.7-1.6-2.2-0.9-3.4l0,0c0.7-1.2,2.2-1.6,3.4-0.9l6.5,3.8c1.2,0.7,1.6,2.2,0.9,3.4l0,0
				c-0.7,1.2-2.2,1.6-3.4,0.9L128.8,326z"/>
			<path class="st28" d="M96.3,307.3c-1.2-0.7-1.6-2.2-0.9-3.4l0,0c0.7-1.2,2.2-1.6,3.4-0.9l6.5,3.8c1.2,0.7,1.6,2.2,0.9,3.4l0,0
				c-0.7,1.2-2.2,1.6-3.4,0.9L96.3,307.3z"/>
		</g>
	</g>
	<g>
		<g>
			<g>
				<g id="Macbook_base_378_">
					<g>
						<path class="st1" d="M192.6,572.3H41.5c-2.6,0-4.7,2.1-4.7,4.7v96.9c0,2.6,2.1,4.7,4.7,4.7h151.1c2.6,0,4.7-2.1,4.7-4.7V577
							C197.3,574.4,195.2,572.3,192.6,572.3z"/>
					</g>
				</g>
				<g id="Macbook_base_376_">
					<g>
						<path class="st8" d="M192.6,572.3H41.5c-2.6,0-4.7,2.1-4.7,4.7v4.5h160.5V577C197.3,574.4,195.2,572.3,192.6,572.3z"/>
					</g>
				</g>
				<g>
					<circle class="st1" cx="42.8" cy="576.9" r="1.4"/>
					<circle class="st1" cx="47.3" cy="576.9" r="1.4"/>
					<circle class="st1" cx="51.9" cy="576.9" r="1.4"/>
				</g>
				<rect x="90.5" y="575.6" class="st9" width="53.2" height="3.1"/>
			</g>
			<g>
				<g>
					<g id="Macbook_base_374_">
						<g>
							<rect x="111.6" y="630.8" class="st29" width="59.4" height="4.1"/>
						</g>
					</g>
				</g>
				<path class="st29" d="M65.4,656.2h33c1.4,0,2.5-1.1,2.5-2.5v-52.3c0-1.4-1.1-2.5-2.5-2.5h-33c-1.4,0-2.5,1.1-2.5,2.5v52.3
					C62.9,655.1,64,656.2,65.4,656.2z"/>
				<g>
					<path class="st18" d="M122.7,641.1c0,0.5-0.4,1-1,1l0,0c-0.5,0-1-0.4-1-1v-2.9c0-0.5,0.4-1,1-1l0,0c0.5,0,1,0.4,1,1V641.1z"/>
					<path class="st10" d="M122.7,655.6c0,0.5-0.4,1-1,1l0,0c-0.5,0-1-0.4-1-1v-2.9c0-0.5,0.4-1,1-1l0,0c0.5,0,1,0.4,1,1V655.6z"/>
					<path class="st19" d="M116,645.9c0.5,0,1,0.4,1,1l0,0c0,0.5-0.4,1-1,1h-2.9c-0.5,0-1-0.4-1-1l0,0c0-0.5,0.4-1,1-1H116z"/>
					<path class="st20" d="M130.4,645.9c0.5,0,1,0.4,1,1l0,0c0,0.5-0.4,1-1,1h-2.9c-0.5,0-1-0.4-1-1l0,0c0-0.5,0.4-1,1-1H130.4z"/>
					<path class="st21" d="M116.3,649c0.5-0.3,1-0.1,1.3,0.4l0,0c0.3,0.5,0.1,1-0.4,1.3l-2.5,1.4c-0.5,0.3-1,0.1-1.3-0.4l0,0
						c-0.3-0.5-0.1-1,0.4-1.3L116.3,649z"/>
					<path class="st22" d="M128.7,641.7c0.5-0.3,1-0.1,1.3,0.4l0,0c0.3,0.5,0.1,1-0.4,1.3l-2.5,1.4c-0.5,0.3-1,0.1-1.3-0.4l0,0
						c-0.3-0.5-0.1-1,0.4-1.3L128.7,641.7z"/>
					<path class="st23" d="M123.8,652.4c-0.3-0.5-0.1-1,0.4-1.3l0,0c0.5-0.3,1-0.1,1.3,0.4l1.4,2.5c0.3,0.5,0.1,1-0.4,1.3l0,0
						c-0.5,0.3-1,0.1-1.3-0.4L123.8,652.4z"/>
					<path class="st24" d="M116.6,639.9c-0.3-0.5-0.1-1,0.4-1.3l0,0c0.5-0.3,1-0.1,1.3,0.4l1.4,2.5c0.3,0.5,0.1,1-0.4,1.3l0,0
						c-0.5,0.3-1,0.1-1.3-0.4L116.6,639.9z"/>
					<path class="st25" d="M118,651.4c0.3-0.5,0.9-0.6,1.3-0.4l0,0c0.5,0.3,0.6,0.9,0.4,1.3l-1.4,2.5c-0.3,0.5-0.9,0.6-1.3,0.4l0,0
						c-0.5-0.3-0.6-0.9-0.4-1.3L118,651.4z"/>
					<path class="st26" d="M125.2,638.9c0.3-0.5,0.9-0.6,1.3-0.4l0,0c0.5,0.3,0.6,0.9,0.4,1.3l-1.4,2.5c-0.3,0.5-0.9,0.6-1.3,0.4
						l0,0c-0.5-0.3-0.6-0.9-0.4-1.3L125.2,638.9z"/>
					<path class="st27" d="M126.2,650.6c-0.5-0.3-0.6-0.9-0.4-1.3l0,0c0.3-0.5,0.9-0.6,1.3-0.4l2.5,1.4c0.5,0.3,0.6,0.9,0.4,1.3l0,0
						c-0.3,0.5-0.9,0.6-1.3,0.4L126.2,650.6z"/>
					<path class="st28" d="M113.7,643.4c-0.5-0.3-0.6-0.9-0.4-1.3l0,0c0.3-0.5,0.9-0.6,1.3-0.4l2.5,1.4c0.5,0.3,0.6,0.9,0.4,1.3l0,0
						c-0.3,0.5-0.9,0.6-1.3,0.4L113.7,643.4z"/>
				</g>
				<g>
					<g id="Macbook_base_372_">
						<g>
							<rect x="111.6" y="599" class="st29" width="59.4" height="4.1"/>
						</g>
					</g>
				</g>
				<g>
					<path class="st18" d="M122.7,609.3c0,0.5-0.4,1-1,1l0,0c-0.5,0-1-0.4-1-1v-2.9c0-0.5,0.4-1,1-1l0,0c0.5,0,1,0.4,1,1V609.3z"/>
					<path class="st10" d="M122.7,623.7c0,0.5-0.4,1-1,1l0,0c-0.5,0-1-0.4-1-1v-2.9c0-0.5,0.4-1,1-1l0,0c0.5,0,1,0.4,1,1V623.7z"/>
					<path class="st19" d="M116,614.1c0.5,0,1,0.4,1,1l0,0c0,0.5-0.4,1-1,1h-2.9c-0.5,0-1-0.4-1-1l0,0c0-0.5,0.4-1,1-1H116z"/>
					<path class="st20" d="M130.4,614.1c0.5,0,1,0.4,1,1l0,0c0,0.5-0.4,1-1,1h-2.9c-0.5,0-1-0.4-1-1l0,0c0-0.5,0.4-1,1-1H130.4z"/>
					<path class="st21" d="M116.3,617.1c0.5-0.3,1-0.1,1.3,0.4l0,0c0.3,0.5,0.1,1-0.4,1.3l-2.5,1.4c-0.5,0.3-1,0.1-1.3-0.4l0,0
						c-0.3-0.5-0.1-1,0.4-1.3L116.3,617.1z"/>
					<path class="st22" d="M128.7,609.9c0.5-0.3,1-0.1,1.3,0.4l0,0c0.3,0.5,0.1,1-0.4,1.3l-2.5,1.4c-0.5,0.3-1,0.1-1.3-0.4l0,0
						c-0.3-0.5-0.1-1,0.4-1.3L128.7,609.9z"/>
					<path class="st23" d="M123.8,620.5c-0.3-0.5-0.1-1,0.4-1.3l0,0c0.5-0.3,1-0.1,1.3,0.4l1.4,2.5c0.3,0.5,0.1,1-0.4,1.3l0,0
						c-0.5,0.3-1,0.1-1.3-0.4L123.8,620.5z"/>
					<path class="st24" d="M116.6,608c-0.3-0.5-0.1-1,0.4-1.3l0,0c0.5-0.3,1-0.1,1.3,0.4l1.4,2.5c0.3,0.5,0.1,1-0.4,1.3l0,0
						c-0.5,0.3-1,0.1-1.3-0.4L116.6,608z"/>
					<path class="st25" d="M118,619.5c0.3-0.5,0.9-0.6,1.3-0.4l0,0c0.5,0.3,0.6,0.9,0.4,1.3l-1.4,2.5c-0.3,0.5-0.9,0.6-1.3,0.4l0,0
						c-0.5-0.3-0.6-0.9-0.4-1.3L118,619.5z"/>
					<path class="st26" d="M125.2,607.1c0.3-0.5,0.9-0.6,1.3-0.4l0,0c0.5,0.3,0.6,0.9,0.4,1.3l-1.4,2.5c-0.3,0.5-0.9,0.6-1.3,0.4
						l0,0c-0.5-0.3-0.6-0.9-0.4-1.3L125.2,607.1z"/>
					<path class="st27" d="M126.2,618.7c-0.5-0.3-0.6-0.9-0.4-1.3l0,0c0.3-0.5,0.9-0.6,1.3-0.4l2.5,1.4c0.5,0.3,0.6,0.9,0.4,1.3l0,0
						c-0.3,0.5-0.9,0.6-1.3,0.4L126.2,618.7z"/>
					<path class="st28" d="M113.7,611.5c-0.5-0.3-0.6-0.9-0.4-1.3l0,0c0.3-0.5,0.9-0.6,1.3-0.4l2.5,1.4c0.5,0.3,0.6,0.9,0.4,1.3l0,0
						c-0.3,0.5-0.9,0.6-1.3,0.4L113.7,611.5z"/>
				</g>
			</g>
		</g>
		<g id="Macbook_base_370_">
			<g>
				<rect x="36.8" y="581.3" class="st29" width="160.5" height="9.2"/>
			</g>
		</g>
	</g>
	<g>
		<g>
			<g>
				<g id="Macbook_base_368_">
					<g>
						<path class="st1" d="M192.6,763H41.5c-2.6,0-4.7,2.1-4.7,4.7v96.9c0,2.6,2.1,4.7,4.7,4.7h151.1c2.6,0,4.7-2.1,4.7-4.7v-96.9
							C197.3,765.1,195.2,763,192.6,763z"/>
					</g>
				</g>
				<g id="Macbook_base_366_">
					<g>
						<path class="st8" d="M192.6,763H41.5c-2.6,0-4.7,2.1-4.7,4.7v4.5h160.5v-4.5C197.3,765.1,195.2,763,192.6,763z"/>
					</g>
				</g>
				<g>
					<circle class="st1" cx="42.8" cy="767.6" r="1.4"/>
					<circle class="st1" cx="47.3" cy="767.6" r="1.4"/>
					<circle class="st1" cx="51.9" cy="767.6" r="1.4"/>
				</g>
				<rect x="90.5" y="766.3" class="st9" width="53.2" height="3.1"/>
			</g>
			<g>
				<g>
					<g id="Macbook_base_364_">
						<g>
							<rect x="111.5" y="794.4" class="st29" width="59.4" height="4.1"/>
						</g>
					</g>
				</g>
				<g>
					<g id="Macbook_base_362_">
						<g>
							<rect x="123.9" y="803.4" class="st10" width="33.8" height="3.2"/>
						</g>
					</g>
					<circle class="st11" cx="117.8" cy="805.1" r="3.6"/>
				</g>
				<g>
					<g id="Macbook_base_360_">
						<g>
							<rect x="123.9" y="812.7" class="st10" width="33.8" height="3.2"/>
						</g>
					</g>
					<circle class="st11" cx="117.8" cy="814.4" r="3.6"/>
				</g>
				<g>
					<g id="Macbook_base_358_">
						<g>
							<rect x="111.5" y="828.6" class="st29" width="59.4" height="4.1"/>
						</g>
					</g>
				</g>
				<g>
					<g id="Macbook_base_356_">
						<g>
							<rect x="123.9" y="837.5" class="st10" width="33.8" height="3.2"/>
						</g>
					</g>
					<circle class="st12" cx="117.8" cy="839.2" r="3.6"/>
				</g>
				<g>
					<g id="Macbook_base_354_">
						<g>
							<rect x="123.9" y="846.8" class="st10" width="33.8" height="3.2"/>
						</g>
					</g>
					<circle class="st12" cx="117.8" cy="848.5" r="3.6"/>
				</g>
				<path class="st29" d="M65.4,851.7h33c1.4,0,2.5-1.1,2.5-2.5V797c0-1.4-1.1-2.5-2.5-2.5h-33c-1.4,0-2.5,1.1-2.5,2.5v52.3
					C62.9,850.6,64,851.7,65.4,851.7z"/>
			</g>
		</g>
		<g id="Macbook_base_352_">
			<g>
				<rect x="36.8" y="772" class="st29" width="160.5" height="9.2"/>
			</g>
		</g>
	</g>
	<g>
		<g>
			<g id="Macbook_base_350_">
				<g>
					<path class="st1" d="M192.6,71.1H41.5c-2.6,0-4.7,2.1-4.7,4.7v96.9c0,2.6,2.1,4.7,4.7,4.7h151.1c2.6,0,4.7-2.1,4.7-4.7V75.8
						C197.3,73.2,195.2,71.1,192.6,71.1z"/>
				</g>
			</g>
			<g id="Macbook_base_348_">
				<g>
					<path class="st8" d="M192.6,71.1H41.5c-2.6,0-4.7,2.1-4.7,4.7v4.5h160.5v-4.5C197.3,73.2,195.2,71.1,192.6,71.1z"/>
				</g>
			</g>
			<g>
				<circle class="st1" cx="42.8" cy="75.7" r="1.4"/>
				<circle class="st1" cx="47.3" cy="75.7" r="1.4"/>
				<circle class="st1" cx="51.9" cy="75.7" r="1.4"/>
			</g>
			<rect x="90.5" y="74.4" class="st9" width="53.2" height="3.1"/>
		</g>
		<g>
			<path class="st9" d="M101.2,117.6c-0.1,0.2-0.2,0.3-0.3,0.4c-0.1,0.1-0.2,0.1-0.4,0.1c-0.2,0-0.4-0.1-0.6-0.3s-0.5-0.4-0.9-0.6
				c-0.4-0.2-0.8-0.4-1.3-0.6s-1.1-0.3-1.8-0.3c-0.7,0-1.3,0.1-1.8,0.3s-0.9,0.4-1.3,0.7c-0.3,0.3-0.6,0.7-0.8,1.1
				c-0.2,0.4-0.3,0.9-0.3,1.4c0,0.6,0.2,1.1,0.5,1.6c0.3,0.4,0.7,0.8,1.2,1.1c0.5,0.3,1.1,0.5,1.7,0.8c0.6,0.2,1.3,0.4,2,0.7
				c0.7,0.2,1.3,0.5,2,0.8c0.6,0.3,1.2,0.6,1.7,1.1s0.9,1,1.2,1.6c0.3,0.6,0.5,1.4,0.5,2.3c0,1-0.2,1.9-0.5,2.8
				c-0.3,0.9-0.8,1.6-1.5,2.2c-0.6,0.6-1.4,1.1-2.4,1.5c-0.9,0.4-2,0.5-3.2,0.5c-1.5,0-2.8-0.3-4-0.8c-1.2-0.5-2.2-1.2-3-2.1
				l0.9-1.4c0.1-0.1,0.2-0.2,0.3-0.3c0.1-0.1,0.3-0.1,0.4-0.1c0.1,0,0.3,0.1,0.5,0.2c0.2,0.1,0.4,0.2,0.6,0.4
				c0.2,0.2,0.5,0.3,0.7,0.5c0.3,0.2,0.6,0.4,1,0.5c0.4,0.2,0.8,0.3,1.2,0.4c0.5,0.1,1,0.2,1.5,0.2c0.7,0,1.4-0.1,1.9-0.3
				c0.6-0.2,1-0.5,1.4-0.8c0.4-0.4,0.7-0.8,0.9-1.3s0.3-1.1,0.3-1.7c0-0.7-0.2-1.2-0.5-1.7c-0.3-0.4-0.7-0.8-1.2-1.1
				s-1.1-0.5-1.7-0.7s-1.3-0.4-2-0.6c-0.7-0.2-1.3-0.5-2-0.7s-1.2-0.6-1.7-1.1c-0.5-0.4-0.9-1-1.2-1.7c-0.3-0.7-0.5-1.5-0.5-2.5
				c0-0.8,0.2-1.6,0.5-2.3c0.3-0.7,0.8-1.4,1.3-2c0.6-0.6,1.3-1,2.2-1.4c0.9-0.3,1.8-0.5,3-0.5c1.2,0,2.4,0.2,3.4,0.6
				c1,0.4,1.9,1,2.7,1.7L101.2,117.6z"/>
			<path class="st9" d="M110.2,136.7c-1.2,0-2.2-0.3-2.9-1c-0.7-0.7-1-1.7-1-3V123h-1.9c-0.2,0-0.3,0-0.4-0.1
				c-0.1-0.1-0.2-0.3-0.2-0.5v-1.1l2.6-0.3l0.6-4.9c0-0.2,0.1-0.3,0.2-0.4c0.1-0.1,0.3-0.1,0.4-0.1h1.4v5.4h4.6v2h-4.6v9.5
				c0,0.7,0.2,1.2,0.5,1.5c0.3,0.3,0.7,0.5,1.2,0.5c0.3,0,0.5,0,0.8-0.1c0.2-0.1,0.4-0.2,0.6-0.3c0.2-0.1,0.3-0.2,0.4-0.3
				s0.2-0.1,0.3-0.1c0.1,0,0.3,0.1,0.4,0.3l0.8,1.3c-0.5,0.4-1.1,0.8-1.7,1.1C111.6,136.6,110.9,136.7,110.2,136.7z"/>
			<path class="st9" d="M126.5,136.5c-0.3,0-0.5,0-0.6-0.1s-0.3-0.3-0.3-0.5l-0.3-1.5c-0.4,0.4-0.8,0.7-1.2,1s-0.8,0.5-1.2,0.7
				s-0.9,0.4-1.4,0.5c-0.5,0.1-1,0.2-1.6,0.2c-0.6,0-1.2-0.1-1.7-0.3c-0.5-0.2-1-0.4-1.4-0.8c-0.4-0.3-0.7-0.8-1-1.3
				c-0.2-0.5-0.4-1.1-0.4-1.9c0-0.6,0.2-1.2,0.5-1.8c0.3-0.6,0.9-1.1,1.7-1.5c0.8-0.4,1.8-0.8,3-1.1c1.2-0.3,2.8-0.4,4.6-0.5v-1.2
				c0-1.2-0.3-2.2-0.8-2.8c-0.5-0.6-1.3-0.9-2.3-0.9c-0.7,0-1.3,0.1-1.7,0.3c-0.5,0.2-0.9,0.4-1.2,0.6c-0.3,0.2-0.6,0.4-0.9,0.6
				c-0.2,0.2-0.5,0.3-0.7,0.3c-0.2,0-0.3,0-0.5-0.1c-0.1-0.1-0.2-0.2-0.3-0.4l-0.5-0.9c0.9-0.8,1.8-1.5,2.8-1.9
				c1-0.4,2.1-0.6,3.4-0.6c0.9,0,1.7,0.1,2.4,0.4c0.7,0.3,1.3,0.7,1.7,1.2c0.5,0.5,0.8,1.1,1.1,1.9c0.2,0.7,0.4,1.5,0.4,2.4v10.1
				H126.5z M120.6,134.8c0.5,0,0.9,0,1.3-0.1c0.4-0.1,0.8-0.2,1.1-0.4c0.4-0.2,0.7-0.4,1-0.7s0.6-0.6,1-0.9v-3.3
				c-1.3,0-2.4,0.1-3.3,0.3s-1.6,0.4-2.2,0.6s-1,0.6-1.2,0.9c-0.3,0.4-0.4,0.7-0.4,1.2c0,0.4,0.1,0.8,0.2,1.1
				c0.1,0.3,0.3,0.5,0.6,0.7c0.2,0.2,0.5,0.3,0.8,0.4C119.9,134.7,120.2,134.8,120.6,134.8z"/>
			<path class="st9" d="M132,136.5v-15.8h1.6c0.3,0,0.5,0.1,0.6,0.2c0.1,0.1,0.2,0.3,0.2,0.6l0.2,2.4c0.5-1.1,1.1-1.9,1.8-2.5
				s1.6-0.9,2.7-0.9c0.3,0,0.7,0,1,0.1s0.6,0.2,0.8,0.3l-0.2,2.1c-0.1,0.3-0.2,0.4-0.5,0.4c-0.1,0-0.4,0-0.6-0.1
				c-0.3-0.1-0.6-0.1-1-0.1c-0.5,0-0.9,0.1-1.3,0.2c-0.4,0.2-0.7,0.4-1.1,0.7c-0.3,0.3-0.6,0.6-0.8,1.1c-0.2,0.4-0.5,0.9-0.7,1.4v10
				H132z"/>
			<path class="st9" d="M148.2,136.7c-1.2,0-2.2-0.3-2.9-1c-0.7-0.7-1-1.7-1-3V123h-1.9c-0.2,0-0.3,0-0.4-0.1
				c-0.1-0.1-0.2-0.3-0.2-0.5v-1.1l2.6-0.3l0.6-4.9c0-0.2,0.1-0.3,0.2-0.4c0.1-0.1,0.3-0.1,0.4-0.1h1.4v5.4h4.6v2h-4.6v9.5
				c0,0.7,0.2,1.2,0.5,1.5c0.3,0.3,0.7,0.5,1.2,0.5c0.3,0,0.5,0,0.8-0.1c0.2-0.1,0.4-0.2,0.6-0.3c0.2-0.1,0.3-0.2,0.4-0.3
				s0.2-0.1,0.3-0.1c0.1,0,0.3,0.1,0.4,0.3l0.8,1.3c-0.5,0.4-1.1,0.8-1.7,1.1C149.6,136.6,148.9,136.7,148.2,136.7z"/>
		</g>
	</g>
	<g>
		<path class="st75" d="M120.9,735.4c-0.4-0.4-1.1-0.3-1.4,0.1l-3.7,4.4v-9.1l-1,0.6l-1-0.6v9.1l-3.7-4.4c-0.4-0.4-1-0.5-1.4-0.1
			c-0.4,0.4-0.5,1-0.1,1.4l5.5,6.5c0.2,0.2,0.5,0.4,0.8,0.4s0.6-0.1,0.8-0.4l5.5-6.5C121.4,736.4,121.3,735.7,120.9,735.4z"/>
		<path class="st1" d="M126.7,708.5C126.7,708.5,126.7,708.6,126.7,708.5C126.7,708.6,126.7,708.5,126.7,708.5z"/>
		<path class="st1" d="M126.5,708.3C126.5,708.3,126.6,708.3,126.5,708.3C126.6,708.3,126.5,708.3,126.5,708.3z"/>
		<path class="st1" d="M126.3,708.1c0,0,0.1,0.1,0.1,0.1C126.4,708.1,126.4,708.1,126.3,708.1z"/>
		<polygon class="st1" points="126.2,708 126.2,708 126.2,708 		"/>
		<path class="st1" d="M114.3,728.8c0,0,0.1,0,0.1,0C114.4,728.9,114.3,728.9,114.3,728.8C114.3,728.8,114.3,728.8,114.3,728.8z"/>
		<path class="st1" d="M114.8,729C114.8,729,114.8,729,114.8,729C114.8,729,114.8,729,114.8,729L114.8,729z"/>
		<path class="st1" d="M114.7,729c-0.1,0-0.1,0-0.2,0C114.6,729,114.7,729,114.7,729z"/>
		<path class="st1" d="M115.2,728.9c0,0-0.1,0-0.1,0C115.1,728.9,115.1,728.9,115.2,728.9z"/>
		<path class="st1" d="M103.1,708.2c0,0,0.1-0.1,0.1-0.1C103.2,708.1,103.2,708.1,103.1,708.2z"/>
		<polygon class="st1" points="103.3,708 103.3,708 103.3,708 		"/>
		<path class="st1" d="M103,708.4C103,708.3,103,708.3,103,708.4C103,708.3,103,708.3,103,708.4z"/>
		<path class="st1" d="M102.9,708.6C102.9,708.6,102.9,708.5,102.9,708.6C102.9,708.5,102.9,708.6,102.9,708.6z"/>
		<path class="st1" d="M126.7,708.6C126.7,708.6,126.7,708.5,126.7,708.6c-0.1-0.1-0.1-0.2-0.1-0.2c0,0,0-0.1-0.1-0.1
			c0,0-0.1-0.1-0.1-0.1c0,0-0.1-0.1-0.1-0.1c0,0-0.1-0.1-0.1-0.1l0,0l0,0l-8.9-5.3v2.3l6.5,3.9l-2,1.2l-7,4.2l-7-4.2l-2-1.2l6.5-3.9
			v-2.3l-8.9,5.3l0,0l0,0c0,0-0.1,0-0.1,0.1c0,0-0.1,0.1-0.1,0.1c0,0-0.1,0.1-0.1,0.1c0,0-0.1,0.1-0.1,0.1c0,0,0,0.1-0.1,0.1
			c0,0,0,0.1,0,0.1c0,0.1,0,0.2,0,0.3v12.6c0,0.4,0.2,0.7,0.5,0.9l10.9,6.5c0,0,0,0,0,0c0,0,0.1,0,0.1,0.1c0,0,0.1,0,0.1,0
			c0.1,0,0.1,0,0.2,0c0,0,0,0,0.1,0h0c0,0,0,0,0.1,0c0.1,0,0.1,0,0.2,0c0,0,0.1,0,0.1,0c0,0,0.1,0,0.1,0c0,0,0,0,0,0c0,0,0,0,0,0
			l10.9-6.5c0.3-0.2,0.5-0.5,0.5-0.9v-12.6C126.7,708.8,126.7,708.7,126.7,708.6z M113.8,723.9v2.3l-8.9-5.3v-10.3l2,1.2l6.9,4.1
			V723.9z M124.7,720.9l-8.9,5.3v-2.3v-7.9l6.9-4.1l2-1.2V720.9z"/>
		<path class="st75" d="M114.8,692.9c-0.6,0-1,0.4-1,1v13.5v0.7c0,0.6,0.4,1,1,1s1-0.4,1-1v-0.7v-13.5
			C115.8,693.4,115.3,692.9,114.8,692.9z"/>
	</g>
	<g>
		<g class="st13">
			<path class="st1" d="M119.8,533l-2.1,2.5c-0.1,0-0.2-0.1-0.4-0.1h0c-0.1,0-0.2,0-0.3,0.1L115,533c-0.4-0.5-1.1-0.5-1.6-0.1
				c-0.5,0.4-0.5,1.1-0.1,1.6l3.3,3.9c0,0,0,0,0.1,0.1c0,0,0,0,0,0c0.1,0.1,0.2,0.2,0.3,0.2c0,0,0,0,0,0c0.1,0,0.3,0.1,0.4,0.1l0,0
				h0l0,0c0.1,0,0.3,0,0.4-0.1c0,0,0,0,0,0c0.1-0.1,0.2-0.1,0.3-0.2c0,0,0,0,0.1-0.1c0,0,0,0,0,0l3.3-3.9c0.4-0.5,0.3-1.2-0.1-1.6
				C120.9,532.5,120.2,532.5,119.8,533z"/>
			<path class="st1" d="M117.3,529.6c0.6,0,1.1-0.5,1.1-1.1l0-2.2c0-0.6-0.5-1.1-1.1-1.1c-0.6,0-1.1,0.5-1.1,1.1l0,2.2
				C116.2,529.1,116.7,529.6,117.3,529.6L117.3,529.6z"/>
			<path class="st1" d="M117.4,534.7L117.4,534.7c0.6,0,1.1-0.5,1.1-1.1l0-2.2c0-0.6-0.5-1.1-1.1-1.1h0c-0.6,0-1.1,0.5-1.1,1.1
				l0,2.2C116.3,534.2,116.8,534.7,117.4,534.7z"/>
			<path class="st1" d="M114.2,523c0.4,0,0.7-0.2,0.9-0.5c0.1,0.4,0.5,0.7,0.9,0.8l0.2,0l0,0.2c0,0.6,0.5,1.1,1.1,1.1h0
				c0.6,0,1.1-0.5,1.1-1.1l0-1.1c0-0.5-0.4-1-1-1.1l-1.1-0.2c-0.4-0.1-0.8,0.1-1.1,0.5c-0.1-0.4-0.5-0.7-0.9-0.8l-1.5-0.2
				c-0.4-0.1-0.8,0.1-1.1,0.5c-0.1-0.2-0.2-0.3-0.3-0.5c0-0.3-0.1-0.7-0.3-1c-0.4-0.4-1.1-0.4-1.6,0l-0.8,0.8
				c-0.3,0.3-0.4,0.7-0.2,1.1c0.1,0.4,0.5,0.7,0.9,0.7l1.1,0.2c0.1,0,0.1,0,0.2,0c0.4,0,0.7-0.2,0.9-0.5c0.1,0.4,0.5,0.7,0.9,0.8
				l1.5,0.2C114.1,523,114.1,523,114.2,523z"/>
			<path class="st1" d="M119,512.5c0.3,0,0.6-0.1,0.8-0.3l1.4-1.5c0.4-0.4,0.4-1.1,0-1.6c-0.4-0.4-1.1-0.4-1.6,0l-1.4,1.5
				c-0.4,0.4-0.4,1.1,0,1.6C118.5,512.4,118.8,512.5,119,512.5z"/>
			<path class="st1" d="M133.1,495.1l-1.4,1.5c-0.4,0.4-0.4,1.1,0,1.6c0.2,0.2,0.5,0.3,0.8,0.3c0.3,0,0.6-0.1,0.8-0.3l1.4-1.5
				c0.4-0.4,0.4-1.1,0-1.6C134.3,494.6,133.6,494.6,133.1,495.1z"/>
			<path class="st1" d="M123,505.6l-1.4,1.5c-0.4,0.4-0.4,1.1,0,1.6c0.2,0.2,0.5,0.3,0.8,0.3c0.3,0,0.6-0.1,0.8-0.3l1.4-1.5
				c0.4-0.4,0.4-1.1,0-1.6C124.2,505.2,123.5,505.2,123,505.6z"/>
			<path class="st1" d="M126.4,502.1l-1.4,1.5c-0.4,0.4-0.4,1.1,0,1.6c0.2,0.2,0.5,0.3,0.8,0.3c0.3,0,0.6-0.1,0.8-0.3l1.4-1.5
				c0.4-0.4,0.4-1.1,0-1.6C127.5,501.6,126.8,501.7,126.4,502.1z"/>
			<path class="st1" d="M129.8,498.6l-1.4,1.5c-0.4,0.4-0.4,1.1,0,1.6c0.2,0.2,0.5,0.3,0.8,0.3c0.3,0,0.6-0.1,0.8-0.3l1.4-1.5
				c0.4-0.4,0.4-1.1,0-1.6C130.9,498.1,130.2,498.2,129.8,498.6z"/>
			<path class="st1" d="M116.3,512.6l-1.4,1.5c-0.4,0.4-0.4,1.1,0,1.6c0.2,0.2,0.5,0.3,0.8,0.3c0.3,0,0.6-0.1,0.8-0.3l1.4-1.5
				c0.4-0.4,0.4-1.1,0-1.6C117.4,512.2,116.7,512.2,116.3,512.6z"/>
			<path class="st1" d="M111.5,517.6c-0.4,0.4-0.4,1.1,0,1.6c0.2,0.2,0.5,0.3,0.8,0.3c0.3,0,0.6-0.1,0.8-0.3l1.4-1.5
				c0.4-0.4,0.4-1.1,0-1.6c-0.4-0.4-1.1-0.4-1.6,0L111.5,517.6z"/>
			<path class="st1" d="M137.6,492.6c-0.2-0.4-0.6-0.7-1-0.7h-1.1c-0.6,0-1.1,0.5-1.1,1.1c0,0.3,0.1,0.6,0.3,0.8
				c0,0.3,0.1,0.6,0.3,0.8c0.2,0.2,0.5,0.3,0.8,0.3c0.3,0,0.6-0.1,0.8-0.3l0.8-0.8C137.7,493.5,137.8,493,137.6,492.6z"/>
			<path class="st1" d="M119.7,494.2h2.3c0.6,0,1.1-0.5,1.1-1.1c0-0.6-0.5-1.1-1.1-1.1h-2.3c-0.6,0-1.1,0.5-1.1,1.1
				C118.6,493.7,119.1,494.2,119.7,494.2z"/>
			<path class="st1" d="M103.8,494.2h2.3c0.6,0,1.1-0.5,1.1-1.1c0-0.6-0.5-1.1-1.1-1.1h-2.3c-0.6,0-1.1,0.5-1.1,1.1
				C102.7,493.7,103.2,494.2,103.8,494.2z"/>
			<path class="st1" d="M125,494.2h2.3c0.6,0,1.1-0.5,1.1-1.1c0-0.6-0.5-1.1-1.1-1.1H125c-0.6,0-1.1,0.5-1.1,1.1
				C123.8,493.7,124.3,494.2,125,494.2z"/>
			<path class="st1" d="M114.4,494.2h0.2c0.1,0.5,0.5,0.9,1.1,0.9c0.6,0,1-0.4,1.1-1c0.6-0.1,1-0.5,1-1.1c0-0.6-0.4-1-1-1.1v-0.3
				c0-0.6-0.5-1.1-1.1-1.1c-0.6,0-1.1,0.5-1.1,1.1v0.2h-0.2c-0.6,0-1.1,0.5-1.1,1.1C113.3,493.7,113.8,494.2,114.4,494.2z"/>
			<path class="st1" d="M109.1,494.2h2.3c0.6,0,1.1-0.5,1.1-1.1c0-0.6-0.5-1.1-1.1-1.1h-2.3c-0.6,0-1.1,0.5-1.1,1.1
				C108,493.7,108.5,494.2,109.1,494.2z"/>
			<path class="st1" d="M130.2,494.2h2.3c0.6,0,1.1-0.5,1.1-1.1c0-0.6-0.5-1.1-1.1-1.1h-2.3c-0.6,0-1.1,0.5-1.1,1.1
				C129.1,493.7,129.6,494.2,130.2,494.2z"/>
			<path class="st1" d="M100.8,491.9h-1.1c-0.5,0-0.9,0.3-1.1,0.8c-0.1,0.5,0,1,0.5,1.2l0.9,0.6c0.2,0.1,0.4,0.2,0.6,0.2
				c0.4,0,0.7-0.2,0.9-0.5c0.1-0.2,0.2-0.4,0.2-0.6c0.1-0.2,0.2-0.4,0.2-0.6C101.9,492.4,101.4,491.9,100.8,491.9z"/>
			<path class="st1" d="M105.2,495.3l-1.7-1.1c-0.5-0.3-1.2-0.2-1.5,0.3c-0.3,0.5-0.2,1.2,0.3,1.5l1.7,1.1c0.2,0.1,0.4,0.2,0.6,0.2
				c0.4,0,0.7-0.2,0.9-0.5C105.9,496.4,105.7,495.7,105.2,495.3z"/>
			<path class="st1" d="M109.5,499.5c0.3-0.5,0.2-1.2-0.3-1.5l-1.7-1.1c-0.5-0.3-1.2-0.2-1.5,0.3c-0.3,0.5-0.2,1.2,0.3,1.5l1.7,1.1
				c0.2,0.1,0.4,0.2,0.6,0.2C108.9,500,109.3,499.8,109.5,499.5z"/>
			<path class="st1" d="M109.9,499.7c-0.3,0.5-0.2,1.2,0.3,1.5l1.7,1.1c0.2,0.1,0.4,0.2,0.6,0.2c0.4,0,0.7-0.2,0.9-0.5
				c0.3-0.5,0.2-1.2-0.3-1.5l-1.7-1.1C110.9,499.1,110.2,499.2,109.9,499.7z"/>
			<path class="st1" d="M113.8,502.3c-0.3,0.5-0.2,1.2,0.3,1.5l0.9,0.6c0.2,0.1,0.4,0.2,0.6,0.2c0.2,0,0.4,0,0.5-0.1
				c0.4-0.2,0.6-0.6,0.6-1v-1.1c0-0.6-0.5-1.1-1.1-1.1c-0.4,0-0.7,0.2-0.9,0.5C114.4,501.8,114,502,113.8,502.3z"/>
			<path class="st1" d="M115.7,500.5c0.6,0,1.1-0.5,1.1-1.1v-2.3c0-0.6-0.5-1.1-1.1-1.1c-0.6,0-1.1,0.5-1.1,1.1v2.3
				C114.6,500,115.1,500.5,115.7,500.5z"/>
			<path class="st1" d="M115.7,489.7c0.6,0,1.1-0.5,1.1-1.1v-2.3c0-0.6-0.5-1.1-1.1-1.1c-0.6,0-1.1,0.5-1.1,1.1v2.3
				C114.6,489.2,115.1,489.7,115.7,489.7z"/>
			<path class="st1" d="M115.7,484.4c0.6,0,1.1-0.5,1.1-1.1v-0.7v-0.4c-0.1,0-0.1,0-0.2,0.1c-0.1,0-0.2,0-0.2,0c-0.1,0-0.2,0-0.2,0
				c-0.1,0-0.3,0-0.4,0c0,0,0,0-0.1,0h0h0c0,0,0,0-0.1,0c-0.1,0-0.3,0-0.4,0c-0.1,0-0.2,0-0.2,0c-0.1,0-0.2,0-0.2,0
				c-0.1,0-0.1,0-0.2,0v0.4v0.7C114.6,483.9,115.1,484.4,115.7,484.4z"/>
		</g>
		<path class="st1" d="M115.7,479.7C115.7,479.7,115.7,479.7,115.7,479.7C115.7,479.7,115.7,479.7,115.7,479.7L115.7,479.7z"/>
		<path class="st1" d="M115.1,479.6c0,0,0.1,0,0.1,0C115.2,479.6,115.2,479.6,115.1,479.6C115.1,479.6,115.1,479.6,115.1,479.6z"/>
		<path class="st1" d="M115.6,479.7c-0.1,0-0.1,0-0.2,0C115.5,479.7,115.5,479.7,115.6,479.7z"/>
		<path class="st1" d="M116.1,479.6c-0.1,0-0.1,0-0.2,0.1C116,479.7,116.1,479.7,116.1,479.6z"/>
		<path class="st1" d="M134.1,448C134.1,448,134.1,448,134.1,448C134.1,448,134.1,448,134.1,448z"/>
		<polygon class="st1" points="130.8,448.3 130.8,448.3 130.7,448.4 		"/>
		<path class="st1" d="M134,447.8C134,447.7,133.9,447.7,134,447.8C133.9,447.7,134,447.7,134,447.8z"/>
		<path class="st1" d="M133.7,447.5C133.7,447.5,133.8,447.5,133.7,447.5C133.8,447.5,133.7,447.5,133.7,447.5z"/>
		<path class="st1" d="M97.3,448C97.3,448,97.3,448,97.3,448C97.3,448,97.3,448,97.3,448z"/>
		<path class="st1" d="M97.4,447.8C97.4,447.7,97.4,447.7,97.4,447.8C97.4,447.7,97.4,447.7,97.4,447.8z"/>
		<path class="st1" d="M134.1,448C134.1,448,134.1,448,134.1,448c-0.1-0.2-0.1-0.2-0.1-0.3c0,0,0-0.1-0.1-0.1c0,0-0.1-0.1-0.1-0.1
			c0,0-0.1-0.1-0.1-0.1c0,0-0.1-0.1-0.1-0.1l-14.2-8.5v2.6l11.5,6.8l-0.1,0.1l-15,9l-13.9-8.3l-1.2-0.7l11.5-6.8v-2.6l-14.2,8.5
			c0,0-0.1,0.1-0.1,0.1c0,0-0.1,0.1-0.1,0.1c0,0-0.1,0.1-0.1,0.1c0,0-0.1,0.1-0.1,0.1c0,0.1-0.1,0.1-0.1,0.2c0,0,0,0.1,0,0.1
			c0,0.1,0,0.2,0,0.3v3.7v16.3c0,0.4,0.2,0.8,0.5,1l17.3,10.3c0,0,0,0,0,0c0,0,0.1,0,0.1,0c0.1,0,0.1,0.1,0.2,0.1c0.1,0,0.1,0,0.2,0
			c0,0,0,0,0.1,0l0,0c0,0,0,0,0.1,0c0.1,0,0.1,0,0.2,0c0.1,0,0.1,0,0.2-0.1c0,0,0.1,0,0.1,0c0,0,0,0,0,0c0,0,0,0,0,0l3.1-1.9
			l14.2-8.5c0.3-0.2,0.5-0.6,0.5-1V452v-3.7C134.1,448.2,134.1,448.1,134.1,448z M114.6,476.7l-15.1-9v-14.4v-3l13.1,7.8l2,1.2v2.9
			V476.7z M131.9,453.3v14.4l-12.5,7.5l-2.6,1.5v-14.5v-2.9l15.1-9V453.3z"/>
		<g class="st13">
			<path class="st1" d="M132.4,414.9l-0.9-0.7c-0.5-0.4-1.2-0.3-1.6,0.2c-0.2,0.2-0.2,0.5-0.2,0.7c-0.2,0.2-0.2,0.4-0.2,0.7
				c0,0.6,0.5,1.1,1.1,1.1c0,0,0,0,0,0l1.1,0c0.5,0,0.9-0.3,1-0.8C133,415.7,132.8,415.2,132.4,414.9z"/>
			<path class="st1" d="M116,445.2c-0.6,0-1.1,0.5-1.1,1.1v1.1c0,0.6,0.5,1.1,1.1,1.1c0.6,0,1.1-0.5,1.1-1.1v-1.1
				C117.1,445.7,116.6,445.2,116,445.2z"/>
			<path class="st1" d="M116,439.9c-0.6,0-1.1,0.5-1.1,1.1v2.3c0,0.6,0.5,1.1,1.1,1.1c0.6,0,1.1-0.5,1.1-1.1V441
				C117.1,440.4,116.6,439.9,116,439.9z"/>
			<path class="st1" d="M116,434.5c-0.6,0-1.1,0.5-1.1,1.1v2.3c0,0.6,0.5,1.1,1.1,1.1c0.6,0,1.1-0.5,1.1-1.1v-2.3
				C117.1,435,116.6,434.5,116,434.5z"/>
			<path class="st1" d="M122.3,427.6l-1-0.5c-0.5-0.3-1.2-0.1-1.5,0.4c-0.2,0.3-0.2,0.7,0,1c0,0.1,0,0.1-0.1,0.2
				c-0.3-0.1-0.6-0.1-0.8,0.1l-1,0.5c-0.3,0.1-0.5,0.4-0.5,0.6c-0.3-0.1-0.6-0.1-0.8,0.1l-1,0.5c-0.4,0.2-0.6,0.6-0.6,1v1.1
				c0,0.6,0.5,1.1,1.1,1.1c0.6,0,1.1-0.5,1.1-1.1v-0.4l0.4-0.2c0.3-0.1,0.5-0.4,0.5-0.6c0.1,0,0.2,0.1,0.3,0.1c0.2,0,0.3,0,0.5-0.1
				l1-0.5c0.3-0.1,0.5-0.4,0.5-0.6c0.1,0,0.2,0.1,0.3,0.1c0.2,0,0.3,0,0.5-0.1l1-0.5c0.4-0.2,0.6-0.6,0.6-1
				C122.8,428.2,122.6,427.8,122.3,427.6z"/>
			<path class="st1" d="M109.9,420.8l-1.9-1c-0.5-0.3-1.2-0.1-1.5,0.4c-0.3,0.5-0.1,1.2,0.4,1.5l1.9,1c0.2,0.1,0.4,0.1,0.5,0.1
				c0.4,0,0.8-0.2,1-0.6C110.7,421.8,110.5,421.1,109.9,420.8z"/>
			<path class="st1" d="M115.4,425.1c-0.3,0.5-0.1,1.2,0.4,1.5l1.9,1c0.2,0.1,0.4,0.1,0.5,0.1c0.4,0,0.8-0.2,1-0.6
				c0.3-0.5,0.1-1.2-0.4-1.5l-1.9-1C116.3,424.3,115.7,424.5,115.4,425.1z"/>
			<path class="st1" d="M114.4,423.3l-1.9-1c-0.5-0.3-1.2-0.1-1.5,0.4c-0.3,0.5-0.1,1.2,0.4,1.5l1.9,1c0.2,0.1,0.4,0.1,0.5,0.1
				c0.4,0,0.8-0.2,1-0.6C115.1,424.2,114.9,423.6,114.4,423.3z"/>
			<path class="st1" d="M100.7,415.3C100.7,415.3,100.7,415.3,100.7,415.3l-1.1,0c-0.5,0-0.9,0.4-1.1,0.8c-0.1,0.5,0.1,1,0.5,1.2
				l1,0.5c0.2,0.1,0.4,0.1,0.5,0.1c0.4,0,0.8-0.2,1-0.6c0.1-0.2,0.1-0.4,0.1-0.6c0.1-0.2,0.1-0.4,0.1-0.6
				C101.8,415.8,101.3,415.3,100.7,415.3z"/>
			<path class="st1" d="M122.2,414.9l-2.3,0c-0.6,0-1.1,0.5-1.1,1.1c0,0.6,0.5,1.1,1.1,1.1c0,0,0,0,0,0l2.3,0c0.6,0,1.1-0.5,1.1-1.1
				C123.3,415.4,122.8,414.9,122.2,414.9z"/>
			<path class="st1" d="M127.5,414.8l-2.3,0c-0.6,0-1.1,0.5-1.1,1.1c0,0.6,0.5,1.1,1.1,1.1c0,0,0,0,0,0l2.3,0c0.6,0,1.1-0.5,1.1-1.1
				C128.7,415.3,128.2,414.8,127.5,414.8z"/>
			<path class="st1" d="M109.2,417.4C109.2,417.4,109.2,417.4,109.2,417.4l2.3,0c0.6,0,1.1-0.5,1.1-1.1c0-0.6-0.5-1.1-1.1-1.1
				l-2.3,0c-0.6,0-1.1,0.5-1.1,1.1C108.1,416.9,108.6,417.4,109.2,417.4z"/>
			<path class="st1" d="M114.5,417.3C114.5,417.3,114.5,417.3,114.5,417.3l2.3,0c0.6,0,1.1-0.5,1.1-1.1c0-0.6-0.5-1.1-1.1-1.1
				c0,0,0,0,0,0l-2.3,0c-0.6,0-1.1,0.5-1.1,1.1C113.4,416.8,113.9,417.3,114.5,417.3z"/>
			<path class="st1" d="M106.1,417.4c0.6,0,1.1-0.5,1.1-1.1c0-0.6-0.5-1.1-1.1-1.1l-2.3,0c-0.6,0-1.1,0.5-1.1,1.1
				c0,0.4,0.2,0.7,0.5,0.9c-0.4,0-0.8,0.2-1,0.6c-0.3,0.5-0.1,1.2,0.4,1.5l1.9,1c0.2,0.1,0.4,0.1,0.5,0.1c0.4,0,0.8-0.2,1-0.6
				c0.3-0.5,0.1-1.2-0.4-1.5l-1.7-0.9h0L106.1,417.4z"/>
			<path class="st1" d="M129.4,412.6l-1.6-1.2c-0.5-0.4-1.2-0.3-1.6,0.2c-0.4,0.5-0.3,1.2,0.2,1.6l1.6,1.2c0.2,0.2,0.4,0.2,0.7,0.2
				c0.3,0,0.7-0.1,0.9-0.4C130,413.7,129.9,413,129.4,412.6z"/>
			<path class="st1" d="M119,407.3l1.6,1.2c0.2,0.2,0.4,0.2,0.7,0.2c0.3,0,0.7-0.1,0.9-0.4c0.4-0.5,0.3-1.2-0.2-1.6l-1.6-1.2
				c-0.5-0.4-1.2-0.3-1.6,0.2C118.4,406.2,118.5,406.9,119,407.3z"/>
			<path class="st1" d="M122.7,410.2l1.6,1.2c0.2,0.2,0.4,0.2,0.7,0.2c0.3,0,0.7-0.1,0.9-0.4c0.4-0.5,0.3-1.2-0.2-1.6l-1.6-1.2
				c-0.5-0.4-1.2-0.3-1.6,0.2C122.1,409.1,122.2,409.8,122.7,410.2z"/>
			<path class="st1" d="M116,404.9l0.9,0.7c0.2,0.2,0.4,0.2,0.7,0.2c0.3,0,0.7-0.1,0.9-0.4c0.4-0.5,0.3-1.2-0.2-1.6l-0.4-0.3v-0.6
				c0-0.6-0.5-1.1-1.1-1.1c-0.6,0-1.1,0.5-1.1,1.1v1.1C115.5,404.4,115.7,404.7,116,404.9z"/>
			<path class="st1" d="M116.6,400.4c0.6,0,1.1-0.5,1.1-1.1v-2.7c0-0.6-0.5-1.1-1.1-1.1c-0.6,0-1.1,0.5-1.1,1.1v2.7
				C115.5,400,116,400.4,116.6,400.4z"/>
			<path class="st1" d="M116.6,394.2c0.6,0,1.1-0.5,1.1-1.1V392c0-0.6-0.5-1.1-1.1-1.1c-0.6,0-1.1,0.5-1.1,1.1v1.1
				C115.5,393.7,116,394.2,116.6,394.2z"/>
		</g>
	</g>
	<g>
		<path class="st1" d="M273.7,822v2.9H267v4.2h5.6v2.9H267v6.4h-3.8V822H273.7z"/>
		<path class="st1" d="M279.5,823.6c0,0.3-0.1,0.5-0.2,0.8c-0.1,0.2-0.3,0.5-0.5,0.6s-0.4,0.3-0.7,0.4c-0.3,0.1-0.5,0.2-0.8,0.2
			c-0.3,0-0.6-0.1-0.8-0.2c-0.2-0.1-0.5-0.3-0.7-0.4c-0.2-0.2-0.3-0.4-0.5-0.6c-0.1-0.2-0.2-0.5-0.2-0.8c0-0.3,0.1-0.6,0.2-0.8
			c0.1-0.2,0.3-0.5,0.5-0.7c0.2-0.2,0.4-0.3,0.7-0.4s0.5-0.2,0.8-0.2c0.3,0,0.6,0.1,0.8,0.2c0.3,0.1,0.5,0.3,0.7,0.4
			s0.4,0.4,0.5,0.7C279.4,823,279.5,823.3,279.5,823.6z M279.1,826.8v11.7h-3.5v-11.7H279.1z"/>
		<path class="st1" d="M281.6,838.5v-11.7h2.2c0.4,0,0.7,0.2,0.9,0.6l0.2,0.7c0.2-0.2,0.5-0.4,0.7-0.6c0.2-0.2,0.5-0.3,0.8-0.5
			s0.6-0.2,0.9-0.3c0.3-0.1,0.7-0.1,1-0.1c0.6,0,1.2,0.1,1.7,0.3s0.9,0.5,1.2,0.9c0.3,0.4,0.6,0.9,0.8,1.4c0.2,0.5,0.3,1.1,0.3,1.8
			v7.4h-3.5V831c0-0.6-0.1-1-0.4-1.3c-0.3-0.3-0.7-0.5-1.2-0.5c-0.4,0-0.7,0.1-1.1,0.2c-0.3,0.2-0.7,0.4-1,0.7v8.4H281.6z"/>
		<path class="st1" d="M302.3,838.5c-0.3,0-0.6,0-0.8-0.1c-0.2-0.1-0.3-0.3-0.4-0.6l-0.2-0.6c-0.3,0.2-0.6,0.5-0.8,0.7
			c-0.3,0.2-0.6,0.3-0.8,0.5s-0.6,0.2-0.9,0.3c-0.3,0.1-0.7,0.1-1.1,0.1c-0.5,0-1-0.1-1.5-0.2s-0.8-0.3-1.1-0.6
			c-0.3-0.3-0.5-0.6-0.7-1c-0.2-0.4-0.2-0.9-0.2-1.4c0-0.4,0.1-0.8,0.3-1.3c0.2-0.4,0.6-0.8,1.1-1.2s1.2-0.7,2.1-0.9s2-0.4,3.3-0.4
			v-0.5c0-0.7-0.1-1.2-0.4-1.5c-0.3-0.3-0.7-0.5-1.2-0.5c-0.4,0-0.8,0-1,0.1c-0.3,0.1-0.5,0.2-0.7,0.3c-0.2,0.1-0.4,0.2-0.6,0.3
			c-0.2,0.1-0.4,0.1-0.7,0.1c-0.2,0-0.4-0.1-0.6-0.2c-0.2-0.1-0.3-0.3-0.4-0.4l-0.6-1.1c0.7-0.6,1.5-1.1,2.4-1.4
			c0.9-0.3,1.8-0.5,2.8-0.5c0.7,0,1.3,0.1,1.9,0.3c0.6,0.2,1.1,0.5,1.4,1s0.7,0.9,0.9,1.5s0.3,1.2,0.3,1.9v7.3H302.3z M298.3,836.4
			c0.5,0,0.8-0.1,1.2-0.2c0.3-0.2,0.7-0.4,1-0.8v-1.6c-0.7,0-1.3,0.1-1.7,0.2c-0.5,0.1-0.8,0.2-1.1,0.3c-0.3,0.1-0.4,0.3-0.5,0.5
			c-0.1,0.2-0.2,0.4-0.2,0.6c0,0.4,0.1,0.7,0.3,0.8C297.5,836.3,297.9,836.4,298.3,836.4z"/>
		<path class="st1" d="M309.7,821.6v16.9h-3.5v-16.9H309.7z"/>
		<path class="st1" d="M315.5,821.6v16.9H312v-16.9H315.5z"/>
		<path class="st1" d="M322.8,841.5c-0.1,0.2-0.2,0.4-0.4,0.5c-0.2,0.1-0.4,0.2-0.7,0.2H319l2.3-4.7l-4.7-10.7h3.1
			c0.3,0,0.5,0.1,0.6,0.2s0.3,0.3,0.3,0.4l1.9,5.1c0.2,0.5,0.3,0.9,0.4,1.4c0.1-0.2,0.2-0.5,0.2-0.7s0.2-0.5,0.3-0.7l1.7-5
			c0.1-0.2,0.2-0.3,0.4-0.4c0.2-0.1,0.4-0.2,0.6-0.2h2.8L322.8,841.5z"/>
		<path class="st1" d="M269.1,859.8v6.1h-3.8v-16.5h5.4c1.2,0,2.2,0.1,3,0.4c0.8,0.2,1.5,0.6,2.1,1c0.5,0.4,0.9,1,1.2,1.5
			c0.2,0.6,0.4,1.2,0.4,1.9c0,0.5-0.1,1-0.2,1.5s-0.4,0.9-0.6,1.3c-0.3,0.4-0.6,0.8-1,1.1c-0.4,0.3-0.9,0.6-1.4,0.8
			c0.3,0.1,0.5,0.3,0.7,0.5c0.2,0.2,0.4,0.4,0.6,0.7l3.5,5.7h-3.5c-0.6,0-1.1-0.2-1.4-0.7l-2.7-4.8c-0.1-0.2-0.3-0.4-0.4-0.4
			s-0.4-0.1-0.7-0.1H269.1z M269.1,857.2h1.5c0.5,0,1-0.1,1.3-0.2s0.7-0.3,0.9-0.5c0.2-0.2,0.4-0.5,0.5-0.8c0.1-0.3,0.2-0.6,0.2-1
			c0-0.7-0.2-1.3-0.7-1.7c-0.5-0.4-1.2-0.6-2.2-0.6h-1.5V857.2z"/>
		<path class="st1" d="M284.1,854c0.8,0,1.5,0.1,2.1,0.4s1.2,0.6,1.7,1.1c0.5,0.5,0.8,1,1.1,1.7c0.3,0.7,0.4,1.4,0.4,2.3
			c0,0.3,0,0.5,0,0.6c0,0.2-0.1,0.3-0.1,0.4c-0.1,0.1-0.1,0.2-0.2,0.2c-0.1,0-0.2,0.1-0.4,0.1h-6.8c0.1,1,0.4,1.7,0.9,2.1
			c0.5,0.4,1.1,0.7,1.9,0.7c0.4,0,0.8,0,1.1-0.1c0.3-0.1,0.6-0.2,0.8-0.3c0.2-0.1,0.4-0.2,0.6-0.3c0.2-0.1,0.4-0.1,0.6-0.1
			c0.3,0,0.5,0.1,0.6,0.3l1,1.3c-0.4,0.4-0.8,0.8-1.2,1s-0.8,0.5-1.3,0.6c-0.4,0.1-0.9,0.2-1.3,0.3c-0.4,0.1-0.9,0.1-1.3,0.1
			c-0.8,0-1.6-0.1-2.3-0.4c-0.7-0.3-1.3-0.7-1.9-1.2c-0.5-0.5-1-1.2-1.3-2c-0.3-0.8-0.5-1.7-0.5-2.7c0-0.8,0.1-1.5,0.4-2.2
			c0.3-0.7,0.7-1.3,1.2-1.8s1.1-0.9,1.8-1.3C282.4,854.2,283.2,854,284.1,854z M284.2,856.5c-0.7,0-1.2,0.2-1.6,0.6
			c-0.4,0.4-0.6,0.9-0.7,1.6h4.4c0-0.3,0-0.5-0.1-0.8s-0.2-0.5-0.4-0.7c-0.2-0.2-0.4-0.4-0.6-0.5
			C284.9,856.5,284.5,856.5,284.2,856.5z"/>
		<path class="st1" d="M299,865.9c-0.3,0-0.6,0-0.8-0.1c-0.2-0.1-0.3-0.3-0.4-0.6l-0.2-0.6c-0.3,0.2-0.6,0.5-0.8,0.7
			c-0.3,0.2-0.6,0.3-0.8,0.5s-0.6,0.2-0.9,0.3c-0.3,0.1-0.7,0.1-1.1,0.1c-0.5,0-1-0.1-1.5-0.2s-0.8-0.3-1.1-0.6
			c-0.3-0.3-0.5-0.6-0.7-1c-0.2-0.4-0.2-0.9-0.2-1.4c0-0.4,0.1-0.8,0.3-1.3c0.2-0.4,0.6-0.8,1.1-1.2s1.2-0.7,2.1-0.9s2-0.4,3.3-0.4
			v-0.5c0-0.7-0.1-1.2-0.4-1.5c-0.3-0.3-0.7-0.5-1.2-0.5c-0.4,0-0.8,0-1,0.1c-0.3,0.1-0.5,0.2-0.7,0.3c-0.2,0.1-0.4,0.2-0.6,0.3
			c-0.2,0.1-0.4,0.1-0.7,0.1c-0.2,0-0.4-0.1-0.6-0.2c-0.2-0.1-0.3-0.3-0.4-0.4l-0.6-1.1c0.7-0.6,1.5-1.1,2.4-1.4
			c0.9-0.3,1.8-0.5,2.8-0.5c0.7,0,1.3,0.1,1.9,0.3c0.6,0.2,1.1,0.5,1.4,1s0.7,0.9,0.9,1.5s0.3,1.2,0.3,1.9v7.3H299z M294.9,863.8
			c0.5,0,0.8-0.1,1.2-0.2c0.3-0.2,0.7-0.4,1-0.8v-1.6c-0.7,0-1.3,0.1-1.7,0.2c-0.5,0.1-0.8,0.2-1.1,0.3c-0.3,0.1-0.4,0.3-0.5,0.5
			c-0.1,0.2-0.2,0.4-0.2,0.6c0,0.4,0.1,0.7,0.3,0.8C294.2,863.7,294.5,863.8,294.9,863.8z"/>
		<path class="st1" d="M311.2,865.9c-0.4,0-0.7-0.2-0.9-0.6l-0.3-0.9c-0.2,0.2-0.5,0.5-0.7,0.7c-0.3,0.2-0.5,0.4-0.8,0.5
			s-0.6,0.3-1,0.3c-0.3,0.1-0.7,0.1-1.1,0.1c-0.6,0-1.2-0.1-1.7-0.4c-0.5-0.3-1-0.7-1.3-1.2c-0.4-0.5-0.7-1.1-0.9-1.9
			c-0.2-0.7-0.3-1.6-0.3-2.5c0-0.9,0.1-1.7,0.4-2.4s0.6-1.4,1-1.9c0.4-0.5,1-1,1.6-1.3s1.3-0.5,2-0.5c0.6,0,1.1,0.1,1.5,0.3
			c0.4,0.2,0.8,0.4,1.1,0.7V849h3.5v16.9H311.2z M307.7,863.4c0.3,0,0.5,0,0.7-0.1s0.4-0.1,0.6-0.2c0.2-0.1,0.3-0.2,0.5-0.3
			c0.2-0.1,0.3-0.3,0.5-0.5v-5c-0.3-0.3-0.6-0.5-0.9-0.6c-0.3-0.1-0.6-0.2-1-0.2c-0.3,0-0.6,0.1-0.9,0.2c-0.3,0.1-0.5,0.3-0.7,0.6
			c-0.2,0.3-0.4,0.6-0.5,1.1c-0.1,0.5-0.2,1-0.2,1.6c0,0.6,0,1.1,0.1,1.6c0.1,0.4,0.2,0.8,0.4,1c0.2,0.3,0.4,0.4,0.6,0.6
			C307.2,863.4,307.4,863.4,307.7,863.4z"/>
		<path class="st1" d="M320.7,869c-0.1,0.2-0.2,0.4-0.4,0.5c-0.2,0.1-0.4,0.2-0.7,0.2h-2.6l2.3-4.7l-4.7-10.7h3.1
			c0.3,0,0.5,0.1,0.6,0.2s0.3,0.3,0.3,0.4l1.9,5.1c0.2,0.5,0.3,0.9,0.4,1.4c0.1-0.2,0.2-0.5,0.2-0.7c0.1-0.2,0.2-0.5,0.3-0.7l1.7-5
			c0.1-0.2,0.2-0.3,0.4-0.4c0.2-0.1,0.4-0.2,0.6-0.2h2.8L320.7,869z"/>
	</g>
	<g>
		<path class="st1" d="M295.4,809.7c-13.5,0-24.4-10.9-24.4-24.4s10.9-24.4,24.4-24.4c13.5,0,24.4,10.9,24.4,24.4
			S308.9,809.7,295.4,809.7z M295.4,761.9c-12.9,0-23.4,10.5-23.4,23.4s10.5,23.4,23.4,23.4s23.4-10.5,23.4-23.4
			S308.3,761.9,295.4,761.9z"/>
		<path class="st1" d="M286.1,795.6c-0.3,0-0.6-0.1-0.9-0.4c-0.5-0.5-0.5-1.3,0-1.8c2.6-2.6,6.3-4,10.2-4c3.9,0,7.6,1.5,10.2,4
			c0.5,0.5,0.5,1.3,0,1.8c-0.5,0.5-1.3,0.5-1.8,0c-2.1-2.1-5.2-3.3-8.4-3.3c-3.2,0-6.3,1.2-8.4,3.3
			C286.7,795.5,286.4,795.6,286.1,795.6z"/>
		<g>
			<circle class="st1" cx="288" cy="778.6" r="3.2"/>
			<circle class="st1" cx="302.9" cy="778.6" r="3.2"/>
		</g>
	</g>
	<g>
		<path class="st75" d="M120.9,234.7c-0.4-0.4-1.1-0.3-1.4,0.1l-3.7,4.4v-9.1l-1,0.6l-1-0.6v9.1l-3.7-4.4c-0.4-0.4-1-0.5-1.4-0.1
			c-0.4,0.4-0.5,1-0.1,1.4l5.5,6.5c0.2,0.2,0.5,0.4,0.8,0.4s0.6-0.1,0.8-0.4l5.5-6.5C121.4,235.7,121.3,235.1,120.9,234.7z"/>
		<path class="st1" d="M126.7,207.8C126.7,207.9,126.7,207.9,126.7,207.8C126.7,207.9,126.7,207.9,126.7,207.8z"/>
		<path class="st1" d="M126.5,207.6C126.5,207.6,126.6,207.6,126.5,207.6C126.6,207.6,126.5,207.6,126.5,207.6z"/>
		<path class="st1" d="M126.3,207.4c0,0,0.1,0.1,0.1,0.1C126.4,207.4,126.4,207.4,126.3,207.4z"/>
		<polygon class="st1" points="126.2,207.3 126.2,207.3 126.2,207.3 		"/>
		<path class="st1" d="M114.3,228.2c0,0,0.1,0,0.1,0C114.4,228.2,114.3,228.2,114.3,228.2C114.3,228.2,114.3,228.2,114.3,228.2z"/>
		<path class="st1" d="M114.8,228.3C114.8,228.3,114.8,228.3,114.8,228.3C114.8,228.3,114.8,228.3,114.8,228.3L114.8,228.3z"/>
		<path class="st1" d="M114.7,228.3c-0.1,0-0.1,0-0.2,0C114.6,228.3,114.7,228.3,114.7,228.3z"/>
		<path class="st1" d="M115.2,228.2c0,0-0.1,0-0.1,0C115.1,228.3,115.1,228.2,115.2,228.2z"/>
		<path class="st1" d="M103.1,207.5c0,0,0.1-0.1,0.1-0.1C103.2,207.4,103.2,207.4,103.1,207.5z"/>
		<polygon class="st1" points="103.3,207.3 103.3,207.3 103.3,207.3 		"/>
		<path class="st1" d="M103,207.7C103,207.6,103,207.6,103,207.7C103,207.6,103,207.6,103,207.7z"/>
		<path class="st1" d="M102.9,207.9C102.9,207.9,102.9,207.9,102.9,207.9C102.9,207.9,102.9,207.9,102.9,207.9z"/>
		<path class="st1" d="M126.7,207.9C126.7,207.9,126.7,207.9,126.7,207.9c-0.1-0.1-0.1-0.2-0.1-0.2c0,0,0-0.1-0.1-0.1
			c0,0-0.1-0.1-0.1-0.1c0,0-0.1-0.1-0.1-0.1c0,0-0.1-0.1-0.1-0.1l0,0l0,0l-8.9-5.3v2.3l6.5,3.9l-2,1.2l-7,4.2l-7-4.2l-2-1.2l6.5-3.9
			V202l-8.9,5.3l0,0l0,0c0,0-0.1,0-0.1,0.1c0,0-0.1,0.1-0.1,0.1c0,0-0.1,0.1-0.1,0.1c0,0-0.1,0.1-0.1,0.1c0,0,0,0.1-0.1,0.1
			c0,0,0,0.1,0,0.1c0,0.1,0,0.2,0,0.3v12.6c0,0.4,0.2,0.7,0.5,0.9l10.9,6.5c0,0,0,0,0,0c0,0,0.1,0,0.1,0.1c0,0,0.1,0,0.1,0
			c0.1,0,0.1,0,0.2,0c0,0,0,0,0.1,0h0c0,0,0,0,0.1,0c0.1,0,0.1,0,0.2,0c0,0,0.1,0,0.1,0c0,0,0.1,0,0.1,0c0,0,0,0,0,0c0,0,0,0,0,0
			l10.9-6.5c0.3-0.2,0.5-0.5,0.5-0.9v-12.6C126.7,208.1,126.7,208,126.7,207.9z M113.8,223.2v2.3l-8.9-5.3v-10.3l2,1.2l6.9,4.1
			V223.2z M124.7,220.2l-8.9,5.3v-2.3v-7.9l6.9-4.1l2-1.2V220.2z"/>
		<path class="st75" d="M114.8,192.2c-0.6,0-1,0.4-1,1v13.5v0.7c0,0.6,0.4,1,1,1s1-0.4,1-1v-0.7v-13.5
			C115.8,192.7,115.3,192.2,114.8,192.2z"/>
	</g>
</g>
<g id="guides" class="st77">
</g>
</svg>
