<?xml version="1.0" encoding="utf-8"?>
<!-- Generator: Adobe Illustrator 19.1.0, SVG Export Plug-In . SVG Version: 6.00 Build 0)  -->
<svg version="1.1" id="Layer_1" xmlns="http://www.w3.org/2000/svg" xmlns:xlink="http://www.w3.org/1999/xlink" x="0px" y="0px"
	 viewBox="0 0 207 73" style="enable-background:new 0 0 207 73;" xml:space="preserve">
<style type="text/css">
	.st0{fill:#CA3137;}
</style>
<g>
	<path class="st0" d="M13.6,47.3h6.5c1.4,0,2.5,0.3,3.2,0.8c0.7,0.5,1,1.2,1,2v0.1c0,0.8-0.4,1.5-1.1,2c-0.7,0.5-1.7,0.8-3.1,0.8
		h-6.5V47.3z M110.8,34.8c1.3,0,2.4,0.2,3.4,0.7c1,0.5,1.8,1.1,2.5,1.9c0.7,0.8,1.2,1.8,1.6,2.8c0.4,1,0.6,2.1,0.6,3.3v0.1
		c0,1.1-0.2,2.2-0.6,3.3c-0.4,1-0.9,2-1.6,2.8c-0.7,0.8-1.5,1.4-2.5,1.9c-1,0.5-2.1,0.7-3.3,0.7c-1.3,0-2.4-0.2-3.4-0.7
		c-1-0.5-1.8-1.1-2.5-1.9c-0.7-0.8-1.2-1.7-1.6-2.8c-0.4-1.1-0.6-2.2-0.6-3.3v-0.1c0-1.1,0.2-2.2,0.6-3.3c0.4-1,0.9-1.9,1.6-2.7
		c0.7-0.8,1.5-1.4,2.5-1.9C108.5,35,109.6,34.8,110.8,34.8L110.8,34.8z M110.9,23.4c-3,0-5.8,0.5-8.3,1.6c-2.6,1-4.8,2.5-6.7,4.3
		c-1.9,1.8-3.4,3.9-4.5,6.4c-1.1,2.4-1.6,5-1.6,7.8v0.1c0,2.8,0.5,5.4,1.6,7.9c1.1,2.4,2.5,4.5,4.4,6.4c1.9,1.8,4.1,3.2,6.7,4.2
		c2.6,1,5.4,1.6,8.3,1.6c3,0,5.8-0.5,8.3-1.6c2.6-1.1,4.8-2.5,6.7-4.3c1.9-1.8,3.4-4,4.5-6.4c1.1-2.5,1.7-5.1,1.7-7.9v-0.1
		c0-2.8-0.5-5.4-1.6-7.8c-1.1-2.5-2.6-4.6-4.5-6.4c-1.9-1.8-4.1-3.2-6.7-4.2C116.7,23.9,113.9,23.4,110.9,23.4L110.9,23.4z M13.6,34
		h5.6c2.8,0,4.1,0.9,4.1,2.6v0.1c0,1.8-1.4,2.7-4.1,2.7v0h-5.6V34L13.6,34z M173.7,24.2v38.6h12.9V24.2H173.7z M127.9,24.2
		l15.7,38.9H156l15.7-38.9h-14.2l-7.5,21.7l-7.5-21.7H127.9z M54.9,24.2v10.9h11.4v27.7h12.9V35.1h11.4V24.2H54.9z M39.5,24.2v38.6
		h12.9V24.2H39.5z M1,24.2v38.6h21.4c2.4,0,4.6-0.2,6.4-0.8c1.9-0.6,3.4-1.3,4.7-2.3c1.3-1,2.2-2.1,2.8-3.4c0.6-1.3,0.9-2.8,0.9-4.3
		V52c0-2.7-0.7-4.7-2.2-6.1c-1.5-1.4-3.5-2.5-6-3.3c2.1-0.7,3.8-1.8,5-3.2c1.3-1.4,1.9-3.3,1.9-5.6v-0.1c0-1.3-0.2-2.5-0.7-3.5
		c-0.4-1-1-1.8-1.7-2.5c-1.1-1.1-2.6-2-4.4-2.6c-1.7-0.6-3.9-0.9-6.6-0.9H1z M45.9,9.5c3,0,5.4,2.4,5.4,5.4c0,3-2.4,5.4-5.4,5.4
		c-3,0-5.4-2.4-5.4-5.4C40.5,11.9,42.9,9.5,45.9,9.5L45.9,9.5z M180.1,7.6c-4,0-7.3,3.3-7.3,7.3c0,4,3.3,7.3,7.3,7.3
		c4,0,7.3-3.3,7.3-7.3C187.5,10.9,184.2,7.6,180.1,7.6L180.1,7.6z M45.9,7.6c-4,0-7.3,3.3-7.3,7.3c0,4,3.3,7.3,7.3,7.3
		c4,0,7.3-3.3,7.3-7.3C53.3,10.9,50,7.6,45.9,7.6L45.9,7.6z M45.9,7.6"/>
</g>
</svg>
