<?xml version="1.0" encoding="utf-8"?>
<!-- Generator: Adobe Illustrator 19.0.1, SVG Export Plug-In . SVG Version: 6.00 Build 0)  -->
<!DOCTYPE svg PUBLIC "-//W3C//DTD SVG 1.1//EN" "http://www.w3.org/Graphics/SVG/1.1/DTD/svg11.dtd" [
	<!ENTITY ns_extend "http://ns.adobe.com/Extensibility/1.0/">
	<!ENTITY ns_ai "http://ns.adobe.com/AdobeIllustrator/10.0/">
	<!ENTITY ns_graphs "http://ns.adobe.com/Graphs/1.0/">
	<!ENTITY ns_vars "http://ns.adobe.com/Variables/1.0/">
	<!ENTITY ns_imrep "http://ns.adobe.com/ImageReplacement/1.0/">
	<!ENTITY ns_sfw "http://ns.adobe.com/SaveForWeb/1.0/">
	<!ENTITY ns_custom "http://ns.adobe.com/GenericCustomNamespace/1.0/">
	<!ENTITY ns_adobe_xpath "http://ns.adobe.com/XPath/1.0/">
]>
<svg version="1.1" xmlns:x="&ns_extend;" xmlns:i="&ns_ai;" xmlns:graph="&ns_graphs;"
	 xmlns="http://www.w3.org/2000/svg" xmlns:xlink="http://www.w3.org/1999/xlink" x="0px" y="0px" width="77.3px" height="85px"
	 viewBox="0 0 77.3 85" style="enable-background:new 0 0 77.3 85;" xml:space="preserve">
<style type="text/css">
	.st0{fill:#3781A4;}
	.st1{fill:#FFFFFF;}
	.st2{opacity:0.7;}
	.st3{opacity:0.7;fill:none;stroke:#FFFFFF;stroke-miterlimit:10;}
	.st4{opacity:0.8;}
	.st5{opacity:0.25;}
	.st6{opacity:0.5;fill:#FFFFFF;}
	.st7{opacity:0.5;}
	.st8{fill:#A5B5B8;}
	.st9{fill:#EBEBEC;}
	.st10{fill:#B6B6B7;}
	.st11{fill:#B12843;}
	.st12{fill:#449F6C;}
	.st13{opacity:0.6;}
	.st14{fill:none;stroke:#FFFFFF;stroke-width:2;stroke-linecap:round;stroke-linejoin:round;stroke-miterlimit:10;}
	.st15{fill:none;stroke:#3781A4;stroke-width:6;stroke-miterlimit:10;}
	.st16{fill:none;stroke:#3781A4;stroke-width:5;stroke-miterlimit:10;}
	.st17{opacity:0.6;fill:none;stroke:#FFFFFF;stroke-width:2;stroke-linecap:round;stroke-linejoin:round;stroke-miterlimit:10;}
	.st18{opacity:0.6;fill:#B6B6B7;}
	.st19{opacity:0.35;fill:#B6B6B7;}
	.st20{opacity:0.8;fill:#B6B6B7;}
	.st21{opacity:0.3;fill:#B6B6B7;}
	.st22{opacity:0.7;fill:#B6B6B7;}
	.st23{opacity:0.9;fill:#B6B6B7;}
	.st24{opacity:0.5;fill:#B6B6B7;}
	.st25{opacity:0.2;fill:#B6B6B7;}
	.st26{opacity:0.65;fill:#B6B6B7;}
	.st27{opacity:0.85;fill:#B6B6B7;}
	.st28{opacity:0.45;fill:#B6B6B7;}
	.st29{fill:#485154;}
	.st30{fill:none;stroke:#3781A4;stroke-width:11;stroke-linecap:round;stroke-linejoin:round;stroke-miterlimit:10;}
	.st31{fill:none;stroke:#FFFFFF;stroke-width:3;stroke-linecap:round;stroke-linejoin:round;stroke-miterlimit:10;}
	.st32{fill:none;stroke:#FFFFFF;stroke-width:3;stroke-linecap:round;stroke-linejoin:round;}
	.st33{fill:none;stroke:#FFFFFF;stroke-width:3;stroke-linecap:round;stroke-linejoin:round;stroke-dasharray:2.9465,3.9287;}
	.st34{fill:none;stroke:#FFFFFF;stroke-width:3;stroke-linecap:round;stroke-linejoin:round;stroke-dasharray:2.0068,2.6757;}
	.st35{fill:none;stroke:#FFFFFF;stroke-width:3;stroke-linecap:round;stroke-linejoin:round;stroke-dasharray:2.8093,3.7457;}
	.st36{fill:none;stroke:#FFFFFF;stroke-width:3;stroke-linecap:round;stroke-linejoin:round;stroke-dasharray:3.0503,4.067;}
	.st37{fill:none;stroke:#FFFFFF;stroke-width:3;stroke-linecap:round;stroke-linejoin:round;stroke-dasharray:2.7315,3.642;}
	.st38{fill:none;stroke:#FFFFFF;stroke-width:3;stroke-linecap:round;stroke-linejoin:round;stroke-dasharray:3.1002,4.1336;}
	.st39{fill:none;stroke:#3781A4;stroke-width:10;stroke-linecap:round;stroke-linejoin:round;stroke-miterlimit:10;}
	.st40{fill:none;stroke:#3781A4;stroke-width:10;stroke-miterlimit:10;}
	.st41{fill:none;stroke:#FFFFFF;stroke-width:3;stroke-linecap:round;stroke-linejoin:round;stroke-dasharray:3.1068,4.1424;}
	.st42{fill:none;stroke:#FFFFFF;stroke-width:3;stroke-linecap:round;stroke-linejoin:round;stroke-dasharray:1.5484,2.0645;}
	.st43{fill:none;stroke:#FFFFFF;stroke-width:3;stroke-linecap:round;stroke-linejoin:round;stroke-dasharray:2.9057,3.8743;}
	.st44{fill:none;stroke:#FFFFFF;stroke-width:3;stroke-linecap:round;stroke-linejoin:round;stroke-dasharray:3.1048,4.1397;}
	.st45{fill:none;stroke:#FFFFFF;stroke-width:3;stroke-linecap:round;stroke-linejoin:round;stroke-dasharray:2.7418,3.6557;}
	.st46{fill:none;stroke:#FFFFFF;stroke-width:3;stroke-linecap:round;stroke-linejoin:round;stroke-dasharray:3.6253,4.8338;}
	.st47{fill:none;stroke:#FFFFFF;stroke-miterlimit:10;}
	.st48{fill:none;stroke:#FFFFFF;stroke-width:2.5;stroke-linecap:round;stroke-linejoin:round;stroke-miterlimit:10;}
	.st49{fill:#FAFCFB;}
	.st50{fill:none;stroke:#00A9CD;stroke-miterlimit:10;}
	.st51{fill:none;stroke:#3781A4;stroke-width:0.8989;stroke-miterlimit:10;}
	.st52{fill:none;stroke:#B12843;stroke-width:0.8989;stroke-miterlimit:10;}
	.st53{fill:none;stroke:#3781A4;stroke-miterlimit:10;}
	.st54{fill-rule:evenodd;clip-rule:evenodd;fill:none;stroke:#3781A4;stroke-width:0.8989;stroke-miterlimit:10;}
	.st55{fill:#00A9CD;}
	.st56{fill:#0597C4;}
	.st57{fill:#2A3033;}
	.st58{fill:none;}
	.st59{fill:none;stroke:#A5B5B8;stroke-miterlimit:10;}
	.st60{fill:none;stroke:#D4D4D6;stroke-miterlimit:10;}
	.st61{fill:#231F20;}
	.st62{opacity:0.6;fill:#2A3033;}
	.st63{opacity:0.85;fill:#FFFFFF;}
	.st64{fill:#0F070A;}
	.st65{opacity:0.85;}
	.st66{fill:#7B8081;}
	.st67{opacity:0.9;fill:#FFFFFF;}
	.st68{fill:#F7F7F7;}
	.st69{fill-rule:evenodd;clip-rule:evenodd;fill:#2A3033;}
	.st70{opacity:0.75;}
	.st71{fill:none;stroke:#FFFFFF;stroke-width:2;stroke-miterlimit:10;}
	.st72{fill:#00ADEE;}
	.st73{fill:#0C0110;}
	.st74{opacity:0.7;fill:#FFFFFF;}
	.st75{opacity:0.6;fill:#FFFFFF;}
	.st76{display:none;}
	.st77{display:inline;fill:none;}
	.st78{display:inline;}
	.st79{fill:none;stroke:#FFFFFF;stroke-width:0.5319;stroke-miterlimit:10;}
	.st80{fill:none;stroke:#F9F164;stroke-width:0.5;stroke-miterlimit:10;}
</style>
<metadata>
	<sfw  xmlns="&ns_sfw;">
		<slices></slices>
		<sliceSourceBounds  width="10247.2" height="8656.8" x="-5542.2" y="-6643.9" bottomLeftOrigin="true"></sliceSourceBounds>
		<optimizationSettings>
			<targetSettings  fileFormat="JPEGFormat" targetSettingsID="0">
				
					<JPEGFormat  progressive="false" quality="60" optimized="true" noMatteColor="false" blurAmount="0" embedICCProfile="false" matteColor="#FFFFFF">
					</JPEGFormat>
			</targetSettings>
		</optimizationSettings>
	</sfw>
</metadata>
<g id="Layer_1">
	<g>
		<path class="st0" d="M64.7,20.8H12.6V32h52.1V20.8z M62.8,28.6c0,0.7-0.6,1.3-1.3,1.3h-5.1c-0.7,0-1.3-0.6-1.3-1.3v-5.1
			c0-0.7,0.6-1.3,1.3-1.3h5.1c0.7,0,1.3,0.6,1.3,1.3V28.6z"/>
		<path class="st0" d="M61.4,23.2h-5.1c-0.2,0-0.3,0.2-0.3,0.3v5.1c0,0.2,0.2,0.3,0.3,0.3h5.1c0.2,0,0.3-0.2,0.3-0.3v-5.1
			C61.8,23.4,61.6,23.2,61.4,23.2z"/>
		<path class="st1" d="M61.4,22.2h-5.1c-0.7,0-1.3,0.6-1.3,1.3v5.1c0,0.7,0.6,1.3,1.3,1.3h5.1c0.7,0,1.3-0.6,1.3-1.3v-5.1
			C62.8,22.8,62.2,22.2,61.4,22.2z M61.8,28.6c0,0.2-0.2,0.3-0.3,0.3h-5.1c-0.2,0-0.3-0.2-0.3-0.3v-5.1c0-0.2,0.2-0.3,0.3-0.3h5.1
			c0.2,0,0.3,0.2,0.3,0.3V28.6z"/>
		<path class="st55" d="M8.5,7.9c0-3,2.4-5.4,5.4-5.4h49.4c3,0,5.4,2.4,5.4,5.4v74.7h1V7.9c0-3.5-2.9-6.4-6.4-6.4H13.9
			c-3.5,0-6.4,2.9-6.4,6.4v74.7h1V7.9z"/>
		<polygon class="st55" points="11.6,19.8 11.6,82.7 12.6,82.7 12.6,32 12.6,20.8 64.7,20.8 64.7,32 64.7,82.7 65.7,82.7 65.7,19.8 
					"/>
		<path class="st55" d="M45.7,10.6H35.6c-0.8,0-1.5,0.7-1.5,1.5s0.7,1.5,1.5,1.5h10.1c0.8,0,1.5-0.7,1.5-1.5S46.6,10.6,45.7,10.6z
			 M45.7,12.7H35.6c-0.3,0-0.5-0.2-0.5-0.5s0.2-0.5,0.5-0.5h10.1c0.3,0,0.5,0.2,0.5,0.5S46,12.7,45.7,12.7z"/>
		<path class="st55" d="M30.5,10.6c-0.8,0-1.5,0.7-1.5,1.5s0.7,1.5,1.5,1.5c0.8,0,1.5-0.7,1.5-1.5S31.3,10.6,30.5,10.6z M30.5,12.7
			c-0.3,0-0.5-0.2-0.5-0.5s0.2-0.5,0.5-0.5c0.3,0,0.5,0.2,0.5,0.5S30.8,12.7,30.5,12.7z"/>
		<polygon class="st0" points="68.7,82.7 65.7,82.7 64.7,82.7 12.6,82.7 11.6,82.7 8.5,82.7 7.5,82.7 2.5,82.7 2.5,83.7 4.2,83.7 
			73,83.7 74.8,83.7 74.8,82.7 69.7,82.7 		"/>
		<path class="st0" d="M56.4,37.7H20.7c-1.1,0-2,0.9-2,2v7.1c0,1.1,0.9,2,2,2h35.8c1.1,0,2-0.9,2-2v-7.1
			C58.4,38.6,57.5,37.7,56.4,37.7z"/>
		<path class="st8" d="M56.4,51.6H20.7c-1.1,0-2,0.9-2,2v7.1c0,1.1,0.9,2,2,2h35.8c1.1,0,2-0.9,2-2v-7.1
			C58.4,52.5,57.5,51.6,56.4,51.6z"/>
		<path class="st8" d="M56.4,65.5H20.7c-1.1,0-2,0.9-2,2v7.1c0,1.1,0.9,2,2,2h35.8c1.1,0,2-0.9,2-2v-7.1
			C58.4,66.4,57.5,65.5,56.4,65.5z"/>
	</g>
</g>
<g id="guides" class="st76">
</g>
</svg>
