<?xml version="1.0" encoding="utf-8"?>
<!-- Generator: Adobe Illustrator 19.0.1, SVG Export Plug-In . SVG Version: 6.00 Build 0)  -->
<!DOCTYPE svg PUBLIC "-//W3C//DTD SVG 1.1//EN" "http://www.w3.org/Graphics/SVG/1.1/DTD/svg11.dtd" [
	<!ENTITY ns_extend "http://ns.adobe.com/Extensibility/1.0/">
	<!ENTITY ns_ai "http://ns.adobe.com/AdobeIllustrator/10.0/">
	<!ENTITY ns_graphs "http://ns.adobe.com/Graphs/1.0/">
	<!ENTITY ns_vars "http://ns.adobe.com/Variables/1.0/">
	<!ENTITY ns_imrep "http://ns.adobe.com/ImageReplacement/1.0/">
	<!ENTITY ns_sfw "http://ns.adobe.com/SaveForWeb/1.0/">
	<!ENTITY ns_custom "http://ns.adobe.com/GenericCustomNamespace/1.0/">
	<!ENTITY ns_adobe_xpath "http://ns.adobe.com/XPath/1.0/">
]>
<svg version="1.1" xmlns:x="&ns_extend;" xmlns:i="&ns_ai;" xmlns:graph="&ns_graphs;"
	 xmlns="http://www.w3.org/2000/svg" xmlns:xlink="http://www.w3.org/1999/xlink" x="0px" y="0px" width="136.1px" height="85px"
	 viewBox="0 0 136.1 85" style="enable-background:new 0 0 136.1 85;" xml:space="preserve">
<style type="text/css">
	.st0{fill:#3781A4;}
	.st1{fill:#FFFFFF;}
	.st2{opacity:0.7;}
	.st3{opacity:0.7;fill:none;stroke:#FFFFFF;stroke-miterlimit:10;}
	.st4{opacity:0.8;}
	.st5{opacity:0.25;}
	.st6{opacity:0.5;fill:#FFFFFF;}
	.st7{opacity:0.5;}
	.st8{fill:#A5B5B8;}
	.st9{fill:#EBEBEC;}
	.st10{fill:#B6B6B7;}
	.st11{fill:#B12843;}
	.st12{fill:#449F6C;}
	.st13{opacity:0.6;}
	.st14{fill:none;stroke:#FFFFFF;stroke-width:2;stroke-linecap:round;stroke-linejoin:round;stroke-miterlimit:10;}
	.st15{fill:none;stroke:#3781A4;stroke-width:6;stroke-miterlimit:10;}
	.st16{fill:none;stroke:#3781A4;stroke-width:5;stroke-miterlimit:10;}
	.st17{opacity:0.6;fill:none;stroke:#FFFFFF;stroke-width:2;stroke-linecap:round;stroke-linejoin:round;stroke-miterlimit:10;}
	.st18{opacity:0.6;fill:#B6B6B7;}
	.st19{opacity:0.35;fill:#B6B6B7;}
	.st20{opacity:0.8;fill:#B6B6B7;}
	.st21{opacity:0.3;fill:#B6B6B7;}
	.st22{opacity:0.7;fill:#B6B6B7;}
	.st23{opacity:0.9;fill:#B6B6B7;}
	.st24{opacity:0.5;fill:#B6B6B7;}
	.st25{opacity:0.2;fill:#B6B6B7;}
	.st26{opacity:0.65;fill:#B6B6B7;}
	.st27{opacity:0.85;fill:#B6B6B7;}
	.st28{opacity:0.45;fill:#B6B6B7;}
	.st29{fill:#485154;}
	.st30{fill:none;stroke:#3781A4;stroke-width:11;stroke-linecap:round;stroke-linejoin:round;stroke-miterlimit:10;}
	.st31{fill:none;stroke:#FFFFFF;stroke-width:3;stroke-linecap:round;stroke-linejoin:round;stroke-miterlimit:10;}
	.st32{fill:none;stroke:#FFFFFF;stroke-width:3;stroke-linecap:round;stroke-linejoin:round;}
	.st33{fill:none;stroke:#FFFFFF;stroke-width:3;stroke-linecap:round;stroke-linejoin:round;stroke-dasharray:2.9465,3.9287;}
	.st34{fill:none;stroke:#FFFFFF;stroke-width:3;stroke-linecap:round;stroke-linejoin:round;stroke-dasharray:2.0068,2.6757;}
	.st35{fill:none;stroke:#FFFFFF;stroke-width:3;stroke-linecap:round;stroke-linejoin:round;stroke-dasharray:2.8093,3.7457;}
	.st36{fill:none;stroke:#FFFFFF;stroke-width:3;stroke-linecap:round;stroke-linejoin:round;stroke-dasharray:3.0503,4.067;}
	.st37{fill:none;stroke:#FFFFFF;stroke-width:3;stroke-linecap:round;stroke-linejoin:round;stroke-dasharray:2.7315,3.642;}
	.st38{fill:none;stroke:#FFFFFF;stroke-width:3;stroke-linecap:round;stroke-linejoin:round;stroke-dasharray:3.1002,4.1336;}
	.st39{fill:none;stroke:#3781A4;stroke-width:10;stroke-linecap:round;stroke-linejoin:round;stroke-miterlimit:10;}
	.st40{fill:none;stroke:#3781A4;stroke-width:10;stroke-miterlimit:10;}
	.st41{fill:none;stroke:#FFFFFF;stroke-width:3;stroke-linecap:round;stroke-linejoin:round;stroke-dasharray:3.1068,4.1424;}
	.st42{fill:none;stroke:#FFFFFF;stroke-width:3;stroke-linecap:round;stroke-linejoin:round;stroke-dasharray:1.5484,2.0645;}
	.st43{fill:none;stroke:#FFFFFF;stroke-width:3;stroke-linecap:round;stroke-linejoin:round;stroke-dasharray:2.9057,3.8743;}
	.st44{fill:none;stroke:#FFFFFF;stroke-width:3;stroke-linecap:round;stroke-linejoin:round;stroke-dasharray:3.1048,4.1397;}
	.st45{fill:none;stroke:#FFFFFF;stroke-width:3;stroke-linecap:round;stroke-linejoin:round;stroke-dasharray:2.7418,3.6557;}
	.st46{fill:none;stroke:#FFFFFF;stroke-width:3;stroke-linecap:round;stroke-linejoin:round;stroke-dasharray:3.6253,4.8338;}
	.st47{fill:none;stroke:#FFFFFF;stroke-miterlimit:10;}
	.st48{fill:none;stroke:#FFFFFF;stroke-width:2.5;stroke-linecap:round;stroke-linejoin:round;stroke-miterlimit:10;}
	.st49{fill:#FAFCFB;}
	.st50{fill:none;stroke:#00A9CD;stroke-miterlimit:10;}
	.st51{fill:none;stroke:#3781A4;stroke-width:0.8989;stroke-miterlimit:10;}
	.st52{fill:none;stroke:#B12843;stroke-width:0.8989;stroke-miterlimit:10;}
	.st53{fill:none;stroke:#3781A4;stroke-miterlimit:10;}
	.st54{fill-rule:evenodd;clip-rule:evenodd;fill:none;stroke:#3781A4;stroke-width:0.8989;stroke-miterlimit:10;}
	.st55{fill:#00A9CD;}
	.st56{fill:#0597C4;}
	.st57{fill:#2A3033;}
	.st58{fill:none;}
	.st59{fill:none;stroke:#A5B5B8;stroke-miterlimit:10;}
	.st60{fill:none;stroke:#D4D4D6;stroke-miterlimit:10;}
	.st61{fill:#231F20;}
	.st62{opacity:0.6;fill:#2A3033;}
	.st63{opacity:0.85;fill:#FFFFFF;}
	.st64{fill:#0F070A;}
	.st65{opacity:0.85;}
	.st66{fill:#7B8081;}
	.st67{opacity:0.9;fill:#FFFFFF;}
	.st68{fill:#F7F7F7;}
	.st69{fill-rule:evenodd;clip-rule:evenodd;fill:#2A3033;}
	.st70{opacity:0.75;}
	.st71{fill:none;stroke:#FFFFFF;stroke-width:2;stroke-miterlimit:10;}
	.st72{fill:#00ADEE;}
	.st73{fill:#0C0110;}
	.st74{opacity:0.7;fill:#FFFFFF;}
	.st75{opacity:0.6;fill:#FFFFFF;}
	.st76{display:none;}
	.st77{display:inline;fill:none;}
	.st78{display:inline;}
	.st79{fill:none;stroke:#FFFFFF;stroke-width:0.5319;stroke-miterlimit:10;}
	.st80{fill:none;stroke:#F9F164;stroke-width:0.5;stroke-miterlimit:10;}
</style>
<metadata>
	<sfw  xmlns="&ns_sfw;">
		<slices></slices>
		<sliceSourceBounds  width="10247.2" height="8656.8" x="-5542.2" y="-6643.9" bottomLeftOrigin="true"></sliceSourceBounds>
		<optimizationSettings>
			<targetSettings  fileFormat="JPEGFormat" targetSettingsID="0">
				
					<JPEGFormat  progressive="false" quality="60" optimized="true" noMatteColor="false" blurAmount="0" embedICCProfile="false" matteColor="#FFFFFF">
					</JPEGFormat>
			</targetSettings>
		</optimizationSettings>
	</sfw>
</metadata>
<g id="Layer_1">
	<g>
		<path class="st0" d="M71.5,11.3H55c-0.3,0-0.5,0.2-0.5,0.5v4.4c0,0.3,0.2,0.5,0.5,0.5h16.4c0.3,0,0.5-0.2,0.5-0.5v-4.4
			C72,11.6,71.8,11.3,71.5,11.3z"/>
		<path class="st0" d="M48.8,11.3H32.4c-0.3,0-0.5,0.2-0.5,0.5v4.4c0,0.3,0.2,0.5,0.5,0.5h16.4c0.3,0,0.5-0.2,0.5-0.5v-4.4
			C49.4,11.6,49.1,11.3,48.8,11.3z"/>
		<path class="st0" d="M120.4,6.4H15.6v15.1h104.8V6.4z M50.4,16.3c0,0.8-0.7,1.5-1.5,1.5H32.4c-0.8,0-1.5-0.7-1.5-1.5v-4.4
			c0-0.8,0.7-1.5,1.5-1.5h16.4c0.8,0,1.5,0.7,1.5,1.5V16.3z M73,16.3c0,0.8-0.7,1.5-1.5,1.5H55c-0.8,0-1.5-0.7-1.5-1.5v-4.4
			c0-0.8,0.7-1.5,1.5-1.5h16.4c0.8,0,1.5,0.7,1.5,1.5V16.3z M95.6,16.3c0,0.8-0.7,1.5-1.5,1.5H77.7c-0.8,0-1.5-0.7-1.5-1.5v-4.4
			c0-0.8,0.7-1.5,1.5-1.5h16.4c0.8,0,1.5,0.7,1.5,1.5V16.3z"/>
		<path class="st0" d="M94.1,11.3H77.7c-0.3,0-0.5,0.2-0.5,0.5v4.4c0,0.3,0.2,0.5,0.5,0.5h16.4c0.3,0,0.5-0.2,0.5-0.5v-4.4
			C94.6,11.6,94.4,11.3,94.1,11.3z"/>
		<path class="st0" d="M56.7,51H32.6c-0.7,0-1.2,0.5-1.2,1.2v4c0,0.7,0.5,1.2,1.2,1.2h24.1c0.7,0,1.2-0.5,1.2-1.2v-4
			C58,51.5,57.4,51,56.7,51z"/>
		<rect x="31.2" y="28.7" class="st8" width="45.8" height="4.1"/>
		<rect x="31.2" y="35.3" class="st8" width="33.9" height="4.1"/>
		<rect x="31.2" y="41.9" class="st8" width="40.3" height="4.1"/>
		<path class="st1" d="M48.8,10.3H32.4c-0.8,0-1.5,0.7-1.5,1.5v4.4c0,0.8,0.7,1.5,1.5,1.5h16.4c0.8,0,1.5-0.7,1.5-1.5v-4.4
			C50.4,11,49.7,10.3,48.8,10.3z M49.4,16.3c0,0.3-0.2,0.5-0.5,0.5H32.4c-0.3,0-0.5-0.2-0.5-0.5v-4.4c0-0.3,0.2-0.5,0.5-0.5h16.4
			c0.3,0,0.5,0.2,0.5,0.5V16.3z"/>
		<path class="st1" d="M71.5,10.3H55c-0.8,0-1.5,0.7-1.5,1.5v4.4c0,0.8,0.7,1.5,1.5,1.5h16.4c0.8,0,1.5-0.7,1.5-1.5v-4.4
			C73,11,72.3,10.3,71.5,10.3z M72,16.3c0,0.3-0.2,0.5-0.5,0.5H55c-0.3,0-0.5-0.2-0.5-0.5v-4.4c0-0.3,0.2-0.5,0.5-0.5h16.4
			c0.3,0,0.5,0.2,0.5,0.5V16.3z"/>
		<path class="st1" d="M94.1,10.3H77.7c-0.8,0-1.5,0.7-1.5,1.5v4.4c0,0.8,0.7,1.5,1.5,1.5h16.4c0.8,0,1.5-0.7,1.5-1.5v-4.4
			C95.6,11,94.9,10.3,94.1,10.3z M94.6,16.3c0,0.3-0.2,0.5-0.5,0.5H77.7c-0.3,0-0.5-0.2-0.5-0.5v-4.4c0-0.3,0.2-0.5,0.5-0.5h16.4
			c0.3,0,0.5,0.2,0.5,0.5V16.3z"/>
		<path class="st55" d="M11.8,3.9c0-0.8,0.6-1.4,1.4-1.4H123c0.8,0,1.4,0.6,1.4,1.4v72.9h1V3.9c0-1.3-1.1-2.4-2.4-2.4H13.1
			c-1.3,0-2.4,1.1-2.4,2.4v72.9h1V3.9z"/>
		<path class="st55" d="M133.2,76.7h-7.8h-1H78.8l-0.1,0.6c0,0.1-0.1,0.3-0.1,0.4h46.7h7.8c0.3,0,0.5,0.1,0.7,0.4
			c0.2,0.2,0.2,0.5,0.1,0.8c-0.9,2.1-2.9,3.5-5.2,3.5H7.3C5,82.4,3,81,2.1,78.9c-0.1-0.3-0.1-0.6,0.1-0.8c0.2-0.2,0.4-0.4,0.7-0.4
			h7.8h46.8c0-0.1-0.1-0.3-0.1-0.4l-0.1-0.6H11.8h-1H2.9c-0.6,0-1.2,0.3-1.5,0.8C1.1,78,1,78.7,1.2,79.3c1,2.5,3.4,4.1,6.1,4.1
			h121.4c2.7,0,5.1-1.6,6.1-4.1c0.2-0.6,0.2-1.2-0.2-1.7C134.3,77,133.8,76.7,133.2,76.7z"/>
		<path class="st55" d="M57.4,77.3c0,0.1,0.1,0.3,0.1,0.4c0.4,1.1,1.5,1.9,2.7,1.9h15.6c1.2,0,2.3-0.8,2.7-1.9
			c0-0.1,0.1-0.3,0.1-0.4l0.1-0.6H57.3L57.4,77.3z M77.5,77.7c-0.3,0.6-1,0.9-1.7,0.9H60.3c-0.7,0-1.3-0.4-1.7-0.9H77.5z"/>
		<path class="st55" d="M14.6,75.7h106.8V5.4H14.6V75.7z M15.6,21.5V6.4h104.8v15.1v53.2H15.6V21.5z"/>
		<path class="st55" d="M68,5.3c0.7,0,1.3-0.6,1.3-1.3S68.8,2.6,68,2.6s-1.3,0.6-1.3,1.3S67.3,5.3,68,5.3z M68,3.6
			c0.2,0,0.3,0.1,0.3,0.3c0,0.2-0.1,0.3-0.3,0.3c-0.2,0-0.3-0.1-0.3-0.3C67.7,3.8,67.9,3.6,68,3.6z"/>
	</g>
</g>
<g id="guides" class="st76">
</g>
</svg>
