<?xml version="1.0" encoding="utf-8"?>
<!-- Generator: Adobe Illustrator 19.0.1, SVG Export Plug-In . SVG Version: 6.00 Build 0)  -->
<!DOCTYPE svg PUBLIC "-//W3C//DTD SVG 1.1//EN" "http://www.w3.org/Graphics/SVG/1.1/DTD/svg11.dtd" [
	<!ENTITY ns_extend "http://ns.adobe.com/Extensibility/1.0/">
	<!ENTITY ns_ai "http://ns.adobe.com/AdobeIllustrator/10.0/">
	<!ENTITY ns_graphs "http://ns.adobe.com/Graphs/1.0/">
	<!ENTITY ns_vars "http://ns.adobe.com/Variables/1.0/">
	<!ENTITY ns_imrep "http://ns.adobe.com/ImageReplacement/1.0/">
	<!ENTITY ns_sfw "http://ns.adobe.com/SaveForWeb/1.0/">
	<!ENTITY ns_custom "http://ns.adobe.com/GenericCustomNamespace/1.0/">
	<!ENTITY ns_adobe_xpath "http://ns.adobe.com/XPath/1.0/">
]>
<svg version="1.1" id="Layer_1" xmlns:x="&ns_extend;" xmlns:i="&ns_ai;" xmlns:graph="&ns_graphs;"
	 xmlns="http://www.w3.org/2000/svg" xmlns:xlink="http://www.w3.org/1999/xlink" x="0px" y="0px" width="600px" height="155.3px"
	 viewBox="0 0 600 155.3" style="enable-background:new 0 0 600 155.3;" xml:space="preserve">
<style type="text/css">
	.st0{fill:#3982A5;}
	.st1{fill:#FFFFFF;}
	.st2{fill:#0C0110;}
	.st3{opacity:0.5;fill:#FFFFFF;}
	.st4{fill:#A5B5B8;}
	.st5{fill:none;stroke:#FFFFFF;stroke-miterlimit:10;}
	.st6{fill:none;stroke:#B12944;stroke-width:0.8989;stroke-miterlimit:10;}
	.st7{fill-rule:evenodd;clip-rule:evenodd;fill:none;stroke:#B12944;stroke-width:0.8989;stroke-miterlimit:10;}
	.st8{fill:none;stroke:#B12944;stroke-miterlimit:10;}
</style>
<metadata>
	<sfw  xmlns="&ns_sfw;">
		<slices></slices>
		<sliceSourceBounds  width="926.2" height="663" x="4.6" y="-739.6" bottomLeftOrigin="true"></sliceSourceBounds>
	</sfw>
</metadata>
<g>
	<path class="st3" d="M37.8,50.6h106.1h7.1l7.6-28.2v0H38.2l0,0l-7.6,28.2H37.8z M51.3,36.4c-0.7,2.5-3.3,4.6-5.8,4.6s-4-2-3.3-4.6
		c0.7-2.5,3.3-4.6,5.8-4.6C50.5,31.8,52,33.8,51.3,36.4z M63.6,36.4c-0.7,2.5-3.3,4.6-5.8,4.6c-2.5,0-4-2-3.3-4.6
		c0.7-2.5,3.3-4.6,5.8-4.6C62.8,31.8,64.3,33.8,63.6,36.4z M136.3,41.1H75.2l2.5-9.4h61.1L136.3,41.1z"/>
	<polygon class="st1" points="136.3,41.1 75.2,41.1 77.7,31.6 138.9,31.6 	"/>
	<polygon class="st1" points="74.9,68 74.8,68 69.5,88.1 69.6,88.1 92.1,88.1 97.5,68 	"/>
	<rect x="515.2" y="3.6" class="st3" width="5.6" height="8.9"/>
	<path class="st3" d="M515.2,115.6c0,15.8-3.9,21.1-22.3,31.1l2.3,5c20.8-10.6,25.6-17.9,25.6-36V35.9h-5.6V115.6z"/>
	<path class="st3" d="M564,71.7c-18.5-2.9-22.9-6-22.9-16c0-13.1,11.3-16.1,21.6-16.1c11,0,27.4,2.6,27.4,2.6l0.3-5.3
		c0,0-15.3-2.4-27.7-2.4c-13.1,0-27.6,4.5-27.6,21.6c0,15,8.4,18.1,27.3,21c19.2,2.9,25,5.2,25,16.8c0,15.5-9.8,19-25,19
		c-8.2,0-25.6-2.7-25.6-2.7l-0.6,5.3c0,0,17.4,2.6,26.6,2.6c19,0,30.6-5.8,30.6-24.7C593.3,78.1,585.1,75.1,564,71.7z"/>
	<path class="st1" d="M226.6,36.2c0,0-11.4-2.1-17.4-2.1c-21.9,0-33.4,12.1-33.4,41.3c0,28.2,7.1,42.9,31.4,42.9
		c8.2,0,19.4-5,19.4-5v3.2h21.6V3.6h-21.6V36.2z M226.6,96c0,0-9.4,2.1-15.6,2.3c-10.2-0.3-13.2-6.6-13.2-22.9
		c0-16,5-21.8,13.1-21.8c6.9,0,15.8,1.5,15.8,1.5V96z"/>
	<path class="st1" d="M295.3,34.1c-28.1,0-37.1,17.3-37.1,42.1c0,24.8,9,42.2,37.1,42.2s37.1-17.4,37.1-42.2
		C332.4,51.4,323.3,34.1,295.3,34.1z M295.3,98.9c-11.9,0-15.2-7.9-15.2-22.7c0-14.8,3.2-22.6,15.2-22.6c11.9,0,15.2,7.7,15.2,22.6
		C310.4,91,307.2,98.9,295.3,98.9z"/>
	<path class="st1" d="M384,34.1c-7.6,0-20,5.5-20,5.5v-3.5h-21.6v80.5H364V57c0,0,10.2-2.7,15.5-2.7c9.7,0,11.3,7.9,11.3,20.2v42.1
		h21.6V74.4C412.4,48.3,406.5,34.1,384,34.1z"/>
	<path class="st1" d="M492,70.4c0-24.3-11.4-36.3-35.2-36.3c-23.5,0-35.6,14.5-35.6,43.2c0,29,10.3,41.1,34.7,41.1
		c15,0,33.5-4.5,33.5-4.5l-0.3-16.8c0,0-16.6,1.5-29.8,1.5c-11.6,0-16.1-3.9-16.3-13.1h47.4L492,70.4z M442.8,69
		c0.2-10.6,3.7-15.6,14-15.6c10.2,0,13.9,4.2,13.9,15.6H442.8z"/>
	<polygon class="st1" points="143.8,50.6 143.8,50.6 139.2,68 120.2,68 120.1,68 114.7,88.1 114.8,88.1 133.9,88.1 128.6,107.5 
		109.5,107.5 114.7,88.1 92.2,88.1 92.1,88.1 86.8,107.5 64.2,107.5 69.5,88.1 46.9,88.1 46.8,88.1 41.6,107.5 22.5,107.5 
		27.8,88.1 46.8,88.1 52.2,68 33.1,68 37.7,50.6 37.7,50.6 30.6,50.6 25,71.5 25,71.3 6.7,139.6 8.8,139.8 26.2,114.4 133.9,114.4 
		151,50.6 	"/>
	<g>
		<polygon class="st1" points="56.8,50.6 52.2,68 52.3,68 74.8,68 79.4,50.6 79.5,50.6 		"/>
		<polygon class="st1" points="102.1,50.6 97.5,68 97.6,68 120.1,68 124.7,50.6 		"/>
	</g>
</g>
</svg>
