<?xml version="1.0" encoding="utf-8"?>
<!-- Generator: Adobe Illustrator 19.0.1, SVG Export Plug-In . SVG Version: 6.00 Build 0)  -->
<!DOCTYPE svg PUBLIC "-//W3C//DTD SVG 1.1//EN" "http://www.w3.org/Graphics/SVG/1.1/DTD/svg11.dtd" [
	<!ENTITY ns_extend "http://ns.adobe.com/Extensibility/1.0/">
	<!ENTITY ns_ai "http://ns.adobe.com/AdobeIllustrator/10.0/">
	<!ENTITY ns_graphs "http://ns.adobe.com/Graphs/1.0/">
	<!ENTITY ns_vars "http://ns.adobe.com/Variables/1.0/">
	<!ENTITY ns_imrep "http://ns.adobe.com/ImageReplacement/1.0/">
	<!ENTITY ns_sfw "http://ns.adobe.com/SaveForWeb/1.0/">
	<!ENTITY ns_custom "http://ns.adobe.com/GenericCustomNamespace/1.0/">
	<!ENTITY ns_adobe_xpath "http://ns.adobe.com/XPath/1.0/">
]>
<svg version="1.1" xmlns:x="&ns_extend;" xmlns:i="&ns_ai;" xmlns:graph="&ns_graphs;"
	 xmlns="http://www.w3.org/2000/svg" xmlns:xlink="http://www.w3.org/1999/xlink" x="0px" y="0px" width="376.8px" height="1400px"
	 viewBox="0 0 376.8 1400" style="enable-background:new 0 0 376.8 1400;" xml:space="preserve">
<style type="text/css">
	.st0{fill:#3781A4;}
	.st1{fill:#FFFFFF;}
	.st2{opacity:0.7;}
	.st3{opacity:0.7;fill:none;stroke:#FFFFFF;stroke-miterlimit:10;}
	.st4{opacity:0.8;}
	.st5{opacity:0.25;}
	.st6{opacity:0.5;fill:#FFFFFF;}
	.st7{opacity:0.5;}
	.st8{fill:#A5B5B8;}
	.st9{fill:#EBEBEC;}
	.st10{fill:#B6B6B7;}
	.st11{fill:#B12843;}
	.st12{fill:#449F6C;}
	.st13{opacity:0.6;}
	.st14{fill:none;stroke:#FFFFFF;stroke-width:2;stroke-linecap:round;stroke-linejoin:round;stroke-miterlimit:10;}
	.st15{fill:none;stroke:#3781A4;stroke-width:6;stroke-miterlimit:10;}
	.st16{fill:none;stroke:#3781A4;stroke-width:5;stroke-miterlimit:10;}
	.st17{opacity:0.6;fill:none;stroke:#FFFFFF;stroke-width:2;stroke-linecap:round;stroke-linejoin:round;stroke-miterlimit:10;}
	.st18{opacity:0.6;fill:#B6B6B7;}
	.st19{opacity:0.35;fill:#B6B6B7;}
	.st20{opacity:0.8;fill:#B6B6B7;}
	.st21{opacity:0.3;fill:#B6B6B7;}
	.st22{opacity:0.7;fill:#B6B6B7;}
	.st23{opacity:0.9;fill:#B6B6B7;}
	.st24{opacity:0.5;fill:#B6B6B7;}
	.st25{opacity:0.2;fill:#B6B6B7;}
	.st26{opacity:0.65;fill:#B6B6B7;}
	.st27{opacity:0.85;fill:#B6B6B7;}
	.st28{opacity:0.45;fill:#B6B6B7;}
	.st29{fill:#485154;}
	.st30{fill:none;stroke:#3781A4;stroke-width:11;stroke-linecap:round;stroke-linejoin:round;stroke-miterlimit:10;}
	.st31{fill:none;stroke:#FFFFFF;stroke-width:3;stroke-linecap:round;stroke-linejoin:round;stroke-miterlimit:10;}
	.st32{fill:none;stroke:#FFFFFF;stroke-width:3;stroke-linecap:round;stroke-linejoin:round;}
	.st33{fill:none;stroke:#FFFFFF;stroke-width:3;stroke-linecap:round;stroke-linejoin:round;stroke-dasharray:2.9465,3.9287;}
	.st34{fill:none;stroke:#FFFFFF;stroke-width:3;stroke-linecap:round;stroke-linejoin:round;stroke-dasharray:2.0068,2.6757;}
	.st35{fill:none;stroke:#FFFFFF;stroke-width:3;stroke-linecap:round;stroke-linejoin:round;stroke-dasharray:2.8093,3.7457;}
	.st36{fill:none;stroke:#FFFFFF;stroke-width:3;stroke-linecap:round;stroke-linejoin:round;stroke-dasharray:3.0503,4.067;}
	.st37{fill:none;stroke:#FFFFFF;stroke-width:3;stroke-linecap:round;stroke-linejoin:round;stroke-dasharray:2.7315,3.642;}
	.st38{fill:none;stroke:#FFFFFF;stroke-width:3;stroke-linecap:round;stroke-linejoin:round;stroke-dasharray:3.1002,4.1336;}
	.st39{fill:none;stroke:#3781A4;stroke-width:10;stroke-linecap:round;stroke-linejoin:round;stroke-miterlimit:10;}
	.st40{fill:none;stroke:#3781A4;stroke-width:10;stroke-miterlimit:10;}
	.st41{fill:none;stroke:#FFFFFF;stroke-width:3;stroke-linecap:round;stroke-linejoin:round;stroke-dasharray:3.1068,4.1424;}
	.st42{fill:none;stroke:#FFFFFF;stroke-width:3;stroke-linecap:round;stroke-linejoin:round;stroke-dasharray:1.5484,2.0645;}
	.st43{fill:none;stroke:#FFFFFF;stroke-width:3;stroke-linecap:round;stroke-linejoin:round;stroke-dasharray:2.9057,3.8743;}
	.st44{fill:none;stroke:#FFFFFF;stroke-width:3;stroke-linecap:round;stroke-linejoin:round;stroke-dasharray:3.1048,4.1397;}
	.st45{fill:none;stroke:#FFFFFF;stroke-width:3;stroke-linecap:round;stroke-linejoin:round;stroke-dasharray:2.7418,3.6557;}
	.st46{fill:none;stroke:#FFFFFF;stroke-width:3;stroke-linecap:round;stroke-linejoin:round;stroke-dasharray:3.6253,4.8338;}
	.st47{fill:none;stroke:#FFFFFF;stroke-miterlimit:10;}
	.st48{fill:none;stroke:#FFFFFF;stroke-width:2.5;stroke-linecap:round;stroke-linejoin:round;stroke-miterlimit:10;}
	.st49{fill:#FAFCFB;}
	.st50{fill:none;stroke:#00A9CD;stroke-miterlimit:10;}
	.st51{fill:none;stroke:#3781A4;stroke-width:0.8989;stroke-miterlimit:10;}
	.st52{fill:none;stroke:#B12843;stroke-width:0.8989;stroke-miterlimit:10;}
	.st53{fill:none;stroke:#3781A4;stroke-miterlimit:10;}
	.st54{fill-rule:evenodd;clip-rule:evenodd;fill:none;stroke:#3781A4;stroke-width:0.8989;stroke-miterlimit:10;}
	.st55{fill:#0597C4;}
	.st56{fill:#2A3033;}
	.st57{fill:none;}
	.st58{fill:none;stroke:#A5B5B8;stroke-miterlimit:10;}
	.st59{fill:none;stroke:#D4D4D6;stroke-miterlimit:10;}
	.st60{fill:#231F20;}
	.st61{opacity:0.6;fill:#2A3033;}
	.st62{opacity:0.85;fill:#FFFFFF;}
	.st63{fill:#0F070A;}
	.st64{opacity:0.85;}
	.st65{fill:#7B8081;}
	.st66{opacity:0.9;fill:#FFFFFF;}
	.st67{fill:#F7F7F7;}
	.st68{fill-rule:evenodd;clip-rule:evenodd;fill:#2A3033;}
	.st69{opacity:0.75;}
	.st70{fill:none;stroke:#FFFFFF;stroke-width:2;stroke-miterlimit:10;}
	.st71{fill:#00ADEE;}
	.st72{fill:#0C0110;}
	.st73{opacity:0.7;fill:#FFFFFF;}
	.st74{opacity:0.6;fill:#FFFFFF;}
	.st75{display:none;}
	.st76{display:inline;fill:none;}
	.st77{display:inline;}
	.st78{fill:none;stroke:#FFFFFF;stroke-width:0.5319;stroke-miterlimit:10;}
	.st79{fill:none;stroke:#F9F164;stroke-width:0.5;stroke-miterlimit:10;}
</style>
<metadata>
	<sfw  xmlns="&ns_sfw;">
		<slices></slices>
		<sliceSourceBounds  width="9641.6" height="8656.8" x="-4936.6" y="-6643.9" bottomLeftOrigin="true"></sliceSourceBounds>
		<optimizationSettings>
			<targetSettings  fileFormat="JPEGFormat" targetSettingsID="0">
				
					<JPEGFormat  progressive="false" quality="60" optimized="true" noMatteColor="false" blurAmount="0" embedICCProfile="false" matteColor="#FFFFFF">
					</JPEGFormat>
			</targetSettings>
		</optimizationSettings>
	</sfw>
</metadata>
<g id="Layer_1">
	<g>
		<g>
			<path class="st1" d="M18.7,27.3c0.1,0,0.2,0,0.3,0.1c0.1,0,0.2,0.1,0.3,0.2c0.1,0.1,0.2,0.2,0.3,0.3L31,42.5c0-0.4-0.1-0.7-0.1-1
				c0-0.3,0-0.6,0-0.9V27.3h3.6V49h-2.1c-0.3,0-0.6-0.1-0.8-0.2s-0.4-0.3-0.6-0.5L19.6,33.8c0,0.3,0.1,0.6,0.1,1c0,0.3,0,0.6,0,0.9
				V49h-3.6V27.3h2.1C18.4,27.3,18.6,27.3,18.7,27.3z"/>
			<path class="st1" d="M50.8,49h-1.7c-0.4,0-0.6-0.1-0.8-0.2c-0.2-0.1-0.4-0.3-0.5-0.6l-0.3-1.1c-0.4,0.4-0.8,0.7-1.2,0.9
				c-0.4,0.3-0.8,0.5-1.2,0.7c-0.4,0.2-0.8,0.3-1.3,0.4s-1,0.1-1.5,0.1c-0.7,0-1.3-0.1-1.8-0.3c-0.6-0.2-1-0.4-1.4-0.8
				c-0.4-0.4-0.7-0.8-0.9-1.3s-0.3-1.1-0.3-1.8c0-0.6,0.2-1.2,0.5-1.7c0.3-0.6,0.8-1.1,1.5-1.5s1.7-0.8,2.8-1.1
				c1.2-0.3,2.7-0.5,4.4-0.5v-0.9c0-1-0.2-1.8-0.7-2.3c-0.4-0.5-1.1-0.8-1.9-0.8c-0.6,0-1.1,0.1-1.5,0.2c-0.4,0.1-0.8,0.3-1,0.5
				c-0.3,0.2-0.6,0.3-0.8,0.5s-0.5,0.2-0.8,0.2c-0.3,0-0.5-0.1-0.6-0.2s-0.3-0.3-0.4-0.5l-0.7-1.2c1.8-1.6,3.9-2.4,6.4-2.4
				c0.9,0,1.7,0.1,2.4,0.4c0.7,0.3,1.3,0.7,1.8,1.2c0.5,0.5,0.9,1.2,1.1,1.9c0.3,0.7,0.4,1.5,0.4,2.4V49z M43.6,46.7
				c0.4,0,0.7,0,1.1-0.1c0.3-0.1,0.6-0.2,0.9-0.3c0.3-0.1,0.6-0.3,0.8-0.5c0.3-0.2,0.5-0.4,0.8-0.7v-2.6c-1.1,0-2,0.1-2.7,0.2
				s-1.3,0.3-1.8,0.5c-0.4,0.2-0.8,0.5-0.9,0.7s-0.3,0.6-0.3,0.9c0,0.7,0.2,1.1,0.6,1.4C42.4,46.6,42.9,46.7,43.6,46.7z"/>
			<path class="st1" d="M59,29.1c0,0.3-0.1,0.6-0.2,0.9c-0.1,0.3-0.3,0.5-0.5,0.7c-0.2,0.2-0.5,0.4-0.8,0.5
				c-0.3,0.1-0.6,0.2-0.9,0.2c-0.3,0-0.6-0.1-0.9-0.2s-0.5-0.3-0.7-0.5c-0.2-0.2-0.4-0.5-0.5-0.7c-0.1-0.3-0.2-0.6-0.2-0.9
				c0-0.3,0.1-0.6,0.2-0.9c0.1-0.3,0.3-0.5,0.5-0.8c0.2-0.2,0.5-0.4,0.7-0.5c0.3-0.1,0.6-0.2,0.9-0.2c0.3,0,0.6,0.1,0.9,0.2
				c0.3,0.1,0.5,0.3,0.8,0.5c0.2,0.2,0.4,0.5,0.5,0.8C58.9,28.4,59,28.8,59,29.1z M58.4,33.6V49h-3.7V33.6H58.4z"/>
			<path class="st1" d="M70.3,49H67l-6.1-15.4h3.1c0.3,0,0.5,0.1,0.7,0.2c0.2,0.1,0.3,0.3,0.4,0.5l3,8.2c0.2,0.5,0.3,1,0.4,1.4
				s0.2,0.9,0.3,1.4c0.1-0.5,0.2-0.9,0.3-1.4c0.1-0.5,0.3-0.9,0.4-1.4l3.1-8.2c0.1-0.2,0.2-0.4,0.4-0.5c0.2-0.1,0.4-0.2,0.6-0.2h2.9
				L70.3,49z"/>
			<path class="st1" d="M84.5,33.3c1,0,1.9,0.2,2.7,0.5s1.5,0.8,2.1,1.4c0.6,0.6,1.1,1.3,1.4,2.2c0.3,0.9,0.5,1.9,0.5,3
				c0,0.3,0,0.5,0,0.7c0,0.2-0.1,0.3-0.1,0.4c-0.1,0.1-0.2,0.2-0.3,0.2c-0.1,0-0.3,0.1-0.4,0.1h-9.5c0.1,1.6,0.5,2.7,1.3,3.5
				c0.7,0.7,1.7,1.1,2.9,1.1c0.6,0,1.1-0.1,1.6-0.2s0.8-0.3,1.1-0.5c0.3-0.2,0.6-0.3,0.9-0.5c0.2-0.1,0.5-0.2,0.7-0.2
				c0.2,0,0.3,0,0.4,0.1c0.1,0.1,0.2,0.1,0.3,0.3l1.1,1.4c-0.4,0.5-0.9,0.9-1.4,1.2s-1,0.6-1.6,0.8c-0.6,0.2-1.1,0.3-1.7,0.4
				c-0.6,0.1-1.1,0.1-1.7,0.1c-1.1,0-2.1-0.2-3-0.5s-1.7-0.9-2.4-1.6c-0.7-0.7-1.2-1.6-1.6-2.6c-0.4-1-0.6-2.2-0.6-3.6
				c0-1.1,0.2-2,0.5-3c0.3-0.9,0.8-1.7,1.5-2.4c0.6-0.7,1.4-1.2,2.3-1.6C82.3,33.5,83.4,33.3,84.5,33.3z M84.6,36
				c-1.1,0-1.9,0.3-2.5,0.9c-0.6,0.6-1,1.5-1.2,2.6h7c0-0.5-0.1-0.9-0.2-1.4c-0.1-0.4-0.3-0.8-0.6-1.1c-0.3-0.3-0.6-0.6-1-0.8
				C85.6,36.1,85.2,36,84.6,36z"/>
			<path class="st1" d="M119.4,49h-3.1c-0.4,0-0.6-0.1-0.9-0.3c-0.2-0.2-0.4-0.4-0.5-0.7l-1.6-4.4h-9l-1.6,4.4
				c-0.1,0.2-0.2,0.4-0.5,0.6c-0.2,0.2-0.5,0.3-0.9,0.3h-3.1l8.5-21.8h4.1L119.4,49z M105.3,40.8h6.9l-2.6-7.2
				c-0.1-0.3-0.3-0.7-0.4-1.1s-0.3-0.9-0.4-1.4c-0.1,0.5-0.3,1-0.4,1.4s-0.3,0.8-0.4,1.2L105.3,40.8z"/>
			<path class="st1" d="M121.4,54.1V33.6h2.3c0.2,0,0.4,0.1,0.6,0.2c0.2,0.1,0.3,0.3,0.3,0.5l0.3,1.4c0.6-0.7,1.3-1.3,2.1-1.7
				c0.8-0.4,1.8-0.7,2.8-0.7c0.8,0,1.6,0.2,2.3,0.5s1.3,0.9,1.8,1.5c0.5,0.7,0.9,1.5,1.2,2.5c0.3,1,0.4,2.1,0.4,3.4
				c0,1.2-0.2,2.2-0.5,3.2c-0.3,1-0.8,1.8-1.3,2.6c-0.6,0.7-1.3,1.3-2.1,1.7c-0.8,0.4-1.7,0.6-2.7,0.6c-0.9,0-1.6-0.1-2.2-0.4
				c-0.6-0.3-1.2-0.6-1.6-1.1v6.3H121.4z M128.6,36.2c-0.8,0-1.4,0.2-2,0.5c-0.5,0.3-1.1,0.8-1.5,1.4V45c0.4,0.5,0.9,0.9,1.4,1.1
				c0.5,0.2,1,0.3,1.6,0.3c0.6,0,1.1-0.1,1.5-0.3c0.5-0.2,0.8-0.5,1.2-1c0.3-0.4,0.6-1,0.7-1.6c0.2-0.7,0.3-1.4,0.3-2.3
				c0-0.9-0.1-1.7-0.2-2.3s-0.4-1.1-0.6-1.5s-0.6-0.7-1-0.9C129.6,36.3,129.1,36.2,128.6,36.2z"/>
			<path class="st1" d="M138.4,54.1V33.6h2.3c0.2,0,0.4,0.1,0.6,0.2c0.2,0.1,0.3,0.3,0.3,0.5l0.3,1.4c0.6-0.7,1.3-1.3,2.1-1.7
				c0.8-0.4,1.8-0.7,2.8-0.7c0.8,0,1.6,0.2,2.3,0.5s1.3,0.9,1.8,1.5c0.5,0.7,0.9,1.5,1.2,2.5c0.3,1,0.4,2.1,0.4,3.4
				c0,1.2-0.2,2.2-0.5,3.2c-0.3,1-0.8,1.8-1.3,2.6c-0.6,0.7-1.3,1.3-2.1,1.7c-0.8,0.4-1.7,0.6-2.7,0.6c-0.9,0-1.6-0.1-2.2-0.4
				c-0.6-0.3-1.2-0.6-1.6-1.1v6.3H138.4z M145.7,36.2c-0.8,0-1.4,0.2-2,0.5c-0.5,0.3-1.1,0.8-1.5,1.4V45c0.4,0.5,0.9,0.9,1.4,1.1
				c0.5,0.2,1,0.3,1.6,0.3c0.6,0,1.1-0.1,1.5-0.3c0.5-0.2,0.8-0.5,1.2-1c0.3-0.4,0.6-1,0.7-1.6c0.2-0.7,0.3-1.4,0.3-2.3
				c0-0.9-0.1-1.7-0.2-2.3s-0.4-1.1-0.6-1.5s-0.6-0.7-1-0.9C146.6,36.3,146.2,36.2,145.7,36.2z"/>
			<path class="st1" d="M155.5,49V33.6h2.2c0.4,0,0.6,0.1,0.8,0.2c0.2,0.1,0.3,0.4,0.3,0.7l0.2,1.9c0.6-1,1.2-1.7,1.9-2.3
				c0.7-0.6,1.6-0.8,2.5-0.8c0.8,0,1.4,0.2,1.9,0.5l-0.5,2.8c0,0.2-0.1,0.3-0.2,0.4s-0.2,0.1-0.4,0.1c-0.2,0-0.4,0-0.6-0.1
				c-0.3-0.1-0.6-0.1-1-0.1c-0.8,0-1.4,0.2-2,0.6c-0.6,0.4-1,1.1-1.4,1.9V49H155.5z"/>
			<path class="st1" d="M174.3,33.3c1.2,0,2.2,0.2,3.1,0.6c0.9,0.4,1.7,0.9,2.4,1.6s1.2,1.5,1.5,2.5c0.4,1,0.5,2.1,0.5,3.3
				c0,1.2-0.2,2.3-0.5,3.3c-0.4,1-0.9,1.8-1.5,2.5c-0.7,0.7-1.5,1.2-2.4,1.6c-0.9,0.4-2,0.6-3.1,0.6s-2.2-0.2-3.1-0.6
				c-0.9-0.4-1.7-0.9-2.4-1.6c-0.7-0.7-1.2-1.5-1.6-2.5c-0.4-1-0.5-2.1-0.5-3.3c0-1.2,0.2-2.3,0.5-3.3c0.4-1,0.9-1.8,1.6-2.5
				c0.7-0.7,1.5-1.2,2.4-1.6C172.1,33.5,173.2,33.3,174.3,33.3z M174.3,46.4c1.3,0,2.2-0.4,2.9-1.3s0.9-2.1,0.9-3.8
				c0-1.7-0.3-2.9-0.9-3.8c-0.6-0.9-1.6-1.3-2.9-1.3c-1.3,0-2.3,0.4-2.9,1.3c-0.6,0.9-0.9,2.1-0.9,3.8s0.3,2.9,0.9,3.8
				C172.1,46,173,46.4,174.3,46.4z"/>
			<path class="st1" d="M197,49h-1.7c-0.4,0-0.6-0.1-0.8-0.2c-0.2-0.1-0.4-0.3-0.5-0.6l-0.3-1.1c-0.4,0.4-0.8,0.7-1.2,0.9
				c-0.4,0.3-0.8,0.5-1.2,0.7c-0.4,0.2-0.8,0.3-1.3,0.4s-1,0.1-1.5,0.1c-0.7,0-1.3-0.1-1.8-0.3c-0.6-0.2-1-0.4-1.4-0.8
				c-0.4-0.4-0.7-0.8-0.9-1.3s-0.3-1.1-0.3-1.8c0-0.6,0.2-1.2,0.5-1.7c0.3-0.6,0.8-1.1,1.5-1.5s1.7-0.8,2.8-1.1
				c1.2-0.3,2.7-0.5,4.4-0.5v-0.9c0-1-0.2-1.8-0.7-2.3c-0.4-0.5-1.1-0.8-1.9-0.8c-0.6,0-1.1,0.1-1.5,0.2c-0.4,0.1-0.8,0.3-1,0.5
				c-0.3,0.2-0.6,0.3-0.8,0.5s-0.5,0.2-0.8,0.2c-0.3,0-0.5-0.1-0.6-0.2s-0.3-0.3-0.4-0.5l-0.7-1.2c1.8-1.6,3.9-2.4,6.4-2.4
				c0.9,0,1.7,0.1,2.4,0.4c0.7,0.3,1.3,0.7,1.8,1.2c0.5,0.5,0.9,1.2,1.1,1.9c0.3,0.7,0.4,1.5,0.4,2.4V49z M189.7,46.7
				c0.4,0,0.7,0,1.1-0.1c0.3-0.1,0.6-0.2,0.9-0.3c0.3-0.1,0.6-0.3,0.8-0.5c0.3-0.2,0.5-0.4,0.8-0.7v-2.6c-1.1,0-2,0.1-2.7,0.2
				s-1.3,0.3-1.8,0.5c-0.4,0.2-0.8,0.5-0.9,0.7s-0.3,0.6-0.3,0.9c0,0.7,0.2,1.1,0.6,1.4C188.6,46.6,189.1,46.7,189.7,46.7z"/>
			<path class="st1" d="M211.5,36.9c-0.1,0.1-0.2,0.3-0.3,0.3c-0.1,0.1-0.3,0.1-0.5,0.1c-0.2,0-0.4-0.1-0.6-0.2
				c-0.2-0.1-0.4-0.2-0.6-0.4c-0.3-0.1-0.5-0.3-0.9-0.4s-0.8-0.2-1.3-0.2c-0.7,0-1.2,0.1-1.7,0.4s-0.9,0.6-1.2,1s-0.6,1-0.7,1.6
				c-0.2,0.6-0.2,1.3-0.2,2.1c0,0.8,0.1,1.6,0.3,2.2c0.2,0.6,0.4,1.2,0.8,1.6s0.7,0.8,1.2,1c0.5,0.2,1,0.3,1.6,0.3s1.1-0.1,1.4-0.2
				s0.7-0.3,0.9-0.5c0.3-0.2,0.5-0.3,0.7-0.5c0.2-0.1,0.4-0.2,0.6-0.2c0.3,0,0.5,0.1,0.7,0.3l1.1,1.4c-0.4,0.5-0.9,0.9-1.3,1.2
				s-1,0.6-1.5,0.8c-0.5,0.2-1.1,0.3-1.6,0.4c-0.6,0.1-1.1,0.1-1.6,0.1c-1,0-1.9-0.2-2.7-0.5s-1.6-0.9-2.2-1.6s-1.1-1.5-1.5-2.5
				c-0.4-1-0.5-2.1-0.5-3.4c0-1.1,0.2-2.2,0.5-3.2c0.3-1,0.8-1.8,1.4-2.5c0.6-0.7,1.4-1.3,2.3-1.7c0.9-0.4,2-0.6,3.2-0.6
				c1.2,0,2.2,0.2,3,0.6c0.9,0.4,1.6,0.9,2.3,1.6L211.5,36.9z"/>
			<path class="st1" d="M215,49V26.7h3.7v8.6c0.6-0.6,1.3-1,2-1.4c0.7-0.4,1.6-0.5,2.5-0.5c0.8,0,1.6,0.1,2.2,0.4s1.2,0.7,1.6,1.2
				c0.4,0.5,0.8,1.1,1,1.9s0.3,1.5,0.3,2.4V49h-3.7v-9.8c0-0.9-0.2-1.7-0.7-2.2s-1.1-0.8-2-0.8c-0.6,0-1.2,0.1-1.8,0.4
				c-0.6,0.3-1.1,0.7-1.6,1.2V49H215z"/>
		</g>
		<g>
			<g>
				<g>
					<g id="Macbook_base_382_">
						<g>
							<path class="st1" d="M221.2,401.3H11.4c-3.6,0-6.5,2.9-6.5,6.5v134.6c0,3.6,2.9,6.5,6.5,6.5h209.8c3.6,0,6.5-2.9,6.5-6.5
								V407.8C227.7,404.2,224.8,401.3,221.2,401.3z"/>
						</g>
					</g>
					<g id="Macbook_base_380_">
						<g>
							<path class="st8" d="M221.2,401.3H11.4c-3.6,0-6.5,2.9-6.5,6.5v6.3h222.9v-6.3C227.7,404.2,224.8,401.3,221.2,401.3z"/>
						</g>
					</g>
					<g>
						<circle class="st1" cx="13.1" cy="407.7" r="1.9"/>
						<circle class="st1" cx="19.5" cy="407.7" r="1.9"/>
						<circle class="st1" cx="25.8" cy="407.7" r="1.9"/>
					</g>
					<rect x="79.3" y="405.9" class="st9" width="73.9" height="4.3"/>
				</g>
				<g>
					<path class="st18" d="M119.8,460.5c0,1.9-1.6,3.5-3.5,3.5l0,0c-1.9,0-3.5-1.6-3.5-3.5v-10.4c0-1.9,1.6-3.5,3.5-3.5l0,0
						c1.9,0,3.5,1.6,3.5,3.5V460.5z"/>
					<path class="st10" d="M119.8,512.6c0,1.9-1.6,3.5-3.5,3.5l0,0c-1.9,0-3.5-1.6-3.5-3.5v-10.4c0-1.9,1.6-3.5,3.5-3.5l0,0
						c1.9,0,3.5,1.6,3.5,3.5V512.6z"/>
					<path class="st19" d="M95.4,477.9c1.9,0,3.5,1.6,3.5,3.5l0,0c0,1.9-1.6,3.5-3.5,3.5H85c-1.9,0-3.5-1.6-3.5-3.5l0,0
						c0-1.9,1.6-3.5,3.5-3.5H95.4z"/>
					<path class="st20" d="M147.6,477.9c1.9,0,3.5,1.6,3.5,3.5l0,0c0,1.9-1.6,3.5-3.5,3.5h-10.4c-1.9,0-3.5-1.6-3.5-3.5l0,0
						c0-1.9,1.6-3.5,3.5-3.5H147.6z"/>
					<path class="st21" d="M96.5,488.8c1.7-1,3.8-0.4,4.7,1.3l0,0c1,1.7,0.4,3.8-1.3,4.7l-9,5.2c-1.7,1-3.8,0.4-4.7-1.3l0,0
						c-1-1.7-0.4-3.8,1.3-4.7L96.5,488.8z"/>
					<path class="st22" d="M141.6,462.7c1.7-1,3.8-0.4,4.7,1.3l0,0c1,1.7,0.4,3.8-1.3,4.7l-9,5.2c-1.7,1-3.8,0.4-4.7-1.3l0,0
						c-1-1.7-0.4-3.8,1.3-4.7L141.6,462.7z"/>
					<path class="st23" d="M123.7,501.1c-1-1.7-0.4-3.8,1.3-4.7l0,0c1.7-1,3.8-0.4,4.7,1.3l5.2,9c1,1.7,0.4,3.8-1.3,4.7l0,0
						c-1.7,1-3.8,0.4-4.7-1.3L123.7,501.1z"/>
					<path class="st24" d="M97.6,456c-1-1.7-0.4-3.8,1.3-4.7l0,0c1.7-1,3.8-0.4,4.7,1.3l5.2,9c1,1.7,0.4,3.8-1.3,4.7l0,0
						c-1.7,1-3.8,0.4-4.7-1.3L97.6,456z"/>
					<path class="st25" d="M102.9,497.7c1-1.7,3.1-2.2,4.7-1.3l0,0c1.7,1,2.2,3.1,1.3,4.7l-5.2,9.1c-1,1.7-3.1,2.2-4.7,1.3l0,0
						c-1.7-1-2.2-3.1-1.3-4.7L102.9,497.7z"/>
					<path class="st26" d="M128.9,452.5c1-1.7,3.1-2.2,4.7-1.3l0,0c1.7,1,2.2,3.1,1.3,4.7l-5.2,9.1c-1,1.7-3.1,2.2-4.7,1.3l0,0
						c-1.7-1-2.2-3.1-1.3-4.7L128.9,452.5z"/>
					<path class="st27" d="M132.6,494.8c-1.7-1-2.2-3.1-1.3-4.7l0,0c1-1.7,3.1-2.2,4.7-1.3l9.1,5.2c1.7,1,2.2,3.1,1.3,4.7l0,0
						c-1,1.7-3.1,2.2-4.7,1.3L132.6,494.8z"/>
					<path class="st28" d="M87.4,468.7c-1.7-1-2.2-3.1-1.3-4.7l0,0c1-1.7,3.1-2.2,4.7-1.3l9.1,5.2c1.7,1,2.2,3.1,1.3,4.7l0,0
						c-1,1.7-3.1,2.2-4.7,1.3L87.4,468.7z"/>
				</g>
				<g>
					<g>
						<g>
							<g id="Macbook_base_378_">
								<g>
									<path class="st1" d="M221.2,952.8H11.4c-3.6,0-6.5,2.9-6.5,6.5v134.6c0,3.6,2.9,6.5,6.5,6.5h209.8c3.6,0,6.5-2.9,6.5-6.5
										V959.3C227.7,955.7,224.8,952.8,221.2,952.8z"/>
								</g>
							</g>
							<g id="Macbook_base_376_">
								<g>
									<path class="st8" d="M221.2,952.8H11.4c-3.6,0-6.5,2.9-6.5,6.5v6.3h222.9v-6.3C227.7,955.7,224.8,952.8,221.2,952.8z"/>
								</g>
							</g>
							<g>
								<circle class="st1" cx="13.1" cy="959.2" r="1.9"/>
								<circle class="st1" cx="19.5" cy="959.2" r="1.9"/>
								<circle class="st1" cx="25.8" cy="959.2" r="1.9"/>
							</g>
							<rect x="79.3" y="957.4" class="st9" width="73.9" height="4.3"/>
						</g>
						<g>
							<g>
								<g id="Macbook_base_374_">
									<g>
										<rect x="108.7" y="1034.1" class="st29" width="82.5" height="5.8"/>
									</g>
								</g>
							</g>
							<path class="st29" d="M43.6,1069.3h47.7c1.4,0,2.5-1.1,2.5-2.5v-74.6c0-1.4-1.1-2.5-2.5-2.5H43.6c-1.4,0-2.5,1.1-2.5,2.5
								v74.6C41.1,1068.2,42.2,1069.3,43.6,1069.3z"/>
							<g>
								<path class="st18" d="M124.1,1048.4c0,0.7-0.6,1.3-1.3,1.3l0,0c-0.7,0-1.3-0.6-1.3-1.3v-4c0-0.7,0.6-1.3,1.3-1.3l0,0
									c0.7,0,1.3,0.6,1.3,1.3V1048.4z"/>
								<path class="st10" d="M124.1,1068.4c0,0.7-0.6,1.3-1.3,1.3l0,0c-0.7,0-1.3-0.6-1.3-1.3v-4c0-0.7,0.6-1.3,1.3-1.3l0,0
									c0.7,0,1.3,0.6,1.3,1.3V1068.4z"/>
								<path class="st19" d="M114.8,1055c0.7,0,1.3,0.6,1.3,1.3l0,0c0,0.7-0.6,1.3-1.3,1.3h-4c-0.7,0-1.3-0.6-1.3-1.3l0,0
									c0-0.7,0.6-1.3,1.3-1.3H114.8z"/>
								<path class="st20" d="M134.8,1055c0.7,0,1.3,0.6,1.3,1.3l0,0c0,0.7-0.6,1.3-1.3,1.3h-4c-0.7,0-1.3-0.6-1.3-1.3l0,0
									c0-0.7,0.6-1.3,1.3-1.3H134.8z"/>
								<path class="st21" d="M115.2,1059.2c0.6-0.4,1.5-0.2,1.8,0.5l0,0c0.4,0.6,0.2,1.5-0.5,1.8l-3.5,2c-0.6,0.4-1.5,0.2-1.8-0.5
									l0,0c-0.4-0.6-0.2-1.5,0.5-1.8L115.2,1059.2z"/>
								<path class="st22" d="M132.5,1049.2c0.6-0.4,1.5-0.2,1.8,0.5l0,0c0.4,0.6,0.1,1.5-0.5,1.8l-3.5,2c-0.6,0.4-1.5,0.1-1.8-0.5
									l0,0c-0.4-0.6-0.2-1.5,0.5-1.8L132.5,1049.2z"/>
								<path class="st23" d="M125.6,1064c-0.4-0.6-0.2-1.5,0.5-1.8l0,0c0.6-0.4,1.5-0.2,1.8,0.5l2,3.5c0.4,0.6,0.2,1.5-0.5,1.8l0,0
									c-0.6,0.4-1.5,0.2-1.8-0.5L125.6,1064z"/>
								<path class="st24" d="M115.6,1046.6c-0.4-0.6-0.2-1.5,0.5-1.8l0,0c0.6-0.4,1.5-0.1,1.8,0.5l2,3.5c0.4,0.6,0.2,1.5-0.5,1.8
									l0,0c-0.6,0.4-1.5,0.2-1.8-0.5L115.6,1046.6z"/>
								<path class="st25" d="M117.6,1062.6c0.4-0.6,1.2-0.9,1.8-0.5l0,0c0.6,0.4,0.9,1.2,0.5,1.8l-2,3.5c-0.4,0.6-1.2,0.9-1.8,0.5
									l0,0c-0.6-0.4-0.9-1.2-0.5-1.8L117.6,1062.6z"/>
								<path class="st26" d="M127.6,1045.3c0.4-0.6,1.2-0.9,1.8-0.5l0,0c0.6,0.4,0.9,1.2,0.5,1.8l-2,3.5c-0.4,0.6-1.2,0.9-1.8,0.5
									l0,0c-0.6-0.4-0.9-1.2-0.5-1.8L127.6,1045.3z"/>
								<path class="st27" d="M129,1061.5c-0.6-0.4-0.9-1.2-0.5-1.8l0,0c0.4-0.6,1.2-0.9,1.8-0.5l3.5,2c0.6,0.4,0.9,1.2,0.5,1.8l0,0
									c-0.4,0.6-1.2,0.9-1.8,0.5L129,1061.5z"/>
								<path class="st28" d="M111.7,1051.5c-0.6-0.4-0.9-1.2-0.5-1.8l0,0c0.4-0.6,1.2-0.9,1.8-0.5l3.5,2c0.6,0.4,0.9,1.2,0.5,1.8
									l0,0c-0.4,0.6-1.2,0.9-1.8,0.5L111.7,1051.5z"/>
							</g>
							<g>
								<g id="Macbook_base_372_">
									<g>
										<rect x="108.7" y="989.8" class="st29" width="82.5" height="5.8"/>
									</g>
								</g>
							</g>
							<g>
								<path class="st18" d="M124.1,1004.1c0,0.7-0.6,1.3-1.3,1.3l0,0c-0.7,0-1.3-0.6-1.3-1.3v-4c0-0.7,0.6-1.3,1.3-1.3l0,0
									c0.7,0,1.3,0.6,1.3,1.3V1004.1z"/>
								<path class="st10" d="M124.1,1024.1c0,0.7-0.6,1.3-1.3,1.3l0,0c-0.7,0-1.3-0.6-1.3-1.3v-4c0-0.7,0.6-1.3,1.3-1.3l0,0
									c0.7,0,1.3,0.6,1.3,1.3V1024.1z"/>
								<path class="st19" d="M114.8,1010.8c0.7,0,1.3,0.6,1.3,1.3l0,0c0,0.7-0.6,1.3-1.3,1.3h-4c-0.7,0-1.3-0.6-1.3-1.3l0,0
									c0-0.7,0.6-1.3,1.3-1.3H114.8z"/>
								<path class="st20" d="M134.8,1010.8c0.7,0,1.3,0.6,1.3,1.3l0,0c0,0.7-0.6,1.3-1.3,1.3h-4c-0.7,0-1.3-0.6-1.3-1.3l0,0
									c0-0.7,0.6-1.3,1.3-1.3H134.8z"/>
								<path class="st21" d="M115.2,1015c0.6-0.4,1.5-0.2,1.8,0.5l0,0c0.4,0.6,0.2,1.5-0.5,1.8l-3.5,2c-0.6,0.4-1.5,0.2-1.8-0.5
									l0,0c-0.4-0.6-0.2-1.5,0.5-1.8L115.2,1015z"/>
								<path class="st22" d="M132.5,1004.9c0.6-0.4,1.5-0.2,1.8,0.5l0,0c0.4,0.6,0.1,1.5-0.5,1.8l-3.5,2c-0.6,0.4-1.5,0.1-1.8-0.5
									l0,0c-0.4-0.6-0.2-1.5,0.5-1.8L132.5,1004.9z"/>
								<path class="st23" d="M125.6,1019.7c-0.4-0.6-0.2-1.5,0.5-1.8l0,0c0.6-0.4,1.5-0.2,1.8,0.5l2,3.5c0.4,0.6,0.2,1.5-0.5,1.8
									l0,0c-0.6,0.4-1.5,0.2-1.8-0.5L125.6,1019.7z"/>
								<path class="st24" d="M115.6,1002.4c-0.4-0.6-0.2-1.5,0.5-1.8l0,0c0.6-0.4,1.5-0.1,1.8,0.5l2,3.5c0.4,0.6,0.2,1.5-0.5,1.8
									l0,0c-0.6,0.4-1.5,0.2-1.8-0.5L115.6,1002.4z"/>
								<path class="st25" d="M117.6,1018.4c0.4-0.6,1.2-0.9,1.8-0.5l0,0c0.6,0.4,0.9,1.2,0.5,1.8l-2,3.5c-0.4,0.6-1.2,0.9-1.8,0.5
									l0,0c-0.6-0.4-0.9-1.2-0.5-1.8L117.6,1018.4z"/>
								<path class="st26" d="M127.6,1001c0.4-0.6,1.2-0.9,1.8-0.5l0,0c0.6,0.4,0.9,1.2,0.5,1.8l-2,3.5c-0.4,0.6-1.2,0.9-1.8,0.5
									l0,0c-0.6-0.4-0.9-1.2-0.5-1.8L127.6,1001z"/>
								<path class="st27" d="M129,1017.3c-0.6-0.4-0.9-1.2-0.5-1.8l0,0c0.4-0.6,1.2-0.9,1.8-0.5l3.5,2c0.6,0.4,0.9,1.2,0.5,1.8l0,0
									c-0.4,0.6-1.2,0.9-1.8,0.5L129,1017.3z"/>
								<path class="st28" d="M111.7,1007.3c-0.6-0.4-0.9-1.2-0.5-1.8l0,0c0.4-0.6,1.2-0.9,1.8-0.5l3.5,2c0.6,0.4,0.9,1.2,0.5,1.8
									l0,0c-0.4,0.6-1.2,0.9-1.8,0.5L111.7,1007.3z"/>
							</g>
						</g>
					</g>
					<g id="Macbook_base_370_">
						<g>
							<rect x="4.8" y="965.2" class="st29" width="222.9" height="12.8"/>
						</g>
					</g>
				</g>
				<g>
					<g>
						<g>
							<g id="Macbook_base_368_">
								<g>
									<path class="st1" d="M221.2,1244.3H11.4c-3.6,0-6.5,2.9-6.5,6.5v134.6c0,3.6,2.9,6.5,6.5,6.5h209.8c3.6,0,6.5-2.9,6.5-6.5
										v-134.6C227.7,1247.2,224.8,1244.3,221.2,1244.3z"/>
								</g>
							</g>
							<g id="Macbook_base_366_">
								<g>
									<path class="st8" d="M221.2,1244.3H11.4c-3.6,0-6.5,2.9-6.5,6.5v6.3h222.9v-6.3C227.7,1247.2,224.8,1244.3,221.2,1244.3z"
										/>
								</g>
							</g>
							<g>
								<circle class="st1" cx="13.1" cy="1250.7" r="1.9"/>
								<circle class="st1" cx="19.5" cy="1250.7" r="1.9"/>
								<circle class="st1" cx="25.8" cy="1250.7" r="1.9"/>
							</g>
							<rect x="79.3" y="1248.9" class="st9" width="73.9" height="4.3"/>
						</g>
						<g>
							<g>
								<g id="Macbook_base_364_">
									<g>
										<rect x="108.6" y="1287.9" class="st29" width="82.5" height="5.8"/>
									</g>
								</g>
							</g>
							<g>
								<g id="Macbook_base_362_">
									<g>
										<rect x="125.8" y="1300.4" class="st10" width="47" height="4.4"/>
									</g>
								</g>
								<circle class="st11" cx="117.3" cy="1302.7" r="5"/>
							</g>
							<g>
								<g id="Macbook_base_360_">
									<g>
										<rect x="125.8" y="1313.3" class="st10" width="47" height="4.4"/>
									</g>
								</g>
								<circle class="st11" cx="117.3" cy="1315.6" r="5"/>
							</g>
							<g>
								<g id="Macbook_base_358_">
									<g>
										<rect x="108.6" y="1335.3" class="st29" width="82.5" height="5.8"/>
									</g>
								</g>
							</g>
							<g>
								<g id="Macbook_base_356_">
									<g>
										<rect x="125.8" y="1347.8" class="st10" width="47" height="4.4"/>
									</g>
								</g>
								<circle class="st12" cx="117.3" cy="1350.1" r="5"/>
							</g>
							<g>
								<g id="Macbook_base_354_">
									<g>
										<rect x="125.8" y="1360.7" class="st10" width="47" height="4.4"/>
									</g>
								</g>
								<circle class="st12" cx="117.3" cy="1363" r="5"/>
							</g>
							<path class="st29" d="M43.5,1367.5h47.7c1.4,0,2.5-1.1,2.5-2.5v-74.6c0-1.4-1.1-2.5-2.5-2.5H43.5c-1.4,0-2.5,1.1-2.5,2.5
								v74.6C41,1366.4,42.1,1367.5,43.5,1367.5z"/>
						</g>
					</g>
					<g id="Macbook_base_352_">
						<g>
							<rect x="4.8" y="1256.8" class="st29" width="222.9" height="12.8"/>
						</g>
					</g>
				</g>
				<g>
					<g>
						<g id="Macbook_base_350_">
							<g>
								<path class="st1" d="M221.2,118.1H11.4c-3.6,0-6.5,2.9-6.5,6.5v134.6c0,3.6,2.9,6.5,6.5,6.5h209.8c3.6,0,6.5-2.9,6.5-6.5
									V124.7C227.7,121.1,224.8,118.1,221.2,118.1z"/>
							</g>
						</g>
						<g id="Macbook_base_348_">
							<g>
								<path class="st8" d="M221.2,118.1H11.4c-3.6,0-6.5,2.9-6.5,6.5v6.3h222.9v-6.3C227.7,121.1,224.8,118.1,221.2,118.1z"/>
							</g>
						</g>
						<g>
							<circle class="st1" cx="13.1" cy="124.6" r="1.9"/>
							<circle class="st1" cx="19.5" cy="124.6" r="1.9"/>
							<circle class="st1" cx="25.8" cy="124.6" r="1.9"/>
						</g>
						<rect x="79.3" y="122.7" class="st9" width="73.9" height="4.3"/>
					</g>
					<g>
						<path class="st9" d="M92.2,182.8c-0.1,0.2-0.3,0.4-0.4,0.5c-0.1,0.1-0.3,0.2-0.6,0.2c-0.2,0-0.5-0.1-0.9-0.4
							c-0.3-0.2-0.7-0.5-1.2-0.8s-1.1-0.6-1.8-0.8c-0.7-0.2-1.5-0.4-2.5-0.4c-0.9,0-1.8,0.1-2.5,0.4s-1.3,0.6-1.8,1
							c-0.5,0.4-0.8,0.9-1.1,1.5c-0.2,0.6-0.4,1.2-0.4,1.9c0,0.9,0.2,1.6,0.6,2.2s1,1.1,1.7,1.5c0.7,0.4,1.5,0.8,2.4,1.1
							c0.9,0.3,1.8,0.6,2.7,0.9c0.9,0.3,1.8,0.7,2.7,1.1s1.7,0.9,2.4,1.5s1.3,1.4,1.7,2.2s0.6,2,0.6,3.2c0,1.4-0.2,2.6-0.7,3.8
							c-0.5,1.2-1.1,2.2-2,3.1c-0.9,0.9-2,1.6-3.3,2.1c-1.3,0.5-2.8,0.8-4.4,0.8c-2,0-3.8-0.4-5.5-1.1c-1.7-0.7-3.1-1.7-4.2-3l1.2-2
							c0.1-0.2,0.3-0.3,0.4-0.4s0.4-0.2,0.6-0.2c0.3,0,0.7,0.2,1,0.5c0.4,0.3,0.9,0.7,1.5,1.1c0.6,0.4,1.3,0.7,2.1,1.1
							s1.8,0.5,3,0.5c1,0,1.9-0.1,2.7-0.4c0.8-0.3,1.4-0.7,2-1.2s1-1.1,1.2-1.8c0.3-0.7,0.4-1.5,0.4-2.3c0-0.9-0.2-1.7-0.6-2.3
							s-1-1.1-1.7-1.5c-0.7-0.4-1.5-0.7-2.4-1c-0.9-0.3-1.8-0.6-2.7-0.9s-1.8-0.6-2.7-1c-0.9-0.4-1.7-0.9-2.4-1.5
							c-0.7-0.6-1.3-1.4-1.7-2.3s-0.6-2.1-0.6-3.5c0-1.1,0.2-2.2,0.6-3.2c0.4-1,1-1.9,1.9-2.7c0.8-0.8,1.8-1.4,3-1.9
							c1.2-0.5,2.6-0.7,4.1-0.7c1.7,0,3.3,0.3,4.7,0.8c1.4,0.5,2.7,1.3,3.7,2.4L92.2,182.8z"/>
						<path class="st9" d="M105.3,209.3c-1.7,0-3.1-0.5-4-1.5c-0.9-1-1.4-2.4-1.4-4.2v-13.4h-2.6c-0.2,0-0.4-0.1-0.6-0.2
							c-0.2-0.1-0.2-0.4-0.2-0.6v-1.5l3.6-0.5l0.9-6.8c0-0.2,0.1-0.4,0.3-0.5c0.2-0.1,0.4-0.2,0.6-0.2h1.9v7.6h6.3v2.8h-6.3v13.2
							c0,0.9,0.2,1.6,0.7,2.1c0.4,0.4,1,0.7,1.7,0.7c0.4,0,0.8-0.1,1.1-0.2c0.3-0.1,0.6-0.2,0.8-0.4c0.2-0.1,0.4-0.2,0.6-0.4
							c0.2-0.1,0.3-0.2,0.4-0.2c0.2,0,0.4,0.1,0.5,0.4l1.1,1.8c-0.7,0.6-1.5,1.1-2.4,1.5C107.2,209.1,106.3,209.3,105.3,209.3z"/>
						<path class="st9" d="M130.9,209h-1.7c-0.4,0-0.7-0.1-0.9-0.2c-0.2-0.1-0.4-0.4-0.5-0.7l-0.4-2c-0.6,0.5-1.1,1-1.7,1.4
							c-0.5,0.4-1.1,0.8-1.7,1c-0.6,0.3-1.3,0.5-1.9,0.6s-1.4,0.2-2.3,0.2c-0.9,0-1.6-0.1-2.4-0.4c-0.7-0.2-1.4-0.6-1.9-1.1
							s-1-1.1-1.3-1.8c-0.3-0.7-0.5-1.6-0.5-2.6c0-0.9,0.2-1.7,0.7-2.5c0.5-0.8,1.2-1.5,2.3-2.1c1.1-0.6,2.5-1.1,4.2-1.5
							s3.8-0.6,6.3-0.6V195c0-1.7-0.4-3-1.1-3.9s-1.8-1.3-3.2-1.3c-0.9,0-1.7,0.1-2.4,0.4c-0.6,0.2-1.2,0.5-1.7,0.8
							c-0.5,0.3-0.9,0.6-1.2,0.8c-0.3,0.2-0.7,0.4-1,0.4c-0.3,0-0.5-0.1-0.7-0.2s-0.3-0.3-0.5-0.5l-0.7-1.2c1.2-1.2,2.5-2,3.9-2.6
							c1.4-0.6,3-0.9,4.7-0.9c1.2,0,2.3,0.2,3.3,0.6s1.8,1,2.4,1.7c0.7,0.7,1.1,1.6,1.5,2.6s0.5,2.2,0.5,3.4V209z M120.9,206.6
							c0.7,0,1.3-0.1,1.9-0.2s1.1-0.3,1.6-0.6c0.5-0.3,1-0.6,1.4-0.9s0.9-0.8,1.3-1.2v-4.5c-1.8,0-3.3,0.1-4.5,0.3
							c-1.2,0.2-2.3,0.5-3,0.9c-0.8,0.4-1.3,0.8-1.7,1.3c-0.4,0.5-0.5,1-0.5,1.7c0,0.6,0.1,1.1,0.3,1.5c0.2,0.4,0.4,0.8,0.8,1
							c0.3,0.3,0.7,0.5,1.1,0.6C119.9,206.6,120.4,206.6,120.9,206.6z"/>
						<path class="st9" d="M136.7,209V187h2.2c0.4,0,0.7,0.1,0.9,0.2c0.2,0.2,0.3,0.4,0.3,0.8l0.3,3.4c0.8-1.5,1.7-2.7,2.8-3.6
							s2.4-1.3,3.9-1.3c0.6,0,1.2,0.1,1.6,0.2c0.5,0.1,0.9,0.3,1.4,0.6l-0.5,2.9c-0.1,0.4-0.3,0.5-0.7,0.5c-0.2,0-0.5-0.1-0.9-0.2
							c-0.4-0.1-1-0.2-1.8-0.2c-1.3,0-2.5,0.4-3.4,1.2c-0.9,0.8-1.7,1.9-2.3,3.4v14H136.7z"/>
						<path class="st9" d="M160.8,209.3c-1.7,0-3.1-0.5-4-1.5c-0.9-1-1.4-2.4-1.4-4.2v-13.4h-2.6c-0.2,0-0.4-0.1-0.6-0.2
							c-0.2-0.1-0.2-0.4-0.2-0.6v-1.5l3.6-0.5l0.9-6.8c0-0.2,0.1-0.4,0.3-0.5s0.4-0.2,0.6-0.2h1.9v7.6h6.3v2.8h-6.3v13.2
							c0,0.9,0.2,1.6,0.7,2.1c0.4,0.4,1,0.7,1.7,0.7c0.4,0,0.8-0.1,1.1-0.2s0.6-0.2,0.8-0.4c0.2-0.1,0.4-0.2,0.6-0.4
							c0.2-0.1,0.3-0.2,0.4-0.2c0.2,0,0.4,0.1,0.5,0.4l1.1,1.8c-0.7,0.6-1.5,1.1-2.4,1.5S161.8,209.3,160.8,209.3z"/>
					</g>
				</g>
			</g>
			<g>
				<g>
					<g class="st13">
						<path class="st1" d="M114,360.2c-0.3,0-0.6-0.1-0.8-0.4l-5.5-6.5c-0.4-0.4-0.3-1.1,0.1-1.4c0.4-0.4,1.1-0.3,1.4,0.1l4.7,5.6
							l4.7-5.6c0.4-0.4,1-0.5,1.4-0.1c0.4,0.4,0.5,1,0.1,1.4l-5.5,6.5C114.6,360.1,114.3,360.2,114,360.2z"/>
						<path class="st1" d="M114,358.6c-0.6,0-1-0.4-1-1v-15.5c0-0.6,0.4-1,1-1s1,0.4,1,1v15.5C115,358.1,114.6,358.6,114,358.6z"/>
					</g>
					<path class="st0" d="M114,347.9l-13.9-8.3v-16l13.9-8.3l13.9,8.3v16L114,347.9z M106.1,336.2l7.9,4.7l7.9-4.7V327l-7.9-4.7
						l-7.9,4.7V336.2z"/>
					<g>
						<path class="st1" d="M114,345.5c-0.2,0-0.3,0-0.5-0.1c-0.3-0.2-0.5-0.5-0.5-0.9v-12.6c0-0.4,0.2-0.7,0.5-0.9l10.9-6.5
							c0.3-0.2,0.7-0.2,1,0c0.3,0.2,0.5,0.5,0.5,0.9v12.6c0,0.4-0.2,0.7-0.5,0.9l-10.9,6.5C114.4,345.4,114.2,345.5,114,345.5z
							 M115,332.4v10.3l8.9-5.3v-10.3L115,332.4z"/>
						<path class="st1" d="M114,345.5c-0.2,0-0.4,0-0.5-0.1l-10.9-6.5c-0.3-0.2-0.5-0.5-0.5-0.9v-12.6c0-0.4,0.2-0.7,0.5-0.9
							c0.3-0.2,0.7-0.2,1,0l10.9,6.5c0.3,0.2,0.5,0.5,0.5,0.9v12.6c0,0.4-0.2,0.7-0.5,0.9C114.4,345.4,114.2,345.5,114,345.5z
							 M104.1,337.4l8.9,5.3v-10.3l-8.9-5.3V337.4z"/>
						<path class="st1" d="M114,332.9c-0.2,0-0.4,0-0.5-0.1l-10.9-6.5c-0.3-0.2-0.5-0.5-0.5-0.9c0-0.4,0.2-0.7,0.5-0.9l10.9-6.5
							c0.3-0.2,0.7-0.2,1,0l10.9,6.5c0.3,0.2,0.5,0.5,0.5,0.9c0,0.4-0.2,0.7-0.5,0.9l-10.9,6.5C114.4,332.8,114.2,332.9,114,332.9z
							 M105,325.3l9,5.4l9-5.4l-9-5.4L105,325.3z"/>
					</g>
					<rect x="111.5" y="310.4" class="st0" width="5" height="13.5"/>
					<path class="st74" d="M114,325.6c-0.6,0-1-0.4-1-1v-14.2c0-0.6,0.4-1,1-1s1,0.4,1,1v14.2C115,325.1,114.6,325.6,114,325.6z"/>
				</g>
				<g>
					<g class="st13">
						<path class="st1" d="M114,1200c-0.3,0-0.6-0.1-0.8-0.4l-5.5-6.5c-0.4-0.4-0.3-1.1,0.1-1.4c0.4-0.4,1.1-0.3,1.4,0.1l4.7,5.6
							l4.7-5.6c0.4-0.4,1-0.5,1.4-0.1c0.4,0.4,0.5,1,0.1,1.4l-5.5,6.5C114.6,1199.9,114.3,1200,114,1200z"/>
						<path class="st1" d="M114,1198.4c-0.6,0-1-0.4-1-1v-15.5c0-0.6,0.4-1,1-1s1,0.4,1,1v15.5C115,1197.9,114.6,1198.4,114,1198.4z
							"/>
					</g>
					<path class="st0" d="M114,1187.8l-13.9-8.3v-16l13.9-8.3l13.9,8.3v16L114,1187.8z M106.1,1176.1l7.9,4.7l7.9-4.7v-9.2l-7.9-4.7
						l-7.9,4.7V1176.1z"/>
					<g>
						<path class="st1" d="M114,1185.3c-0.2,0-0.3,0-0.5-0.1c-0.3-0.2-0.5-0.5-0.5-0.9v-12.6c0-0.4,0.2-0.7,0.5-0.9l10.9-6.5
							c0.3-0.2,0.7-0.2,1,0c0.3,0.2,0.5,0.5,0.5,0.9v12.6c0,0.4-0.2,0.7-0.5,0.9l-10.9,6.5C114.4,1185.2,114.2,1185.3,114,1185.3z
							 M115,1172.3v10.3l8.9-5.3v-10.3L115,1172.3z"/>
						<path class="st1" d="M114,1185.3c-0.2,0-0.4,0-0.5-0.1l-10.9-6.5c-0.3-0.2-0.5-0.5-0.5-0.9v-12.6c0-0.4,0.2-0.7,0.5-0.9
							c0.3-0.2,0.7-0.2,1,0l10.9,6.5c0.3,0.2,0.5,0.5,0.5,0.9v12.6c0,0.4-0.2,0.7-0.5,0.9C114.4,1185.2,114.2,1185.3,114,1185.3z
							 M104.1,1177.2l8.9,5.3v-10.3l-8.9-5.3V1177.2z"/>
						<path class="st1" d="M114,1172.7c-0.2,0-0.4,0-0.5-0.1l-10.9-6.5c-0.3-0.2-0.5-0.5-0.5-0.9s0.2-0.7,0.5-0.9l10.9-6.5
							c0.3-0.2,0.7-0.2,1,0l10.9,6.5c0.3,0.2,0.5,0.5,0.5,0.9c0,0.4-0.2,0.7-0.5,0.9l-10.9,6.5
							C114.4,1172.6,114.2,1172.7,114,1172.7z M105,1165.2l9,5.4l9-5.4l-9-5.4L105,1165.2z"/>
					</g>
					<rect x="111.5" y="1150.2" class="st0" width="5" height="13.5"/>
					<path class="st74" d="M114,1165.4c-0.6,0-1-0.4-1-1v-14.2c0-0.6,0.4-1,1-1s1,0.4,1,1v14.2C115,1164.9,114.6,1165.4,114,1165.4z
						"/>
				</g>
				<g>
					<g>
						<path class="st0" d="M114.7,781.4c-1,0-1.9-0.3-2.8-0.8l-23.4-13.9c-1.7-1-2.7-2.8-2.7-4.7v-26.9c0-1.9,1-3.7,2.7-4.7
							l23.4-13.9c1.7-1,3.9-1,5.6,0l23.4,13.9c1.7,1,2.7,2.8,2.7,4.7l0,26.9c0,1.9-1,3.7-2.7,4.7l-23.4,13.9
							C116.6,781.1,115.7,781.4,114.7,781.4z M96.8,758.9l17.9,10.6l17.9-10.6l0-20.7l-17.9-10.7l-17.9,10.7V758.9z"/>
					</g>
					<g class="st13">
						<path class="st1" d="M117,857L117,857c-0.4,0-0.9-0.2-1.2-0.5l-4.4-5.3c-0.5-0.6-0.4-1.6,0.2-2.1c0.6-0.5,1.6-0.4,2.1,0.2
							l3.2,3.9l3.3-3.9c0.5-0.6,1.5-0.7,2.1-0.2c0.6,0.5,0.7,1.5,0.2,2.1l-4.4,5.3C117.9,856.8,117.5,857,117,857z"/>
						<g>
							<path class="st1" d="M117,857c-0.8,0-1.5-0.7-1.5-1.5l0-1.5c0-0.8,0.7-1.5,1.5-1.5c0,0,0,0,0,0c0.8,0,1.5,0.7,1.5,1.5l0,1.5
								C118.6,856.3,117.9,857,117,857C117.1,857,117,857,117,857z"/>
							<path class="st1" d="M117,851.6c-0.8,0-1.5-0.7-1.5-1.5l0-2.9c0-0.8,0.7-1.5,1.5-1.5c0,0,0,0,0,0c0.8,0,1.5,0.7,1.5,1.5
								l0,2.9C118.5,850.9,117.8,851.6,117,851.6C117,851.6,117,851.6,117,851.6z M116.9,844.7c-0.8,0-1.5-0.7-1.5-1.5l0-2.9
								c0-0.8,0.7-1.5,1.5-1.5c0.8,0,1.5,0.7,1.5,1.5l0,2.9C118.4,844,117.7,844.7,116.9,844.7C116.9,844.7,116.9,844.7,116.9,844.7
								z"/>
							<path class="st1" d="M116.8,837.8c-0.8,0-1.5-0.7-1.5-1.5l0-0.2l-0.2,0c-0.8-0.1-1.4-0.9-1.3-1.7c0.1-0.8,0.9-1.4,1.7-1.3
								l1.5,0.2c0.7,0.1,1.3,0.7,1.3,1.5l0,1.5C118.3,837.2,117.6,837.8,116.8,837.8C116.8,837.8,116.8,837.8,116.8,837.8z"/>
							<path class="st1" d="M112.6,835.8c-0.1,0-0.1,0-0.2,0l-2-0.3c-0.8-0.1-1.4-0.9-1.3-1.7c0.1-0.8,0.9-1.4,1.7-1.3l2,0.3
								c0.8,0.1,1.4,0.9,1.3,1.7C114,835.2,113.4,835.8,112.6,835.8z"/>
							<path class="st1" d="M108,835.1c-0.1,0-0.1,0-0.2,0l-1.5-0.2c-0.6-0.1-1-0.5-1.2-1c-0.2-0.5-0.1-1.1,0.3-1.5l1-1.1
								c0.6-0.6,1.5-0.6,2.1,0c0.4,0.3,0.5,0.8,0.4,1.3c0.3,0.3,0.5,0.8,0.4,1.3C109.4,834.6,108.7,835.1,108,835.1z"/>
							<path class="st1" d="M110.2,831.1c-0.4,0-0.7-0.1-1-0.4c-0.6-0.6-0.6-1.5,0-2.1l1.9-2c0.6-0.6,1.5-0.6,2.1,0
								c0.6,0.6,0.6,1.5,0,2.1l-1.9,2C110.9,830.9,110.5,831.1,110.2,831.1z M114.7,826.4c-0.4,0-0.7-0.1-1-0.4
								c-0.6-0.6-0.6-1.5,0-2.1l1.9-2c0.6-0.6,1.5-0.6,2.1,0c0.6,0.6,0.6,1.5,0,2.1l-1.9,2C115.5,826.2,115.1,826.4,114.7,826.4z
								 M119.2,821.6c-0.4,0-0.7-0.1-1-0.4c-0.6-0.6-0.6-1.5,0-2.1l1.9-2c0.6-0.6,1.5-0.6,2.1,0c0.6,0.6,0.6,1.5,0,2.1l-1.9,2
								C120,821.5,119.6,821.6,119.2,821.6z M123.8,816.9c-0.4,0-0.7-0.1-1-0.4c-0.6-0.6-0.6-1.5,0-2.1l1.9-2c0.6-0.6,1.5-0.6,2.1,0
								c0.6,0.6,0.6,1.5,0,2.1l-1.9,2C124.5,816.7,124.1,816.9,123.8,816.9z M128.3,812.2c-0.4,0-0.7-0.1-1-0.4
								c-0.6-0.6-0.6-1.5,0-2.1l1.9-2c0.6-0.6,1.5-0.6,2.1,0c0.6,0.6,0.6,1.5,0,2.1l-1.9,2C129.1,812,128.7,812.2,128.3,812.2z
								 M132.8,807.4c-0.4,0-0.7-0.1-1-0.4c-0.6-0.6-0.6-1.5,0-2.1l1.9-2c0.6-0.6,1.5-0.6,2.1,0c0.6,0.6,0.6,1.5,0,2.1l-1.9,2
								C133.6,807.3,133.2,807.4,132.8,807.4z M137.4,802.7c-0.4,0-0.7-0.1-1-0.4c-0.6-0.6-0.6-1.5,0-2.1l1.9-2
								c0.6-0.6,1.5-0.6,2.1,0c0.6,0.6,0.6,1.5,0,2.1l-1.9,2C138.1,802.5,137.8,802.7,137.4,802.7z"/>
							<path class="st1" d="M141.9,798c-0.4,0-0.7-0.1-1-0.4c-0.3-0.3-0.5-0.7-0.5-1.1c-0.3-0.3-0.5-0.7-0.5-1.1
								c0-0.8,0.7-1.5,1.5-1.5h1.5c0.6,0,1.1,0.4,1.4,0.9c0.2,0.6,0.1,1.2-0.3,1.6l-1,1.1C142.7,797.8,142.3,798,141.9,798z"/>
							<path class="st1" d="M137.4,796.9h-3c-0.8,0-1.5-0.7-1.5-1.5s0.7-1.5,1.5-1.5h3c0.8,0,1.5,0.7,1.5,1.5
								S138.2,796.9,137.4,796.9z M130.2,796.9h-3.1c-0.8,0-1.5-0.7-1.5-1.5s0.7-1.5,1.5-1.5h3.1c0.8,0,1.5,0.7,1.5,1.5
								S131.1,796.9,130.2,796.9z M123.1,796.9h-3.1c-0.8,0-1.5-0.7-1.5-1.5s0.7-1.5,1.5-1.5h3.1c0.8,0,1.5,0.7,1.5,1.5
								S124,796.9,123.1,796.9z M116,796.9H113c-0.8,0-1.5-0.7-1.5-1.5s0.7-1.5,1.5-1.5h3.1c0.8,0,1.5,0.7,1.5,1.5
								S116.8,796.9,116,796.9z M108.9,796.9h-3.1c-0.8,0-1.5-0.7-1.5-1.5s0.7-1.5,1.5-1.5h3.1c0.8,0,1.5,0.7,1.5,1.5
								S109.7,796.9,108.9,796.9z M101.8,796.9h-3c-0.8,0-1.5-0.7-1.5-1.5s0.7-1.5,1.5-1.5h3c0.8,0,1.5,0.7,1.5,1.5
								S102.6,796.9,101.8,796.9z"/>
							<path class="st1" d="M94.4,797.7c-0.3,0-0.6-0.1-0.8-0.2l-1.3-0.8c-0.6-0.4-0.8-1-0.6-1.7c0.2-0.6,0.8-1.1,1.4-1.1h1.5
								c0.8,0,1.5,0.7,1.5,1.5c0,0.3-0.1,0.6-0.2,0.8c0,0.3-0.1,0.6-0.2,0.8C95.4,797.5,94.9,797.7,94.4,797.7z"/>
							<path class="st1" d="M110.4,808.2c-0.3,0-0.6-0.1-0.8-0.2l-2.3-1.5c-0.7-0.5-0.9-1.4-0.4-2.1c0.5-0.7,1.4-0.9,2.1-0.4
								l2.3,1.5c0.7,0.5,0.9,1.4,0.4,2.1C111.4,808,110.9,808.2,110.4,808.2z M105.1,804.7c-0.3,0-0.6-0.1-0.8-0.2l-2.3-1.5
								c-0.7-0.5-0.9-1.4-0.4-2.1c0.5-0.7,1.4-0.9,2.1-0.4l2.3,1.5c0.7,0.5,0.9,1.4,0.4,2.1C106,804.5,105.6,804.7,105.1,804.7z
								 M99.7,801.2c-0.3,0-0.6-0.1-0.8-0.2l-2.3-1.5c-0.7-0.5-0.9-1.4-0.4-2.1c0.5-0.7,1.4-0.9,2.1-0.4l2.3,1.5
								c0.7,0.5,0.9,1.4,0.4,2.1C100.7,801,100.2,801.2,99.7,801.2z"/>
							<path class="st1" d="M114.7,811c-0.3,0-0.6-0.1-0.8-0.2l-1.3-0.8c-0.7-0.5-0.9-1.4-0.4-2.1c0.3-0.4,0.8-0.7,1.3-0.7
								c0.3-0.4,0.7-0.7,1.3-0.7c0.8,0,1.5,0.7,1.5,1.5v1.5c0,0.6-0.3,1.1-0.8,1.3C115.2,811,114.9,811,114.7,811z"/>
							<path class="st1" d="M114.7,805.4c-0.8,0-1.5-0.7-1.5-1.5v-3.1c0-0.8,0.7-1.5,1.5-1.5s1.5,0.7,1.5,1.5v3.1
								C116.2,804.7,115.5,805.4,114.7,805.4z M114.7,798.1c-0.8,0-1.5-0.7-1.5-1.5v-3.1c0-0.8,0.7-1.5,1.5-1.5s1.5,0.7,1.5,1.5v3.1
								C116.2,797.5,115.5,798.1,114.7,798.1z M114.7,790.9c-0.8,0-1.5-0.7-1.5-1.5v-3.1c0-0.8,0.7-1.5,1.5-1.5s1.5,0.7,1.5,1.5v3.1
								C116.2,790.2,115.5,790.9,114.7,790.9z M114.7,783.7c-0.8,0-1.5-0.7-1.5-1.5v-3.1c0-0.8,0.7-1.5,1.5-1.5s1.5,0.7,1.5,1.5v3.1
								C116.2,783,115.5,783.7,114.7,783.7z"/>
							<path class="st1" d="M114.7,776.4c-0.8,0-1.5-0.7-1.5-1.5v-1.5c0-0.8,0.7-1.5,1.5-1.5s1.5,0.7,1.5,1.5v1.5
								C116.2,775.8,115.5,776.4,114.7,776.4z"/>
						</g>
					</g>
					<g>
						<path class="st0" d="M114.7,780.9c-0.9,0-1.7-0.2-2.5-0.7c-1.6-0.9-2.5-2.5-2.5-4.3V749c0-1.8,0.9-3.4,2.4-4.3l23.4-13.9
							c1.5-0.9,3.5-0.9,5-0.1c1.6,0.9,2.5,2.5,2.5,4.3V762c0,1.8-0.9,3.4-2.4,4.3l-23.4,13.9C116.5,780.7,115.6,780.9,114.7,780.9z
							 M119.7,751.8v15.3l13.4-8v-15.3L119.7,751.8z"/>
						<path class="st0" d="M114.7,780.9c-0.9,0-1.8-0.2-2.6-0.7l-23.4-13.9c-1.5-0.9-2.4-2.5-2.4-4.3v-26.9c0-1.8,1-3.5,2.5-4.3
							c1.6-0.9,3.5-0.9,5,0.1l23.4,13.9c1.5,0.9,2.4,2.5,2.4,4.3v26.9c0,1.8-1,3.5-2.5,4.3C116.4,780.7,115.5,780.9,114.7,780.9z
							 M96.3,759.1l13.4,8v-15.3l-13.4-8V759.1z"/>
						<path class="st0" d="M114.7,754c-0.9,0-1.8-0.2-2.6-0.7l-23.4-13.9c-1.5-0.9-2.4-2.5-2.4-4.3c0-1.8,0.9-3.4,2.4-4.3l23.4-13.9
							c1.6-0.9,3.5-0.9,5.1,0l23.4,13.9c1.5,0.9,2.4,2.5,2.4,4.3c0,1.8-0.9,3.4-2.4,4.3l-23.4,13.9C116.5,753.8,115.6,754,114.7,754
							z M101.1,735.1l13.6,8.1l13.6-8.1l-13.6-8.1L101.1,735.1z"/>
					</g>
					<g>
						<path class="st1" d="M114.7,777.4c-0.3,0-0.5-0.1-0.7-0.2c-0.5-0.3-0.8-0.8-0.8-1.3V749c0-0.5,0.3-1,0.7-1.3l23.4-13.9
							c0.5-0.3,1-0.3,1.5,0c0.5,0.3,0.8,0.8,0.8,1.3V762c0,0.5-0.3,1-0.7,1.3l-23.4,13.9C115.2,777.3,114.9,777.4,114.7,777.4z
							 M116.2,749.8v23.4l20.4-12.2v-23.4L116.2,749.8z"/>
						<path class="st1" d="M114.7,777.4c-0.3,0-0.5-0.1-0.8-0.2l-23.4-13.9c-0.5-0.3-0.7-0.8-0.7-1.3v-26.9c0-0.5,0.3-1,0.8-1.3
							c0.5-0.3,1-0.3,1.5,0l23.4,13.9c0.5,0.3,0.7,0.8,0.7,1.3v26.9c0,0.5-0.3,1-0.8,1.3C115.2,777.4,114.9,777.4,114.7,777.4z
							 M92.8,761.1l20.4,12.2v-23.4l-20.4-12.2V761.1z"/>
						<path class="st1" d="M114.7,750.5c-0.3,0-0.5-0.1-0.8-0.2l-23.4-13.9c-0.5-0.3-0.7-0.8-0.7-1.3s0.3-1,0.7-1.3l23.4-13.9
							c0.5-0.3,1.1-0.3,1.5,0l23.4,13.9c0.5,0.3,0.7,0.8,0.7,1.3s-0.3,1-0.7,1.3l-23.4,13.9C115.2,750.4,114.9,750.5,114.7,750.5z
							 M94.2,735.1l20.5,12.2l20.5-12.2l-20.5-12.2L94.2,735.1z"/>
					</g>
					<rect x="109.7" y="716.4" class="st0" width="10" height="13.8"/>
					<g class="st13">
						<path class="st1" d="M115.1,735.4c-0.8,0-1.5-0.7-1.5-1.5v-1.5c0-0.8,0.7-1.5,1.5-1.5s1.5,0.7,1.5,1.5v1.5
							C116.6,734.7,115.9,735.4,115.1,735.4z"/>
						<path class="st1" d="M115.1,729.7c-0.8,0-1.5-0.7-1.5-1.5v-3.1c0-0.8,0.7-1.5,1.5-1.5s1.5,0.7,1.5,1.5v3.1
							C116.6,729.1,115.9,729.7,115.1,729.7z M115.1,722.5c-0.8,0-1.5-0.7-1.5-1.5v-3.1c0-0.8,0.7-1.5,1.5-1.5s1.5,0.7,1.5,1.5v3.1
							C116.6,721.8,115.9,722.5,115.1,722.5z"/>
						<path class="st1" d="M115.1,715.2c-0.8,0-1.5-0.7-1.5-1.5v-1.5c0-0.6,0.3-1.1,0.8-1.3l1.3-0.7c0.7-0.4,1.6-0.1,2,0.7
							s0.1,1.6-0.7,2l-0.5,0.3v0.6C116.6,714.6,115.9,715.2,115.1,715.2z"/>
						<path class="st1" d="M118.3,712.2c-0.6,0-1.1-0.3-1.3-0.8c-0.4-0.7-0.1-1.6,0.7-2l1.4-0.7c0.7-0.4,1.6-0.1,2,0.7
							c0.4,0.7,0.1,1.6-0.7,2l-1.4,0.7C118.7,712.1,118.5,712.2,118.3,712.2z"/>
						<path class="st1" d="M121.5,710.6c-0.6,0-1.1-0.3-1.3-0.8c-0.2-0.5-0.2-1,0-1.4c-0.2-0.4-0.2-0.9,0-1.4c0.4-0.7,1.3-1,2-0.6
							l1.3,0.7c0.5,0.3,0.8,0.8,0.8,1.3s-0.3,1.1-0.8,1.3l-1.3,0.7C121.9,710.5,121.7,710.6,121.5,710.6z"/>
						<path class="st1" d="M118.1,707.3c-0.2,0-0.5-0.1-0.7-0.2l-2.5-1.4c-0.7-0.4-1-1.3-0.6-2c0.4-0.7,1.3-1,2-0.6l2.5,1.4
							c0.7,0.4,1,1.3,0.6,2C119.2,707,118.6,707.3,118.1,707.3z M112.2,704.1c-0.2,0-0.5-0.1-0.7-0.2l-2.5-1.4c-0.7-0.4-1-1.3-0.6-2
							c0.4-0.7,1.3-1,2-0.6l2.5,1.4c0.7,0.4,1,1.3,0.6,2C113.2,703.8,112.7,704.1,112.2,704.1z M106.2,700.8c-0.2,0-0.5-0.1-0.7-0.2
							l-2.5-1.4c-0.7-0.4-1-1.3-0.6-2c0.4-0.7,1.3-1,2-0.6l2.5,1.4c0.7,0.4,1,1.3,0.6,2C107.3,700.5,106.7,700.8,106.2,700.8z
							 M100.3,697.6c-0.2,0-0.5-0.1-0.7-0.2L97,696c-0.7-0.4-1-1.3-0.6-2c0.4-0.7,1.3-1,2-0.6l2.5,1.4c0.7,0.4,1,1.3,0.6,2
							C101.3,697.3,100.8,697.6,100.3,697.6z"/>
						<path class="st1" d="M94.3,694.3c-0.2,0-0.5-0.1-0.7-0.2l-1.3-0.7c-0.6-0.3-0.9-1-0.7-1.7c0.2-0.7,0.7-1.1,1.4-1.1l1.5,0
							c0,0,0,0,0,0c0.8,0,1.5,0.7,1.5,1.5c0,0.3-0.1,0.5-0.2,0.8c0,0.3-0.1,0.5-0.2,0.7C95.4,694,94.9,694.3,94.3,694.3z"/>
						<path class="st1" d="M98.6,693.5c-0.8,0-1.5-0.7-1.5-1.5c0-0.8,0.6-1.5,1.5-1.5l3.1-0.1c0.8,0,1.5,0.6,1.5,1.5
							c0,0.8-0.6,1.5-1.5,1.5L98.6,693.5C98.7,693.5,98.7,693.5,98.6,693.5z M105.9,693.3c-0.8,0-1.5-0.7-1.5-1.5
							c0-0.8,0.6-1.5,1.5-1.5l3.1-0.1c0.8,0,1.5,0.6,1.5,1.5c0,0.8-0.6,1.5-1.5,1.5L105.9,693.3
							C105.9,693.3,105.9,693.3,105.9,693.3z M113.1,693.2c-0.8,0-1.5-0.7-1.5-1.5c0-0.8,0.6-1.5,1.5-1.5l3.1-0.1c0,0,0,0,0,0
							c0.8,0,1.5,0.7,1.5,1.5c0,0.8-0.6,1.5-1.5,1.5L113.1,693.2C113.2,693.2,113.1,693.2,113.1,693.2z M120.4,693
							c-0.8,0-1.5-0.7-1.5-1.5c0-0.8,0.6-1.5,1.5-1.5l3.1-0.1c0.8,0,1.5,0.6,1.5,1.5c0,0.8-0.6,1.5-1.5,1.5L120.4,693
							C120.4,693,120.4,693,120.4,693z M127.6,692.9c-0.8,0-1.5-0.7-1.5-1.5c0-0.8,0.6-1.5,1.5-1.5l3.1-0.1c0.8,0,1.5,0.6,1.5,1.5
							c0,0.8-0.6,1.5-1.5,1.5L127.6,692.9C127.6,692.9,127.6,692.9,127.6,692.9z"/>
						<path class="st1" d="M134.9,692.7c-0.8,0-1.5-0.7-1.5-1.5c0-0.4,0.1-0.7,0.3-1c0-0.3,0.1-0.7,0.3-1c0.5-0.7,1.5-0.8,2.1-0.3
							l1.2,0.9c0.5,0.4,0.7,1.1,0.5,1.7s-0.8,1-1.4,1L134.9,692.7C134.9,692.7,134.9,692.7,134.9,692.7z"/>
						<path class="st1" d="M132.3,689.5c-0.3,0-0.6-0.1-0.9-0.3l-2.2-1.7c-0.7-0.5-0.8-1.5-0.3-2.1c0.5-0.7,1.5-0.8,2.1-0.3l2.2,1.7
							c0.7,0.5,0.8,1.5,0.3,2.1C133.2,689.3,132.7,689.5,132.3,689.5z M127.2,685.6c-0.3,0-0.6-0.1-0.9-0.3l-2.2-1.7
							c-0.7-0.5-0.8-1.5-0.3-2.1c0.5-0.7,1.5-0.8,2.1-0.3l2.2,1.7c0.7,0.5,0.8,1.5,0.3,2.1C128.1,685.4,127.7,685.6,127.2,685.6z
							 M122.2,681.7c-0.3,0-0.6-0.1-0.9-0.3l-2.2-1.7c-0.7-0.5-0.8-1.5-0.3-2.1c0.5-0.7,1.5-0.8,2.1-0.3l2.2,1.7
							c0.7,0.5,0.8,1.5,0.3,2.1C123.1,681.5,122.6,681.7,122.2,681.7z"/>
						<path class="st1" d="M117.2,677.7c-0.3,0-0.6-0.1-0.9-0.3l-1.2-0.9c-0.4-0.3-0.6-0.7-0.6-1.2v-1.5c0-0.8,0.7-1.5,1.5-1.5
							s1.5,0.7,1.5,1.5v0.8l0.6,0.5c0.7,0.5,0.8,1.5,0.3,2.1C118,677.5,117.6,677.7,117.2,677.7z"/>
						<path class="st1" d="M116,670.5c-0.8,0-1.5-0.7-1.5-1.5v-3.6c0-0.8,0.7-1.5,1.5-1.5s1.5,0.7,1.5,1.5v3.6
							C117.5,669.8,116.8,670.5,116,670.5z"/>
						<path class="st1" d="M116,662c-0.8,0-1.5-0.7-1.5-1.5V659c0-0.8,0.7-1.5,1.5-1.5s1.5,0.7,1.5,1.5v1.5
							C117.5,661.3,116.8,662,116,662z"/>
					</g>
				</g>
			</g>
			<g>
				<path class="st1" d="M314.1,1334.5v2.9h-6.8v4.2h5.6v2.9h-5.6v6.4h-3.8v-16.5H314.1z"/>
				<path class="st1" d="M320.1,1336.1c0,0.3-0.1,0.5-0.2,0.8c-0.1,0.2-0.3,0.5-0.5,0.6s-0.4,0.3-0.7,0.4c-0.3,0.1-0.5,0.2-0.8,0.2
					c-0.3,0-0.6-0.1-0.8-0.2c-0.2-0.1-0.5-0.3-0.7-0.4c-0.2-0.2-0.3-0.4-0.5-0.6c-0.1-0.2-0.2-0.5-0.2-0.8c0-0.3,0.1-0.6,0.2-0.8
					s0.3-0.5,0.5-0.7c0.2-0.2,0.4-0.3,0.7-0.4s0.5-0.2,0.8-0.2c0.3,0,0.6,0.1,0.8,0.2s0.5,0.3,0.7,0.4s0.4,0.4,0.5,0.7
					C320.1,1335.5,320.1,1335.8,320.1,1336.1z M319.7,1339.3v11.7h-3.5v-11.7H319.7z"/>
				<path class="st1" d="M322.5,1351v-11.7h2.2c0.2,0,0.4,0,0.5,0.1c0.1,0.1,0.2,0.2,0.3,0.4l0.2,0.7c0.2-0.2,0.5-0.4,0.7-0.6
					c0.2-0.2,0.5-0.3,0.8-0.5c0.3-0.1,0.6-0.2,0.9-0.3c0.3-0.1,0.7-0.1,1-0.1c0.6,0,1.2,0.1,1.7,0.3c0.5,0.2,0.9,0.5,1.2,0.9
					c0.3,0.4,0.6,0.9,0.8,1.4s0.3,1.1,0.3,1.8v7.4h-3.5v-7.4c0-0.6-0.1-1-0.4-1.3c-0.3-0.3-0.7-0.5-1.2-0.5c-0.4,0-0.7,0.1-1.1,0.2
					c-0.3,0.2-0.7,0.4-1,0.7v8.4H322.5z"/>
				<path class="st1" d="M343.7,1351c-0.3,0-0.6,0-0.8-0.1c-0.2-0.1-0.3-0.3-0.4-0.6l-0.2-0.6c-0.3,0.2-0.6,0.5-0.8,0.7
					c-0.3,0.2-0.6,0.3-0.8,0.5s-0.6,0.2-0.9,0.3c-0.3,0.1-0.7,0.1-1.1,0.1c-0.5,0-1-0.1-1.5-0.2c-0.4-0.1-0.8-0.3-1.1-0.6
					c-0.3-0.3-0.5-0.6-0.7-1c-0.2-0.4-0.2-0.9-0.2-1.4c0-0.4,0.1-0.8,0.3-1.3c0.2-0.4,0.6-0.8,1.1-1.2c0.5-0.4,1.2-0.7,2.1-0.9
					c0.9-0.2,2-0.4,3.3-0.4v-0.5c0-0.7-0.1-1.2-0.4-1.5c-0.3-0.3-0.7-0.5-1.2-0.5c-0.4,0-0.8,0-1,0.1c-0.3,0.1-0.5,0.2-0.7,0.3
					c-0.2,0.1-0.4,0.2-0.6,0.3c-0.2,0.1-0.4,0.1-0.7,0.1c-0.2,0-0.4-0.1-0.6-0.2c-0.2-0.1-0.3-0.3-0.4-0.4l-0.6-1.1
					c0.7-0.6,1.5-1.1,2.4-1.4s1.8-0.5,2.8-0.5c0.7,0,1.3,0.1,1.9,0.3s1.1,0.5,1.4,1c0.4,0.4,0.7,0.9,0.9,1.5s0.3,1.2,0.3,1.9v7.3
					H343.7z M339.7,1348.9c0.5,0,0.8-0.1,1.2-0.2c0.3-0.2,0.7-0.4,1-0.8v-1.6c-0.7,0-1.3,0-1.7,0.1c-0.5,0.1-0.8,0.2-1.1,0.3
					c-0.3,0.1-0.4,0.3-0.5,0.5s-0.2,0.4-0.2,0.6c0,0.4,0.1,0.7,0.3,0.8C339,1348.8,339.3,1348.9,339.7,1348.9z"/>
				<path class="st1" d="M351.4,1334.1v16.9h-3.5v-16.9H351.4z"/>
				<path class="st1" d="M357.9,1334.1v16.9h-3.5v-16.9H357.9z"/>
				<path class="st1" d="M365.5,1354c-0.1,0.2-0.2,0.4-0.4,0.5c-0.2,0.1-0.4,0.2-0.7,0.2h-2.6l2.3-4.7l-4.7-10.7h3.1
					c0.3,0,0.5,0.1,0.6,0.2s0.3,0.3,0.3,0.4l1.9,5.1c0.2,0.5,0.3,0.9,0.4,1.4c0.1-0.2,0.2-0.5,0.2-0.7c0.1-0.2,0.2-0.5,0.3-0.7
					l1.7-5c0.1-0.2,0.2-0.3,0.4-0.4c0.2-0.1,0.4-0.2,0.6-0.2h2.8L365.5,1354z"/>
				<path class="st1" d="M309.6,1372.3v6.1h-3.8V1362h5.4c1.2,0,2.2,0.1,3,0.4c0.8,0.2,1.5,0.6,2.1,1c0.5,0.4,0.9,1,1.2,1.5
					s0.4,1.2,0.4,1.9c0,0.5-0.1,1-0.2,1.5c-0.1,0.5-0.4,0.9-0.6,1.3c-0.3,0.4-0.6,0.8-1,1.1s-0.9,0.6-1.4,0.8
					c0.3,0.1,0.5,0.3,0.7,0.5c0.2,0.2,0.4,0.4,0.6,0.7l3.5,5.7h-3.5c-0.6,0-1.1-0.2-1.4-0.7l-2.7-4.8c-0.1-0.2-0.3-0.4-0.4-0.5
					s-0.4-0.1-0.7-0.1H309.6z M309.6,1369.7h1.5c0.5,0,1-0.1,1.3-0.2s0.7-0.3,0.9-0.5c0.2-0.2,0.4-0.5,0.5-0.8
					c0.1-0.3,0.2-0.6,0.2-1c0-0.7-0.2-1.3-0.7-1.7c-0.5-0.4-1.2-0.6-2.2-0.6h-1.5V1369.7z"/>
				<path class="st1" d="M325.8,1366.5c0.8,0,1.5,0.1,2.1,0.4c0.6,0.2,1.2,0.6,1.7,1.1c0.5,0.5,0.8,1,1.1,1.7
					c0.3,0.7,0.4,1.4,0.4,2.3c0,0.3,0,0.5,0,0.6c0,0.2-0.1,0.3-0.1,0.4c-0.1,0.1-0.1,0.2-0.2,0.2c-0.1,0-0.2,0.1-0.4,0.1h-6.8
					c0.1,1,0.4,1.7,0.9,2.1c0.5,0.4,1.1,0.7,1.9,0.7c0.4,0,0.8,0,1.1-0.1c0.3-0.1,0.6-0.2,0.8-0.3c0.2-0.1,0.4-0.2,0.6-0.3
					c0.2-0.1,0.4-0.1,0.6-0.1c0.3,0,0.5,0.1,0.6,0.3l1,1.3c-0.4,0.4-0.8,0.8-1.2,1s-0.8,0.5-1.3,0.6c-0.4,0.1-0.9,0.2-1.3,0.3
					c-0.4,0.1-0.9,0.1-1.3,0.1c-0.8,0-1.6-0.1-2.3-0.4c-0.7-0.3-1.3-0.7-1.9-1.2c-0.5-0.5-1-1.2-1.3-2c-0.3-0.8-0.5-1.7-0.5-2.7
					c0-0.8,0.1-1.5,0.4-2.2c0.3-0.7,0.7-1.3,1.2-1.8c0.5-0.5,1.1-0.9,1.8-1.3C324.1,1366.7,325,1366.5,325.8,1366.5z M325.9,1369
					c-0.7,0-1.2,0.2-1.6,0.6s-0.6,0.9-0.7,1.6h4.4c0-0.3,0-0.5-0.1-0.8s-0.2-0.5-0.4-0.7c-0.2-0.2-0.4-0.4-0.6-0.5
					C326.6,1369,326.3,1369,325.9,1369z"/>
				<path class="st1" d="M341.2,1378.4c-0.3,0-0.6,0-0.8-0.1c-0.2-0.1-0.3-0.3-0.4-0.6l-0.2-0.6c-0.3,0.2-0.6,0.5-0.8,0.7
					c-0.3,0.2-0.6,0.3-0.8,0.5c-0.3,0.1-0.6,0.2-0.9,0.3c-0.3,0.1-0.7,0.1-1.1,0.1c-0.5,0-1-0.1-1.5-0.2c-0.4-0.1-0.8-0.3-1.1-0.6
					c-0.3-0.3-0.5-0.6-0.7-1s-0.2-0.9-0.2-1.4c0-0.4,0.1-0.8,0.3-1.3c0.2-0.4,0.6-0.8,1.1-1.2c0.5-0.4,1.2-0.7,2.1-0.9
					s2-0.4,3.3-0.4v-0.5c0-0.7-0.1-1.2-0.4-1.5c-0.3-0.3-0.7-0.5-1.2-0.5c-0.4,0-0.8,0-1,0.1c-0.3,0.1-0.5,0.2-0.7,0.3
					c-0.2,0.1-0.4,0.2-0.6,0.3s-0.4,0.1-0.7,0.1c-0.2,0-0.4-0.1-0.6-0.2c-0.2-0.1-0.3-0.3-0.4-0.4l-0.6-1.1c0.7-0.6,1.5-1.1,2.4-1.4
					c0.9-0.3,1.8-0.5,2.8-0.5c0.7,0,1.3,0.1,1.9,0.3c0.6,0.2,1.1,0.5,1.4,1s0.7,0.9,0.9,1.5s0.3,1.2,0.3,1.9v7.3H341.2z
					 M337.2,1376.3c0.5,0,0.8-0.1,1.2-0.2c0.3-0.2,0.7-0.4,1-0.8v-1.6c-0.7,0-1.3,0-1.7,0.1c-0.5,0.1-0.8,0.2-1.1,0.3
					c-0.3,0.1-0.4,0.3-0.5,0.5s-0.2,0.4-0.2,0.6c0,0.4,0.1,0.7,0.3,0.8C336.5,1376.2,336.8,1376.3,337.2,1376.3z"/>
				<path class="st1" d="M353.5,1378.4c-0.2,0-0.4,0-0.5-0.1c-0.1-0.1-0.3-0.2-0.3-0.4l-0.3-0.9c-0.2,0.2-0.5,0.5-0.7,0.7
					c-0.3,0.2-0.5,0.4-0.8,0.5s-0.6,0.3-1,0.3s-0.7,0.1-1.1,0.1c-0.6,0-1.2-0.1-1.7-0.4c-0.5-0.3-1-0.7-1.3-1.2
					c-0.4-0.5-0.7-1.1-0.9-1.9s-0.3-1.6-0.3-2.5c0-0.9,0.1-1.7,0.4-2.4s0.6-1.4,1-1.9c0.4-0.5,1-1,1.6-1.3c0.6-0.3,1.3-0.5,2-0.5
					c0.6,0,1.1,0.1,1.5,0.3c0.4,0.2,0.8,0.4,1.1,0.7v-5.9h3.5v16.9H353.5z M350,1375.9c0.3,0,0.5,0,0.7-0.1c0.2,0,0.4-0.1,0.6-0.2
					s0.3-0.2,0.5-0.3c0.2-0.1,0.3-0.3,0.5-0.5v-5c-0.3-0.3-0.6-0.5-0.9-0.6c-0.3-0.1-0.6-0.2-1-0.2c-0.3,0-0.6,0.1-0.9,0.2
					s-0.5,0.3-0.7,0.6c-0.2,0.3-0.4,0.6-0.5,1.1c-0.1,0.5-0.2,1-0.2,1.6c0,0.6,0,1.1,0.1,1.6c0.1,0.4,0.2,0.8,0.4,1
					c0.2,0.3,0.4,0.4,0.6,0.6C349.5,1375.9,349.7,1375.9,350,1375.9z"/>
				<path class="st1" d="M363.2,1381.5c-0.1,0.2-0.2,0.4-0.4,0.5c-0.2,0.1-0.4,0.2-0.7,0.2h-2.6l2.3-4.7l-4.7-10.7h3.1
					c0.3,0,0.5,0.1,0.6,0.2c0.2,0.1,0.3,0.3,0.3,0.4l1.9,5.1c0.2,0.5,0.3,0.9,0.4,1.4c0.1-0.2,0.2-0.5,0.2-0.7
					c0.1-0.2,0.2-0.5,0.3-0.7l1.7-5c0.1-0.2,0.2-0.3,0.4-0.4c0.2-0.1,0.4-0.2,0.6-0.2h2.8L363.2,1381.5z"/>
			</g>
			<g>
				<path class="st1" d="M337.5,1318.4c-13.5,0-24.4-10.9-24.4-24.4s10.9-24.4,24.4-24.4c13.5,0,24.4,10.9,24.4,24.4
					S350.9,1318.4,337.5,1318.4z M337.5,1270.6c-12.9,0-23.4,10.5-23.4,23.4s10.5,23.4,23.4,23.4s23.4-10.5,23.4-23.4
					S350.4,1270.6,337.5,1270.6z"/>
				<path class="st1" d="M328.2,1304.4c-0.3,0-0.6-0.1-0.9-0.4c-0.5-0.5-0.5-1.3,0-1.8c2.6-2.6,6.3-4,10.2-4c3.9,0,7.6,1.5,10.2,4
					c0.5,0.5,0.5,1.3,0,1.8c-0.5,0.5-1.3,0.5-1.8,0c-2.1-2.1-5.2-3.3-8.4-3.3c-3.2,0-6.3,1.2-8.4,3.3
					C328.8,1304.3,328.5,1304.4,328.2,1304.4z"/>
				<g>
					<circle class="st1" cx="330" cy="1287.3" r="3.2"/>
					<circle class="st1" cx="344.9" cy="1287.3" r="3.2"/>
				</g>
			</g>
		</g>
	</g>
</g>
<g id="guides" class="st75">
</g>
</svg>
