<?xml version="1.0" encoding="utf-8"?>
<!-- Generator: Adobe Illustrator 19.0.1, SVG Export Plug-In . SVG Version: 6.00 Build 0)  -->
<!DOCTYPE svg PUBLIC "-//W3C//DTD SVG 1.1//EN" "http://www.w3.org/Graphics/SVG/1.1/DTD/svg11.dtd" [
	<!ENTITY ns_extend "http://ns.adobe.com/Extensibility/1.0/">
	<!ENTITY ns_ai "http://ns.adobe.com/AdobeIllustrator/10.0/">
	<!ENTITY ns_graphs "http://ns.adobe.com/Graphs/1.0/">
	<!ENTITY ns_vars "http://ns.adobe.com/Variables/1.0/">
	<!ENTITY ns_imrep "http://ns.adobe.com/ImageReplacement/1.0/">
	<!ENTITY ns_sfw "http://ns.adobe.com/SaveForWeb/1.0/">
	<!ENTITY ns_custom "http://ns.adobe.com/GenericCustomNamespace/1.0/">
	<!ENTITY ns_adobe_xpath "http://ns.adobe.com/XPath/1.0/">
]>
<svg version="1.1" xmlns:x="&ns_extend;" xmlns:i="&ns_ai;" xmlns:graph="&ns_graphs;"
	 xmlns="http://www.w3.org/2000/svg" xmlns:xlink="http://www.w3.org/1999/xlink" x="0px" y="0px" width="376.8px" height="847.5px"
	 viewBox="0 0 376.8 847.5" style="enable-background:new 0 0 376.8 847.5;" xml:space="preserve">
<style type="text/css">
	.st0{fill:#3781A4;}
	.st1{fill:#FFFFFF;}
	.st2{opacity:0.7;}
	.st3{opacity:0.7;fill:none;stroke:#FFFFFF;stroke-miterlimit:10;}
	.st4{opacity:0.8;}
	.st5{opacity:0.25;}
	.st6{opacity:0.5;fill:#FFFFFF;}
	.st7{opacity:0.5;}
	.st8{fill:#A5B5B8;}
	.st9{fill:#EBEBEC;}
	.st10{fill:#B6B6B7;}
	.st11{fill:#B12843;}
	.st12{fill:#449F6C;}
	.st13{opacity:0.6;}
	.st14{fill:none;stroke:#FFFFFF;stroke-width:2;stroke-linecap:round;stroke-linejoin:round;stroke-miterlimit:10;}
	.st15{fill:none;stroke:#3781A4;stroke-width:6;stroke-miterlimit:10;}
	.st16{fill:none;stroke:#3781A4;stroke-width:5;stroke-miterlimit:10;}
	.st17{opacity:0.6;fill:none;stroke:#FFFFFF;stroke-width:2;stroke-linecap:round;stroke-linejoin:round;stroke-miterlimit:10;}
	.st18{opacity:0.6;fill:#B6B6B7;}
	.st19{opacity:0.35;fill:#B6B6B7;}
	.st20{opacity:0.8;fill:#B6B6B7;}
	.st21{opacity:0.3;fill:#B6B6B7;}
	.st22{opacity:0.7;fill:#B6B6B7;}
	.st23{opacity:0.9;fill:#B6B6B7;}
	.st24{opacity:0.5;fill:#B6B6B7;}
	.st25{opacity:0.2;fill:#B6B6B7;}
	.st26{opacity:0.65;fill:#B6B6B7;}
	.st27{opacity:0.85;fill:#B6B6B7;}
	.st28{opacity:0.45;fill:#B6B6B7;}
	.st29{fill:#485154;}
	.st30{fill:none;stroke:#3781A4;stroke-width:11;stroke-linecap:round;stroke-linejoin:round;stroke-miterlimit:10;}
	.st31{fill:none;stroke:#FFFFFF;stroke-width:3;stroke-linecap:round;stroke-linejoin:round;stroke-miterlimit:10;}
	.st32{fill:none;stroke:#FFFFFF;stroke-width:3;stroke-linecap:round;stroke-linejoin:round;}
	.st33{fill:none;stroke:#FFFFFF;stroke-width:3;stroke-linecap:round;stroke-linejoin:round;stroke-dasharray:2.9465,3.9287;}
	.st34{fill:none;stroke:#FFFFFF;stroke-width:3;stroke-linecap:round;stroke-linejoin:round;stroke-dasharray:2.0068,2.6757;}
	.st35{fill:none;stroke:#FFFFFF;stroke-width:3;stroke-linecap:round;stroke-linejoin:round;stroke-dasharray:2.8093,3.7457;}
	.st36{fill:none;stroke:#FFFFFF;stroke-width:3;stroke-linecap:round;stroke-linejoin:round;stroke-dasharray:3.0503,4.067;}
	.st37{fill:none;stroke:#FFFFFF;stroke-width:3;stroke-linecap:round;stroke-linejoin:round;stroke-dasharray:2.7315,3.642;}
	.st38{fill:none;stroke:#FFFFFF;stroke-width:3;stroke-linecap:round;stroke-linejoin:round;stroke-dasharray:3.1002,4.1336;}
	.st39{fill:none;stroke:#3781A4;stroke-width:10;stroke-linecap:round;stroke-linejoin:round;stroke-miterlimit:10;}
	.st40{fill:none;stroke:#3781A4;stroke-width:10;stroke-miterlimit:10;}
	.st41{fill:none;stroke:#FFFFFF;stroke-width:3;stroke-linecap:round;stroke-linejoin:round;stroke-dasharray:3.1068,4.1424;}
	.st42{fill:none;stroke:#FFFFFF;stroke-width:3;stroke-linecap:round;stroke-linejoin:round;stroke-dasharray:1.5484,2.0645;}
	.st43{fill:none;stroke:#FFFFFF;stroke-width:3;stroke-linecap:round;stroke-linejoin:round;stroke-dasharray:2.9057,3.8743;}
	.st44{fill:none;stroke:#FFFFFF;stroke-width:3;stroke-linecap:round;stroke-linejoin:round;stroke-dasharray:3.1048,4.1397;}
	.st45{fill:none;stroke:#FFFFFF;stroke-width:3;stroke-linecap:round;stroke-linejoin:round;stroke-dasharray:2.7418,3.6557;}
	.st46{fill:none;stroke:#FFFFFF;stroke-width:3;stroke-linecap:round;stroke-linejoin:round;stroke-dasharray:3.6253,4.8338;}
	.st47{fill:none;stroke:#FFFFFF;stroke-miterlimit:10;}
	.st48{fill:none;stroke:#FFFFFF;stroke-width:2.5;stroke-linecap:round;stroke-linejoin:round;stroke-miterlimit:10;}
	.st49{fill:#FAFCFB;}
	.st50{fill:none;stroke:#00A9CD;stroke-miterlimit:10;}
	.st51{fill:none;stroke:#3781A4;stroke-width:0.8989;stroke-miterlimit:10;}
	.st52{fill:none;stroke:#B12843;stroke-width:0.8989;stroke-miterlimit:10;}
	.st53{fill:none;stroke:#3781A4;stroke-miterlimit:10;}
	.st54{fill-rule:evenodd;clip-rule:evenodd;fill:none;stroke:#3781A4;stroke-width:0.8989;stroke-miterlimit:10;}
	.st55{fill:#0597C4;}
	.st56{fill:#2A3033;}
	.st57{fill:none;}
	.st58{fill:none;stroke:#A5B5B8;stroke-miterlimit:10;}
	.st59{fill:none;stroke:#D4D4D6;stroke-miterlimit:10;}
	.st60{fill:#231F20;}
	.st61{opacity:0.6;fill:#2A3033;}
	.st62{opacity:0.85;fill:#FFFFFF;}
	.st63{fill:#0F070A;}
	.st64{opacity:0.85;}
	.st65{fill:#7B8081;}
	.st66{opacity:0.9;fill:#FFFFFF;}
	.st67{fill:#F7F7F7;}
	.st68{fill-rule:evenodd;clip-rule:evenodd;fill:#2A3033;}
	.st69{opacity:0.75;}
	.st70{fill:none;stroke:#FFFFFF;stroke-width:2;stroke-miterlimit:10;}
	.st71{fill:#00ADEE;}
	.st72{fill:#0C0110;}
	.st73{opacity:0.7;fill:#FFFFFF;}
	.st74{opacity:0.6;fill:#FFFFFF;}
	.st75{display:none;}
	.st76{display:inline;fill:none;}
	.st77{display:inline;}
	.st78{fill:none;stroke:#FFFFFF;stroke-width:0.5319;stroke-miterlimit:10;}
	.st79{fill:none;stroke:#F9F164;stroke-width:0.5;stroke-miterlimit:10;}
</style>
<metadata>
	<sfw  xmlns="&ns_sfw;">
		<slices></slices>
		<sliceSourceBounds  width="9641.6" height="8656.8" x="-4936.6" y="-6643.9" bottomLeftOrigin="true"></sliceSourceBounds>
		<optimizationSettings>
			<targetSettings  fileFormat="JPEGFormat" targetSettingsID="0">
				
					<JPEGFormat  progressive="false" quality="60" optimized="true" noMatteColor="false" blurAmount="0" embedICCProfile="false" matteColor="#FFFFFF">
					</JPEGFormat>
			</targetSettings>
		</optimizationSettings>
	</sfw>
</metadata>
<g id="Layer_1">
	<g>
		<polygon class="st72" points="188.5,29.7 188.5,29.7 188.6,29.7 188.6,29.7 193.6,29.7 193.6,29.7 193.7,29.7 193.7,29.7 
			198.7,29.7 198.7,29.7 198.8,29.7 198.8,29.7 203.8,29.7 203.8,29.7 204,29.7 204,29.7 208.9,29.7 208.9,29.7 208.9,29.7 
			183.6,29.7 183.6,29.7 		"/>
		<g class="st7">
			<rect x="311.8" y="18.8" class="st1" width="1.5" height="2.4"/>
			<path class="st1" d="M311.8,49.3c0,4.3-1.1,5.8-6.1,8.5l0.6,1.4c5.7-2.9,7-4.9,7-9.8V27.6h-1.5V49.3z"/>
			<path class="st1" d="M325.1,37.4c-5.1-0.8-6.2-1.6-6.2-4.4c0-3.6,3.1-4.4,5.9-4.4c3,0,7.5,0.7,7.5,0.7l0.1-1.4
				c0,0-4.2-0.7-7.6-0.7c-3.6,0-7.5,1.2-7.5,5.9c0,4.1,2.3,4.9,7.4,5.7c5.2,0.8,6.8,1.4,6.8,4.6c0,4.2-2.7,5.2-6.8,5.2
				c-2.2,0-7-0.7-7-0.7l-0.2,1.5c0,0,4.7,0.7,7.2,0.7c5.2,0,8.3-1.6,8.3-6.7C333.1,39.1,330.9,38.3,325.1,37.4z"/>
			<path class="st1" d="M185.1,21.7h-3l0,0.2l-0.1,0.7l-1.1,6.2l-0.1,0.3l0,0.1l-0.1,0.5h0h3h0h25.3h0h3l0,0l0.2-0.9l1.1-6.2
				l0.2-0.9h-3H185.1z M186,26.7c-0.6,0-1-0.5-0.9-1.1c0.1-0.6,0.7-1.1,1.3-1.1c0.6,0,1,0.5,0.9,1.1C187.2,26.3,186.6,26.7,186,26.7
				z M189.4,26.7c-0.6,0-1-0.5-0.9-1.1c0.1-0.6,0.7-1.1,1.3-1.1c0.6,0,1,0.5,0.9,1.1S189.9,26.7,189.4,26.7z M206.9,26.6h-14.2
				l0.3-1.9h14.2L206.9,26.6z"/>
		</g>
		<g>
			<path class="st1" d="M233.2,27.7c0,0-3.1-0.6-4.7-0.6c-6,0-9.1,3.3-9.1,11.2c0,7.7,1.9,11.7,8.6,11.7c2.2,0,5.3-1.4,5.3-1.4v0.9
				h5.9V18.8h-5.9V27.7z M233.2,44c0,0-2.5,0.6-4.3,0.6c-2.8-0.1-3.6-1.8-3.6-6.2c0-4.4,1.4-5.9,3.6-5.9c1.9,0,4.3,0.4,4.3,0.4V44z"
				/>
			<path class="st1" d="M251.9,27.1c-7.6,0-10.1,4.7-10.1,11.5c0,6.8,2.5,11.5,10.1,11.5c7.6,0,10.1-4.7,10.1-11.5
				C262,31.8,259.6,27.1,251.9,27.1z M251.9,44.8c-3.3,0-4.1-2.2-4.1-6.2c0-4,0.9-6.2,4.1-6.2c3.3,0,4.1,2.1,4.1,6.2
				C256.1,42.6,255.2,44.8,251.9,44.8z"/>
			<path class="st1" d="M276.1,27.1c-2.1,0-5.4,1.5-5.4,1.5v-1h-5.9v21.9h5.9V33.4c0,0,2.8-0.7,4.2-0.7c2.6,0,3.1,2.2,3.1,5.5v11.5
				h5.9V38.1C283.8,31,282.2,27.1,276.1,27.1z"/>
			<path class="st1" d="M295.9,27.1c-6.4,0-9.7,4-9.7,11.8c0,7.9,2.8,11.2,9.4,11.2c4.1,0,9.1-1.2,9.1-1.2l-0.1-4.6
				c0,0-4.5,0.4-8.1,0.4c-3.2,0-4.4-1.1-4.4-3.6h12.9l0.4-4.1C305.5,30.4,302.4,27.1,295.9,27.1z M292.1,36.6c0-2.9,1-4.3,3.8-4.3
				c2.8,0,3.8,1.1,3.8,4.3H292.1z"/>
			<g>
				<polygon class="st1" points="193.6,29.7 193.6,29.7 188.6,29.7 188.6,29.7 187.7,34.7 192.7,34.7 				"/>
				<polygon class="st1" points="203.8,29.7 203.8,29.7 198.8,29.7 198.8,29.7 197.9,34.7 202.9,34.7 				"/>
				<polygon class="st1" points="191.9,39.8 196.9,39.8 197.8,34.8 192.8,34.8 				"/>
				<polygon class="st1" points="208.9,29.7 208.9,29.7 208,34.7 208,34.8 203,34.8 202.1,39.8 207.1,39.8 207.1,39.9 206.2,44.9 
					201.2,44.9 201.1,44.9 202,39.9 197,39.9 196.1,44.9 196,44.9 191,44.9 190.9,44.9 191.8,39.9 186.8,39.9 185.9,44.9 
					185.7,44.9 180.9,44.9 181.8,39.9 181.8,39.8 186.7,39.8 187.6,34.8 182.7,34.8 182.7,34.7 183.6,29.7 183.6,29.7 183.6,29.7 
					180.6,29.7 177.3,47.9 176.1,54.4 179.2,54.4 180.3,47.9 205.6,47.9 208.6,47.9 209.2,44.9 211.9,29.7 				"/>
				<path class="st1" d="M186,26.7c0.6,0,1.2-0.5,1.3-1.1c0.1-0.6-0.3-1.1-0.9-1.1c-0.6,0-1.2,0.5-1.3,1.1
					C185,26.3,185.4,26.7,186,26.7z"/>
				<path class="st1" d="M189.4,26.7c0.6,0,1.2-0.5,1.3-1.1s-0.3-1.1-0.9-1.1c-0.6,0-1.2,0.5-1.3,1.1
					C188.4,26.3,188.8,26.7,189.4,26.7z"/>
			</g>
		</g>
	</g>
	<g>
		<g>
			<g>
				<g id="Macbook_base_346_">
					<g>
						<path class="st1" d="M363.6,402.2H153.7c-3.6,0-6.5,2.9-6.5,6.5v134.6c0,3.6,2.9,6.5,6.5,6.5h209.8c3.6,0,6.5-2.9,6.5-6.5
							V408.7C370.1,405.1,367.2,402.2,363.6,402.2z"/>
					</g>
				</g>
				<g id="Macbook_base_344_">
					<g>
						<path class="st8" d="M363.6,402.2H153.7c-3.6,0-6.5,2.9-6.5,6.5v6.3h222.9v-6.3C370.1,405.1,367.2,402.2,363.6,402.2z"/>
					</g>
				</g>
				<g>
					<circle class="st1" cx="155.5" cy="408.7" r="1.9"/>
					<circle class="st1" cx="161.8" cy="408.7" r="1.9"/>
					<circle class="st1" cx="168.2" cy="408.7" r="1.9"/>
				</g>
				<rect x="221.7" y="406.8" class="st9" width="73.9" height="4.3"/>
			</g>
			<g>
				<g>
					<g id="Macbook_base_342_">
						<g>
							<rect x="251" y="445.8" class="st0" width="82.5" height="5.8"/>
						</g>
					</g>
				</g>
				<g>
					<g id="Macbook_base_340_">
						<g>
							<rect x="268.2" y="458.3" class="st10" width="47" height="4.4"/>
						</g>
					</g>
					<circle class="st55" cx="259.7" cy="460.6" r="5"/>
				</g>
				<g>
					<g id="Macbook_base_338_">
						<g>
							<rect x="268.2" y="471.2" class="st10" width="47" height="4.4"/>
						</g>
					</g>
					<circle class="st55" cx="259.7" cy="473.5" r="5"/>
				</g>
				<g>
					<g id="Macbook_base_336_">
						<g>
							<rect x="251" y="493.2" class="st0" width="82.5" height="5.8"/>
						</g>
					</g>
				</g>
				<g>
					<g id="Macbook_base_334_">
						<g>
							<rect x="268.2" y="505.7" class="st10" width="47" height="4.4"/>
						</g>
					</g>
					<circle class="st12" cx="259.7" cy="508" r="5"/>
				</g>
				<g>
					<g id="Macbook_base_332_">
						<g>
							<rect x="268.2" y="518.6" class="st10" width="47" height="4.4"/>
						</g>
					</g>
					<circle class="st12" cx="259.7" cy="520.9" r="5"/>
				</g>
				<path class="st11" d="M185.9,525.4h47.7c1.4,0,2.5-1.1,2.5-2.5v-74.6c0-1.4-1.1-2.5-2.5-2.5h-47.7c-1.4,0-2.5,1.1-2.5,2.5v74.6
					C183.5,524.3,184.6,525.4,185.9,525.4z"/>
			</g>
			<g id="Macbook_base_330_">
				<g>
					<rect x="147.2" y="414.9" class="st0" width="222.9" height="12.8"/>
				</g>
			</g>
		</g>
		<g>
			<g>
				<g id="Macbook_base_328_">
					<g>
						<path class="st1" d="M363.6,681.7H153.7c-3.6,0-6.5,2.9-6.5,6.5v134.6c0,3.6,2.9,6.5,6.5,6.5h209.8c3.6,0,6.5-2.9,6.5-6.5
							V688.2C370.1,684.6,367.2,681.7,363.6,681.7z"/>
					</g>
				</g>
				<g id="Macbook_base_326_">
					<g>
						<path class="st8" d="M363.6,681.7H153.7c-3.6,0-6.5,2.9-6.5,6.5v6.3h222.9v-6.3C370.1,684.6,367.2,681.7,363.6,681.7z"/>
					</g>
				</g>
				<g>
					<circle class="st1" cx="155.5" cy="688.1" r="1.9"/>
					<circle class="st1" cx="161.8" cy="688.1" r="1.9"/>
					<circle class="st1" cx="168.2" cy="688.1" r="1.9"/>
				</g>
				<rect x="221.7" y="686.3" class="st9" width="73.9" height="4.3"/>
			</g>
			<g>
				<g>
					<g id="Macbook_base_324_">
						<g>
							<rect x="251" y="725.3" class="st0" width="82.5" height="5.8"/>
						</g>
					</g>
				</g>
				<g>
					<g id="Macbook_base_322_">
						<g>
							<rect x="268.2" y="737.7" class="st10" width="47" height="4.4"/>
						</g>
					</g>
					<circle class="st55" cx="259.7" cy="740.1" r="5"/>
				</g>
				<g>
					<g id="Macbook_base_320_">
						<g>
							<rect x="268.2" y="750.6" class="st10" width="47" height="4.4"/>
						</g>
					</g>
					<circle class="st55" cx="259.7" cy="753" r="5"/>
				</g>
				<g>
					<g id="Macbook_base_318_">
						<g>
							<rect x="251" y="772.7" class="st0" width="82.5" height="5.8"/>
						</g>
					</g>
				</g>
				<g>
					<g id="Macbook_base_316_">
						<g>
							<rect x="268.2" y="785.1" class="st10" width="47" height="4.4"/>
						</g>
					</g>
					<circle class="st12" cx="259.7" cy="787.5" r="5"/>
				</g>
				<g>
					<g id="Macbook_base_314_">
						<g>
							<rect x="268.2" y="798" class="st10" width="47" height="4.4"/>
						</g>
					</g>
					<circle class="st12" cx="259.7" cy="800.4" r="5"/>
				</g>
				<path class="st11" d="M185.9,804.9h47.7c1.4,0,2.5-1.1,2.5-2.5v-74.6c0-1.4-1.1-2.5-2.5-2.5h-47.7c-1.4,0-2.5,1.1-2.5,2.5v74.6
					C183.5,803.8,184.6,804.9,185.9,804.9z"/>
			</g>
			<g id="Macbook_base_312_">
				<g>
					<rect x="147.2" y="694.2" class="st0" width="222.9" height="12.8"/>
				</g>
			</g>
		</g>
		<g>
			<g>
				<g id="Macbook_base_310_">
					<g>
						<path class="st1" d="M363.6,118.1H153.7c-3.6,0-6.5,2.9-6.5,6.5v134.6c0,3.6,2.9,6.5,6.5,6.5h209.8c3.6,0,6.5-2.9,6.5-6.5
							V124.7C370.1,121.1,367.2,118.1,363.6,118.1z"/>
					</g>
				</g>
				<g id="Macbook_base_308_">
					<g>
						<path class="st8" d="M363.6,118.1H153.7c-3.6,0-6.5,2.9-6.5,6.5v6.3h222.9v-6.3C370.1,121.1,367.2,118.1,363.6,118.1z"/>
					</g>
				</g>
				<g>
					<circle class="st1" cx="155.5" cy="124.6" r="1.9"/>
					<circle class="st1" cx="161.8" cy="124.6" r="1.9"/>
					<circle class="st1" cx="168.2" cy="124.6" r="1.9"/>
				</g>
				<rect x="221.7" y="122.7" class="st9" width="73.9" height="4.3"/>
			</g>
			<g>
				<path class="st9" d="M230.1,182.8c-0.1,0.2-0.3,0.4-0.4,0.5s-0.3,0.2-0.6,0.2c-0.2,0-0.5-0.1-0.9-0.4s-0.7-0.5-1.2-0.8
					s-1.1-0.6-1.8-0.8c-0.7-0.2-1.5-0.4-2.5-0.4c-0.9,0-1.8,0.1-2.5,0.4c-0.7,0.3-1.3,0.6-1.8,1s-0.8,0.9-1.1,1.5
					c-0.2,0.6-0.4,1.2-0.4,1.9c0,0.9,0.2,1.6,0.6,2.2s1,1.1,1.7,1.5c0.7,0.4,1.5,0.8,2.4,1.1s1.8,0.6,2.7,0.9s1.8,0.7,2.7,1.1
					c0.9,0.4,1.7,0.9,2.4,1.5c0.7,0.6,1.3,1.4,1.7,2.2c0.4,0.9,0.6,2,0.6,3.2c0,1.4-0.2,2.6-0.7,3.8c-0.5,1.2-1.1,2.2-2,3.1
					c-0.9,0.9-2,1.6-3.3,2.1c-1.3,0.5-2.8,0.8-4.4,0.8c-2,0-3.8-0.4-5.5-1.1s-3.1-1.7-4.2-3l1.2-2c0.1-0.2,0.3-0.3,0.4-0.4
					s0.3-0.2,0.6-0.2c0.3,0,0.6,0.2,1,0.5c0.4,0.3,0.9,0.7,1.5,1.1c0.6,0.4,1.3,0.7,2.1,1.1s1.8,0.5,3,0.5c1,0,1.9-0.1,2.7-0.4
					c0.8-0.3,1.4-0.7,2-1.2c0.5-0.5,1-1.1,1.2-1.8s0.4-1.5,0.4-2.3c0-0.9-0.2-1.7-0.6-2.3s-1-1.1-1.7-1.5c-0.7-0.4-1.5-0.7-2.4-1
					c-0.9-0.3-1.8-0.6-2.7-0.9c-0.9-0.3-1.8-0.6-2.7-1c-0.9-0.4-1.7-0.9-2.4-1.5c-0.7-0.6-1.3-1.4-1.7-2.3s-0.6-2.1-0.6-3.5
					c0-1.1,0.2-2.2,0.6-3.2c0.4-1,1-1.9,1.9-2.7c0.8-0.8,1.8-1.4,3-1.9s2.6-0.7,4.1-0.7c1.7,0,3.3,0.3,4.7,0.8
					c1.4,0.5,2.7,1.3,3.7,2.4L230.1,182.8z"/>
				<path class="st9" d="M243.2,209.3c-1.7,0-3.1-0.5-4-1.5c-0.9-1-1.4-2.4-1.4-4.2v-13.4h-2.6c-0.2,0-0.4-0.1-0.6-0.2
					c-0.2-0.1-0.2-0.4-0.2-0.6v-1.5l3.6-0.5l0.9-6.8c0-0.2,0.1-0.4,0.3-0.5c0.2-0.1,0.4-0.2,0.6-0.2h1.9v7.6h6.3v2.8h-6.3v13.2
					c0,0.9,0.2,1.6,0.7,2.1c0.4,0.4,1,0.7,1.7,0.7c0.4,0,0.8-0.1,1-0.2s0.6-0.2,0.8-0.4c0.2-0.1,0.4-0.2,0.6-0.4
					c0.2-0.1,0.3-0.2,0.4-0.2c0.2,0,0.4,0.1,0.5,0.4l1.1,1.8c-0.7,0.6-1.5,1.1-2.4,1.5C245.1,209.1,244.2,209.3,243.2,209.3z"/>
				<path class="st9" d="M268.8,209h-1.7c-0.4,0-0.7-0.1-0.9-0.2c-0.2-0.1-0.4-0.4-0.5-0.7l-0.4-2c-0.6,0.5-1.1,1-1.7,1.4
					c-0.5,0.4-1.1,0.8-1.7,1c-0.6,0.3-1.3,0.5-1.9,0.6c-0.7,0.1-1.4,0.2-2.3,0.2c-0.9,0-1.6-0.1-2.4-0.4c-0.7-0.2-1.4-0.6-1.9-1.1
					c-0.5-0.5-1-1.1-1.3-1.8s-0.5-1.6-0.5-2.6c0-0.9,0.2-1.7,0.7-2.5c0.5-0.8,1.2-1.5,2.3-2.1c1.1-0.6,2.5-1.1,4.2-1.5
					c1.7-0.4,3.8-0.6,6.3-0.6V195c0-1.7-0.4-3-1.1-3.9c-0.7-0.9-1.8-1.3-3.2-1.3c-0.9,0-1.7,0.1-2.4,0.4c-0.6,0.2-1.2,0.5-1.7,0.8
					c-0.5,0.3-0.9,0.6-1.2,0.8c-0.3,0.2-0.7,0.4-1,0.4c-0.3,0-0.5-0.1-0.7-0.2s-0.4-0.3-0.5-0.5l-0.7-1.2c1.2-1.2,2.5-2,3.9-2.6
					c1.4-0.6,3-0.9,4.7-0.9c1.2,0,2.3,0.2,3.3,0.6c1,0.4,1.8,1,2.4,1.7c0.6,0.7,1.1,1.6,1.5,2.6s0.5,2.2,0.5,3.4V209z M258.8,206.6
					c0.7,0,1.3-0.1,1.9-0.2c0.6-0.1,1.1-0.3,1.6-0.6c0.5-0.3,1-0.6,1.4-0.9c0.5-0.4,0.9-0.8,1.3-1.2v-4.5c-1.8,0-3.3,0.1-4.5,0.3
					s-2.3,0.5-3,0.9c-0.8,0.4-1.3,0.8-1.7,1.3c-0.4,0.5-0.5,1-0.5,1.7c0,0.6,0.1,1.1,0.3,1.5c0.2,0.4,0.4,0.8,0.8,1
					c0.3,0.3,0.7,0.5,1.1,0.6C257.8,206.6,258.3,206.6,258.8,206.6z"/>
				<path class="st9" d="M274.6,209V187h2.2c0.4,0,0.7,0.1,0.9,0.2c0.2,0.2,0.3,0.4,0.3,0.8l0.3,3.4c0.8-1.5,1.7-2.7,2.8-3.6
					c1.1-0.9,2.4-1.3,3.9-1.3c0.6,0,1.2,0.1,1.6,0.2c0.5,0.1,0.9,0.3,1.4,0.6l-0.5,2.9c-0.1,0.4-0.3,0.5-0.7,0.5
					c-0.2,0-0.5-0.1-0.9-0.2c-0.4-0.1-1-0.2-1.8-0.2c-1.3,0-2.5,0.4-3.4,1.2c-0.9,0.8-1.7,1.9-2.3,3.4v14H274.6z"/>
				<path class="st9" d="M298.7,209.3c-1.7,0-3.1-0.5-4-1.5c-0.9-1-1.4-2.4-1.4-4.2v-13.4h-2.6c-0.2,0-0.4-0.1-0.6-0.2
					c-0.2-0.1-0.2-0.4-0.2-0.6v-1.5l3.6-0.5l0.9-6.8c0-0.2,0.1-0.4,0.3-0.5c0.2-0.1,0.4-0.2,0.6-0.2h1.9v7.6h6.3v2.8h-6.3v13.2
					c0,0.9,0.2,1.6,0.7,2.1c0.4,0.4,1,0.7,1.7,0.7c0.4,0,0.8-0.1,1.1-0.2c0.3-0.1,0.6-0.2,0.8-0.4c0.2-0.1,0.4-0.2,0.6-0.4
					c0.2-0.1,0.3-0.2,0.4-0.2c0.2,0,0.4,0.1,0.5,0.4l1.1,1.8c-0.7,0.6-1.5,1.1-2.4,1.5C300.7,209.1,299.7,209.3,298.7,209.3z"/>
			</g>
		</g>
		<g>
			<g class="st13">
				<path class="st1" d="M258.6,642.3c-0.3,0-0.6-0.1-0.8-0.4l-5.5-6.6c-0.4-0.4-0.3-1.1,0.1-1.4c0.4-0.4,1.1-0.3,1.4,0.1l4.7,5.7
					l4.7-5.7c0.4-0.4,1-0.5,1.4-0.1c0.4,0.4,0.5,1,0.1,1.4l-5.5,6.6C259.2,642.2,258.9,642.3,258.6,642.3z"/>
				<path class="st1" d="M258.6,640.7c-0.6,0-1-0.4-1-1V624c0-0.6,0.4-1,1-1s1,0.4,1,1v15.7C259.6,640.2,259.2,640.7,258.6,640.7z"
					/>
			</g>
			<path class="st0" d="M258.6,629.9l-13.9-8.4v-16.1l13.9-8.4l13.9,8.4v16.1L258.6,629.9z M250.7,618.2l7.9,4.8l7.9-4.8v-9.3
				l-7.9-4.8l-7.9,4.8V618.2z"/>
			<g>
				<path class="st1" d="M258.6,627.4c-0.2,0-0.3,0-0.5-0.1c-0.3-0.2-0.5-0.5-0.5-0.9v-12.7c0-0.4,0.2-0.7,0.5-0.9l10.9-6.6
					c0.3-0.2,0.7-0.2,1,0c0.3,0.2,0.5,0.5,0.5,0.9v12.7c0,0.4-0.2,0.7-0.5,0.9l-10.9,6.6C259,627.4,258.8,627.4,258.6,627.4z
					 M259.6,614.3v10.4l8.9-5.4v-10.4L259.6,614.3z"/>
				<path class="st1" d="M258.6,627.4c-0.2,0-0.4,0-0.5-0.1l-10.9-6.6c-0.3-0.2-0.5-0.5-0.5-0.9v-12.7c0-0.4,0.2-0.7,0.5-0.9
					c0.3-0.2,0.7-0.2,1,0l10.9,6.6c0.3,0.2,0.5,0.5,0.5,0.9v12.7c0,0.4-0.2,0.7-0.5,0.9C259,627.4,258.8,627.4,258.6,627.4z
					 M248.7,619.3l8.9,5.4v-10.4l-8.9-5.4V619.3z"/>
				<path class="st1" d="M258.6,614.7c-0.2,0-0.4,0-0.5-0.1l-10.9-6.6c-0.3-0.2-0.5-0.5-0.5-0.9s0.2-0.7,0.5-0.9l10.9-6.6
					c0.3-0.2,0.7-0.2,1,0l10.9,6.6c0.3,0.2,0.5,0.5,0.5,0.9s-0.2,0.7-0.5,0.9l-10.9,6.6C259,614.7,258.8,614.7,258.6,614.7z
					 M249.6,607.1l9,5.4l9-5.4l-9-5.4L249.6,607.1z"/>
			</g>
			<rect x="256.2" y="592" class="st0" width="5" height="13.6"/>
			<path class="st74" d="M258.7,607.3c-0.6,0-1-0.4-1-1V592c0-0.6,0.4-1,1-1s1,0.4,1,1v14.3C259.7,606.9,259.2,607.3,258.7,607.3z"
				/>
		</g>
		<g>
			<g class="st13">
				<path class="st1" d="M258.6,358.1c-0.3,0-0.6-0.1-0.8-0.3l-5.5-6.3c-0.4-0.4-0.3-1,0.1-1.4c0.4-0.4,1-0.3,1.4,0.1l4.7,5.4
					l4.7-5.4c0.4-0.4,1-0.5,1.4-0.1c0.4,0.4,0.5,1,0.1,1.4l-5.5,6.3C259.2,357.9,258.9,358.1,258.6,358.1z"/>
				<path class="st1" d="M258.6,356.5c-0.6,0-1-0.4-1-1v-14.8c0-0.6,0.4-1,1-1s1,0.4,1,1v14.8C259.6,356.1,259.2,356.5,258.6,356.5z
					"/>
			</g>
			<path class="st0" d="M258.6,346.4l-13.9-7.9V323l13.9-8l13.9,8v15.5L258.6,346.4z M250.7,335l7.9,4.5l7.9-4.5v-8.6l-7.9-4.5
				l-7.9,4.5V335z"/>
			<g>
				<path class="st1" d="M258.6,344c-0.2,0-0.3,0-0.5-0.1c-0.3-0.2-0.5-0.5-0.5-0.9v-12.1c0-0.4,0.2-0.7,0.5-0.9l10.9-6.2
					c0.3-0.2,0.7-0.2,1,0c0.3,0.2,0.5,0.5,0.5,0.9v12.1c0,0.4-0.2,0.7-0.5,0.9l-10.9,6.2C259,343.9,258.8,344,258.6,344z
					 M259.6,331.5v9.7l8.9-5.1v-9.7L259.6,331.5z"/>
				<path class="st1" d="M258.6,344c-0.2,0-0.3,0-0.5-0.1l-10.9-6.2c-0.3-0.2-0.5-0.5-0.5-0.9v-12.1c0-0.4,0.2-0.7,0.5-0.9
					c0.3-0.2,0.7-0.2,1,0l10.9,6.2c0.3,0.2,0.5,0.5,0.5,0.9V343c0,0.4-0.2,0.7-0.5,0.9C259,343.9,258.8,344,258.6,344z M248.7,336.2
					l8.9,5.1v-9.7l-8.9-5.1V336.2z"/>
				<path class="st1" d="M258.6,331.9c-0.2,0-0.3,0-0.5-0.1l-10.9-6.2c-0.3-0.2-0.5-0.5-0.5-0.9s0.2-0.7,0.5-0.9l10.9-6.2
					c0.3-0.2,0.7-0.2,1,0l10.9,6.2c0.3,0.2,0.5,0.5,0.5,0.9s-0.2,0.7-0.5,0.9l-10.9,6.2C259,331.9,258.8,331.9,258.6,331.9z
					 M249.7,324.7l8.9,5.1l8.9-5.1l-8.9-5.1L249.7,324.7z"/>
			</g>
			<rect x="256.2" y="310.4" class="st0" width="5" height="12.9"/>
			<path class="st74" d="M258.7,324.9c-0.6,0-1-0.4-1-1v-13.5c0-0.6,0.4-1,1-1s1,0.4,1,1v13.5C259.7,324.5,259.2,324.9,258.7,324.9z
				"/>
		</g>
	</g>
	<g>
		<path class="st1" d="M5.7,805.4v6.5H1.7v-17.5h5.7c1.3,0,2.3,0.1,3.2,0.4c0.9,0.3,1.6,0.6,2.2,1.1s1,1,1.2,1.6
			c0.3,0.6,0.4,1.3,0.4,2.1c0,0.6-0.1,1.1-0.2,1.6c-0.2,0.5-0.4,1-0.7,1.4c-0.3,0.4-0.7,0.8-1.1,1.1c-0.4,0.3-0.9,0.6-1.5,0.8
			c0.3,0.1,0.5,0.3,0.8,0.5c0.2,0.2,0.4,0.4,0.6,0.7l3.7,6.1h-3.7c-0.7,0-1.2-0.3-1.5-0.8L7.9,806c-0.1-0.2-0.3-0.4-0.5-0.5
			c-0.2-0.1-0.4-0.1-0.7-0.1H5.7z M5.7,802.6h1.6c0.6,0,1-0.1,1.4-0.2c0.4-0.1,0.7-0.3,1-0.6c0.2-0.2,0.4-0.5,0.5-0.9
			c0.1-0.3,0.2-0.7,0.2-1.1c0-0.8-0.2-1.4-0.8-1.8c-0.5-0.4-1.3-0.6-2.3-0.6H5.7V802.6z"/>
		<path class="st1" d="M22.9,799.2c0.8,0,1.6,0.1,2.3,0.4c0.7,0.3,1.3,0.6,1.8,1.1c0.5,0.5,0.9,1.1,1.2,1.8c0.3,0.7,0.4,1.5,0.4,2.4
			c0,0.3,0,0.5,0,0.7c0,0.2-0.1,0.3-0.1,0.4c-0.1,0.1-0.1,0.2-0.3,0.2c-0.1,0-0.2,0.1-0.4,0.1h-7.2c0.1,1,0.4,1.8,0.9,2.3
			c0.5,0.5,1.2,0.7,2,0.7c0.4,0,0.8-0.1,1.1-0.2c0.3-0.1,0.6-0.2,0.8-0.3c0.2-0.1,0.5-0.2,0.7-0.3c0.2-0.1,0.4-0.2,0.6-0.2
			c0.3,0,0.5,0.1,0.7,0.3l1.1,1.3c-0.4,0.4-0.8,0.8-1.2,1.1s-0.9,0.5-1.4,0.6c-0.5,0.2-0.9,0.3-1.4,0.3c-0.5,0.1-0.9,0.1-1.3,0.1
			c-0.9,0-1.7-0.1-2.5-0.4c-0.8-0.3-1.4-0.7-2-1.3c-0.6-0.6-1-1.3-1.4-2.1s-0.5-1.8-0.5-2.9c0-0.8,0.1-1.6,0.4-2.4s0.7-1.4,1.2-2
			c0.5-0.6,1.2-1,1.9-1.3S22,799.2,22.9,799.2z M23,801.8c-0.7,0-1.3,0.2-1.7,0.6s-0.7,1-0.8,1.7h4.6c0-0.3,0-0.6-0.1-0.9
			c-0.1-0.3-0.2-0.5-0.4-0.8c-0.2-0.2-0.4-0.4-0.7-0.5C23.8,801.8,23.4,801.8,23,801.8z"/>
		<path class="st1" d="M39.3,811.8c-0.4,0-0.6,0-0.8-0.1c-0.2-0.1-0.3-0.3-0.4-0.6l-0.3-0.7c-0.3,0.3-0.6,0.5-0.9,0.7
			c-0.3,0.2-0.6,0.4-0.9,0.5c-0.3,0.1-0.6,0.2-1,0.3c-0.3,0.1-0.7,0.1-1.2,0.1c-0.6,0-1.1-0.1-1.5-0.2c-0.5-0.1-0.9-0.4-1.2-0.7
			c-0.3-0.3-0.6-0.6-0.8-1.1c-0.2-0.4-0.3-0.9-0.3-1.5c0-0.4,0.1-0.9,0.3-1.4c0.2-0.5,0.6-0.9,1.2-1.3c0.6-0.4,1.3-0.7,2.2-1
			c0.9-0.3,2.1-0.4,3.5-0.4v-0.5c0-0.7-0.2-1.3-0.5-1.6c-0.3-0.3-0.7-0.5-1.3-0.5c-0.4,0-0.8,0-1.1,0.1c-0.3,0.1-0.5,0.2-0.8,0.3
			c-0.2,0.1-0.4,0.2-0.6,0.3c-0.2,0.1-0.5,0.1-0.7,0.1c-0.3,0-0.5-0.1-0.7-0.2c-0.2-0.1-0.3-0.3-0.4-0.5l-0.7-1.2
			c0.8-0.7,1.6-1.2,2.5-1.5c0.9-0.3,1.9-0.5,2.9-0.5c0.8,0,1.4,0.1,2,0.4c0.6,0.2,1.1,0.6,1.5,1s0.7,1,1,1.6c0.2,0.6,0.3,1.3,0.3,2
			v7.8H39.3z M35,809.6c0.5,0,0.9-0.1,1.3-0.3c0.4-0.2,0.7-0.4,1.1-0.8v-1.7c-0.7,0-1.4,0-1.8,0.1c-0.5,0.1-0.9,0.2-1.1,0.4
			c-0.3,0.1-0.5,0.3-0.6,0.5c-0.1,0.2-0.2,0.4-0.2,0.6c0,0.4,0.1,0.7,0.3,0.9C34.2,809.5,34.5,809.6,35,809.6z"/>
		<path class="st1" d="M52.3,811.8c-0.2,0-0.4-0.1-0.6-0.2c-0.2-0.1-0.3-0.3-0.3-0.5l-0.3-0.9c-0.2,0.3-0.5,0.5-0.8,0.7
			c-0.3,0.2-0.6,0.4-0.9,0.6c-0.3,0.2-0.7,0.3-1,0.4c-0.4,0.1-0.8,0.1-1.2,0.1c-0.6,0-1.2-0.1-1.8-0.4c-0.6-0.3-1-0.7-1.4-1.2
			s-0.7-1.2-0.9-2c-0.2-0.8-0.3-1.7-0.3-2.7c0-0.9,0.1-1.8,0.4-2.6c0.3-0.8,0.6-1.5,1.1-2.1c0.5-0.6,1-1,1.7-1.4
			c0.7-0.3,1.4-0.5,2.2-0.5c0.6,0,1.2,0.1,1.6,0.3c0.4,0.2,0.8,0.4,1.2,0.7v-6.3h3.7v18H52.3z M48.6,809.2c0.3,0,0.5,0,0.7-0.1
			c0.2-0.1,0.4-0.1,0.6-0.2c0.2-0.1,0.4-0.2,0.5-0.4c0.2-0.1,0.3-0.3,0.5-0.5v-5.3c-0.3-0.3-0.6-0.5-0.9-0.7c-0.3-0.1-0.7-0.2-1-0.2
			c-0.3,0-0.7,0.1-0.9,0.2c-0.3,0.1-0.5,0.4-0.8,0.7c-0.2,0.3-0.4,0.7-0.5,1.2s-0.2,1.1-0.2,1.7c0,0.7,0,1.2,0.1,1.7
			s0.2,0.8,0.4,1.1s0.4,0.5,0.6,0.6C48,809.1,48.3,809.2,48.6,809.2z"/>
		<path class="st1" d="M62.6,815.1c-0.1,0.2-0.2,0.4-0.4,0.5c-0.2,0.1-0.4,0.2-0.8,0.2h-2.8l2.4-5l-5-11.4h3.3
			c0.3,0,0.5,0.1,0.7,0.2s0.3,0.3,0.3,0.5l2,5.4c0.2,0.5,0.3,1,0.5,1.5c0.1-0.3,0.2-0.5,0.3-0.8c0.1-0.2,0.2-0.5,0.3-0.8l1.8-5.3
			c0.1-0.2,0.2-0.3,0.4-0.5c0.2-0.1,0.4-0.2,0.6-0.2h3L62.6,815.1z"/>
		<path class="st1" d="M71.8,810c0-0.3,0.1-0.6,0.2-0.8c0.1-0.2,0.3-0.5,0.4-0.6s0.4-0.3,0.7-0.4s0.5-0.2,0.8-0.2
			c0.3,0,0.6,0.1,0.8,0.2s0.5,0.3,0.7,0.4c0.2,0.2,0.3,0.4,0.4,0.6s0.2,0.5,0.2,0.8c0,0.3-0.1,0.6-0.2,0.8c-0.1,0.3-0.3,0.5-0.4,0.7
			c-0.2,0.2-0.4,0.3-0.7,0.4c-0.3,0.1-0.5,0.2-0.8,0.2c-0.3,0-0.6-0.1-0.8-0.2c-0.3-0.1-0.5-0.2-0.7-0.4s-0.3-0.4-0.4-0.7
			C71.8,810.5,71.8,810.2,71.8,810z M75.6,794.4v6.9c0,0.7,0,1.5-0.1,2.2c-0.1,0.7-0.2,1.5-0.3,2.2h-2.5c-0.1-0.8-0.3-1.5-0.3-2.2
			c-0.1-0.7-0.1-1.5-0.1-2.2v-6.9H75.6z"/>
	</g>
	<g>
		<polygon class="st1" points="30.5,767.5 25.6,758.6 27.3,757.6 31.2,764.7 52.8,752 53.8,753.7 		"/>
		<path class="st1" d="M39,781.6c-13.3,0-24.2-10.8-24.2-24.2s10.8-24.2,24.2-24.2c13.3,0,24.2,10.8,24.2,24.2S52.3,781.6,39,781.6z
			 M39,734.3c-12.8,0-23.2,10.4-23.2,23.2s10.4,23.2,23.2,23.2s23.2-10.4,23.2-23.2S51.8,734.3,39,734.3z"/>
	</g>
</g>
<g id="guides" class="st75">
</g>
</svg>
