<?xml version="1.0" encoding="utf-8"?>
<!-- Generator: Adobe Illustrator 19.0.1, SVG Export Plug-In . SVG Version: 6.00 Build 0)  -->
<!DOCTYPE svg PUBLIC "-//W3C//DTD SVG 1.1//EN" "http://www.w3.org/Graphics/SVG/1.1/DTD/svg11.dtd" [
	<!ENTITY ns_extend "http://ns.adobe.com/Extensibility/1.0/">
	<!ENTITY ns_ai "http://ns.adobe.com/AdobeIllustrator/10.0/">
	<!ENTITY ns_graphs "http://ns.adobe.com/Graphs/1.0/">
	<!ENTITY ns_vars "http://ns.adobe.com/Variables/1.0/">
	<!ENTITY ns_imrep "http://ns.adobe.com/ImageReplacement/1.0/">
	<!ENTITY ns_sfw "http://ns.adobe.com/SaveForWeb/1.0/">
	<!ENTITY ns_custom "http://ns.adobe.com/GenericCustomNamespace/1.0/">
	<!ENTITY ns_adobe_xpath "http://ns.adobe.com/XPath/1.0/">
]>
<svg version="1.1" xmlns:x="&ns_extend;" xmlns:i="&ns_ai;" xmlns:graph="&ns_graphs;"
	 xmlns="http://www.w3.org/2000/svg" xmlns:xlink="http://www.w3.org/1999/xlink" x="0px" y="0px" width="71.5px" height="845.1px"
	 viewBox="0 0 71.5 845.1" style="enable-background:new 0 0 71.5 845.1;" xml:space="preserve">
<style type="text/css">
	.st0{fill:#3781A4;}
	.st1{fill:#FFFFFF;}
	.st2{opacity:0.7;}
	.st3{opacity:0.7;fill:none;stroke:#FFFFFF;stroke-miterlimit:10;}
	.st4{opacity:0.8;}
	.st5{opacity:0.25;}
	.st6{opacity:0.5;fill:#FFFFFF;}
	.st7{opacity:0.5;}
	.st8{fill:#A5B5B8;}
	.st9{fill:#EBEBEC;}
	.st10{fill:#B6B6B7;}
	.st11{fill:#B12843;}
	.st12{fill:#449F6C;}
	.st13{opacity:0.6;}
	.st14{fill:none;stroke:#FFFFFF;stroke-width:2;stroke-linecap:round;stroke-linejoin:round;stroke-miterlimit:10;}
	.st15{fill:none;stroke:#3781A4;stroke-width:6;stroke-miterlimit:10;}
	.st16{fill:none;stroke:#3781A4;stroke-width:5;stroke-miterlimit:10;}
	.st17{opacity:0.6;fill:none;stroke:#FFFFFF;stroke-width:2;stroke-linecap:round;stroke-linejoin:round;stroke-miterlimit:10;}
	.st18{opacity:0.6;fill:#B6B6B7;}
	.st19{opacity:0.35;fill:#B6B6B7;}
	.st20{opacity:0.8;fill:#B6B6B7;}
	.st21{opacity:0.3;fill:#B6B6B7;}
	.st22{opacity:0.7;fill:#B6B6B7;}
	.st23{opacity:0.9;fill:#B6B6B7;}
	.st24{opacity:0.5;fill:#B6B6B7;}
	.st25{opacity:0.2;fill:#B6B6B7;}
	.st26{opacity:0.65;fill:#B6B6B7;}
	.st27{opacity:0.85;fill:#B6B6B7;}
	.st28{opacity:0.45;fill:#B6B6B7;}
	.st29{fill:#485154;}
	.st30{fill:none;stroke:#3781A4;stroke-width:11;stroke-linecap:round;stroke-linejoin:round;stroke-miterlimit:10;}
	.st31{fill:none;stroke:#FFFFFF;stroke-width:3;stroke-linecap:round;stroke-linejoin:round;stroke-miterlimit:10;}
	.st32{fill:none;stroke:#FFFFFF;stroke-width:3;stroke-linecap:round;stroke-linejoin:round;}
	.st33{fill:none;stroke:#FFFFFF;stroke-width:3;stroke-linecap:round;stroke-linejoin:round;stroke-dasharray:2.9465,3.9287;}
	.st34{fill:none;stroke:#FFFFFF;stroke-width:3;stroke-linecap:round;stroke-linejoin:round;stroke-dasharray:2.0068,2.6757;}
	.st35{fill:none;stroke:#FFFFFF;stroke-width:3;stroke-linecap:round;stroke-linejoin:round;stroke-dasharray:2.8093,3.7457;}
	.st36{fill:none;stroke:#FFFFFF;stroke-width:3;stroke-linecap:round;stroke-linejoin:round;stroke-dasharray:3.0503,4.067;}
	.st37{fill:none;stroke:#FFFFFF;stroke-width:3;stroke-linecap:round;stroke-linejoin:round;stroke-dasharray:2.7315,3.642;}
	.st38{fill:none;stroke:#FFFFFF;stroke-width:3;stroke-linecap:round;stroke-linejoin:round;stroke-dasharray:3.1002,4.1336;}
	.st39{fill:none;stroke:#3781A4;stroke-width:10;stroke-linecap:round;stroke-linejoin:round;stroke-miterlimit:10;}
	.st40{fill:none;stroke:#3781A4;stroke-width:10;stroke-miterlimit:10;}
	.st41{fill:none;stroke:#FFFFFF;stroke-width:3;stroke-linecap:round;stroke-linejoin:round;stroke-dasharray:3.1068,4.1424;}
	.st42{fill:none;stroke:#FFFFFF;stroke-width:3;stroke-linecap:round;stroke-linejoin:round;stroke-dasharray:1.5484,2.0645;}
	.st43{fill:none;stroke:#FFFFFF;stroke-width:3;stroke-linecap:round;stroke-linejoin:round;stroke-dasharray:2.9057,3.8743;}
	.st44{fill:none;stroke:#FFFFFF;stroke-width:3;stroke-linecap:round;stroke-linejoin:round;stroke-dasharray:3.1048,4.1397;}
	.st45{fill:none;stroke:#FFFFFF;stroke-width:3;stroke-linecap:round;stroke-linejoin:round;stroke-dasharray:2.7418,3.6557;}
	.st46{fill:none;stroke:#FFFFFF;stroke-width:3;stroke-linecap:round;stroke-linejoin:round;stroke-dasharray:3.6253,4.8338;}
	.st47{fill:none;stroke:#FFFFFF;stroke-miterlimit:10;}
	.st48{fill:none;stroke:#FFFFFF;stroke-width:2.5;stroke-linecap:round;stroke-linejoin:round;stroke-miterlimit:10;}
	.st49{fill:#FAFCFB;}
	.st50{fill:none;stroke:#00A9CD;stroke-miterlimit:10;}
	.st51{fill:none;stroke:#3781A4;stroke-width:0.8989;stroke-miterlimit:10;}
	.st52{fill:none;stroke:#B12843;stroke-width:0.8989;stroke-miterlimit:10;}
	.st53{fill:none;stroke:#3781A4;stroke-miterlimit:10;}
	.st54{fill-rule:evenodd;clip-rule:evenodd;fill:none;stroke:#3781A4;stroke-width:0.8989;stroke-miterlimit:10;}
	.st55{fill:#00A9CD;}
	.st56{fill:#0597C4;}
	.st57{fill:#2A3033;}
	.st58{fill:none;}
	.st59{fill:none;stroke:#A5B5B8;stroke-miterlimit:10;}
	.st60{fill:none;stroke:#D4D4D6;stroke-miterlimit:10;}
	.st61{fill:#231F20;}
	.st62{opacity:0.6;fill:#212628;}
	.st63{opacity:0.85;fill:#FFFFFF;}
	.st64{fill:#0F070A;}
	.st65{opacity:0.85;}
	.st66{fill:#7A7E7F;}
	.st67{opacity:0.9;fill:#FFFFFF;}
	.st68{fill:#F7F7F7;}
	.st69{fill-rule:evenodd;clip-rule:evenodd;fill:#2A3033;}
	.st70{opacity:0.75;}
	.st71{fill:none;stroke:#FFFFFF;stroke-width:2;stroke-miterlimit:10;}
	.st72{fill:#0C0110;}
	.st73{opacity:0.7;fill:#FFFFFF;}
	.st74{fill:none;stroke:#FFFFFF;stroke-width:0.4355;stroke-miterlimit:10;}
	.st75{opacity:0.6;fill:#FFFFFF;}
	.st76{opacity:0.5;fill:#FFFFFF;enable-background:new    ;}
	.st77{display:none;}
	.st78{display:inline;fill:none;}
	.st79{display:inline;}
	.st80{fill:none;stroke:#FFFFFF;stroke-width:0.5319;stroke-miterlimit:10;}
	.st81{fill:none;stroke:#F9F164;stroke-width:0.5;stroke-miterlimit:10;}
</style>
<metadata>
	<sfw  xmlns="&ns_sfw;">
		<slices></slices>
		<sliceSourceBounds  width="10354" height="8656.8" bottomLeftOrigin="true" x="-5542.2" y="-6643.9"></sliceSourceBounds>
		<optimizationSettings>
			<targetSettings  targetSettingsID="0" fileFormat="JPEGFormat">
				
					<JPEGFormat  embedICCProfile="false" optimized="true" quality="60" matteColor="#FFFFFF" progressive="false" blurAmount="0" noMatteColor="false">
					</JPEGFormat>
			</targetSettings>
		</optimizationSettings>
	</sfw>
</metadata>
<g id="Layer_1">
	<g id="Layer_1_1_">
		<g>
			<path class="st1" d="M19.9,304.6c-0.1,0.1-0.1,0.1-0.2,0.2s-0.1,0.1-0.2,0.2c0.2-0.1,0.4-0.1,0.6-0.2s0.4-0.1,0.7-0.1
				c0.4,0,0.9,0.1,1.3,0.2s0.8,0.4,1.1,0.7c0.3,0.3,0.6,0.7,0.8,1.1c0.2,0.5,0.3,1,0.3,1.6s-0.1,1.1-0.3,1.6
				c-0.2,0.5-0.5,0.9-0.9,1.3s-0.8,0.7-1.4,0.9c-0.5,0.2-1.1,0.3-1.8,0.3c-0.7,0-1.3-0.1-1.8-0.3c-0.5-0.2-1-0.5-1.4-0.9
				s-0.7-0.8-0.9-1.4c-0.2-0.5-0.3-1.1-0.3-1.7c0-1.2,0.5-2.4,1.4-3.6l2.7-3.7c0.1-0.2,0.3-0.3,0.5-0.4s0.5-0.2,0.8-0.2h2.3
				L19.9,304.6z M18.2,308.6c0,0.3,0,0.6,0.1,0.8c0.1,0.2,0.2,0.4,0.3,0.6c0.1,0.2,0.3,0.3,0.6,0.4c0.2,0.1,0.5,0.1,0.8,0.1
				s0.5,0,0.7-0.1s0.4-0.2,0.6-0.4c0.2-0.2,0.3-0.4,0.4-0.6s0.1-0.5,0.1-0.8s0-0.6-0.1-0.8s-0.2-0.4-0.4-0.6
				c-0.2-0.2-0.4-0.3-0.6-0.4s-0.5-0.1-0.8-0.1s-0.5,0-0.7,0.1s-0.4,0.2-0.6,0.4s-0.3,0.4-0.4,0.6C18.3,308,18.2,308.3,18.2,308.6z"
				/>
			<path class="st1" d="M34.1,306.4c0,1.1-0.1,2-0.3,2.7c-0.2,0.8-0.5,1.4-0.9,1.9s-0.9,0.9-1.4,1.1s-1.1,0.4-1.8,0.4
				s-1.2-0.1-1.8-0.4s-1-0.6-1.4-1.1s-0.7-1.1-0.9-1.9c-0.2-0.8-0.3-1.7-0.3-2.7s0.1-2,0.3-2.7c0.2-0.8,0.5-1.4,0.9-1.9
				s0.9-0.9,1.4-1.1s1.1-0.4,1.8-0.4s1.2,0.1,1.8,0.4c0.6,0.3,1,0.6,1.4,1.1c0.4,0.5,0.7,1.1,0.9,1.9
				C34,304.4,34.1,305.3,34.1,306.4z M31.4,306.4c0-0.8-0.1-1.5-0.2-2s-0.2-0.9-0.4-1.3c-0.2-0.3-0.4-0.5-0.6-0.6s-0.4-0.2-0.7-0.2
				c-0.2,0-0.4,0.1-0.7,0.2s-0.4,0.3-0.6,0.6c-0.2,0.3-0.3,0.7-0.4,1.3c-0.1,0.5-0.2,1.2-0.2,2s0.1,1.5,0.2,2.1
				c0.1,0.5,0.2,0.9,0.4,1.3c0.2,0.3,0.4,0.5,0.6,0.6s0.4,0.2,0.7,0.2c0.2,0,0.4-0.1,0.7-0.2c0.2-0.1,0.4-0.3,0.6-0.6
				c0.2-0.3,0.3-0.7,0.4-1.3S31.4,307.2,31.4,306.4z"/>
			<path class="st1" d="M35.3,312.4v-8.6h1.6c0.3,0,0.5,0.1,0.6,0.4l0.1,0.5c0.1-0.1,0.3-0.3,0.4-0.4s0.3-0.2,0.5-0.3
				c0.2-0.1,0.4-0.2,0.6-0.2c0.2-0.1,0.4-0.1,0.7-0.1c0.5,0,0.9,0.1,1.3,0.4c0.3,0.3,0.6,0.6,0.8,1.1c0.1-0.3,0.3-0.5,0.5-0.7
				s0.4-0.3,0.7-0.5c0.2-0.1,0.5-0.2,0.8-0.3c0.3-0.1,0.5-0.1,0.8-0.1c0.5,0,0.9,0.1,1.3,0.2c0.4,0.1,0.7,0.4,1,0.6
				c0.3,0.3,0.5,0.6,0.6,1s0.2,0.9,0.2,1.4v5.5h-2.6V307c0-0.9-0.4-1.3-1.1-1.3c-0.3,0-0.6,0.1-0.9,0.3c-0.2,0.2-0.3,0.6-0.3,1v5.5
				h-2.6V307c0-0.5-0.1-0.8-0.3-1s-0.5-0.3-0.9-0.3c-0.2,0-0.5,0.1-0.7,0.2s-0.4,0.2-0.6,0.4v6.2h-2.5V312.4z"/>
			<path class="st1" d="M54.8,305.7c-0.1,0.1-0.1,0.2-0.2,0.2c-0.1,0-0.2,0.1-0.3,0.1s-0.2,0-0.4-0.1c-0.1-0.1-0.3-0.1-0.4-0.2
				c-0.1-0.1-0.3-0.1-0.5-0.2s-0.4-0.1-0.6-0.1c-0.3,0-0.6,0.1-0.7,0.2c-0.2,0.1-0.3,0.3-0.3,0.5s0.1,0.3,0.2,0.4
				c0.1,0.1,0.3,0.2,0.5,0.3c0.2,0.1,0.4,0.2,0.6,0.2c0.2,0.1,0.5,0.2,0.7,0.2c0.2,0.1,0.5,0.2,0.7,0.3c0.2,0.1,0.5,0.3,0.6,0.4
				c0.2,0.2,0.3,0.4,0.5,0.6s0.2,0.5,0.2,0.9s-0.1,0.8-0.2,1.2c-0.2,0.4-0.4,0.7-0.7,0.9c-0.3,0.3-0.7,0.5-1.1,0.6
				c-0.4,0.1-1,0.2-1.6,0.2c-0.3,0-0.6,0-0.9-0.1c-0.3-0.1-0.6-0.1-0.8-0.2c-0.3-0.1-0.5-0.2-0.8-0.3c-0.2-0.1-0.4-0.3-0.6-0.4
				l0.6-0.9c0.1-0.1,0.2-0.2,0.3-0.3s0.2-0.1,0.4-0.1c0.1,0,0.3,0,0.4,0.1c0.1,0.1,0.2,0.1,0.4,0.2c0.1,0.1,0.3,0.1,0.5,0.2
				s0.4,0.1,0.7,0.1c0.2,0,0.4,0,0.5-0.1c0.1,0,0.2-0.1,0.3-0.2s0.1-0.2,0.2-0.2c0-0.1,0.1-0.2,0.1-0.3c0-0.2-0.1-0.3-0.2-0.4
				s-0.3-0.2-0.5-0.3c-0.2-0.1-0.4-0.2-0.6-0.2c-0.2-0.1-0.5-0.1-0.7-0.2s-0.5-0.2-0.7-0.3c-0.2-0.1-0.5-0.3-0.6-0.5
				c-0.2-0.2-0.3-0.4-0.5-0.7c-0.1-0.3-0.2-0.6-0.2-1s0.1-0.7,0.2-1s0.4-0.6,0.6-0.9s0.6-0.4,1.1-0.6c0.4-0.1,0.9-0.2,1.5-0.2
				c0.3,0,0.6,0,0.9,0.1c0.3,0.1,0.6,0.1,0.8,0.2c0.3,0.1,0.5,0.2,0.7,0.4c0.2,0.1,0.4,0.3,0.6,0.4L54.8,305.7z"/>
		</g>
		<g>
			<path class="st1" d="M12.3,499.2h2.3v-6.1c0-0.3,0-0.6,0-0.9l-1.4,1.1c-0.1,0.1-0.2,0.1-0.4,0.2c-0.1,0-0.2,0-0.3,0
				s-0.2-0.1-0.3-0.1c-0.1-0.1-0.1-0.1-0.2-0.2l-0.8-1.1L15,489h2.1v10.2h2v1.9h-6.9L12.3,499.2L12.3,499.2z"/>
			<path class="st1" d="M25,488.9c0.6,0,1.1,0.1,1.6,0.3c0.5,0.2,0.9,0.4,1.2,0.7c0.3,0.3,0.6,0.7,0.8,1.1c0.2,0.4,0.3,0.9,0.3,1.4
				c0,0.4-0.1,0.8-0.2,1.2c-0.1,0.4-0.3,0.7-0.5,1.1c-0.2,0.3-0.5,0.7-0.7,1c-0.3,0.3-0.6,0.6-0.9,1l-2.4,2.4
				c0.3-0.1,0.6-0.2,0.9-0.2c0.3-0.1,0.6-0.1,0.8-0.1h2.2c0.3,0,0.5,0.1,0.7,0.2c0.2,0.2,0.2,0.4,0.2,0.6v1.5h-8.5v-0.8
				c0-0.2,0-0.3,0.1-0.5s0.2-0.3,0.3-0.5l3.5-3.5c0.3-0.3,0.6-0.6,0.8-0.9s0.4-0.5,0.5-0.8s0.3-0.5,0.3-0.8c0.1-0.3,0.1-0.5,0.1-0.8
				c0-0.5-0.1-0.8-0.3-1.1s-0.6-0.4-1-0.4s-0.7,0.1-1,0.3s-0.4,0.5-0.5,0.7c-0.1,0.3-0.3,0.5-0.5,0.6s-0.5,0.1-0.8,0.1l-1.4-0.2
				c0.1-0.6,0.3-1.1,0.5-1.6s0.6-0.8,0.9-1.1c0.4-0.3,0.8-0.5,1.3-0.7S24.4,488.9,25,488.9z"/>
			<path class="st1" d="M38.9,495c0,1.1-0.1,2-0.3,2.7c-0.2,0.8-0.5,1.4-0.9,1.9s-0.9,0.9-1.4,1.1s-1.1,0.4-1.8,0.4
				s-1.2-0.1-1.8-0.4s-1-0.6-1.4-1.1s-0.7-1.1-0.9-1.9c-0.2-0.8-0.3-1.7-0.3-2.7s0.1-2,0.3-2.7c0.2-0.8,0.5-1.4,0.9-1.9
				s0.9-0.9,1.4-1.1s1.1-0.4,1.8-0.4s1.2,0.1,1.8,0.4s1,0.6,1.4,1.1s0.7,1.1,0.9,1.9C38.8,493.1,38.9,494,38.9,495z M36.2,495
				c0-0.8-0.1-1.5-0.2-2c-0.1-0.5-0.2-0.9-0.4-1.3c-0.2-0.3-0.4-0.5-0.6-0.6s-0.4-0.2-0.7-0.2c-0.2,0-0.4,0.1-0.7,0.2
				s-0.4,0.3-0.6,0.6c-0.2,0.3-0.3,0.7-0.4,1.3c-0.1,0.5-0.2,1.2-0.2,2s0.1,1.5,0.2,2.1c0.1,0.5,0.2,0.9,0.4,1.3
				c0.2,0.3,0.4,0.5,0.6,0.6c0.2,0.1,0.4,0.2,0.7,0.2c0.2,0,0.4-0.1,0.7-0.2c0.2-0.1,0.4-0.3,0.6-0.6c0.2-0.3,0.3-0.7,0.4-1.3
				S36.2,495.9,36.2,495z"/>
			<path class="st1" d="M40.1,501.1v-8.6h1.6c0.3,0,0.5,0.1,0.6,0.4l0.1,0.5c0.1-0.1,0.3-0.3,0.4-0.4s0.3-0.2,0.5-0.3
				c0.2-0.1,0.4-0.2,0.6-0.2c0.2-0.1,0.4-0.1,0.7-0.1c0.5,0,0.9,0.1,1.3,0.4c0.3,0.3,0.6,0.6,0.8,1.1c0.1-0.3,0.3-0.5,0.5-0.7
				s0.4-0.3,0.7-0.5c0.2-0.1,0.5-0.2,0.8-0.3c0.3-0.1,0.5-0.1,0.8-0.1c0.5,0,0.9,0.1,1.3,0.2c0.4,0.1,0.7,0.4,1,0.6
				c0.3,0.3,0.5,0.6,0.6,1s0.2,0.9,0.2,1.4v5.5H50v-5.5c0-0.9-0.4-1.3-1.1-1.3c-0.3,0-0.6,0.1-0.9,0.3c-0.2,0.2-0.3,0.6-0.3,1v5.5
				H45v-5.5c0-0.5-0.1-0.8-0.3-1s-0.5-0.3-0.9-0.3c-0.2,0-0.5,0.1-0.7,0.2s-0.4,0.2-0.6,0.4v6.2L40.1,501.1L40.1,501.1z"/>
			<path class="st1" d="M59.6,494.4c-0.1,0.1-0.1,0.2-0.2,0.2c-0.1,0-0.2,0.1-0.3,0.1s-0.2,0-0.4-0.1c-0.1-0.1-0.3-0.1-0.4-0.2
				c-0.1-0.1-0.3-0.1-0.5-0.2s-0.4-0.1-0.6-0.1c-0.3,0-0.6,0.1-0.7,0.2c-0.2,0.1-0.3,0.3-0.3,0.5s0.1,0.3,0.2,0.4
				c0.1,0.1,0.3,0.2,0.5,0.3c0.2,0.1,0.4,0.2,0.6,0.2c0.2,0.1,0.5,0.2,0.7,0.2c0.2,0.1,0.5,0.2,0.7,0.3c0.2,0.1,0.5,0.3,0.6,0.4
				c0.2,0.2,0.3,0.4,0.5,0.6s0.2,0.5,0.2,0.9s-0.1,0.8-0.2,1.2c-0.2,0.4-0.4,0.7-0.7,0.9c-0.3,0.3-0.7,0.5-1.1,0.6
				c-0.4,0.1-1,0.2-1.6,0.2c-0.3,0-0.6,0-0.9-0.1c-0.3-0.1-0.6-0.1-0.8-0.2c-0.3-0.1-0.5-0.2-0.8-0.3c-0.2-0.1-0.4-0.3-0.6-0.4
				l0.6-0.9c0.1-0.1,0.2-0.2,0.3-0.3s0.2-0.1,0.4-0.1c0.1,0,0.3,0,0.4,0.1c0.1,0.1,0.2,0.1,0.4,0.2c0.1,0.1,0.3,0.1,0.5,0.2
				s0.4,0.1,0.7,0.1c0.2,0,0.4,0,0.5-0.1c0.1,0,0.2-0.1,0.3-0.2s0.1-0.2,0.2-0.2c0-0.1,0.1-0.2,0.1-0.3c0-0.2-0.1-0.3-0.2-0.4
				s-0.3-0.2-0.5-0.3c-0.2-0.1-0.4-0.2-0.6-0.2c-0.2-0.1-0.5-0.1-0.7-0.2s-0.5-0.2-0.7-0.3c-0.2-0.1-0.5-0.3-0.6-0.5
				c-0.2-0.2-0.3-0.4-0.5-0.7c-0.1-0.3-0.2-0.6-0.2-1s0.1-0.7,0.2-1s0.4-0.6,0.6-0.9s0.6-0.4,1.1-0.6c0.4-0.1,0.9-0.2,1.5-0.2
				c0.3,0,0.6,0,0.9,0.1c0.3,0.1,0.6,0.1,0.8,0.2c0.3,0.1,0.5,0.2,0.7,0.4c0.2,0.1,0.4,0.3,0.6,0.4L59.6,494.4z"/>
		</g>
		<rect x="33.8" y="140.7" class="st76" width="3.4" height="150.6"/>
		<rect x="33.8" y="326.4" class="st76" width="3.4" height="152.6"/>
		<g>
			<polygon class="st76" points="41,657.4 29.8,662.3 29.8,664.2 33.8,662.5 33.8,804.8 37.3,804.8 37.3,661 41,659.3 			"/>
			<polygon class="st76" points="29.8,659.1 41,654.1 41,652.2 37.3,653.8 37.3,512.5 33.8,512.5 33.8,655.3 29.8,657.1 			"/>
		</g>
		<g>
			<path class="st1" d="M15.4,814c0.6,0,1.1,0.1,1.6,0.3s0.9,0.4,1.2,0.7c0.3,0.3,0.6,0.7,0.8,1.1c0.2,0.4,0.3,0.9,0.3,1.4
				c0,0.4-0.1,0.8-0.2,1.2s-0.3,0.7-0.5,1.1c-0.2,0.3-0.5,0.7-0.7,1c-0.3,0.3-0.6,0.6-0.9,1l-2.4,2.4c0.3-0.1,0.6-0.2,0.9-0.2
				c0.3-0.1,0.6-0.1,0.8-0.1h2.2c0.3,0,0.5,0.1,0.7,0.2c0.2,0.2,0.2,0.4,0.2,0.6v1.5h-8.5v-0.8c0-0.2,0-0.3,0.1-0.5s0.2-0.3,0.3-0.5
				l3.5-3.5c0.3-0.3,0.6-0.6,0.8-0.9s0.4-0.5,0.5-0.8s0.3-0.5,0.3-0.8c0.1-0.3,0.1-0.5,0.1-0.8c0-0.5-0.1-0.8-0.3-1.1
				s-0.6-0.4-1-0.4s-0.7,0.1-1,0.3s-0.4,0.5-0.5,0.7c-0.1,0.3-0.3,0.5-0.5,0.6s-0.5,0.1-0.8,0.1l-1.4-0.2c0.1-0.6,0.3-1.1,0.5-1.6
				s0.6-0.8,0.9-1.1c0.4-0.3,0.8-0.5,1.3-0.7S14.8,814,15.4,814z"/>
			<path class="st1" d="M28,821.5h1.2v1.4c0,0.1,0,0.2-0.1,0.3s-0.2,0.1-0.4,0.1H28v2.8h-2.2v-2.8H21c-0.2,0-0.3,0-0.4-0.1
				s-0.2-0.2-0.2-0.4l-0.3-1.3l5.6-7.5H28V821.5z M25.8,818.4c0-0.2,0-0.4,0-0.6c0-0.2,0-0.5,0.1-0.7l-3.2,4.5h3.1V818.4z"/>
			<path class="st1" d="M38.9,820.2c0,1.1-0.1,2-0.3,2.7c-0.2,0.8-0.5,1.4-0.9,1.9s-0.9,0.9-1.4,1.1s-1.1,0.4-1.8,0.4
				s-1.2-0.1-1.8-0.4s-1-0.6-1.4-1.1s-0.7-1.1-0.9-1.9c-0.2-0.8-0.3-1.7-0.3-2.7s0.1-2,0.3-2.7c0.2-0.8,0.5-1.4,0.9-1.9
				s0.9-0.9,1.4-1.1s1.1-0.4,1.8-0.4s1.2,0.1,1.8,0.4s1,0.6,1.4,1.1s0.7,1.1,0.9,1.9C38.8,818.2,38.9,819.1,38.9,820.2z M36.2,820.2
				c0-0.8-0.1-1.5-0.2-2c-0.1-0.5-0.2-0.9-0.4-1.3c-0.2-0.3-0.4-0.5-0.6-0.6s-0.4-0.2-0.7-0.2c-0.2,0-0.4,0.1-0.7,0.2
				s-0.4,0.3-0.6,0.6c-0.2,0.3-0.3,0.7-0.4,1.3c-0.1,0.5-0.2,1.2-0.2,2s0.1,1.5,0.2,2.1c0.1,0.5,0.2,0.9,0.4,1.3
				c0.2,0.3,0.4,0.5,0.6,0.6c0.2,0.1,0.4,0.2,0.7,0.2c0.2,0,0.4-0.1,0.7-0.2c0.2-0.1,0.4-0.3,0.6-0.6c0.2-0.3,0.3-0.7,0.4-1.3
				S36.2,821,36.2,820.2z"/>
			<path class="st1" d="M40.1,826.2v-8.6h1.6c0.3,0,0.5,0.1,0.6,0.4l0.1,0.5c0.1-0.1,0.3-0.3,0.4-0.4s0.3-0.2,0.5-0.3
				s0.4-0.2,0.6-0.2c0.2-0.1,0.4-0.1,0.7-0.1c0.5,0,0.9,0.1,1.3,0.4c0.3,0.3,0.6,0.6,0.8,1.1c0.1-0.3,0.3-0.5,0.5-0.7
				s0.4-0.3,0.7-0.5c0.2-0.1,0.5-0.2,0.8-0.3s0.5-0.1,0.8-0.1c0.5,0,0.9,0.1,1.3,0.2c0.4,0.1,0.7,0.4,1,0.6c0.3,0.3,0.5,0.6,0.6,1
				s0.2,0.9,0.2,1.4v5.5H50v-5.5c0-0.9-0.4-1.3-1.1-1.3c-0.3,0-0.6,0.1-0.9,0.3c-0.2,0.2-0.3,0.6-0.3,1v5.5H45v-5.5
				c0-0.5-0.1-0.8-0.3-1s-0.5-0.3-0.9-0.3c-0.2,0-0.5,0.1-0.7,0.2c-0.2,0.1-0.4,0.2-0.6,0.4v6.2L40.1,826.2L40.1,826.2z"/>
			<path class="st1" d="M59.6,819.5c-0.1,0.1-0.1,0.2-0.2,0.2c-0.1,0-0.2,0.1-0.3,0.1s-0.2,0-0.4-0.1c-0.1-0.1-0.3-0.1-0.4-0.2
				c-0.1-0.1-0.3-0.1-0.5-0.2c-0.2-0.1-0.4-0.1-0.6-0.1c-0.3,0-0.6,0.1-0.7,0.2c-0.2,0.1-0.3,0.3-0.3,0.5s0.1,0.3,0.2,0.4
				c0.1,0.1,0.3,0.2,0.5,0.3s0.4,0.2,0.6,0.2c0.2,0.1,0.5,0.2,0.7,0.2c0.2,0.1,0.5,0.2,0.7,0.3s0.5,0.3,0.6,0.4
				c0.2,0.2,0.3,0.4,0.5,0.6s0.2,0.5,0.2,0.9s-0.1,0.8-0.2,1.2c-0.2,0.4-0.4,0.7-0.7,0.9c-0.3,0.3-0.7,0.5-1.1,0.6
				c-0.4,0.1-1,0.2-1.6,0.2c-0.3,0-0.6,0-0.9-0.1c-0.3-0.1-0.6-0.1-0.8-0.2c-0.3-0.1-0.5-0.2-0.8-0.3c-0.2-0.1-0.4-0.3-0.6-0.4
				l0.6-0.9c0.1-0.1,0.2-0.2,0.3-0.3s0.2-0.1,0.4-0.1c0.1,0,0.3,0,0.4,0.1c0.1,0.1,0.2,0.1,0.4,0.2c0.1,0.1,0.3,0.1,0.5,0.2
				c0.2,0.1,0.4,0.1,0.7,0.1c0.2,0,0.4,0,0.5-0.1c0.1,0,0.2-0.1,0.3-0.2c0.1-0.1,0.1-0.2,0.2-0.2c0-0.1,0.1-0.2,0.1-0.3
				c0-0.2-0.1-0.3-0.2-0.4s-0.3-0.2-0.5-0.3s-0.4-0.2-0.6-0.2c-0.2-0.1-0.5-0.1-0.7-0.2c-0.2-0.1-0.5-0.2-0.7-0.3s-0.5-0.3-0.6-0.5
				c-0.2-0.2-0.3-0.4-0.5-0.7c-0.1-0.3-0.2-0.6-0.2-1s0.1-0.7,0.2-1s0.4-0.6,0.6-0.9s0.6-0.4,1.1-0.6c0.4-0.1,0.9-0.2,1.5-0.2
				c0.3,0,0.6,0,0.9,0.1c0.3,0.1,0.6,0.1,0.8,0.2c0.3,0.1,0.5,0.2,0.7,0.4c0.2,0.1,0.4,0.3,0.6,0.4L59.6,819.5z"/>
		</g>
		<g>
			<path class="st1" d="M40,125.7c0,1.1-0.1,2-0.3,2.7c-0.2,0.8-0.5,1.4-0.9,1.9s-0.9,0.9-1.4,1.1s-1.1,0.4-1.8,0.4
				s-1.2-0.1-1.8-0.4s-1-0.6-1.4-1.1s-0.7-1.1-0.9-1.9c-0.2-0.8-0.3-1.7-0.3-2.7s0.1-2,0.3-2.7c0.2-0.8,0.5-1.4,0.9-1.9
				s0.9-0.9,1.4-1.1s1.1-0.4,1.8-0.4s1.2,0.1,1.8,0.4s1,0.6,1.4,1.1s0.7,1.1,0.9,1.9C39.9,123.7,40,124.7,40,125.7z M37.4,125.7
				c0-0.8-0.1-1.5-0.2-2c-0.1-0.5-0.2-0.9-0.4-1.3c-0.2-0.3-0.4-0.5-0.6-0.6s-0.4-0.2-0.7-0.2c-0.2,0-0.4,0.1-0.7,0.2
				s-0.4,0.3-0.6,0.6c-0.2,0.3-0.3,0.7-0.4,1.3c-0.1,0.5-0.2,1.2-0.2,2s0.1,1.5,0.2,2.1c0.1,0.5,0.2,0.9,0.4,1.3
				c0.2,0.3,0.4,0.5,0.6,0.6c0.2,0.1,0.4,0.2,0.7,0.2c0.2,0,0.4-0.1,0.7-0.2c0.2-0.1,0.4-0.3,0.6-0.6c0.2-0.3,0.3-0.7,0.4-1.3
				S37.4,126.5,37.4,125.7z"/>
		</g>
	</g>
</g>
<g id="guides" class="st77">
</g>
</svg>
