<?xml version="1.0" encoding="utf-8"?>
<!-- Generator: Adobe Illustrator 19.1.0, SVG Export Plug-In . SVG Version: 6.00 Build 0)  -->
<svg version="1.1" id="Layer_1" xmlns="http://www.w3.org/2000/svg" xmlns:xlink="http://www.w3.org/1999/xlink" x="0px" y="0px"
	 viewBox="293 -56 617.7 144" style="enable-background:new 293 -56 617.7 144;" xml:space="preserve">
<style type="text/css">
	.st0{enable-background:new    ;}
	.st1{fill:#A5B5B8;}
	.st2{fill:#FFFFFF;}
	.st3{fill:none;stroke:#A5B5B8;stroke-miterlimit:10;}
	.st4{fill:#EBEBEC;}
	.st5{opacity:0.6;fill:#B6B6B7;enable-background:new    ;}
	.st6{fill:#B6B6B7;}
	.st7{opacity:0.35;fill:#B6B6B7;enable-background:new    ;}
	.st8{opacity:0.8;fill:#B6B6B7;enable-background:new    ;}
	.st9{opacity:0.3;fill:#B6B6B7;enable-background:new    ;}
	.st10{opacity:0.7;fill:#B6B6B7;enable-background:new    ;}
	.st11{opacity:0.9;fill:#B6B6B7;enable-background:new    ;}
	.st12{opacity:0.5;fill:#B6B6B7;enable-background:new    ;}
	.st13{opacity:0.2;fill:#B6B6B7;enable-background:new    ;}
	.st14{opacity:0.65;fill:#B6B6B7;enable-background:new    ;}
	.st15{opacity:0.85;fill:#B6B6B7;enable-background:new    ;}
	.st16{opacity:0.45;fill:#B6B6B7;enable-background:new    ;}
	.st17{fill:#3781A4;}
	.st18{fill:#0597C4;}
	.st19{fill:#449F6C;}
	.st20{fill:#B12843;}
</style>
<g class="st0">
	<path class="st1" d="M596.9,27.7h-3.8l-5.4-14h3.5c0.3,0,0.5,0.1,0.8,0.2c0.2,0.1,0.3,0.3,0.4,0.5l2,6.3c0.2,0.5,0.3,1,0.4,1.5
		s0.3,1,0.4,1.5c0.1-0.5,0.2-1,0.4-1.5s0.3-1,0.5-1.5l2-6.3c0.1-0.2,0.2-0.4,0.4-0.5c0.2-0.1,0.4-0.2,0.7-0.2h3.3L596.9,27.7z"/>
	<path class="st1" d="M612.7,16.7c-0.1,0.2-0.2,0.3-0.3,0.4s-0.3,0.1-0.5,0.1c-0.2,0-0.4,0-0.6-0.1c-0.2-0.1-0.4-0.2-0.6-0.3
		c-0.2-0.1-0.5-0.2-0.8-0.3c-0.3-0.1-0.6-0.1-1-0.1c-0.5,0-0.9,0.1-1.2,0.3c-0.3,0.2-0.4,0.5-0.4,0.8c0,0.3,0.1,0.5,0.3,0.7
		c0.2,0.2,0.4,0.3,0.7,0.5s0.7,0.3,1,0.4c0.4,0.1,0.8,0.2,1.2,0.4c0.4,0.1,0.8,0.3,1.2,0.5c0.4,0.2,0.7,0.4,1,0.7
		c0.3,0.3,0.6,0.6,0.7,1c0.2,0.4,0.3,0.9,0.3,1.5c0,0.7-0.1,1.3-0.4,1.9c-0.3,0.6-0.6,1.1-1.1,1.5c-0.5,0.4-1.1,0.8-1.9,1
		c-0.7,0.2-1.6,0.4-2.5,0.4c-0.5,0-1,0-1.4-0.1c-0.5-0.1-0.9-0.2-1.4-0.4s-0.9-0.3-1.2-0.5c-0.4-0.2-0.7-0.4-1-0.7l1-1.5
		c0.1-0.2,0.3-0.3,0.4-0.4c0.2-0.1,0.4-0.2,0.6-0.2c0.2,0,0.5,0.1,0.7,0.2c0.2,0.1,0.4,0.2,0.6,0.4c0.2,0.1,0.5,0.2,0.8,0.4
		s0.7,0.2,1.1,0.2c0.3,0,0.6,0,0.8-0.1c0.2-0.1,0.4-0.2,0.5-0.3c0.1-0.1,0.2-0.2,0.3-0.4s0.1-0.3,0.1-0.4c0-0.3-0.1-0.5-0.3-0.7
		s-0.4-0.3-0.7-0.5c-0.3-0.1-0.7-0.3-1-0.4c-0.4-0.1-0.8-0.2-1.2-0.4c-0.4-0.1-0.8-0.3-1.2-0.5c-0.4-0.2-0.7-0.5-1.1-0.8
		s-0.6-0.7-0.7-1.1c-0.2-0.5-0.3-1-0.3-1.6c0-0.6,0.1-1.2,0.3-1.7s0.6-1,1-1.4c0.5-0.4,1-0.7,1.7-1s1.5-0.4,2.4-0.4
		c0.5,0,1,0,1.5,0.1c0.5,0.1,0.9,0.2,1.3,0.4c0.4,0.2,0.8,0.4,1.1,0.6c0.3,0.2,0.6,0.5,0.9,0.7L612.7,16.7z"/>
</g>
<g>
	<g>
		<g id="Macbook_base_67_">
			<g>
				<path class="st2" d="M895.8-42.7H731.5c-2.8,0-5.1,2.3-5.1,5.1V67.9c0,2.8,2.3,5.1,5.1,5.1h164.4c2.8,0,5.1-2.3,5.1-5.1V-37.6
					C901-40.4,898.6-42.7,895.8-42.7z"/>
			</g>
			<g>
				<path class="st3" d="M895.8-42.7H731.5c-2.8,0-5.1,2.3-5.1,5.1V67.9c0,2.8,2.3,5.1,5.1,5.1h164.4c2.8,0,5.1-2.3,5.1-5.1V-37.6
					C901-40.4,898.6-42.7,895.8-42.7z"/>
			</g>
		</g>
		<g id="Macbook_base_65_">
			<g>
				<path class="st1" d="M895.8-42.7H731.5c-2.8,0-5.1,2.3-5.1,5.1v4.9H901v-4.9C901-40.4,898.6-42.7,895.8-42.7z"/>
			</g>
		</g>
		<g>
			<circle class="st2" cx="732.8" cy="-37.6" r="1.5"/>
			<circle class="st2" cx="737.8" cy="-37.6" r="1.5"/>
			<circle class="st2" cx="742.8" cy="-37.6" r="1.5"/>
		</g>
		<rect x="784.6" y="-39.1" class="st4" width="57.9" height="3.4"/>
	</g>
	<g>
		<path class="st5" d="M816.3,3.8c0,1.5-1.2,2.7-2.7,2.7l0,0c-1.5,0-2.7-1.2-2.7-2.7v-8.2c0-1.5,1.2-2.7,2.7-2.7l0,0
			c1.5,0,2.7,1.2,2.7,2.7V3.8z"/>
		<path class="st6" d="M816.3,44.6c0,1.5-1.2,2.7-2.7,2.7l0,0c-1.5,0-2.7-1.2-2.7-2.7v-8.2c0-1.5,1.2-2.7,2.7-2.7l0,0
			c1.5,0,2.7,1.2,2.7,2.7V44.6z"/>
		<path class="st7" d="M797.2,17.4c1.5,0,2.7,1.2,2.7,2.7l0,0c0,1.5-1.2,2.7-2.7,2.7H789c-1.5,0-2.7-1.2-2.7-2.7l0,0
			c0-1.5,1.2-2.7,2.7-2.7H797.2z"/>
		<path class="st8" d="M838.1,17.4c1.5,0,2.7,1.2,2.7,2.7l0,0c0,1.5-1.2,2.7-2.7,2.7h-8.2c-1.5,0-2.7-1.2-2.7-2.7l0,0
			c0-1.5,1.2-2.7,2.7-2.7H838.1z"/>
		<path class="st9" d="M798.1,25.9c1.3-0.8,3-0.3,3.7,1l0,0c0.8,1.3,0.3,3-1,3.7l-7.1,4.1c-1.3,0.8-3,0.3-3.7-1l0,0
			c-0.8-1.3-0.3-3,1-3.7L798.1,25.9z"/>
		<path class="st10" d="M833.5,5.5c1.3-0.8,3-0.3,3.7,1l0,0c0.8,1.3,0.3,3-1,3.7l-7.1,4.1c-1.3,0.8-3,0.3-3.7-1l0,0
			c-0.8-1.3-0.3-3,1-3.7L833.5,5.5z"/>
		<path class="st11" d="M819.5,35.6c-0.8-1.3-0.3-3,1-3.7l0,0c1.3-0.8,3-0.3,3.7,1l4.1,7.1c0.8,1.3,0.3,3-1,3.7l0,0
			c-1.3,0.8-3,0.3-3.7-1L819.5,35.6z"/>
		<path class="st12" d="M799,0.2c-0.8-1.3-0.3-3,1-3.7l0,0c1.3-0.8,3-0.3,3.7,1l4.1,7.1c0.8,1.3,0.3,3-1,3.7l0,0
			c-1.3,0.8-3,0.3-3.7-1L799,0.2z"/>
		<path class="st13" d="M803,32.9c0.8-1.3,2.4-1.8,3.7-1l0,0c1.3,0.7,1.8,2.4,1,3.7l-4.1,7.1c-0.8,1.3-2.4,1.8-3.7,1l0,0
			c-1.3-0.7-1.8-2.4-1-3.7L803,32.9z"/>
		<path class="st14" d="M823.5-2.5c0.8-1.3,2.4-1.8,3.7-1l0,0c1.3,0.7,1.7,2.4,1,3.7l-4.1,7.1c-0.8,1.3-2.4,1.8-3.7,1l0,0
			c-1.3-0.7-1.8-2.4-1-3.7L823.5-2.5z"/>
		<path class="st15" d="M826.3,30.6c-1.3-0.8-1.8-2.4-1-3.7l0,0c0.8-1.3,2.4-1.7,3.7-1l7.1,4.1c1.3,0.8,1.8,2.4,1,3.7l0,0
			c-0.8,1.3-2.4,1.8-3.7,1L826.3,30.6z"/>
		<path class="st16" d="M791,10.2c-1.3-0.8-1.8-2.4-1-3.7l0,0c0.8-1.3,2.4-1.7,3.7-1l7.1,4.1c1.3,0.8,1.8,2.4,1,3.7l0,0
			c-0.8,1.3-2.4,1.8-3.7,1L791,10.2z"/>
	</g>
</g>
<g>
	<g>
		<g id="Macbook_base_63_">
			<g>
				<path class="st2" d="M481.9-42.7H315.2c-2.9,0-5.2,2.3-5.2,5.2V69.4c0,2.9,2.3,5.2,5.2,5.2H482c2.9,0,5.2-2.3,5.2-5.2V-37.5
					C487.1-40.2,484.8-42.7,481.9-42.7z"/>
			</g>
			<g>
				<path class="st3" d="M481.9-42.7H315.2c-2.9,0-5.2,2.3-5.2,5.2V69.4c0,2.9,2.3,5.2,5.2,5.2H482c2.9,0,5.2-2.3,5.2-5.2V-37.5
					C487.1-40.2,484.8-42.7,481.9-42.7z"/>
			</g>
		</g>
		<g id="Macbook_base_61_">
			<g>
				<path class="st1" d="M481.9-42.7H315.2c-2.9,0-5.2,2.3-5.2,5.2v5h177.1v-5C487.1-40.2,484.8-42.7,481.9-42.7z"/>
			</g>
		</g>
		<g>
			<circle class="st2" cx="316.6" cy="-37.5" r="1.5"/>
			<circle class="st2" cx="321.6" cy="-37.5" r="1.5"/>
			<circle class="st2" cx="326.8" cy="-37.5" r="1.5"/>
		</g>
		<rect x="369.2" y="-39" class="st4" width="58.7" height="3.4"/>
	</g>
	<g>
		<g>
			<g id="Macbook_base_59_">
				<g>
					<rect x="392.5" y="-8" class="st17" width="65.6" height="4.6"/>
				</g>
			</g>
		</g>
		<g>
			<g id="Macbook_base_57_">
				<g>
					<rect x="406.2" y="1.9" class="st6" width="37.3" height="3.5"/>
				</g>
			</g>
			<circle class="st18" cx="399.4" cy="3.7" r="3.9"/>
		</g>
		<g>
			<g id="Macbook_base_55_">
				<g>
					<rect x="406.2" y="12.1" class="st6" width="37.3" height="3.5"/>
				</g>
			</g>
			<circle class="st18" cx="399.4" cy="14" r="3.9"/>
		</g>
		<g>
			<g id="Macbook_base_53_">
				<g>
					<rect x="392.5" y="29.6" class="st17" width="65.6" height="4.6"/>
				</g>
			</g>
		</g>
		<g>
			<g id="Macbook_base_51_">
				<g>
					<rect x="406.2" y="39.5" class="st6" width="37.3" height="3.5"/>
				</g>
			</g>
			<circle class="st19" cx="399.4" cy="41.4" r="3.9"/>
		</g>
		<g>
			<g id="Macbook_base_49_">
				<g>
					<rect x="406.2" y="49.8" class="st6" width="37.3" height="3.5"/>
				</g>
			</g>
			<circle class="st19" cx="399.4" cy="51.7" r="3.9"/>
		</g>
		<path class="st20" d="M341.3,55.2h36.9c1.4,0,2.5-1.1,2.5-2.5V-5.5c0-1.4-1.1-2.5-2.5-2.5h-36.9c-1.4,0-2.5,1.1-2.5,2.5v58.2
			C338.8,54.1,339.9,55.2,341.3,55.2z"/>
	</g>
	<g id="Macbook_base_47_">
		<g>
			<rect x="310" y="-32.5" class="st17" width="177.1" height="10.2"/>
		</g>
	</g>
</g>
</svg>
