<?xml version="1.0" encoding="utf-8"?>
<!-- Generator: Adobe Illustrator 19.1.0, SVG Export Plug-In . SVG Version: 6.00 Build 0)  -->
<svg version="1.1" id="Layer_1" xmlns="http://www.w3.org/2000/svg" xmlns:xlink="http://www.w3.org/1999/xlink" x="0px" y="0px"
	 width="617.7px" height="144px" viewBox="301 -104.7 617.7 144" style="enable-background:new 301 -104.7 617.7 144;"
	 xml:space="preserve">
<style type="text/css">
	.st0{fill:#A5B5B8;}
	.st1{font-family:'Lato-Black';}
	.st2{font-size:27.0886px;}
	.st3{fill:#FFFFFF;}
	.st4{fill:none;stroke:#A5B5B8;stroke-miterlimit:10;}
	.st5{fill:#EBEBEC;}
	.st6{opacity:0.6;fill:#B6B6B7;enable-background:new    ;}
	.st7{fill:#B6B6B7;}
	.st8{opacity:0.35;fill:#B6B6B7;enable-background:new    ;}
	.st9{opacity:0.8;fill:#B6B6B7;enable-background:new    ;}
	.st10{opacity:0.3;fill:#B6B6B7;enable-background:new    ;}
	.st11{opacity:0.7;fill:#B6B6B7;enable-background:new    ;}
	.st12{opacity:0.9;fill:#B6B6B7;enable-background:new    ;}
	.st13{opacity:0.5;fill:#B6B6B7;enable-background:new    ;}
	.st14{opacity:0.2;fill:#B6B6B7;enable-background:new    ;}
	.st15{opacity:0.65;fill:#B6B6B7;enable-background:new    ;}
	.st16{opacity:0.85;fill:#B6B6B7;enable-background:new    ;}
	.st17{opacity:0.45;fill:#B6B6B7;enable-background:new    ;}
	.st18{fill:#3781A4;}
	.st19{fill:#0597C4;}
	.st20{fill:#449F6C;}
	.st21{fill:#B12843;}
</style>
<text transform="matrix(1 0 0 1 592.9713 -21.2789)" class="st0 st1 st2">vs</text>
<g>
	<g>
		<g id="Macbook_base_67_">
			<g>
				<path class="st3" d="M901.3-91.6H736.9c-2.8,0-5.1,2.3-5.1,5.1V19c0,2.8,2.3,5.1,5.1,5.1h164.4c2.8,0,5.1-2.3,5.1-5.1V-86.5
					C906.4-89.3,904.1-91.6,901.3-91.6z"/>
			</g>
			<g>
				<path class="st4" d="M901.3-91.6H736.9c-2.8,0-5.1,2.3-5.1,5.1V19c0,2.8,2.3,5.1,5.1,5.1h164.4c2.8,0,5.1-2.3,5.1-5.1V-86.5
					C906.4-89.3,904.1-91.6,901.3-91.6z"/>
			</g>
		</g>
		<g id="Macbook_base_65_">
			<g>
				<path class="st0" d="M901.3-91.6H736.9c-2.8,0-5.1,2.3-5.1,5.1v4.9h174.6v-4.9C906.4-89.3,904.1-91.6,901.3-91.6z"/>
			</g>
		</g>
		<g>
			<circle class="st3" cx="738.2" cy="-86.5" r="1.5"/>
			<circle class="st3" cx="743.2" cy="-86.5" r="1.5"/>
			<circle class="st3" cx="748.2" cy="-86.5" r="1.5"/>
		</g>
		<rect x="790.1" y="-88" class="st5" width="57.9" height="3.4"/>
	</g>
	<g>
		<path class="st6" d="M821.8-45.1c0,1.5-1.2,2.7-2.7,2.7l0,0c-1.5,0-2.7-1.2-2.7-2.7v-8.2c0-1.5,1.2-2.7,2.7-2.7l0,0
			c1.5,0,2.7,1.2,2.7,2.7V-45.1z"/>
		<path class="st7" d="M821.8-4.3c0,1.5-1.2,2.7-2.7,2.7l0,0c-1.5,0-2.7-1.2-2.7-2.7v-8.2c0-1.5,1.2-2.7,2.7-2.7l0,0
			c1.5,0,2.7,1.2,2.7,2.7V-4.3z"/>
		<path class="st8" d="M802.7-31.5c1.5,0,2.7,1.2,2.7,2.7l0,0c0,1.5-1.2,2.7-2.7,2.7h-8.2c-1.5,0-2.7-1.2-2.7-2.7l0,0
			c0-1.5,1.2-2.7,2.7-2.7H802.7z"/>
		<path class="st9" d="M843.6-31.5c1.5,0,2.7,1.2,2.7,2.7l0,0c0,1.5-1.2,2.7-2.7,2.7h-8.2c-1.5,0-2.7-1.2-2.7-2.7l0,0
			c0-1.5,1.2-2.7,2.7-2.7H843.6z"/>
		<path class="st10" d="M803.6-23c1.3-0.8,3-0.3,3.7,1l0,0c0.8,1.3,0.3,3-1,3.7l-7.1,4.1c-1.3,0.8-3,0.3-3.7-1l0,0
			c-0.8-1.3-0.3-3,1-3.7L803.6-23z"/>
		<path class="st11" d="M838.9-43.4c1.3-0.8,3-0.3,3.7,1l0,0c0.8,1.3,0.3,3-1,3.7l-7.1,4.1c-1.3,0.8-3,0.3-3.7-1l0,0
			c-0.8-1.3-0.3-3,1-3.7L838.9-43.4z"/>
		<path class="st12" d="M824.9-13.3c-0.8-1.3-0.3-3,1-3.7l0,0c1.3-0.8,3-0.3,3.7,1l4.1,7.1c0.8,1.3,0.3,3-1,3.7l0,0
			c-1.3,0.8-3,0.3-3.7-1L824.9-13.3z"/>
		<path class="st13" d="M804.4-48.7c-0.8-1.3-0.3-3,1-3.7l0,0c1.3-0.8,3-0.3,3.7,1l4.1,7.1c0.8,1.3,0.3,3-1,3.7l0,0
			c-1.3,0.8-3,0.3-3.7-1L804.4-48.7z"/>
		<path class="st14" d="M808.5-16c0.8-1.3,2.4-1.8,3.7-1l0,0c1.3,0.7,1.8,2.4,1,3.7l-4.1,7.1c-0.8,1.3-2.4,1.8-3.7,1l0,0
			c-1.3-0.7-1.8-2.4-1-3.7L808.5-16z"/>
		<path class="st15" d="M828.9-51.4c0.8-1.3,2.4-1.8,3.7-1l0,0c1.3,0.7,1.7,2.4,1,3.7l-4.1,7.1c-0.8,1.3-2.4,1.8-3.7,1l0,0
			c-1.3-0.7-1.8-2.4-1-3.7L828.9-51.4z"/>
		<path class="st16" d="M831.8-18.3c-1.3-0.8-1.8-2.4-1-3.7l0,0c0.8-1.3,2.4-1.7,3.7-1l7.1,4.1c1.3,0.8,1.8,2.4,1,3.7l0,0
			c-0.8,1.3-2.4,1.8-3.7,1L831.8-18.3z"/>
		<path class="st17" d="M796.5-38.7c-1.3-0.8-1.8-2.4-1-3.7l0,0c0.8-1.3,2.4-1.7,3.7-1l7.1,4.1c1.3,0.8,1.8,2.4,1,3.7l0,0
			c-0.8,1.3-2.4,1.8-3.7,1L796.5-38.7z"/>
	</g>
</g>
<g>
	<g>
		<g id="Macbook_base_63_">
			<g>
				<path class="st3" d="M487.4-91.6H320.7c-2.9,0-5.2,2.3-5.2,5.2V20.5c0,2.9,2.3,5.2,5.2,5.2h166.7c2.9,0,5.2-2.3,5.2-5.2V-86.4
					C492.6-89.2,490.3-91.6,487.4-91.6z"/>
			</g>
			<g>
				<path class="st4" d="M487.4-91.6H320.7c-2.9,0-5.2,2.3-5.2,5.2V20.5c0,2.9,2.3,5.2,5.2,5.2h166.7c2.9,0,5.2-2.3,5.2-5.2V-86.4
					C492.6-89.2,490.3-91.6,487.4-91.6z"/>
			</g>
		</g>
		<g id="Macbook_base_61_">
			<g>
				<path class="st0" d="M487.4-91.6H320.7c-2.9,0-5.2,2.3-5.2,5.2v5h177.1v-5C492.6-89.2,490.3-91.6,487.4-91.6z"/>
			</g>
		</g>
		<g>
			<circle class="st3" cx="322.1" cy="-86.4" r="1.5"/>
			<circle class="st3" cx="327.1" cy="-86.4" r="1.5"/>
			<circle class="st3" cx="332.2" cy="-86.4" r="1.5"/>
		</g>
		<rect x="374.7" y="-87.9" class="st5" width="58.7" height="3.4"/>
	</g>
	<g>
		<g>
			<g id="Macbook_base_59_">
				<g>
					<rect x="398" y="-56.9" class="st18" width="65.6" height="4.6"/>
				</g>
			</g>
		</g>
		<g>
			<g id="Macbook_base_57_">
				<g>
					<rect x="411.7" y="-47" class="st7" width="37.3" height="3.5"/>
				</g>
			</g>
			<circle class="st19" cx="404.9" cy="-45.2" r="3.9"/>
		</g>
		<g>
			<g id="Macbook_base_55_">
				<g>
					<rect x="411.7" y="-36.8" class="st7" width="37.3" height="3.5"/>
				</g>
			</g>
			<circle class="st19" cx="404.9" cy="-34.9" r="3.9"/>
		</g>
		<g>
			<g id="Macbook_base_53_">
				<g>
					<rect x="398" y="-19.3" class="st18" width="65.6" height="4.6"/>
				</g>
			</g>
		</g>
		<g>
			<g id="Macbook_base_51_">
				<g>
					<rect x="411.7" y="-9.4" class="st7" width="37.3" height="3.5"/>
				</g>
			</g>
			<circle class="st20" cx="404.9" cy="-7.5" r="3.9"/>
		</g>
		<g>
			<g id="Macbook_base_49_">
				<g>
					<rect x="411.7" y="0.9" class="st7" width="37.3" height="3.5"/>
				</g>
			</g>
			<circle class="st20" cx="404.9" cy="2.8" r="3.9"/>
		</g>
		<path class="st21" d="M346.8,6.3h36.9c1.4,0,2.5-1.1,2.5-2.5v-58.2c0-1.4-1.1-2.5-2.5-2.5h-36.9c-1.4,0-2.5,1.1-2.5,2.5V3.8
			C344.3,5.2,345.4,6.3,346.8,6.3z"/>
	</g>
	<g id="Macbook_base_47_">
		<g>
			<rect x="315.5" y="-81.4" class="st18" width="177.1" height="10.2"/>
		</g>
	</g>
</g>
</svg>
