<?xml version="1.0" encoding="utf-8"?>
<!-- Generator: Adobe Illustrator 19.0.1, SVG Export Plug-In . SVG Version: 6.00 Build 0)  -->
<!DOCTYPE svg PUBLIC "-//W3C//DTD SVG 1.1//EN" "http://www.w3.org/Graphics/SVG/1.1/DTD/svg11.dtd" [
	<!ENTITY ns_extend "http://ns.adobe.com/Extensibility/1.0/">
	<!ENTITY ns_ai "http://ns.adobe.com/AdobeIllustrator/10.0/">
	<!ENTITY ns_graphs "http://ns.adobe.com/Graphs/1.0/">
	<!ENTITY ns_vars "http://ns.adobe.com/Variables/1.0/">
	<!ENTITY ns_imrep "http://ns.adobe.com/ImageReplacement/1.0/">
	<!ENTITY ns_sfw "http://ns.adobe.com/SaveForWeb/1.0/">
	<!ENTITY ns_custom "http://ns.adobe.com/GenericCustomNamespace/1.0/">
	<!ENTITY ns_adobe_xpath "http://ns.adobe.com/XPath/1.0/">
]>
<svg version="1.1" xmlns:x="&ns_extend;" xmlns:i="&ns_ai;" xmlns:graph="&ns_graphs;"
	 xmlns="http://www.w3.org/2000/svg" xmlns:xlink="http://www.w3.org/1999/xlink" x="0px" y="0px" width="335px" height="848px"
	 viewBox="0 0 335 848" style="enable-background:new 0 0 335 848;" xml:space="preserve">
<style type="text/css">
	.st0{fill:#3781A4;}
	.st1{fill:#FFFFFF;}
	.st2{opacity:0.7;}
	.st3{opacity:0.7;fill:none;stroke:#FFFFFF;stroke-miterlimit:10;}
	.st4{opacity:0.8;}
	.st5{opacity:0.25;}
	.st6{opacity:0.5;fill:#FFFFFF;}
	.st7{opacity:0.5;}
	.st8{fill:#A5B5B8;}
	.st9{fill:#EBEBEC;}
	.st10{fill:#B6B6B7;}
	.st11{fill:#B12843;}
	.st12{fill:#449F6C;}
	.st13{opacity:0.6;}
	.st14{fill:none;stroke:#FFFFFF;stroke-width:2;stroke-linecap:round;stroke-linejoin:round;stroke-miterlimit:10;}
	.st15{fill:none;stroke:#3781A4;stroke-width:6;stroke-miterlimit:10;}
	.st16{fill:none;stroke:#3781A4;stroke-width:5;stroke-miterlimit:10;}
	.st17{opacity:0.6;fill:none;stroke:#FFFFFF;stroke-width:2;stroke-linecap:round;stroke-linejoin:round;stroke-miterlimit:10;}
	.st18{opacity:0.6;fill:#B6B6B7;}
	.st19{opacity:0.35;fill:#B6B6B7;}
	.st20{opacity:0.8;fill:#B6B6B7;}
	.st21{opacity:0.3;fill:#B6B6B7;}
	.st22{opacity:0.7;fill:#B6B6B7;}
	.st23{opacity:0.9;fill:#B6B6B7;}
	.st24{opacity:0.5;fill:#B6B6B7;}
	.st25{opacity:0.2;fill:#B6B6B7;}
	.st26{opacity:0.65;fill:#B6B6B7;}
	.st27{opacity:0.85;fill:#B6B6B7;}
	.st28{opacity:0.45;fill:#B6B6B7;}
	.st29{fill:#485154;}
	.st30{fill:none;stroke:#3781A4;stroke-width:11;stroke-linecap:round;stroke-linejoin:round;stroke-miterlimit:10;}
	.st31{fill:none;stroke:#FFFFFF;stroke-width:3;stroke-linecap:round;stroke-linejoin:round;stroke-miterlimit:10;}
	.st32{fill:none;stroke:#FFFFFF;stroke-width:3;stroke-linecap:round;stroke-linejoin:round;}
	.st33{fill:none;stroke:#FFFFFF;stroke-width:3;stroke-linecap:round;stroke-linejoin:round;stroke-dasharray:2.9465,3.9287;}
	.st34{fill:none;stroke:#FFFFFF;stroke-width:3;stroke-linecap:round;stroke-linejoin:round;stroke-dasharray:2.0068,2.6757;}
	.st35{fill:none;stroke:#FFFFFF;stroke-width:3;stroke-linecap:round;stroke-linejoin:round;stroke-dasharray:2.8093,3.7457;}
	.st36{fill:none;stroke:#FFFFFF;stroke-width:3;stroke-linecap:round;stroke-linejoin:round;stroke-dasharray:3.0503,4.067;}
	.st37{fill:none;stroke:#FFFFFF;stroke-width:3;stroke-linecap:round;stroke-linejoin:round;stroke-dasharray:2.7315,3.642;}
	.st38{fill:none;stroke:#FFFFFF;stroke-width:3;stroke-linecap:round;stroke-linejoin:round;stroke-dasharray:3.1002,4.1336;}
	.st39{fill:none;stroke:#3781A4;stroke-width:10;stroke-linecap:round;stroke-linejoin:round;stroke-miterlimit:10;}
	.st40{fill:none;stroke:#3781A4;stroke-width:10;stroke-miterlimit:10;}
	.st41{fill:none;stroke:#FFFFFF;stroke-width:3;stroke-linecap:round;stroke-linejoin:round;stroke-dasharray:3.1068,4.1424;}
	.st42{fill:none;stroke:#FFFFFF;stroke-width:3;stroke-linecap:round;stroke-linejoin:round;stroke-dasharray:1.5484,2.0645;}
	.st43{fill:none;stroke:#FFFFFF;stroke-width:3;stroke-linecap:round;stroke-linejoin:round;stroke-dasharray:2.9057,3.8743;}
	.st44{fill:none;stroke:#FFFFFF;stroke-width:3;stroke-linecap:round;stroke-linejoin:round;stroke-dasharray:3.1048,4.1397;}
	.st45{fill:none;stroke:#FFFFFF;stroke-width:3;stroke-linecap:round;stroke-linejoin:round;stroke-dasharray:2.7418,3.6557;}
	.st46{fill:none;stroke:#FFFFFF;stroke-width:3;stroke-linecap:round;stroke-linejoin:round;stroke-dasharray:3.6253,4.8338;}
	.st47{fill:none;stroke:#FFFFFF;stroke-miterlimit:10;}
	.st48{fill:none;stroke:#FFFFFF;stroke-width:2.5;stroke-linecap:round;stroke-linejoin:round;stroke-miterlimit:10;}
	.st49{fill:#FAFCFB;}
	.st50{fill:none;stroke:#00A9CD;stroke-miterlimit:10;}
	.st51{fill:none;stroke:#3781A4;stroke-width:0.8989;stroke-miterlimit:10;}
	.st52{fill:none;stroke:#B12843;stroke-width:0.8989;stroke-miterlimit:10;}
	.st53{fill:none;stroke:#3781A4;stroke-miterlimit:10;}
	.st54{fill-rule:evenodd;clip-rule:evenodd;fill:none;stroke:#3781A4;stroke-width:0.8989;stroke-miterlimit:10;}
	.st55{fill:#00A9CD;}
	.st56{fill:#0597C4;}
	.st57{fill:#2A3033;}
	.st58{fill:none;}
	.st59{fill:none;stroke:#A5B5B8;stroke-miterlimit:10;}
	.st60{fill:none;stroke:#D4D4D6;stroke-miterlimit:10;}
	.st61{fill:#231F20;}
	.st62{opacity:0.6;fill:#2A3033;}
	.st63{opacity:0.85;fill:#FFFFFF;}
	.st64{fill:#0F070A;}
	.st65{opacity:0.85;}
	.st66{fill:#7B8081;}
	.st67{opacity:0.9;fill:#FFFFFF;}
	.st68{fill:#F7F7F7;}
	.st69{fill-rule:evenodd;clip-rule:evenodd;fill:#2A3033;}
	.st70{opacity:0.75;}
	.st71{fill:none;stroke:#FFFFFF;stroke-width:2;stroke-miterlimit:10;}
	.st72{fill:#0C0110;}
	.st73{opacity:0.7;fill:#FFFFFF;}
	.st74{fill:none;stroke:#FFFFFF;stroke-width:0.4355;stroke-miterlimit:10;}
	.st75{opacity:0.6;fill:#FFFFFF;}
	.st76{display:none;}
	.st77{display:inline;fill:none;}
	.st78{display:inline;}
	.st79{fill:none;stroke:#FFFFFF;stroke-width:0.5319;stroke-miterlimit:10;}
	.st80{fill:none;stroke:#F9F164;stroke-width:0.5;stroke-miterlimit:10;}
</style>
<metadata>
	<sfw  xmlns="&ns_sfw;">
		<slices></slices>
		<sliceSourceBounds  width="10247.2" height="8656.8" y="-6643.9" x="-5542.2" bottomLeftOrigin="true"></sliceSourceBounds>
		<optimizationSettings>
			<targetSettings  fileFormat="JPEGFormat" targetSettingsID="0">
				
					<JPEGFormat  matteColor="#FFFFFF" noMatteColor="false" optimized="true" blurAmount="0" embedICCProfile="false" progressive="false" quality="60">
					</JPEGFormat>
			</targetSettings>
		</optimizationSettings>
	</sfw>
</metadata>
<g id="Layer_1">
	<g>
		<g>
			<g>
				<g id="Macbook_base_346_">
					<g>
						<path class="st1" d="M322.5,402.4H112.7c-3.6,0-6.5,2.9-6.5,6.5v134.6c0,3.6,2.9,6.5,6.5,6.5h209.8c3.6,0,6.5-2.9,6.5-6.5V409
							C329,405.4,326.1,402.4,322.5,402.4z"/>
					</g>
				</g>
				<g id="Macbook_base_344_">
					<g>
						<path class="st8" d="M322.5,402.4H112.7c-3.6,0-6.5,2.9-6.5,6.5v6.3H329V409C329,405.4,326.1,402.4,322.5,402.4z"/>
					</g>
				</g>
				<g>
					<circle class="st1" cx="114.4" cy="408.9" r="1.9"/>
					<circle class="st1" cx="120.8" cy="408.9" r="1.9"/>
					<circle class="st1" cx="127.1" cy="408.9" r="1.9"/>
				</g>
				<rect x="180.7" y="407" class="st9" width="73.9" height="4.3"/>
			</g>
			<g>
				<g>
					<g id="Macbook_base_342_">
						<g>
							<rect x="210" y="446" class="st0" width="82.5" height="5.8"/>
						</g>
					</g>
				</g>
				<g>
					<g id="Macbook_base_340_">
						<g>
							<rect x="227.2" y="458.5" class="st10" width="47" height="4.4"/>
						</g>
					</g>
					<circle class="st56" cx="218.7" cy="460.8" r="5"/>
				</g>
				<g>
					<g id="Macbook_base_338_">
						<g>
							<rect x="227.2" y="471.4" class="st10" width="47" height="4.4"/>
						</g>
					</g>
					<circle class="st56" cx="218.7" cy="473.7" r="5"/>
				</g>
				<g>
					<g id="Macbook_base_336_">
						<g>
							<rect x="210" y="493.4" class="st0" width="82.5" height="5.8"/>
						</g>
					</g>
				</g>
				<g>
					<g id="Macbook_base_334_">
						<g>
							<rect x="227.2" y="505.9" class="st10" width="47" height="4.4"/>
						</g>
					</g>
					<circle class="st12" cx="218.7" cy="508.2" r="5"/>
				</g>
				<g>
					<g id="Macbook_base_332_">
						<g>
							<rect x="227.2" y="518.8" class="st10" width="47" height="4.4"/>
						</g>
					</g>
					<circle class="st12" cx="218.7" cy="521.1" r="5"/>
				</g>
				<path class="st11" d="M144.9,525.6h47.7c1.4,0,2.5-1.1,2.5-2.5v-74.6c0-1.4-1.1-2.5-2.5-2.5h-47.7c-1.4,0-2.5,1.1-2.5,2.5v74.6
					C142.4,524.5,143.5,525.6,144.9,525.6z"/>
			</g>
			<g id="Macbook_base_330_">
				<g>
					<rect x="106.2" y="415.2" class="st0" width="222.9" height="12.8"/>
				</g>
			</g>
		</g>
		<g>
			<g>
				<g id="Macbook_base_328_">
					<g>
						<path class="st1" d="M322.5,681.9H112.7c-3.6,0-6.5,2.9-6.5,6.5V823c0,3.6,2.9,6.5,6.5,6.5h209.8c3.6,0,6.5-2.9,6.5-6.5V688.4
							C329,684.8,326.1,681.9,322.5,681.9z"/>
					</g>
				</g>
				<g id="Macbook_base_326_">
					<g>
						<path class="st8" d="M322.5,681.9H112.7c-3.6,0-6.5,2.9-6.5,6.5v6.3H329v-6.3C329,684.8,326.1,681.9,322.5,681.9z"/>
					</g>
				</g>
				<g>
					<circle class="st1" cx="114.4" cy="688.4" r="1.9"/>
					<circle class="st1" cx="120.8" cy="688.4" r="1.9"/>
					<circle class="st1" cx="127.1" cy="688.4" r="1.9"/>
				</g>
				<rect x="180.7" y="686.5" class="st9" width="73.9" height="4.3"/>
			</g>
			<g>
				<g>
					<g id="Macbook_base_324_">
						<g>
							<rect x="210" y="725.5" class="st0" width="82.5" height="5.8"/>
						</g>
					</g>
				</g>
				<g>
					<g id="Macbook_base_322_">
						<g>
							<rect x="227.2" y="738" class="st10" width="47" height="4.4"/>
						</g>
					</g>
					<circle class="st56" cx="218.7" cy="740.3" r="5"/>
				</g>
				<g>
					<g id="Macbook_base_320_">
						<g>
							<rect x="227.2" y="750.9" class="st10" width="47" height="4.4"/>
						</g>
					</g>
					<circle class="st56" cx="218.7" cy="753.2" r="5"/>
				</g>
				<g>
					<g id="Macbook_base_318_">
						<g>
							<rect x="210" y="772.9" class="st0" width="82.5" height="5.8"/>
						</g>
					</g>
				</g>
				<g>
					<g id="Macbook_base_316_">
						<g>
							<rect x="227.2" y="785.4" class="st10" width="47" height="4.4"/>
						</g>
					</g>
					<circle class="st12" cx="218.7" cy="787.7" r="5"/>
				</g>
				<g>
					<g id="Macbook_base_314_">
						<g>
							<rect x="227.2" y="798.3" class="st10" width="47" height="4.4"/>
						</g>
					</g>
					<circle class="st12" cx="218.7" cy="800.6" r="5"/>
				</g>
				<path class="st11" d="M144.9,805.1h47.7c1.4,0,2.5-1.1,2.5-2.5v-74.6c0-1.4-1.1-2.5-2.5-2.5h-47.7c-1.4,0-2.5,1.1-2.5,2.5v74.6
					C142.4,804,143.5,805.1,144.9,805.1z"/>
			</g>
			<g id="Macbook_base_312_">
				<g>
					<rect x="106.2" y="694.4" class="st0" width="222.9" height="12.8"/>
				</g>
			</g>
		</g>
		<g>
			<g>
				<g id="Macbook_base_310_">
					<g>
						<path class="st1" d="M322.5,118.4H112.7c-3.6,0-6.5,2.9-6.5,6.5v134.6c0,3.6,2.9,6.5,6.5,6.5h209.8c3.6,0,6.5-2.9,6.5-6.5
							V124.9C329,121.3,326.1,118.4,322.5,118.4z"/>
					</g>
				</g>
				<g id="Macbook_base_308_">
					<g>
						<path class="st8" d="M322.5,118.4H112.7c-3.6,0-6.5,2.9-6.5,6.5v6.3H329v-6.3C329,121.3,326.1,118.4,322.5,118.4z"/>
					</g>
				</g>
				<g>
					<circle class="st1" cx="114.4" cy="124.8" r="1.9"/>
					<circle class="st1" cx="120.8" cy="124.8" r="1.9"/>
					<circle class="st1" cx="127.1" cy="124.8" r="1.9"/>
				</g>
				<rect x="180.7" y="123" class="st9" width="73.9" height="4.3"/>
			</g>
			<g>
				<path class="st9" d="M189,183c-0.1,0.2-0.3,0.4-0.4,0.5s-0.3,0.2-0.6,0.2c-0.2,0-0.5-0.1-0.9-0.4s-0.7-0.5-1.2-0.8
					s-1.1-0.6-1.8-0.8c-0.7-0.2-1.5-0.4-2.5-0.4c-0.9,0-1.8,0.1-2.5,0.4c-0.7,0.3-1.3,0.6-1.8,1s-0.8,0.9-1.1,1.5
					c-0.2,0.6-0.4,1.2-0.4,1.9c0,0.9,0.2,1.6,0.6,2.2s1,1.1,1.7,1.5c0.7,0.4,1.5,0.8,2.4,1.1s1.8,0.6,2.7,0.9s1.8,0.7,2.7,1.1
					c0.9,0.4,1.7,0.9,2.4,1.5c0.7,0.6,1.3,1.4,1.7,2.2c0.4,0.9,0.6,2,0.6,3.2c0,1.4-0.2,2.6-0.7,3.8c-0.5,1.2-1.1,2.2-2,3.1
					c-0.9,0.9-2,1.6-3.3,2.1c-1.3,0.5-2.8,0.8-4.4,0.8c-2,0-3.8-0.4-5.5-1.1s-3.1-1.7-4.2-3l1.2-2c0.1-0.2,0.3-0.3,0.4-0.4
					s0.3-0.2,0.6-0.2c0.3,0,0.6,0.2,1,0.5c0.4,0.3,0.9,0.7,1.5,1.1c0.6,0.4,1.3,0.7,2.1,1.1s1.8,0.5,3,0.5c1,0,1.9-0.1,2.7-0.4
					c0.8-0.3,1.4-0.7,2-1.2c0.5-0.5,1-1.1,1.2-1.8s0.4-1.5,0.4-2.3c0-0.9-0.2-1.7-0.6-2.3s-1-1.1-1.7-1.5c-0.7-0.4-1.5-0.7-2.4-1
					c-0.9-0.3-1.8-0.6-2.7-0.9c-0.9-0.3-1.8-0.6-2.7-1c-0.9-0.4-1.7-0.9-2.4-1.5c-0.7-0.6-1.3-1.4-1.7-2.3s-0.6-2.1-0.6-3.5
					c0-1.1,0.2-2.2,0.6-3.2c0.4-1,1-1.9,1.9-2.7c0.8-0.8,1.8-1.4,3-1.9s2.6-0.7,4.1-0.7c1.7,0,3.3,0.3,4.7,0.8
					c1.4,0.5,2.7,1.3,3.7,2.4L189,183z"/>
				<path class="st9" d="M202.1,209.6c-1.7,0-3.1-0.5-4-1.5c-0.9-1-1.4-2.4-1.4-4.2v-13.4h-2.6c-0.2,0-0.4-0.1-0.6-0.2
					c-0.2-0.1-0.2-0.4-0.2-0.6v-1.5l3.6-0.5l0.9-6.8c0-0.2,0.1-0.4,0.3-0.5c0.2-0.1,0.4-0.2,0.6-0.2h1.9v7.6h6.3v2.8h-6.3v13.2
					c0,0.9,0.2,1.6,0.7,2.1c0.4,0.4,1,0.7,1.7,0.7c0.4,0,0.8-0.1,1-0.2s0.6-0.2,0.8-0.4c0.2-0.1,0.4-0.2,0.6-0.4
					c0.2-0.1,0.3-0.2,0.4-0.2c0.2,0,0.4,0.1,0.5,0.4l1.1,1.8c-0.7,0.6-1.5,1.1-2.4,1.5C204.1,209.4,203.1,209.6,202.1,209.6z"/>
				<path class="st9" d="M227.7,209.2H226c-0.4,0-0.7-0.1-0.9-0.2c-0.2-0.1-0.4-0.4-0.5-0.7l-0.4-2c-0.6,0.5-1.1,1-1.7,1.4
					c-0.5,0.4-1.1,0.8-1.7,1c-0.6,0.3-1.3,0.5-1.9,0.6c-0.7,0.1-1.4,0.2-2.3,0.2c-0.9,0-1.6-0.1-2.4-0.4c-0.7-0.2-1.4-0.6-1.9-1.1
					c-0.5-0.5-1-1.1-1.3-1.8s-0.5-1.6-0.5-2.6c0-0.9,0.2-1.7,0.7-2.5c0.5-0.8,1.2-1.5,2.3-2.1c1.1-0.6,2.5-1.1,4.2-1.5
					c1.7-0.4,3.8-0.6,6.3-0.6v-1.7c0-1.7-0.4-3-1.1-3.9c-0.7-0.9-1.8-1.3-3.2-1.3c-0.9,0-1.7,0.1-2.4,0.4c-0.6,0.2-1.2,0.5-1.7,0.8
					c-0.5,0.3-0.9,0.6-1.2,0.8c-0.3,0.2-0.7,0.4-1,0.4c-0.3,0-0.5-0.1-0.7-0.2s-0.4-0.3-0.5-0.5l-0.7-1.2c1.2-1.2,2.5-2,3.9-2.6
					c1.4-0.6,3-0.9,4.7-0.9c1.2,0,2.3,0.2,3.3,0.6c1,0.4,1.8,1,2.4,1.7c0.6,0.7,1.1,1.6,1.5,2.6s0.5,2.2,0.5,3.4V209.2z
					 M217.7,206.9c0.7,0,1.3-0.1,1.9-0.2c0.6-0.1,1.1-0.3,1.6-0.6c0.5-0.3,1-0.6,1.4-0.9c0.5-0.4,0.9-0.8,1.3-1.2v-4.5
					c-1.8,0-3.3,0.1-4.5,0.3s-2.3,0.5-3,0.9c-0.8,0.4-1.3,0.8-1.7,1.3c-0.4,0.5-0.5,1-0.5,1.7c0,0.6,0.1,1.1,0.3,1.5
					c0.2,0.4,0.4,0.8,0.8,1s0.7,0.5,1.1,0.6C216.8,206.8,217.2,206.9,217.7,206.9z"/>
				<path class="st9" d="M233.6,209.2v-21.9h2.2c0.4,0,0.7,0.1,0.9,0.2c0.2,0.2,0.3,0.4,0.3,0.8l0.3,3.4c0.8-1.5,1.7-2.7,2.8-3.6
					c1.1-0.9,2.4-1.3,3.9-1.3c0.6,0,1.2,0.1,1.6,0.2c0.5,0.1,0.9,0.3,1.4,0.6l-0.5,2.9c-0.1,0.4-0.3,0.5-0.7,0.5
					c-0.2,0-0.5-0.1-0.9-0.2c-0.4-0.1-1-0.2-1.8-0.2c-1.3,0-2.5,0.4-3.4,1.2c-0.9,0.8-1.7,1.9-2.3,3.4v14H233.6z"/>
				<path class="st9" d="M257.7,209.6c-1.7,0-3.1-0.5-4-1.5c-0.9-1-1.4-2.4-1.4-4.2v-13.4h-2.6c-0.2,0-0.4-0.1-0.6-0.2
					c-0.2-0.1-0.2-0.4-0.2-0.6v-1.5l3.6-0.5l0.9-6.8c0-0.2,0.1-0.4,0.3-0.5c0.2-0.1,0.4-0.2,0.6-0.2h1.9v7.6h6.3v2.8h-6.3v13.2
					c0,0.9,0.2,1.6,0.7,2.1c0.4,0.4,1,0.7,1.7,0.7c0.4,0,0.8-0.1,1.1-0.2c0.3-0.1,0.6-0.2,0.8-0.4c0.2-0.1,0.4-0.2,0.6-0.4
					c0.2-0.1,0.3-0.2,0.4-0.2c0.2,0,0.4,0.1,0.5,0.4l1.1,1.8c-0.7,0.6-1.5,1.1-2.4,1.5C259.6,209.4,258.7,209.6,257.7,209.6z"/>
			</g>
		</g>
		<g>
			<g class="st13">
				<path class="st1" d="M217.6,642.6c-0.3,0-0.6-0.1-0.8-0.4l-5.5-6.6c-0.4-0.4-0.3-1.1,0.1-1.4c0.4-0.4,1.1-0.3,1.4,0.1l4.7,5.7
					l4.7-5.7c0.4-0.4,1-0.5,1.4-0.1c0.4,0.4,0.5,1,0.1,1.4l-5.5,6.6C218.2,642.4,217.9,642.6,217.6,642.6z"/>
				<path class="st1" d="M217.6,640.9c-0.6,0-1-0.4-1-1v-15.7c0-0.6,0.4-1,1-1s1,0.4,1,1v15.7C218.6,640.5,218.1,640.9,217.6,640.9z
					"/>
			</g>
			<path class="st0" d="M217.6,630.2l-13.9-8.4v-16.1l13.9-8.4l13.9,8.4v16.1L217.6,630.2z M209.7,618.4l7.9,4.8l7.9-4.8V609
				l-7.9-4.8l-7.9,4.8V618.4z"/>
			<g>
				<path class="st1" d="M217.6,627.7c-0.2,0-0.3,0-0.5-0.1c-0.3-0.2-0.5-0.5-0.5-0.9v-12.7c0-0.4,0.2-0.7,0.5-0.9l10.9-6.6
					c0.3-0.2,0.7-0.2,1,0c0.3,0.2,0.5,0.5,0.5,0.9v12.7c0,0.4-0.2,0.7-0.5,0.9l-10.9,6.6C218,627.6,217.8,627.7,217.6,627.7z
					 M218.6,614.5v10.4l8.9-5.4v-10.4L218.6,614.5z"/>
				<path class="st1" d="M217.6,627.7c-0.2,0-0.4,0-0.5-0.1l-10.9-6.6c-0.3-0.2-0.5-0.5-0.5-0.9v-12.7c0-0.4,0.2-0.7,0.5-0.9
					c0.3-0.2,0.7-0.2,1,0l10.9,6.6c0.3,0.2,0.5,0.5,0.5,0.9v12.7c0,0.4-0.2,0.7-0.5,0.9C217.9,627.6,217.8,627.7,217.6,627.7z
					 M207.7,619.5l8.9,5.4v-10.4l-8.9-5.4V619.5z"/>
				<path class="st1" d="M217.6,614.9c-0.2,0-0.4,0-0.5-0.1l-10.9-6.6c-0.3-0.2-0.5-0.5-0.5-0.9s0.2-0.7,0.5-0.9l10.9-6.6
					c0.3-0.2,0.7-0.2,1,0l10.9,6.6c0.3,0.2,0.5,0.5,0.5,0.9s-0.2,0.7-0.5,0.9l-10.9,6.6C218,614.9,217.8,614.9,217.6,614.9z
					 M208.6,607.3l9,5.4l9-5.4l-9-5.4L208.6,607.3z"/>
			</g>
			<rect x="215.1" y="592.2" class="st0" width="5" height="13.6"/>
			<path class="st75" d="M217.6,607.6c-0.6,0-1-0.4-1-1v-14.3c0-0.6,0.4-1,1-1s1,0.4,1,1v14.3C218.6,607.1,218.2,607.6,217.6,607.6z
				"/>
		</g>
		<g>
			<g class="st13">
				<path class="st1" d="M217.6,358.3c-0.3,0-0.6-0.1-0.8-0.3l-5.5-6.3c-0.4-0.4-0.3-1,0.1-1.4c0.4-0.4,1-0.3,1.4,0.1l4.7,5.4
					l4.7-5.4c0.4-0.4,1-0.5,1.4-0.1c0.4,0.4,0.5,1,0.1,1.4l-5.5,6.3C218.2,358.2,217.9,358.3,217.6,358.3z"/>
				<path class="st1" d="M217.6,356.8c-0.6,0-1-0.4-1-1v-14.8c0-0.6,0.4-1,1-1s1,0.4,1,1v14.8C218.6,356.3,218.1,356.8,217.6,356.8z
					"/>
			</g>
			<path class="st0" d="M217.6,346.7l-13.9-7.9v-15.5l13.9-8l13.9,8v15.5L217.6,346.7z M209.7,335.2l7.9,4.5l7.9-4.5v-8.6l-7.9-4.5
				l-7.9,4.5V335.2z"/>
			<g>
				<path class="st1" d="M217.6,344.2c-0.2,0-0.3,0-0.5-0.1c-0.3-0.2-0.5-0.5-0.5-0.9v-12.1c0-0.4,0.2-0.7,0.5-0.9l10.9-6.2
					c0.3-0.2,0.7-0.2,1,0c0.3,0.2,0.5,0.5,0.5,0.9V337c0,0.4-0.2,0.7-0.5,0.9l-10.9,6.2C217.9,344.2,217.8,344.2,217.6,344.2z
					 M218.6,331.7v9.7l8.9-5.1v-9.7L218.6,331.7z"/>
				<path class="st1" d="M217.6,344.2c-0.2,0-0.3,0-0.5-0.1l-10.9-6.2c-0.3-0.2-0.5-0.5-0.5-0.9v-12.1c0-0.4,0.2-0.7,0.5-0.9
					c0.3-0.2,0.7-0.2,1,0l10.9,6.2c0.3,0.2,0.5,0.5,0.5,0.9v12.1c0,0.4-0.2,0.7-0.5,0.9C217.9,344.2,217.8,344.2,217.6,344.2z
					 M207.7,336.4l8.9,5.1v-9.7l-8.9-5.1V336.4z"/>
				<path class="st1" d="M217.6,332.2c-0.2,0-0.3,0-0.5-0.1l-10.9-6.2c-0.3-0.2-0.5-0.5-0.5-0.9s0.2-0.7,0.5-0.9l10.9-6.2
					c0.3-0.2,0.7-0.2,1,0l10.9,6.2c0.3,0.2,0.5,0.5,0.5,0.9s-0.2,0.7-0.5,0.9l-10.9,6.2C217.9,332.1,217.8,332.2,217.6,332.2z
					 M208.7,324.9l8.9,5.1l8.9-5.1l-8.9-5.1L208.7,324.9z"/>
			</g>
			<rect x="215.1" y="310.6" class="st0" width="5" height="12.9"/>
			<path class="st75" d="M217.6,325.2c-0.6,0-1-0.4-1-1v-13.5c0-0.6,0.4-1,1-1s1,0.4,1,1v13.5C218.6,324.7,218.2,325.2,217.6,325.2z
				"/>
		</g>
	</g>
	<g>
		<path class="st1" d="M7.5,805.6v6.5H3.4v-17.5h5.7c1.3,0,2.3,0.1,3.2,0.4c0.9,0.3,1.6,0.6,2.2,1.1c0.6,0.5,1,1,1.2,1.6
			c0.3,0.6,0.4,1.3,0.4,2.1c0,0.6-0.1,1.1-0.2,1.6s-0.4,1-0.7,1.4c-0.3,0.4-0.7,0.8-1.1,1.1s-0.9,0.6-1.5,0.8
			c0.3,0.1,0.5,0.3,0.8,0.5c0.2,0.2,0.4,0.4,0.6,0.7l3.7,6.1h-3.7c-0.7,0-1.2-0.3-1.5-0.8l-2.9-5.1c-0.1-0.2-0.3-0.4-0.4-0.5
			c-0.2-0.1-0.4-0.1-0.7-0.1H7.5z M7.5,802.8h1.6c0.6,0,1-0.1,1.4-0.2c0.4-0.1,0.7-0.3,1-0.6c0.2-0.2,0.4-0.5,0.5-0.9
			c0.1-0.3,0.2-0.7,0.2-1.1c0-0.8-0.2-1.4-0.8-1.8c-0.5-0.4-1.3-0.6-2.3-0.6H7.5V802.8z"/>
		<path class="st1" d="M24.7,799.4c0.8,0,1.6,0.1,2.3,0.4c0.7,0.3,1.3,0.6,1.8,1.1c0.5,0.5,0.9,1.1,1.2,1.8s0.4,1.5,0.4,2.4
			c0,0.3,0,0.5,0,0.7c0,0.2-0.1,0.3-0.1,0.4s-0.1,0.2-0.3,0.2c-0.1,0-0.2,0.1-0.4,0.1h-7.2c0.1,1,0.4,1.8,0.9,2.3
			c0.5,0.5,1.2,0.7,2,0.7c0.4,0,0.8-0.1,1.1-0.2s0.6-0.2,0.8-0.3c0.2-0.1,0.5-0.2,0.7-0.3s0.4-0.2,0.6-0.2c0.3,0,0.5,0.1,0.7,0.3
			l1.1,1.3c-0.4,0.4-0.8,0.8-1.2,1.1c-0.4,0.3-0.9,0.5-1.4,0.6c-0.5,0.2-0.9,0.3-1.4,0.3s-0.9,0.1-1.3,0.1c-0.9,0-1.7-0.1-2.5-0.4
			c-0.8-0.3-1.4-0.7-2-1.3s-1-1.3-1.4-2.1s-0.5-1.8-0.5-2.9c0-0.8,0.1-1.6,0.4-2.4c0.3-0.7,0.7-1.4,1.2-2s1.2-1,1.9-1.3
			S23.8,799.4,24.7,799.4z M24.8,802c-0.7,0-1.3,0.2-1.7,0.6c-0.4,0.4-0.7,1-0.8,1.7H27c0-0.3,0-0.6-0.1-0.9
			c-0.1-0.3-0.2-0.5-0.4-0.8c-0.2-0.2-0.4-0.4-0.7-0.5C25.5,802.1,25.2,802,24.8,802z"/>
		<path class="st1" d="M41.1,812.1c-0.4,0-0.6,0-0.8-0.1c-0.2-0.1-0.3-0.3-0.5-0.6l-0.3-0.7c-0.3,0.3-0.6,0.5-0.9,0.7
			c-0.3,0.2-0.6,0.4-0.9,0.5c-0.3,0.1-0.6,0.2-1,0.3c-0.3,0.1-0.7,0.1-1.2,0.1c-0.6,0-1.1-0.1-1.5-0.2c-0.5-0.1-0.9-0.4-1.2-0.7
			c-0.3-0.3-0.6-0.6-0.8-1.1c-0.2-0.4-0.3-0.9-0.3-1.5c0-0.4,0.1-0.9,0.3-1.4c0.2-0.5,0.6-0.9,1.2-1.3c0.6-0.4,1.3-0.7,2.2-1
			c0.9-0.3,2.1-0.4,3.5-0.4v-0.5c0-0.7-0.2-1.3-0.4-1.6c-0.3-0.3-0.7-0.5-1.3-0.5c-0.4,0-0.8,0-1.1,0.1c-0.3,0.1-0.5,0.2-0.8,0.3
			s-0.4,0.2-0.6,0.3c-0.2,0.1-0.5,0.1-0.7,0.1c-0.3,0-0.5-0.1-0.7-0.2s-0.3-0.3-0.4-0.5l-0.7-1.2c0.8-0.7,1.6-1.2,2.5-1.5
			c0.9-0.3,1.9-0.5,2.9-0.5c0.8,0,1.4,0.1,2,0.4s1.1,0.6,1.5,1s0.7,1,1,1.6s0.3,1.3,0.3,2v7.8H41.1z M36.8,809.8
			c0.5,0,0.9-0.1,1.3-0.3s0.7-0.4,1.1-0.8V807c-0.7,0-1.4,0-1.8,0.1s-0.9,0.2-1.1,0.4c-0.3,0.1-0.5,0.3-0.6,0.5s-0.2,0.4-0.2,0.6
			c0,0.4,0.1,0.7,0.3,0.9C36,809.7,36.3,809.8,36.8,809.8z"/>
		<path class="st1" d="M54.1,812.1c-0.2,0-0.4-0.1-0.6-0.2s-0.3-0.3-0.3-0.5l-0.3-0.9c-0.2,0.3-0.5,0.5-0.8,0.7s-0.6,0.4-0.9,0.6
			c-0.3,0.2-0.7,0.3-1,0.4c-0.4,0.1-0.8,0.1-1.2,0.1c-0.6,0-1.2-0.1-1.8-0.4c-0.6-0.3-1-0.7-1.4-1.2c-0.4-0.5-0.7-1.2-0.9-2
			s-0.3-1.7-0.3-2.7c0-0.9,0.1-1.8,0.4-2.6c0.3-0.8,0.6-1.5,1.1-2.1s1-1,1.7-1.4s1.4-0.5,2.2-0.5c0.6,0,1.2,0.1,1.6,0.3
			s0.8,0.4,1.2,0.7v-6.3h3.7v18H54.1z M50.4,809.4c0.3,0,0.5,0,0.7-0.1c0.2-0.1,0.4-0.1,0.6-0.2c0.2-0.1,0.4-0.2,0.5-0.4
			c0.2-0.1,0.3-0.3,0.5-0.5V803c-0.3-0.3-0.6-0.5-0.9-0.7c-0.3-0.1-0.7-0.2-1-0.2c-0.3,0-0.7,0.1-0.9,0.2c-0.3,0.1-0.5,0.4-0.8,0.7
			c-0.2,0.3-0.4,0.7-0.5,1.2c-0.1,0.5-0.2,1.1-0.2,1.7c0,0.7,0,1.2,0.1,1.7c0.1,0.4,0.2,0.8,0.4,1.1s0.4,0.5,0.6,0.6
			C49.8,809.4,50.1,809.4,50.4,809.4z"/>
		<path class="st1" d="M64.4,815.3c-0.1,0.2-0.2,0.4-0.4,0.5c-0.2,0.1-0.4,0.2-0.8,0.2h-2.8l2.4-5l-5-11.4h3.3
			c0.3,0,0.5,0.1,0.7,0.2s0.3,0.3,0.3,0.5l2,5.4c0.2,0.5,0.3,1,0.5,1.5c0.1-0.3,0.2-0.5,0.3-0.8c0.1-0.2,0.2-0.5,0.3-0.8l1.8-5.3
			c0.1-0.2,0.2-0.3,0.4-0.5s0.4-0.2,0.6-0.2h3L64.4,815.3z"/>
		<path class="st1" d="M73.6,810.2c0-0.3,0.1-0.6,0.2-0.8s0.3-0.5,0.4-0.6c0.2-0.2,0.4-0.3,0.7-0.4s0.5-0.2,0.8-0.2
			c0.3,0,0.6,0.1,0.8,0.2s0.5,0.3,0.7,0.4c0.2,0.2,0.3,0.4,0.4,0.6c0.1,0.2,0.2,0.5,0.2,0.8c0,0.3-0.1,0.6-0.2,0.8
			c-0.1,0.3-0.3,0.5-0.4,0.7c-0.2,0.2-0.4,0.3-0.7,0.4c-0.3,0.1-0.5,0.2-0.8,0.2c-0.3,0-0.6-0.1-0.8-0.2c-0.3-0.1-0.5-0.2-0.7-0.4
			c-0.2-0.2-0.3-0.4-0.4-0.7C73.6,810.8,73.6,810.5,73.6,810.2z M77.4,794.6v6.9c0,0.7,0,1.5-0.1,2.2c-0.1,0.7-0.2,1.5-0.3,2.2h-2.5
			c-0.1-0.8-0.3-1.5-0.3-2.2c-0.1-0.7-0.1-1.5-0.1-2.2v-6.9H77.4z"/>
	</g>
	<g>
		<polygon class="st1" points="32.3,767.7 27.4,758.8 29.1,757.8 33,765 54.6,752.2 55.6,754 		"/>
		<path class="st1" d="M40.8,781.8c-13.3,0-24.2-10.8-24.2-24.2s10.8-24.2,24.2-24.2c13.3,0,24.2,10.8,24.2,24.2
			S54.1,781.8,40.8,781.8z M40.8,734.5c-12.8,0-23.2,10.4-23.2,23.2s10.4,23.2,23.2,23.2S64,770.4,64,757.7S53.6,734.5,40.8,734.5z"
			/>
	</g>
	<g>
		<path class="st6" d="M144.8,31.6h28.6h1.9l2-7.6v0h-32.4l0,0l-2,7.6H144.8z M148.4,27.7c-0.2,0.7-0.9,1.2-1.6,1.2
			s-1.1-0.6-0.9-1.2c0.2-0.7,0.9-1.2,1.6-1.2C148.2,26.5,148.6,27.1,148.4,27.7z M151.7,27.7c-0.2,0.7-0.9,1.2-1.6,1.2
			s-1.1-0.6-0.9-1.2c0.2-0.7,0.9-1.2,1.6-1.2C151.5,26.5,151.9,27.1,151.7,27.7z M171.3,29h-16.5l0.7-2.5H172L171.3,29z"/>
		<polygon class="st1" points="171.3,29 154.9,29 155.5,26.5 172,26.5 		"/>
		<polygon class="st1" points="154.8,36.3 154.8,36.3 153.3,41.7 153.3,41.7 159.4,41.7 160.9,36.3 		"/>
		<rect x="273.4" y="18.9" class="st6" width="1.5" height="2.4"/>
		<path class="st6" d="M273.4,49.1c0,4.3-1,5.7-6,8.4l0.6,1.3c5.6-2.9,6.9-4.8,6.9-9.7V27.6h-1.5V49.1z"/>
		<path class="st6" d="M286.5,37.3c-5-0.8-6.2-1.6-6.2-4.3c0-3.5,3-4.3,5.8-4.3c3,0,7.4,0.7,7.4,0.7l0.1-1.4c0,0-4.1-0.7-7.5-0.7
			c-3.5,0-7.4,1.2-7.4,5.8c0,4,2.3,4.9,7.3,5.6c5.2,0.8,6.7,1.4,6.7,4.5c0,4.2-2.6,5.1-6.7,5.1c-2.2,0-6.9-0.7-6.9-0.7L279,49
			c0,0,4.7,0.7,7.2,0.7c5.1,0,8.3-1.6,8.3-6.6C294.4,39,292.2,38.2,286.5,37.3z"/>
		<path class="st1" d="M195.6,27.7c0,0-3.1-0.6-4.7-0.6c-5.9,0-9,3.3-9,11.1c0,7.6,1.9,11.6,8.5,11.6c2.2,0,5.2-1.3,5.2-1.3v0.9h5.8
			V18.9h-5.8V27.7z M195.6,43.8c0,0-2.5,0.6-4.2,0.6c-2.7-0.1-3.6-1.8-3.6-6.2c0-4.3,1.3-5.9,3.5-5.9c1.9,0,4.3,0.4,4.3,0.4V43.8z"
			/>
		<path class="st1" d="M214.1,27.1c-7.6,0-10,4.6-10,11.3c0,6.7,2.4,11.4,10,11.4s10-4.7,10-11.4C224.1,31.8,221.7,27.1,214.1,27.1z
			 M214.1,44.6c-3.2,0-4.1-2.1-4.1-6.1c0-4,0.9-6.1,4.1-6.1c3.2,0,4.1,2.1,4.1,6.1C218.2,42.5,217.4,44.6,214.1,44.6z"/>
		<path class="st1" d="M238,27.1c-2,0-5.4,1.5-5.4,1.5v-1h-5.8v21.7h5.8v-16c0,0,2.7-0.7,4.2-0.7c2.6,0,3,2.1,3,5.4v11.3h5.8V38
			C245.7,31,244.1,27.1,238,27.1z"/>
		<path class="st1" d="M267.1,36.9c0-6.6-3.1-9.8-9.5-9.8c-6.3,0-9.6,3.9-9.6,11.6c0,7.8,2.8,11.1,9.3,11.1c4,0,9-1.2,9-1.2
			l-0.1-4.5c0,0-4.5,0.4-8,0.4c-3.1,0-4.3-1-4.4-3.5h12.8L267.1,36.9z M253.9,36.5c0-2.9,1-4.2,3.8-4.2c2.7,0,3.7,1.1,3.7,4.2H253.9
			z"/>
		<polygon class="st1" points="173.3,31.6 173.3,31.6 172.1,36.3 167,36.3 167,36.3 165.5,41.7 165.5,41.7 170.7,41.7 169.2,46.9 
			164.1,46.9 165.5,41.7 159.4,41.7 159.4,41.7 158,46.9 151.9,46.9 153.3,41.7 147.2,41.7 147.2,41.7 145.8,46.9 140.7,46.9 
			142.1,41.7 147.2,41.7 148.7,36.3 143.5,36.3 144.8,31.6 144.8,31.6 142.8,31.6 141.3,37.2 141.3,37.1 136.4,55.6 137,55.6 
			141.7,48.8 170.7,48.8 175.3,31.6 		"/>
		<g>
			<polygon class="st1" points="149.9,31.6 148.7,36.3 148.7,36.3 154.8,36.3 156,31.6 156,31.6 			"/>
			<polygon class="st1" points="162.1,31.6 160.9,36.3 160.9,36.3 167,36.3 168.2,31.6 			"/>
		</g>
	</g>
</g>
<g id="guides" class="st76">
</g>
</svg>
