<?xml version="1.0" encoding="utf-8"?>
<!-- Generator: Adobe Illustrator 19.0.1, SVG Export Plug-In . SVG Version: 6.00 Build 0)  -->
<!DOCTYPE svg PUBLIC "-//W3C//DTD SVG 1.1//EN" "http://www.w3.org/Graphics/SVG/1.1/DTD/svg11.dtd" [
	<!ENTITY ns_extend "http://ns.adobe.com/Extensibility/1.0/">
	<!ENTITY ns_ai "http://ns.adobe.com/AdobeIllustrator/10.0/">
	<!ENTITY ns_graphs "http://ns.adobe.com/Graphs/1.0/">
	<!ENTITY ns_vars "http://ns.adobe.com/Variables/1.0/">
	<!ENTITY ns_imrep "http://ns.adobe.com/ImageReplacement/1.0/">
	<!ENTITY ns_sfw "http://ns.adobe.com/SaveForWeb/1.0/">
	<!ENTITY ns_custom "http://ns.adobe.com/GenericCustomNamespace/1.0/">
	<!ENTITY ns_adobe_xpath "http://ns.adobe.com/XPath/1.0/">
]>
<svg version="1.1" xmlns:x="&ns_extend;" xmlns:i="&ns_ai;" xmlns:graph="&ns_graphs;"
	 xmlns="http://www.w3.org/2000/svg" xmlns:xlink="http://www.w3.org/1999/xlink" x="0px" y="0px" width="335px" height="1400px"
	 viewBox="0 0 335 1400" style="enable-background:new 0 0 335 1400;" xml:space="preserve">
<style type="text/css">
	.st0{fill:#3781A4;}
	.st1{fill:#FFFFFF;}
	.st2{opacity:0.7;}
	.st3{opacity:0.7;fill:none;stroke:#FFFFFF;stroke-miterlimit:10;}
	.st4{opacity:0.8;}
	.st5{opacity:0.25;}
	.st6{opacity:0.5;fill:#FFFFFF;}
	.st7{opacity:0.5;}
	.st8{fill:#A5B5B8;}
	.st9{fill:#EBEBEC;}
	.st10{fill:#B6B6B7;}
	.st11{fill:#B12843;}
	.st12{fill:#449F6C;}
	.st13{opacity:0.6;}
	.st14{fill:none;stroke:#FFFFFF;stroke-width:2;stroke-linecap:round;stroke-linejoin:round;stroke-miterlimit:10;}
	.st15{fill:none;stroke:#3781A4;stroke-width:6;stroke-miterlimit:10;}
	.st16{fill:none;stroke:#3781A4;stroke-width:5;stroke-miterlimit:10;}
	.st17{opacity:0.6;fill:none;stroke:#FFFFFF;stroke-width:2;stroke-linecap:round;stroke-linejoin:round;stroke-miterlimit:10;}
	.st18{opacity:0.6;fill:#B6B6B7;}
	.st19{opacity:0.35;fill:#B6B6B7;}
	.st20{opacity:0.8;fill:#B6B6B7;}
	.st21{opacity:0.3;fill:#B6B6B7;}
	.st22{opacity:0.7;fill:#B6B6B7;}
	.st23{opacity:0.9;fill:#B6B6B7;}
	.st24{opacity:0.5;fill:#B6B6B7;}
	.st25{opacity:0.2;fill:#B6B6B7;}
	.st26{opacity:0.65;fill:#B6B6B7;}
	.st27{opacity:0.85;fill:#B6B6B7;}
	.st28{opacity:0.45;fill:#B6B6B7;}
	.st29{fill:#485154;}
	.st30{fill:none;stroke:#3781A4;stroke-width:11;stroke-linecap:round;stroke-linejoin:round;stroke-miterlimit:10;}
	.st31{fill:none;stroke:#FFFFFF;stroke-width:3;stroke-linecap:round;stroke-linejoin:round;stroke-miterlimit:10;}
	.st32{fill:none;stroke:#FFFFFF;stroke-width:3;stroke-linecap:round;stroke-linejoin:round;}
	.st33{fill:none;stroke:#FFFFFF;stroke-width:3;stroke-linecap:round;stroke-linejoin:round;stroke-dasharray:2.9465,3.9287;}
	.st34{fill:none;stroke:#FFFFFF;stroke-width:3;stroke-linecap:round;stroke-linejoin:round;stroke-dasharray:2.0068,2.6757;}
	.st35{fill:none;stroke:#FFFFFF;stroke-width:3;stroke-linecap:round;stroke-linejoin:round;stroke-dasharray:2.8093,3.7457;}
	.st36{fill:none;stroke:#FFFFFF;stroke-width:3;stroke-linecap:round;stroke-linejoin:round;stroke-dasharray:3.0503,4.067;}
	.st37{fill:none;stroke:#FFFFFF;stroke-width:3;stroke-linecap:round;stroke-linejoin:round;stroke-dasharray:2.7315,3.642;}
	.st38{fill:none;stroke:#FFFFFF;stroke-width:3;stroke-linecap:round;stroke-linejoin:round;stroke-dasharray:3.1002,4.1336;}
	.st39{fill:none;stroke:#3781A4;stroke-width:10;stroke-linecap:round;stroke-linejoin:round;stroke-miterlimit:10;}
	.st40{fill:none;stroke:#3781A4;stroke-width:10;stroke-miterlimit:10;}
	.st41{fill:none;stroke:#FFFFFF;stroke-width:3;stroke-linecap:round;stroke-linejoin:round;stroke-dasharray:3.1068,4.1424;}
	.st42{fill:none;stroke:#FFFFFF;stroke-width:3;stroke-linecap:round;stroke-linejoin:round;stroke-dasharray:1.5484,2.0645;}
	.st43{fill:none;stroke:#FFFFFF;stroke-width:3;stroke-linecap:round;stroke-linejoin:round;stroke-dasharray:2.9057,3.8743;}
	.st44{fill:none;stroke:#FFFFFF;stroke-width:3;stroke-linecap:round;stroke-linejoin:round;stroke-dasharray:3.1048,4.1397;}
	.st45{fill:none;stroke:#FFFFFF;stroke-width:3;stroke-linecap:round;stroke-linejoin:round;stroke-dasharray:2.7418,3.6557;}
	.st46{fill:none;stroke:#FFFFFF;stroke-width:3;stroke-linecap:round;stroke-linejoin:round;stroke-dasharray:3.6253,4.8338;}
	.st47{fill:none;stroke:#FFFFFF;stroke-miterlimit:10;}
	.st48{fill:none;stroke:#FFFFFF;stroke-width:2.5;stroke-linecap:round;stroke-linejoin:round;stroke-miterlimit:10;}
	.st49{fill:#FAFCFB;}
	.st50{fill:none;stroke:#00A9CD;stroke-miterlimit:10;}
	.st51{fill:none;stroke:#3781A4;stroke-width:0.8989;stroke-miterlimit:10;}
	.st52{fill:none;stroke:#B12843;stroke-width:0.8989;stroke-miterlimit:10;}
	.st53{fill:none;stroke:#3781A4;stroke-miterlimit:10;}
	.st54{fill-rule:evenodd;clip-rule:evenodd;fill:none;stroke:#3781A4;stroke-width:0.8989;stroke-miterlimit:10;}
	.st55{fill:#00A9CD;}
	.st56{fill:#0597C4;}
	.st57{fill:#2A3033;}
	.st58{fill:none;}
	.st59{fill:none;stroke:#A5B5B8;stroke-miterlimit:10;}
	.st60{fill:none;stroke:#D4D4D6;stroke-miterlimit:10;}
	.st61{fill:#231F20;}
	.st62{opacity:0.6;fill:#2A3033;}
	.st63{opacity:0.85;fill:#FFFFFF;}
	.st64{fill:#0F070A;}
	.st65{opacity:0.85;}
	.st66{fill:#7B8081;}
	.st67{opacity:0.9;fill:#FFFFFF;}
	.st68{fill:#F7F7F7;}
	.st69{fill-rule:evenodd;clip-rule:evenodd;fill:#2A3033;}
	.st70{opacity:0.75;}
	.st71{fill:none;stroke:#FFFFFF;stroke-width:2;stroke-miterlimit:10;}
	.st72{fill:#0C0110;}
	.st73{opacity:0.7;fill:#FFFFFF;}
	.st74{fill:none;stroke:#FFFFFF;stroke-width:0.4355;stroke-miterlimit:10;}
	.st75{opacity:0.6;fill:#FFFFFF;}
	.st76{display:none;}
	.st77{display:inline;fill:none;}
	.st78{display:inline;}
	.st79{fill:none;stroke:#FFFFFF;stroke-width:0.5319;stroke-miterlimit:10;}
	.st80{fill:none;stroke:#F9F164;stroke-width:0.5;stroke-miterlimit:10;}
</style>
<metadata>
	<sfw  xmlns="&ns_sfw;">
		<slices></slices>
		<sliceSourceBounds  width="10247.2" height="8656.8" y="-6643.9" x="-5542.2" bottomLeftOrigin="true"></sliceSourceBounds>
		<optimizationSettings>
			<targetSettings  fileFormat="JPEGFormat" targetSettingsID="0">
				
					<JPEGFormat  matteColor="#FFFFFF" noMatteColor="false" optimized="true" blurAmount="0" embedICCProfile="false" progressive="false" quality="60">
					</JPEGFormat>
			</targetSettings>
		</optimizationSettings>
	</sfw>
</metadata>
<g id="Layer_1">
	<g>
		<g>
			<path class="st1" d="M16.7,27.3c0.1,0,0.2,0,0.3,0.1c0.1,0,0.2,0.1,0.3,0.2c0.1,0.1,0.2,0.2,0.3,0.3L29,42.5c0-0.4-0.1-0.7-0.1-1
				c0-0.3,0-0.6,0-0.9V27.3h3.6V49h-2.1c-0.3,0-0.6-0.1-0.8-0.2s-0.4-0.3-0.6-0.5L17.6,33.8c0,0.3,0.1,0.6,0.1,1c0,0.3,0,0.6,0,0.9
				V49h-3.6V27.3h2.1C16.4,27.3,16.6,27.3,16.7,27.3z"/>
			<path class="st1" d="M48.8,49h-1.7c-0.4,0-0.6-0.1-0.8-0.2c-0.2-0.1-0.4-0.3-0.5-0.6l-0.3-1.1c-0.4,0.4-0.8,0.7-1.2,0.9
				c-0.4,0.3-0.8,0.5-1.2,0.7c-0.4,0.2-0.8,0.3-1.3,0.4s-1,0.1-1.5,0.1c-0.7,0-1.3-0.1-1.8-0.3c-0.6-0.2-1-0.4-1.4-0.8
				c-0.4-0.4-0.7-0.8-0.9-1.3s-0.3-1.1-0.3-1.8c0-0.6,0.2-1.2,0.5-1.7c0.3-0.6,0.8-1.1,1.5-1.5s1.7-0.8,2.8-1.1
				c1.2-0.3,2.7-0.5,4.4-0.5v-0.9c0-1-0.2-1.8-0.7-2.3c-0.4-0.5-1.1-0.8-1.9-0.8c-0.6,0-1.1,0.1-1.5,0.2c-0.4,0.1-0.8,0.3-1,0.5
				c-0.3,0.2-0.6,0.3-0.8,0.5s-0.5,0.2-0.8,0.2c-0.3,0-0.5-0.1-0.6-0.2s-0.3-0.3-0.4-0.5l-0.7-1.2c1.8-1.6,3.9-2.4,6.4-2.4
				c0.9,0,1.7,0.1,2.4,0.4c0.7,0.3,1.3,0.7,1.8,1.2c0.5,0.5,0.9,1.2,1.1,1.9c0.3,0.7,0.4,1.5,0.4,2.4V49z M41.6,46.7
				c0.4,0,0.7,0,1.1-0.1c0.3-0.1,0.6-0.2,0.9-0.3c0.3-0.1,0.6-0.3,0.8-0.5c0.3-0.2,0.5-0.4,0.8-0.7v-2.6c-1.1,0-2,0.1-2.7,0.2
				s-1.3,0.3-1.8,0.5c-0.4,0.2-0.8,0.5-0.9,0.7s-0.3,0.6-0.3,0.9c0,0.7,0.2,1.1,0.6,1.4C40.4,46.6,40.9,46.7,41.6,46.7z"/>
			<path class="st1" d="M57,29.1c0,0.3-0.1,0.6-0.2,0.9c-0.1,0.3-0.3,0.5-0.5,0.7c-0.2,0.2-0.5,0.4-0.8,0.5
				c-0.3,0.1-0.6,0.2-0.9,0.2c-0.3,0-0.6-0.1-0.9-0.2s-0.5-0.3-0.7-0.5c-0.2-0.2-0.4-0.5-0.5-0.7c-0.1-0.3-0.2-0.6-0.2-0.9
				c0-0.3,0.1-0.6,0.2-0.9c0.1-0.3,0.3-0.5,0.5-0.8c0.2-0.2,0.5-0.4,0.7-0.5c0.3-0.1,0.6-0.2,0.9-0.2c0.3,0,0.6,0.1,0.9,0.2
				c0.3,0.1,0.5,0.3,0.8,0.5c0.2,0.2,0.4,0.5,0.5,0.8C56.9,28.4,57,28.8,57,29.1z M56.4,33.6V49h-3.7V33.6H56.4z"/>
			<path class="st1" d="M68.3,49H65l-6.1-15.4h3.1c0.3,0,0.5,0.1,0.7,0.2c0.2,0.1,0.3,0.3,0.4,0.5l3,8.2c0.2,0.5,0.3,1,0.4,1.4
				s0.2,0.9,0.3,1.4c0.1-0.5,0.2-0.9,0.3-1.4c0.1-0.5,0.3-0.9,0.4-1.4l3.1-8.2c0.1-0.2,0.2-0.4,0.4-0.5c0.2-0.1,0.4-0.2,0.6-0.2h2.9
				L68.3,49z"/>
			<path class="st1" d="M82.5,33.3c1,0,1.9,0.2,2.7,0.5s1.5,0.8,2.1,1.4c0.6,0.6,1.1,1.3,1.4,2.2c0.3,0.9,0.5,1.9,0.5,3
				c0,0.3,0,0.5,0,0.7c0,0.2-0.1,0.3-0.1,0.4c-0.1,0.1-0.2,0.2-0.3,0.2c-0.1,0-0.3,0.1-0.4,0.1h-9.5c0.1,1.6,0.5,2.7,1.3,3.5
				c0.7,0.7,1.7,1.1,2.9,1.1c0.6,0,1.1-0.1,1.6-0.2s0.8-0.3,1.1-0.5c0.3-0.2,0.6-0.3,0.9-0.5c0.2-0.1,0.5-0.2,0.7-0.2
				c0.2,0,0.3,0,0.4,0.1c0.1,0.1,0.2,0.1,0.3,0.3l1.1,1.4c-0.4,0.5-0.9,0.9-1.4,1.2s-1,0.6-1.6,0.8c-0.6,0.2-1.1,0.3-1.7,0.4
				c-0.6,0.1-1.1,0.1-1.7,0.1c-1.1,0-2.1-0.2-3-0.5s-1.7-0.9-2.4-1.6c-0.7-0.7-1.2-1.6-1.6-2.6c-0.4-1-0.6-2.2-0.6-3.6
				c0-1.1,0.2-2,0.5-3c0.3-0.9,0.8-1.7,1.5-2.4c0.6-0.7,1.4-1.2,2.3-1.6C80.3,33.5,81.4,33.3,82.5,33.3z M82.6,36
				c-1.1,0-1.9,0.3-2.5,0.9c-0.6,0.6-1,1.5-1.2,2.6h7c0-0.5-0.1-0.9-0.2-1.4c-0.1-0.4-0.3-0.8-0.6-1.1c-0.3-0.3-0.6-0.6-1-0.8
				C83.6,36.1,83.2,36,82.6,36z"/>
			<path class="st1" d="M117.4,49h-3.1c-0.4,0-0.6-0.1-0.9-0.3c-0.2-0.2-0.4-0.4-0.5-0.7l-1.6-4.4h-9l-1.6,4.4
				c-0.1,0.2-0.2,0.4-0.5,0.6c-0.2,0.2-0.5,0.3-0.9,0.3h-3.1l8.5-21.8h4.1L117.4,49z M103.3,40.8h6.9l-2.6-7.2
				c-0.1-0.3-0.3-0.7-0.4-1.1s-0.3-0.9-0.4-1.4c-0.1,0.5-0.3,1-0.4,1.4s-0.3,0.8-0.4,1.2L103.3,40.8z"/>
			<path class="st1" d="M119.4,54.1V33.6h2.3c0.2,0,0.4,0.1,0.6,0.2c0.2,0.1,0.3,0.3,0.3,0.5l0.3,1.4c0.6-0.7,1.3-1.3,2.1-1.7
				c0.8-0.4,1.8-0.7,2.8-0.7c0.8,0,1.6,0.2,2.3,0.5s1.3,0.9,1.8,1.5c0.5,0.7,0.9,1.5,1.2,2.5c0.3,1,0.4,2.1,0.4,3.4
				c0,1.2-0.2,2.2-0.5,3.2c-0.3,1-0.8,1.8-1.3,2.6c-0.6,0.7-1.3,1.3-2.1,1.7c-0.8,0.4-1.7,0.6-2.7,0.6c-0.9,0-1.6-0.1-2.2-0.4
				c-0.6-0.3-1.2-0.6-1.6-1.1v6.3H119.4z M126.6,36.2c-0.8,0-1.4,0.2-2,0.5c-0.5,0.3-1.1,0.8-1.5,1.4V45c0.4,0.5,0.9,0.9,1.4,1.1
				c0.5,0.2,1,0.3,1.6,0.3c0.6,0,1.1-0.1,1.5-0.3c0.5-0.2,0.8-0.5,1.2-1c0.3-0.4,0.6-1,0.7-1.6c0.2-0.7,0.3-1.4,0.3-2.3
				c0-0.9-0.1-1.7-0.2-2.3s-0.4-1.1-0.6-1.5s-0.6-0.7-1-0.9C127.6,36.3,127.1,36.2,126.6,36.2z"/>
			<path class="st1" d="M136.4,54.1V33.6h2.3c0.2,0,0.4,0.1,0.6,0.2c0.2,0.1,0.3,0.3,0.3,0.5l0.3,1.4c0.6-0.7,1.3-1.3,2.1-1.7
				c0.8-0.4,1.8-0.7,2.8-0.7c0.8,0,1.6,0.2,2.3,0.5s1.3,0.9,1.8,1.5c0.5,0.7,0.9,1.5,1.2,2.5c0.3,1,0.4,2.1,0.4,3.4
				c0,1.2-0.2,2.2-0.5,3.2c-0.3,1-0.8,1.8-1.3,2.6c-0.6,0.7-1.3,1.3-2.1,1.7c-0.8,0.4-1.7,0.6-2.7,0.6c-0.9,0-1.6-0.1-2.2-0.4
				c-0.6-0.3-1.2-0.6-1.6-1.1v6.3H136.4z M143.7,36.2c-0.8,0-1.4,0.2-2,0.5c-0.5,0.3-1.1,0.8-1.5,1.4V45c0.4,0.5,0.9,0.9,1.4,1.1
				c0.5,0.2,1,0.3,1.6,0.3c0.6,0,1.1-0.1,1.5-0.3c0.5-0.2,0.8-0.5,1.2-1c0.3-0.4,0.6-1,0.7-1.6c0.2-0.7,0.3-1.4,0.3-2.3
				c0-0.9-0.1-1.7-0.2-2.3s-0.4-1.1-0.6-1.5s-0.6-0.7-1-0.9C144.6,36.3,144.1,36.2,143.7,36.2z"/>
			<path class="st1" d="M153.5,49V33.6h2.2c0.4,0,0.6,0.1,0.8,0.2c0.2,0.1,0.3,0.4,0.3,0.7l0.2,1.9c0.6-1,1.2-1.7,1.9-2.3
				c0.7-0.6,1.6-0.8,2.5-0.8c0.8,0,1.4,0.2,1.9,0.5l-0.5,2.8c0,0.2-0.1,0.3-0.2,0.4s-0.2,0.1-0.4,0.1c-0.2,0-0.4,0-0.6-0.1
				c-0.3-0.1-0.6-0.1-1-0.1c-0.8,0-1.4,0.2-2,0.6c-0.6,0.4-1,1.1-1.4,1.9V49H153.5z"/>
			<path class="st1" d="M172.3,33.3c1.2,0,2.2,0.2,3.1,0.6c0.9,0.4,1.7,0.9,2.4,1.6s1.2,1.5,1.5,2.5c0.4,1,0.5,2.1,0.5,3.3
				c0,1.2-0.2,2.3-0.5,3.3c-0.4,1-0.9,1.8-1.5,2.5c-0.7,0.7-1.5,1.2-2.4,1.6c-0.9,0.4-2,0.6-3.1,0.6s-2.2-0.2-3.1-0.6
				c-0.9-0.4-1.7-0.9-2.4-1.6c-0.7-0.7-1.2-1.5-1.6-2.5c-0.4-1-0.5-2.1-0.5-3.3c0-1.2,0.2-2.3,0.5-3.3c0.4-1,0.9-1.8,1.6-2.5
				c0.7-0.7,1.5-1.2,2.4-1.6C170.1,33.5,171.2,33.3,172.3,33.3z M172.3,46.4c1.3,0,2.2-0.4,2.9-1.3s0.9-2.1,0.9-3.8
				c0-1.7-0.3-2.9-0.9-3.8c-0.6-0.9-1.6-1.3-2.9-1.3c-1.3,0-2.3,0.4-2.9,1.3c-0.6,0.9-0.9,2.1-0.9,3.8s0.3,2.9,0.9,3.8
				C170.1,46,171,46.4,172.3,46.4z"/>
			<path class="st1" d="M195,49h-1.7c-0.4,0-0.6-0.1-0.8-0.2c-0.2-0.1-0.4-0.3-0.5-0.6l-0.3-1.1c-0.4,0.4-0.8,0.7-1.2,0.9
				c-0.4,0.3-0.8,0.5-1.2,0.7c-0.4,0.2-0.8,0.3-1.3,0.4s-1,0.1-1.5,0.1c-0.7,0-1.3-0.1-1.8-0.3c-0.6-0.2-1-0.4-1.4-0.8
				c-0.4-0.4-0.7-0.8-0.9-1.3s-0.3-1.1-0.3-1.8c0-0.6,0.2-1.2,0.5-1.7c0.3-0.6,0.8-1.1,1.5-1.5s1.7-0.8,2.8-1.1
				c1.2-0.3,2.7-0.5,4.4-0.5v-0.9c0-1-0.2-1.8-0.7-2.3c-0.4-0.5-1.1-0.8-1.9-0.8c-0.6,0-1.1,0.1-1.5,0.2c-0.4,0.1-0.8,0.3-1,0.5
				c-0.3,0.2-0.6,0.3-0.8,0.5s-0.5,0.2-0.8,0.2c-0.3,0-0.5-0.1-0.6-0.2s-0.3-0.3-0.4-0.5l-0.7-1.2c1.8-1.6,3.9-2.4,6.4-2.4
				c0.9,0,1.7,0.1,2.4,0.4c0.7,0.3,1.3,0.7,1.8,1.2c0.5,0.5,0.9,1.2,1.1,1.9c0.3,0.7,0.4,1.5,0.4,2.4V49z M187.7,46.7
				c0.4,0,0.7,0,1.1-0.1c0.3-0.1,0.6-0.2,0.9-0.3c0.3-0.1,0.6-0.3,0.8-0.5c0.3-0.2,0.5-0.4,0.8-0.7v-2.6c-1.1,0-2,0.1-2.7,0.2
				s-1.3,0.3-1.8,0.5c-0.4,0.2-0.8,0.5-0.9,0.7s-0.3,0.6-0.3,0.9c0,0.7,0.2,1.1,0.6,1.4C186.6,46.6,187.1,46.7,187.7,46.7z"/>
			<path class="st1" d="M209.5,36.9c-0.1,0.1-0.2,0.3-0.3,0.3c-0.1,0.1-0.3,0.1-0.5,0.1c-0.2,0-0.4-0.1-0.6-0.2
				c-0.2-0.1-0.4-0.2-0.6-0.4c-0.3-0.1-0.5-0.3-0.9-0.4s-0.8-0.2-1.3-0.2c-0.7,0-1.2,0.1-1.7,0.4s-0.9,0.6-1.2,1s-0.6,1-0.7,1.6
				c-0.2,0.6-0.2,1.3-0.2,2.1c0,0.8,0.1,1.6,0.3,2.2c0.2,0.6,0.4,1.2,0.8,1.6s0.7,0.8,1.2,1c0.5,0.2,1,0.3,1.6,0.3s1.1-0.1,1.4-0.2
				s0.7-0.3,0.9-0.5c0.3-0.2,0.5-0.3,0.7-0.5c0.2-0.1,0.4-0.2,0.6-0.2c0.3,0,0.5,0.1,0.7,0.3l1.1,1.4c-0.4,0.5-0.9,0.9-1.3,1.2
				s-1,0.6-1.5,0.8c-0.5,0.2-1.1,0.3-1.6,0.4c-0.6,0.1-1.1,0.1-1.6,0.1c-1,0-1.9-0.2-2.7-0.5s-1.6-0.9-2.2-1.6s-1.1-1.5-1.5-2.5
				c-0.4-1-0.5-2.1-0.5-3.4c0-1.1,0.2-2.2,0.5-3.2c0.3-1,0.8-1.8,1.4-2.5c0.6-0.7,1.4-1.3,2.3-1.7c0.9-0.4,2-0.6,3.2-0.6
				c1.2,0,2.2,0.2,3,0.6c0.9,0.4,1.6,0.9,2.3,1.6L209.5,36.9z"/>
			<path class="st1" d="M213,49V26.7h3.7v8.6c0.6-0.6,1.3-1,2-1.4c0.7-0.4,1.6-0.5,2.5-0.5c0.8,0,1.6,0.1,2.2,0.4s1.2,0.7,1.6,1.2
				c0.4,0.5,0.8,1.1,1,1.9s0.3,1.5,0.3,2.4V49h-3.7v-9.8c0-0.9-0.2-1.7-0.7-2.2s-1.1-0.8-2-0.8c-0.6,0-1.2,0.1-1.8,0.4
				c-0.6,0.3-1.1,0.7-1.6,1.2V49H213z"/>
		</g>
		<g>
			<g>
				<g>
					<g id="Macbook_base_382_">
						<g>
							<path class="st1" d="M222,401.3H12.1c-3.6,0-6.5,2.9-6.5,6.5v134.6c0,3.6,2.9,6.5,6.5,6.5H222c3.6,0,6.5-2.9,6.5-6.5V407.8
								C228.5,404.2,225.6,401.3,222,401.3z"/>
						</g>
					</g>
					<g id="Macbook_base_380_">
						<g>
							<path class="st8" d="M222,401.3H12.1c-3.6,0-6.5,2.9-6.5,6.5v6.3h222.9v-6.3C228.5,404.2,225.6,401.3,222,401.3z"/>
						</g>
					</g>
					<g>
						<circle class="st1" cx="13.9" cy="407.7" r="1.9"/>
						<circle class="st1" cx="20.2" cy="407.7" r="1.9"/>
						<circle class="st1" cx="26.6" cy="407.7" r="1.9"/>
					</g>
					<rect x="80.1" y="405.9" class="st9" width="73.9" height="4.3"/>
				</g>
				<g>
					<path class="st18" d="M120.5,460.5c0,1.9-1.6,3.5-3.5,3.5l0,0c-1.9,0-3.5-1.6-3.5-3.5v-10.4c0-1.9,1.6-3.5,3.5-3.5l0,0
						c1.9,0,3.5,1.6,3.5,3.5V460.5z"/>
					<path class="st10" d="M120.5,512.6c0,1.9-1.6,3.5-3.5,3.5l0,0c-1.9,0-3.5-1.6-3.5-3.5v-10.4c0-1.9,1.6-3.5,3.5-3.5l0,0
						c1.9,0,3.5,1.6,3.5,3.5V512.6z"/>
					<path class="st19" d="M96.2,477.9c1.9,0,3.5,1.6,3.5,3.5l0,0c0,1.9-1.6,3.5-3.5,3.5H85.8c-1.9,0-3.5-1.6-3.5-3.5l0,0
						c0-1.9,1.6-3.5,3.5-3.5H96.2z"/>
					<path class="st20" d="M148.3,477.9c1.9,0,3.5,1.6,3.5,3.5l0,0c0,1.9-1.6,3.5-3.5,3.5h-10.4c-1.9,0-3.5-1.6-3.5-3.5l0,0
						c0-1.9,1.6-3.5,3.5-3.5H148.3z"/>
					<path class="st21" d="M97.3,488.8c1.7-1,3.8-0.4,4.7,1.3l0,0c1,1.7,0.4,3.8-1.3,4.7l-9,5.2c-1.7,1-3.8,0.4-4.7-1.3l0,0
						c-1-1.7-0.4-3.8,1.3-4.7L97.3,488.8z"/>
					<path class="st22" d="M142.4,462.7c1.7-1,3.8-0.4,4.7,1.3l0,0c1,1.7,0.4,3.8-1.3,4.7l-9,5.2c-1.7,1-3.8,0.4-4.7-1.3l0,0
						c-1-1.7-0.4-3.8,1.3-4.7L142.4,462.7z"/>
					<path class="st23" d="M124.5,501.1c-1-1.7-0.4-3.8,1.3-4.7l0,0c1.7-1,3.8-0.4,4.7,1.3l5.2,9c1,1.7,0.4,3.8-1.3,4.7l0,0
						c-1.7,1-3.8,0.4-4.7-1.3L124.5,501.1z"/>
					<path class="st24" d="M98.4,456c-1-1.7-0.4-3.8,1.3-4.7l0,0c1.7-1,3.8-0.4,4.7,1.3l5.2,9c1,1.7,0.4,3.8-1.3,4.7l0,0
						c-1.7,1-3.8,0.4-4.7-1.3L98.4,456z"/>
					<path class="st25" d="M103.6,497.7c1-1.7,3.1-2.2,4.7-1.3l0,0c1.7,1,2.2,3.1,1.3,4.7l-5.2,9.1c-1,1.7-3.1,2.2-4.7,1.3l0,0
						c-1.7-1-2.2-3.1-1.3-4.7L103.6,497.7z"/>
					<path class="st26" d="M129.7,452.5c1-1.7,3.1-2.2,4.7-1.3l0,0c1.7,1,2.2,3.1,1.3,4.7l-5.2,9.1c-1,1.7-3.1,2.2-4.7,1.3l0,0
						c-1.7-1-2.2-3.1-1.3-4.7L129.7,452.5z"/>
					<path class="st27" d="M133.4,494.8c-1.7-1-2.2-3.1-1.3-4.7l0,0c1-1.7,3.1-2.2,4.7-1.3l9.1,5.2c1.7,1,2.2,3.1,1.3,4.7l0,0
						c-1,1.7-3.1,2.2-4.7,1.3L133.4,494.8z"/>
					<path class="st28" d="M88.2,468.7c-1.7-1-2.2-3.1-1.3-4.7l0,0c1-1.7,3.1-2.2,4.7-1.3l9.1,5.2c1.7,1,2.2,3.1,1.3,4.7l0,0
						c-1,1.7-3.1,2.2-4.7,1.3L88.2,468.7z"/>
				</g>
				<g>
					<g>
						<g>
							<g id="Macbook_base_378_">
								<g>
									<path class="st1" d="M222,952.8H12.1c-3.6,0-6.5,2.9-6.5,6.5v134.6c0,3.6,2.9,6.5,6.5,6.5H222c3.6,0,6.5-2.9,6.5-6.5V959.3
										C228.5,955.7,225.6,952.8,222,952.8z"/>
								</g>
							</g>
							<g id="Macbook_base_376_">
								<g>
									<path class="st8" d="M222,952.8H12.1c-3.6,0-6.5,2.9-6.5,6.5v6.3h222.9v-6.3C228.5,955.7,225.6,952.8,222,952.8z"/>
								</g>
							</g>
							<g>
								<circle class="st1" cx="13.9" cy="959.2" r="1.9"/>
								<circle class="st1" cx="20.2" cy="959.2" r="1.9"/>
								<circle class="st1" cx="26.6" cy="959.2" r="1.9"/>
							</g>
							<rect x="80.1" y="957.4" class="st9" width="73.9" height="4.3"/>
						</g>
						<g>
							<g>
								<g id="Macbook_base_374_">
									<g>
										<rect x="109.4" y="1034.1" class="st29" width="82.5" height="5.8"/>
									</g>
								</g>
							</g>
							<path class="st29" d="M44.3,1069.3h47.7c1.4,0,2.5-1.1,2.5-2.5v-74.6c0-1.4-1.1-2.5-2.5-2.5H44.3c-1.4,0-2.5,1.1-2.5,2.5
								v74.6C41.9,1068.2,43,1069.3,44.3,1069.3z"/>
							<g>
								<path class="st18" d="M124.9,1048.4c0,0.7-0.6,1.3-1.3,1.3l0,0c-0.7,0-1.3-0.6-1.3-1.3v-4c0-0.7,0.6-1.3,1.3-1.3l0,0
									c0.7,0,1.3,0.6,1.3,1.3V1048.4z"/>
								<path class="st10" d="M124.9,1068.4c0,0.7-0.6,1.3-1.3,1.3l0,0c-0.7,0-1.3-0.6-1.3-1.3v-4c0-0.7,0.6-1.3,1.3-1.3l0,0
									c0.7,0,1.3,0.6,1.3,1.3V1068.4z"/>
								<path class="st19" d="M115.5,1055c0.7,0,1.3,0.6,1.3,1.3l0,0c0,0.7-0.6,1.3-1.3,1.3h-4c-0.7,0-1.3-0.6-1.3-1.3l0,0
									c0-0.7,0.6-1.3,1.3-1.3H115.5z"/>
								<path class="st20" d="M135.6,1055c0.7,0,1.3,0.6,1.3,1.3l0,0c0,0.7-0.6,1.3-1.3,1.3h-4c-0.7,0-1.3-0.6-1.3-1.3l0,0
									c0-0.7,0.6-1.3,1.3-1.3H135.6z"/>
								<path class="st21" d="M115.9,1059.2c0.6-0.4,1.5-0.2,1.8,0.5l0,0c0.4,0.6,0.2,1.5-0.5,1.8l-3.5,2c-0.6,0.4-1.5,0.2-1.8-0.5
									l0,0c-0.4-0.6-0.2-1.5,0.5-1.8L115.9,1059.2z"/>
								<path class="st22" d="M133.3,1049.2c0.6-0.4,1.5-0.2,1.8,0.5l0,0c0.4,0.6,0.1,1.5-0.5,1.8l-3.5,2c-0.6,0.4-1.5,0.1-1.8-0.5
									l0,0c-0.4-0.6-0.2-1.5,0.5-1.8L133.3,1049.2z"/>
								<path class="st23" d="M126.4,1064c-0.4-0.6-0.2-1.5,0.5-1.8l0,0c0.6-0.4,1.5-0.2,1.8,0.5l2,3.5c0.4,0.6,0.2,1.5-0.5,1.8l0,0
									c-0.6,0.4-1.5,0.2-1.8-0.5L126.4,1064z"/>
								<path class="st24" d="M116.4,1046.6c-0.4-0.6-0.2-1.5,0.5-1.8l0,0c0.6-0.4,1.5-0.1,1.8,0.5l2,3.5c0.4,0.6,0.2,1.5-0.5,1.8
									l0,0c-0.6,0.4-1.5,0.2-1.8-0.5L116.4,1046.6z"/>
								<path class="st25" d="M118.4,1062.6c0.4-0.6,1.2-0.9,1.8-0.5l0,0c0.6,0.4,0.9,1.2,0.5,1.8l-2,3.5c-0.4,0.6-1.2,0.9-1.8,0.5
									l0,0c-0.6-0.4-0.9-1.2-0.5-1.8L118.4,1062.6z"/>
								<path class="st26" d="M128.4,1045.3c0.4-0.6,1.2-0.9,1.8-0.5l0,0c0.6,0.4,0.9,1.2,0.5,1.8l-2,3.5c-0.4,0.6-1.2,0.9-1.8,0.5
									l0,0c-0.6-0.4-0.9-1.2-0.5-1.8L128.4,1045.3z"/>
								<path class="st27" d="M129.8,1061.5c-0.6-0.4-0.9-1.2-0.5-1.8l0,0c0.4-0.6,1.2-0.9,1.8-0.5l3.5,2c0.6,0.4,0.9,1.2,0.5,1.8
									l0,0c-0.4,0.6-1.2,0.9-1.8,0.5L129.8,1061.5z"/>
								<path class="st28" d="M112.5,1051.5c-0.6-0.4-0.9-1.2-0.5-1.8l0,0c0.4-0.6,1.2-0.9,1.8-0.5l3.5,2c0.6,0.4,0.9,1.2,0.5,1.8
									l0,0c-0.4,0.6-1.2,0.9-1.8,0.5L112.5,1051.5z"/>
							</g>
							<g>
								<g id="Macbook_base_372_">
									<g>
										<rect x="109.4" y="989.8" class="st29" width="82.5" height="5.8"/>
									</g>
								</g>
							</g>
							<g>
								<path class="st18" d="M124.9,1004.1c0,0.7-0.6,1.3-1.3,1.3l0,0c-0.7,0-1.3-0.6-1.3-1.3v-4c0-0.7,0.6-1.3,1.3-1.3l0,0
									c0.7,0,1.3,0.6,1.3,1.3V1004.1z"/>
								<path class="st10" d="M124.9,1024.1c0,0.7-0.6,1.3-1.3,1.3l0,0c-0.7,0-1.3-0.6-1.3-1.3v-4c0-0.7,0.6-1.3,1.3-1.3l0,0
									c0.7,0,1.3,0.6,1.3,1.3V1024.1z"/>
								<path class="st19" d="M115.5,1010.8c0.7,0,1.3,0.6,1.3,1.3l0,0c0,0.7-0.6,1.3-1.3,1.3h-4c-0.7,0-1.3-0.6-1.3-1.3l0,0
									c0-0.7,0.6-1.3,1.3-1.3H115.5z"/>
								<path class="st20" d="M135.6,1010.8c0.7,0,1.3,0.6,1.3,1.3l0,0c0,0.7-0.6,1.3-1.3,1.3h-4c-0.7,0-1.3-0.6-1.3-1.3l0,0
									c0-0.7,0.6-1.3,1.3-1.3H135.6z"/>
								<path class="st21" d="M115.9,1015c0.6-0.4,1.5-0.2,1.8,0.5l0,0c0.4,0.6,0.2,1.5-0.5,1.8l-3.5,2c-0.6,0.4-1.5,0.2-1.8-0.5
									l0,0c-0.4-0.6-0.2-1.5,0.5-1.8L115.9,1015z"/>
								<path class="st22" d="M133.3,1004.9c0.6-0.4,1.5-0.2,1.8,0.5l0,0c0.4,0.6,0.1,1.5-0.5,1.8l-3.5,2c-0.6,0.4-1.5,0.1-1.8-0.5
									l0,0c-0.4-0.6-0.2-1.5,0.5-1.8L133.3,1004.9z"/>
								<path class="st23" d="M126.4,1019.7c-0.4-0.6-0.2-1.5,0.5-1.8l0,0c0.6-0.4,1.5-0.2,1.8,0.5l2,3.5c0.4,0.6,0.2,1.5-0.5,1.8
									l0,0c-0.6,0.4-1.5,0.2-1.8-0.5L126.4,1019.7z"/>
								<path class="st24" d="M116.4,1002.4c-0.4-0.6-0.2-1.5,0.5-1.8l0,0c0.6-0.4,1.5-0.1,1.8,0.5l2,3.5c0.4,0.6,0.2,1.5-0.5,1.8
									l0,0c-0.6,0.4-1.5,0.2-1.8-0.5L116.4,1002.4z"/>
								<path class="st25" d="M118.4,1018.4c0.4-0.6,1.2-0.9,1.8-0.5l0,0c0.6,0.4,0.9,1.2,0.5,1.8l-2,3.5c-0.4,0.6-1.2,0.9-1.8,0.5
									l0,0c-0.6-0.4-0.9-1.2-0.5-1.8L118.4,1018.4z"/>
								<path class="st26" d="M128.4,1001c0.4-0.6,1.2-0.9,1.8-0.5l0,0c0.6,0.4,0.9,1.2,0.5,1.8l-2,3.5c-0.4,0.6-1.2,0.9-1.8,0.5
									l0,0c-0.6-0.4-0.9-1.2-0.5-1.8L128.4,1001z"/>
								<path class="st27" d="M129.8,1017.3c-0.6-0.4-0.9-1.2-0.5-1.8l0,0c0.4-0.6,1.2-0.9,1.8-0.5l3.5,2c0.6,0.4,0.9,1.2,0.5,1.8
									l0,0c-0.4,0.6-1.2,0.9-1.8,0.5L129.8,1017.3z"/>
								<path class="st28" d="M112.5,1007.3c-0.6-0.4-0.9-1.2-0.5-1.8l0,0c0.4-0.6,1.2-0.9,1.8-0.5l3.5,2c0.6,0.4,0.9,1.2,0.5,1.8
									l0,0c-0.4,0.6-1.2,0.9-1.8,0.5L112.5,1007.3z"/>
							</g>
						</g>
					</g>
					<g id="Macbook_base_370_">
						<g>
							<rect x="5.6" y="965.2" class="st29" width="222.9" height="12.8"/>
						</g>
					</g>
				</g>
				<g>
					<g>
						<g>
							<g id="Macbook_base_368_">
								<g>
									<path class="st1" d="M222,1244.3H12.1c-3.6,0-6.5,2.9-6.5,6.5v134.6c0,3.6,2.9,6.5,6.5,6.5H222c3.6,0,6.5-2.9,6.5-6.5
										v-134.6C228.5,1247.2,225.6,1244.3,222,1244.3z"/>
								</g>
							</g>
							<g id="Macbook_base_366_">
								<g>
									<path class="st8" d="M222,1244.3H12.1c-3.6,0-6.5,2.9-6.5,6.5v6.3h222.9v-6.3C228.5,1247.2,225.6,1244.3,222,1244.3z"/>
								</g>
							</g>
							<g>
								<circle class="st1" cx="13.9" cy="1250.7" r="1.9"/>
								<circle class="st1" cx="20.2" cy="1250.7" r="1.9"/>
								<circle class="st1" cx="26.6" cy="1250.7" r="1.9"/>
							</g>
							<rect x="80.1" y="1248.9" class="st9" width="73.9" height="4.3"/>
						</g>
						<g>
							<g>
								<g id="Macbook_base_364_">
									<g>
										<rect x="109.4" y="1287.9" class="st29" width="82.5" height="5.8"/>
									</g>
								</g>
							</g>
							<g>
								<g id="Macbook_base_362_">
									<g>
										<rect x="126.6" y="1300.4" class="st10" width="47" height="4.4"/>
									</g>
								</g>
								<circle class="st11" cx="118.1" cy="1302.7" r="5"/>
							</g>
							<g>
								<g id="Macbook_base_360_">
									<g>
										<rect x="126.6" y="1313.3" class="st10" width="47" height="4.4"/>
									</g>
								</g>
								<circle class="st11" cx="118.1" cy="1315.6" r="5"/>
							</g>
							<g>
								<g id="Macbook_base_358_">
									<g>
										<rect x="109.4" y="1335.3" class="st29" width="82.5" height="5.8"/>
									</g>
								</g>
							</g>
							<g>
								<g id="Macbook_base_356_">
									<g>
										<rect x="126.6" y="1347.8" class="st10" width="47" height="4.4"/>
									</g>
								</g>
								<circle class="st12" cx="118.1" cy="1350.1" r="5"/>
							</g>
							<g>
								<g id="Macbook_base_354_">
									<g>
										<rect x="126.6" y="1360.7" class="st10" width="47" height="4.4"/>
									</g>
								</g>
								<circle class="st12" cx="118.1" cy="1363" r="5"/>
							</g>
							<path class="st29" d="M44.3,1367.5H92c1.4,0,2.5-1.1,2.5-2.5v-74.6c0-1.4-1.1-2.5-2.5-2.5H44.3c-1.4,0-2.5,1.1-2.5,2.5v74.6
								C41.8,1366.4,42.9,1367.5,44.3,1367.5z"/>
						</g>
					</g>
					<g id="Macbook_base_352_">
						<g>
							<rect x="5.6" y="1256.8" class="st29" width="222.9" height="12.8"/>
						</g>
					</g>
				</g>
				<g>
					<g>
						<g id="Macbook_base_350_">
							<g>
								<path class="st1" d="M222,118.1H12.1c-3.6,0-6.5,2.9-6.5,6.5v134.6c0,3.6,2.9,6.5,6.5,6.5H222c3.6,0,6.5-2.9,6.5-6.5V124.7
									C228.5,121.1,225.6,118.1,222,118.1z"/>
							</g>
						</g>
						<g id="Macbook_base_348_">
							<g>
								<path class="st8" d="M222,118.1H12.1c-3.6,0-6.5,2.9-6.5,6.5v6.3h222.9v-6.3C228.5,121.1,225.6,118.1,222,118.1z"/>
							</g>
						</g>
						<g>
							<circle class="st1" cx="13.9" cy="124.6" r="1.9"/>
							<circle class="st1" cx="20.2" cy="124.6" r="1.9"/>
							<circle class="st1" cx="26.6" cy="124.6" r="1.9"/>
						</g>
						<rect x="80.1" y="122.7" class="st9" width="73.9" height="4.3"/>
					</g>
					<g>
						<path class="st9" d="M93,182.8c-0.1,0.2-0.3,0.4-0.4,0.5s-0.3,0.2-0.6,0.2c-0.2,0-0.5-0.1-0.9-0.4c-0.3-0.2-0.7-0.5-1.2-0.8
							s-1.1-0.6-1.8-0.8c-0.7-0.2-1.5-0.4-2.5-0.4c-0.9,0-1.8,0.1-2.5,0.4c-0.7,0.3-1.3,0.6-1.8,1c-0.5,0.4-0.8,0.9-1.1,1.5
							c-0.2,0.6-0.4,1.2-0.4,1.9c0,0.9,0.2,1.6,0.6,2.2s1,1.1,1.7,1.5c0.7,0.4,1.5,0.8,2.4,1.1c0.9,0.3,1.8,0.6,2.7,0.9
							c0.9,0.3,1.8,0.7,2.7,1.1c0.9,0.4,1.7,0.9,2.4,1.5c0.7,0.6,1.3,1.4,1.7,2.2c0.4,0.9,0.6,2,0.6,3.2c0,1.4-0.2,2.6-0.7,3.8
							c-0.5,1.2-1.1,2.2-2,3.1c-0.9,0.9-2,1.6-3.3,2.1c-1.3,0.5-2.8,0.8-4.4,0.8c-2,0-3.8-0.4-5.5-1.1c-1.7-0.7-3.1-1.7-4.2-3l1.2-2
							c0.1-0.2,0.3-0.3,0.4-0.4s0.3-0.2,0.6-0.2c0.3,0,0.6,0.2,1,0.5c0.4,0.3,0.9,0.7,1.5,1.1c0.6,0.4,1.3,0.7,2.1,1.1
							s1.8,0.5,3,0.5c1,0,1.9-0.1,2.7-0.4c0.8-0.3,1.4-0.7,2-1.2c0.5-0.5,1-1.1,1.2-1.8s0.4-1.5,0.4-2.3c0-0.9-0.2-1.7-0.6-2.3
							s-1-1.1-1.7-1.5c-0.7-0.4-1.5-0.7-2.4-1c-0.9-0.3-1.8-0.6-2.7-0.9s-1.8-0.6-2.7-1c-0.9-0.4-1.7-0.9-2.4-1.5
							c-0.7-0.6-1.3-1.4-1.7-2.3s-0.6-2.1-0.6-3.5c0-1.1,0.2-2.2,0.6-3.2c0.4-1,1-1.9,1.9-2.7s1.8-1.4,3-1.9
							c1.2-0.5,2.6-0.7,4.1-0.7c1.7,0,3.3,0.3,4.7,0.8c1.4,0.5,2.7,1.3,3.7,2.4L93,182.8z"/>
						<path class="st9" d="M106.1,209.3c-1.7,0-3.1-0.5-4-1.5c-0.9-1-1.4-2.4-1.4-4.2v-13.4H98c-0.2,0-0.4-0.1-0.6-0.2
							s-0.2-0.4-0.2-0.6v-1.5l3.6-0.5l0.9-6.8c0-0.2,0.1-0.4,0.3-0.5c0.2-0.1,0.4-0.2,0.6-0.2h1.9v7.6h6.3v2.8h-6.3v13.2
							c0,0.9,0.2,1.6,0.7,2.1c0.4,0.4,1,0.7,1.7,0.7c0.4,0,0.8-0.1,1-0.2c0.3-0.1,0.6-0.2,0.8-0.4c0.2-0.1,0.4-0.2,0.6-0.4
							s0.3-0.2,0.4-0.2c0.2,0,0.4,0.1,0.5,0.4l1.1,1.8c-0.7,0.6-1.5,1.1-2.4,1.5C108,209.1,107,209.3,106.1,209.3z"/>
						<path class="st9" d="M131.7,209H130c-0.4,0-0.7-0.1-0.9-0.2c-0.2-0.1-0.4-0.4-0.5-0.7l-0.4-2c-0.6,0.5-1.1,1-1.7,1.4
							c-0.5,0.4-1.1,0.8-1.7,1c-0.6,0.3-1.3,0.5-1.9,0.6c-0.7,0.1-1.4,0.2-2.3,0.2c-0.9,0-1.7-0.1-2.4-0.4c-0.7-0.2-1.4-0.6-1.9-1.1
							c-0.5-0.5-1-1.1-1.3-1.8c-0.3-0.7-0.5-1.6-0.5-2.6c0-0.9,0.2-1.7,0.7-2.5c0.5-0.8,1.2-1.5,2.3-2.1c1.1-0.6,2.5-1.1,4.2-1.5
							s3.8-0.6,6.3-0.6V195c0-1.7-0.4-3-1.1-3.9c-0.7-0.9-1.8-1.3-3.2-1.3c-0.9,0-1.7,0.1-2.4,0.4c-0.6,0.2-1.2,0.5-1.7,0.8
							c-0.5,0.3-0.9,0.6-1.2,0.8s-0.7,0.4-1,0.4c-0.3,0-0.5-0.1-0.7-0.2c-0.2-0.1-0.4-0.3-0.5-0.5l-0.7-1.2c1.2-1.2,2.5-2,3.9-2.6
							c1.4-0.6,3-0.9,4.7-0.9c1.2,0,2.3,0.2,3.3,0.6s1.8,1,2.4,1.7c0.6,0.7,1.1,1.6,1.5,2.6s0.5,2.2,0.5,3.4V209z M121.7,206.6
							c0.7,0,1.3-0.1,1.9-0.2s1.1-0.3,1.6-0.6c0.5-0.3,1-0.6,1.4-0.9s0.9-0.8,1.3-1.2v-4.5c-1.8,0-3.3,0.1-4.5,0.3
							c-1.2,0.2-2.3,0.5-3,0.9c-0.8,0.4-1.3,0.8-1.7,1.3c-0.4,0.5-0.5,1-0.5,1.7c0,0.6,0.1,1.1,0.3,1.5c0.2,0.4,0.4,0.8,0.8,1
							c0.3,0.3,0.7,0.5,1.1,0.6C120.7,206.6,121.2,206.6,121.7,206.6z"/>
						<path class="st9" d="M137.5,209V187h2.2c0.4,0,0.7,0.1,0.9,0.2c0.2,0.2,0.3,0.4,0.3,0.8l0.3,3.4c0.8-1.5,1.7-2.7,2.8-3.6
							s2.4-1.3,3.9-1.3c0.6,0,1.2,0.1,1.6,0.2c0.5,0.1,0.9,0.3,1.4,0.6l-0.5,2.9c-0.1,0.4-0.3,0.5-0.7,0.5c-0.2,0-0.5-0.1-0.9-0.2
							c-0.4-0.1-1-0.2-1.8-0.2c-1.3,0-2.5,0.4-3.4,1.2c-0.9,0.8-1.7,1.9-2.3,3.4v14H137.5z"/>
						<path class="st9" d="M161.6,209.3c-1.7,0-3.1-0.5-4-1.5c-0.9-1-1.4-2.4-1.4-4.2v-13.4h-2.6c-0.2,0-0.4-0.1-0.6-0.2
							c-0.2-0.1-0.2-0.4-0.2-0.6v-1.5l3.6-0.5l0.9-6.8c0-0.2,0.1-0.4,0.3-0.5c0.2-0.1,0.4-0.2,0.6-0.2h1.9v7.6h6.3v2.8h-6.3v13.2
							c0,0.9,0.2,1.6,0.7,2.1c0.4,0.4,1,0.7,1.7,0.7c0.4,0,0.8-0.1,1-0.2s0.6-0.2,0.8-0.4c0.2-0.1,0.4-0.2,0.6-0.4
							c0.2-0.1,0.3-0.2,0.4-0.2c0.2,0,0.4,0.1,0.5,0.4l1.1,1.8c-0.7,0.6-1.5,1.1-2.4,1.5C163.6,209.1,162.6,209.3,161.6,209.3z"/>
					</g>
				</g>
			</g>
			<g>
				<g>
					<g class="st13">
						<path class="st1" d="M114.8,360.2c-0.3,0-0.6-0.1-0.8-0.4l-5.5-6.5c-0.4-0.4-0.3-1.1,0.1-1.4c0.4-0.4,1.1-0.3,1.4,0.1l4.7,5.6
							l4.7-5.6c0.4-0.4,1-0.5,1.4-0.1c0.4,0.4,0.5,1,0.1,1.4l-5.5,6.5C115.4,360.1,115.1,360.2,114.8,360.2z"/>
						<path class="st1" d="M114.8,358.6c-0.6,0-1-0.4-1-1v-15.5c0-0.6,0.4-1,1-1s1,0.4,1,1v15.5
							C115.8,358.1,115.3,358.6,114.8,358.6z"/>
					</g>
					<path class="st0" d="M114.8,347.9l-13.9-8.3v-16l13.9-8.3l13.9,8.3v16L114.8,347.9z M106.8,336.2l7.9,4.7l7.9-4.7V327l-7.9-4.7
						l-7.9,4.7V336.2z"/>
					<g>
						<path class="st1" d="M114.8,345.5c-0.2,0-0.3,0-0.5-0.1c-0.3-0.2-0.5-0.5-0.5-0.9v-12.6c0-0.4,0.2-0.7,0.5-0.9l10.9-6.5
							c0.3-0.2,0.7-0.2,1,0c0.3,0.2,0.5,0.5,0.5,0.9v12.6c0,0.4-0.2,0.7-0.5,0.9l-10.9,6.5C115.1,345.4,115,345.5,114.8,345.5z
							 M115.8,332.4v10.3l8.9-5.3v-10.3L115.8,332.4z"/>
						<path class="st1" d="M114.8,345.5c-0.2,0-0.4,0-0.5-0.1l-10.9-6.5c-0.3-0.2-0.5-0.5-0.5-0.9v-12.6c0-0.4,0.2-0.7,0.5-0.9
							c0.3-0.2,0.7-0.2,1,0l10.9,6.5c0.3,0.2,0.5,0.5,0.5,0.9v12.6c0,0.4-0.2,0.7-0.5,0.9C115.1,345.4,115,345.5,114.8,345.5z
							 M104.8,337.4l8.9,5.3v-10.3l-8.9-5.3V337.4z"/>
						<path class="st1" d="M114.8,332.9c-0.2,0-0.4,0-0.5-0.1l-10.9-6.5c-0.3-0.2-0.5-0.5-0.5-0.9c0-0.4,0.2-0.7,0.5-0.9l10.9-6.5
							c0.3-0.2,0.7-0.2,1,0l10.9,6.5c0.3,0.2,0.5,0.5,0.5,0.9c0,0.4-0.2,0.7-0.5,0.9l-10.9,6.5C115.1,332.8,115,332.9,114.8,332.9z
							 M105.8,325.3l9,5.4l9-5.4l-9-5.4L105.8,325.3z"/>
					</g>
					<rect x="112.3" y="310.4" class="st0" width="5" height="13.5"/>
					<path class="st75" d="M114.8,325.6c-0.6,0-1-0.4-1-1v-14.2c0-0.6,0.4-1,1-1s1,0.4,1,1v14.2
						C115.8,325.1,115.3,325.6,114.8,325.6z"/>
				</g>
				<g>
					<g class="st13">
						<path class="st1" d="M114.8,1200c-0.3,0-0.6-0.1-0.8-0.4l-5.5-6.5c-0.4-0.4-0.3-1.1,0.1-1.4c0.4-0.4,1.1-0.3,1.4,0.1l4.7,5.6
							l4.7-5.6c0.4-0.4,1-0.5,1.4-0.1c0.4,0.4,0.5,1,0.1,1.4l-5.5,6.5C115.4,1199.9,115.1,1200,114.8,1200z"/>
						<path class="st1" d="M114.8,1198.4c-0.6,0-1-0.4-1-1v-15.5c0-0.6,0.4-1,1-1s1,0.4,1,1v15.5
							C115.8,1197.9,115.3,1198.4,114.8,1198.4z"/>
					</g>
					<path class="st0" d="M114.8,1187.8l-13.9-8.3v-16l13.9-8.3l13.9,8.3v16L114.8,1187.8z M106.8,1176.1l7.9,4.7l7.9-4.7v-9.2
						l-7.9-4.7l-7.9,4.7V1176.1z"/>
					<g>
						<path class="st1" d="M114.8,1185.3c-0.2,0-0.3,0-0.5-0.1c-0.3-0.2-0.5-0.5-0.5-0.9v-12.6c0-0.4,0.2-0.7,0.5-0.9l10.9-6.5
							c0.3-0.2,0.7-0.2,1,0c0.3,0.2,0.5,0.5,0.5,0.9v12.6c0,0.4-0.2,0.7-0.5,0.9l-10.9,6.5C115.1,1185.2,115,1185.3,114.8,1185.3z
							 M115.8,1172.3v10.3l8.9-5.3v-10.3L115.8,1172.3z"/>
						<path class="st1" d="M114.8,1185.3c-0.2,0-0.4,0-0.5-0.1l-10.9-6.5c-0.3-0.2-0.5-0.5-0.5-0.9v-12.6c0-0.4,0.2-0.7,0.5-0.9
							c0.3-0.2,0.7-0.2,1,0l10.9,6.5c0.3,0.2,0.5,0.5,0.5,0.9v12.6c0,0.4-0.2,0.7-0.5,0.9C115.1,1185.2,115,1185.3,114.8,1185.3z
							 M104.8,1177.2l8.9,5.3v-10.3l-8.9-5.3V1177.2z"/>
						<path class="st1" d="M114.8,1172.7c-0.2,0-0.4,0-0.5-0.1l-10.9-6.5c-0.3-0.2-0.5-0.5-0.5-0.9s0.2-0.7,0.5-0.9l10.9-6.5
							c0.3-0.2,0.7-0.2,1,0l10.9,6.5c0.3,0.2,0.5,0.5,0.5,0.9c0,0.4-0.2,0.7-0.5,0.9l-10.9,6.5
							C115.1,1172.6,115,1172.7,114.8,1172.7z M105.8,1165.2l9,5.4l9-5.4l-9-5.4L105.8,1165.2z"/>
					</g>
					<rect x="112.3" y="1150.2" class="st0" width="5" height="13.5"/>
					<path class="st75" d="M114.8,1165.4c-0.6,0-1-0.4-1-1v-14.2c0-0.6,0.4-1,1-1s1,0.4,1,1v14.2
						C115.8,1164.9,115.3,1165.4,114.8,1165.4z"/>
				</g>
				<g>
					<g>
						<path class="st0" d="M115.4,781.4c-1,0-1.9-0.3-2.8-0.8l-23.4-13.9c-1.7-1-2.7-2.8-2.7-4.7v-26.9c0-1.9,1-3.7,2.7-4.7
							l23.4-13.9c1.7-1,3.9-1,5.6,0l23.4,13.9c1.7,1,2.7,2.8,2.7,4.7l0,26.9c0,1.9-1,3.7-2.7,4.7l-23.4,13.9
							C117.4,781.1,116.4,781.4,115.4,781.4z M97.6,758.9l17.9,10.6l17.9-10.6l0-20.7l-17.9-10.7l-17.9,10.7V758.9z"/>
					</g>
					<g class="st13">
						<path class="st1" d="M117.8,857L117.8,857c-0.4,0-0.9-0.2-1.2-0.5l-4.4-5.3c-0.5-0.6-0.4-1.6,0.2-2.1c0.6-0.5,1.6-0.4,2.1,0.2
							l3.2,3.9l3.3-3.9c0.5-0.6,1.5-0.7,2.1-0.2c0.6,0.5,0.7,1.5,0.2,2.1l-4.4,5.3C118.7,856.8,118.3,857,117.8,857z"/>
						<g>
							<path class="st1" d="M117.8,857c-0.8,0-1.5-0.7-1.5-1.5l0-1.5c0-0.8,0.7-1.5,1.5-1.5c0,0,0,0,0,0c0.8,0,1.5,0.7,1.5,1.5
								l0,1.5C119.3,856.3,118.7,857,117.8,857C117.8,857,117.8,857,117.8,857z"/>
							<path class="st1" d="M117.7,851.6c-0.8,0-1.5-0.7-1.5-1.5l0-2.9c0-0.8,0.7-1.5,1.5-1.5c0,0,0,0,0,0c0.8,0,1.5,0.7,1.5,1.5
								l0,2.9C119.3,850.9,118.6,851.6,117.7,851.6C117.8,851.6,117.7,851.6,117.7,851.6z M117.7,844.7c-0.8,0-1.5-0.7-1.5-1.5
								l0-2.9c0-0.8,0.7-1.5,1.5-1.5c0.8,0,1.5,0.7,1.5,1.5l0,2.9C119.2,844,118.5,844.7,117.7,844.7
								C117.7,844.7,117.7,844.7,117.7,844.7z"/>
							<path class="st1" d="M117.6,837.8c-0.8,0-1.5-0.7-1.5-1.5l0-0.2l-0.2,0c-0.8-0.1-1.4-0.9-1.3-1.7c0.1-0.8,0.9-1.4,1.7-1.3
								l1.5,0.2c0.7,0.1,1.3,0.7,1.3,1.5l0,1.5C119.1,837.2,118.4,837.8,117.6,837.8C117.6,837.8,117.6,837.8,117.6,837.8z"/>
							<path class="st1" d="M113.4,835.8c-0.1,0-0.1,0-0.2,0l-2-0.3c-0.8-0.1-1.4-0.9-1.3-1.7c0.1-0.8,0.9-1.4,1.7-1.3l2,0.3
								c0.8,0.1,1.4,0.9,1.3,1.7C114.8,835.2,114.1,835.8,113.4,835.8z"/>
							<path class="st1" d="M108.8,835.1c-0.1,0-0.1,0-0.2,0l-1.5-0.2c-0.6-0.1-1-0.5-1.2-1c-0.2-0.5-0.1-1.1,0.3-1.5l1-1.1
								c0.6-0.6,1.5-0.6,2.1,0c0.4,0.3,0.5,0.8,0.4,1.3c0.3,0.3,0.5,0.8,0.4,1.3C110.2,834.6,109.5,835.1,108.8,835.1z"/>
							<path class="st1" d="M110.9,831.1c-0.4,0-0.7-0.1-1-0.4c-0.6-0.6-0.6-1.5,0-2.1l1.9-2c0.6-0.6,1.5-0.6,2.1,0
								c0.6,0.6,0.6,1.5,0,2.1l-1.9,2C111.7,830.9,111.3,831.1,110.9,831.1z M115.5,826.4c-0.4,0-0.7-0.1-1-0.4
								c-0.6-0.6-0.6-1.5,0-2.1l1.9-2c0.6-0.6,1.5-0.6,2.1,0c0.6,0.6,0.6,1.5,0,2.1l-1.9,2C116.2,826.2,115.8,826.4,115.5,826.4z
								 M120,821.6c-0.4,0-0.7-0.1-1-0.4c-0.6-0.6-0.6-1.5,0-2.1l1.9-2c0.6-0.6,1.5-0.6,2.1,0c0.6,0.6,0.6,1.5,0,2.1l-1.9,2
								C120.8,821.5,120.4,821.6,120,821.6z M124.5,816.9c-0.4,0-0.7-0.1-1-0.4c-0.6-0.6-0.6-1.5,0-2.1l1.9-2c0.6-0.6,1.5-0.6,2.1,0
								c0.6,0.6,0.6,1.5,0,2.1l-1.9,2C125.3,816.7,124.9,816.9,124.5,816.9z M129.1,812.2c-0.4,0-0.7-0.1-1-0.4
								c-0.6-0.6-0.6-1.5,0-2.1l1.9-2c0.6-0.6,1.5-0.6,2.1,0c0.6,0.6,0.6,1.5,0,2.1l-1.9,2C129.8,812,129.5,812.2,129.1,812.2z
								 M133.6,807.4c-0.4,0-0.7-0.1-1-0.4c-0.6-0.6-0.6-1.5,0-2.1l1.9-2c0.6-0.6,1.5-0.6,2.1,0c0.6,0.6,0.6,1.5,0,2.1l-1.9,2
								C134.4,807.3,134,807.4,133.6,807.4z M138.1,802.7c-0.4,0-0.7-0.1-1-0.4c-0.6-0.6-0.6-1.5,0-2.1l1.9-2c0.6-0.6,1.5-0.6,2.1,0
								c0.6,0.6,0.6,1.5,0,2.1l-1.9,2C138.9,802.5,138.5,802.7,138.1,802.7z"/>
							<path class="st1" d="M142.7,798c-0.4,0-0.7-0.1-1-0.4c-0.3-0.3-0.5-0.7-0.5-1.1c-0.3-0.3-0.5-0.7-0.5-1.1
								c0-0.8,0.7-1.5,1.5-1.5h1.5c0.6,0,1.1,0.4,1.4,0.9c0.2,0.6,0.1,1.2-0.3,1.6l-1,1.1C143.4,797.8,143.1,798,142.7,798z"/>
							<path class="st1" d="M138.1,796.9h-3c-0.8,0-1.5-0.7-1.5-1.5s0.7-1.5,1.5-1.5h3c0.8,0,1.5,0.7,1.5,1.5S139,796.9,138.1,796.9
								z M131,796.9H128c-0.8,0-1.5-0.7-1.5-1.5s0.7-1.5,1.5-1.5h3.1c0.8,0,1.5,0.7,1.5,1.5S131.8,796.9,131,796.9z M123.9,796.9
								h-3.1c-0.8,0-1.5-0.7-1.5-1.5s0.7-1.5,1.5-1.5h3.1c0.8,0,1.5,0.7,1.5,1.5S124.7,796.9,123.9,796.9z M116.8,796.9h-3.1
								c-0.8,0-1.5-0.7-1.5-1.5s0.7-1.5,1.5-1.5h3.1c0.8,0,1.5,0.7,1.5,1.5S117.6,796.9,116.8,796.9z M109.7,796.9h-3.1
								c-0.8,0-1.5-0.7-1.5-1.5s0.7-1.5,1.5-1.5h3.1c0.8,0,1.5,0.7,1.5,1.5S110.5,796.9,109.7,796.9z M102.5,796.9h-3
								c-0.8,0-1.5-0.7-1.5-1.5s0.7-1.5,1.5-1.5h3c0.8,0,1.5,0.7,1.5,1.5S103.4,796.9,102.5,796.9z"/>
							<path class="st1" d="M95.2,797.7c-0.3,0-0.6-0.1-0.8-0.2l-1.3-0.8c-0.6-0.4-0.8-1-0.6-1.7c0.2-0.6,0.8-1.1,1.4-1.1h1.5
								c0.8,0,1.5,0.7,1.5,1.5c0,0.3-0.1,0.6-0.2,0.8c0,0.3-0.1,0.6-0.2,0.8C96.1,797.5,95.7,797.7,95.2,797.7z"/>
							<path class="st1" d="M111.2,808.2c-0.3,0-0.6-0.1-0.8-0.2l-2.3-1.5c-0.7-0.5-0.9-1.4-0.4-2.1c0.5-0.7,1.4-0.9,2.1-0.4
								l2.3,1.5c0.7,0.5,0.9,1.4,0.4,2.1C112.1,808,111.7,808.2,111.2,808.2z M105.8,804.7c-0.3,0-0.6-0.1-0.8-0.2l-2.3-1.5
								c-0.7-0.5-0.9-1.4-0.4-2.1c0.5-0.7,1.4-0.9,2.1-0.4l2.3,1.5c0.7,0.5,0.9,1.4,0.4,2.1C106.8,804.5,106.3,804.7,105.8,804.7z
								 M100.5,801.2c-0.3,0-0.6-0.1-0.8-0.2l-2.3-1.5c-0.7-0.5-0.9-1.4-0.4-2.1c0.5-0.7,1.4-0.9,2.1-0.4l2.3,1.5
								c0.7,0.5,0.9,1.4,0.4,2.1C101.5,801,101,801.2,100.5,801.2z"/>
							<path class="st1" d="M115.5,811c-0.3,0-0.6-0.1-0.8-0.2l-1.3-0.8c-0.7-0.5-0.9-1.4-0.4-2.1c0.3-0.4,0.8-0.7,1.3-0.7
								c0.3-0.4,0.7-0.7,1.3-0.7c0.8,0,1.5,0.7,1.5,1.5v1.5c0,0.6-0.3,1.1-0.8,1.3C116,811,115.7,811,115.5,811z"/>
							<path class="st1" d="M115.5,805.4c-0.8,0-1.5-0.7-1.5-1.5v-3.1c0-0.8,0.7-1.5,1.5-1.5s1.5,0.7,1.5,1.5v3.1
								C117,804.7,116.3,805.4,115.5,805.4z M115.5,798.1c-0.8,0-1.5-0.7-1.5-1.5v-3.1c0-0.8,0.7-1.5,1.5-1.5s1.5,0.7,1.5,1.5v3.1
								C117,797.5,116.3,798.1,115.5,798.1z M115.5,790.9c-0.8,0-1.5-0.7-1.5-1.5v-3.1c0-0.8,0.7-1.5,1.5-1.5s1.5,0.7,1.5,1.5v3.1
								C117,790.2,116.3,790.9,115.5,790.9z M115.5,783.7c-0.8,0-1.5-0.7-1.5-1.5v-3.1c0-0.8,0.7-1.5,1.5-1.5s1.5,0.7,1.5,1.5v3.1
								C117,783,116.3,783.7,115.5,783.7z"/>
							<path class="st1" d="M115.5,776.4c-0.8,0-1.5-0.7-1.5-1.5v-1.5c0-0.8,0.7-1.5,1.5-1.5s1.5,0.7,1.5,1.5v1.5
								C117,775.8,116.3,776.4,115.5,776.4z"/>
						</g>
					</g>
					<g>
						<path class="st0" d="M115.5,780.9c-0.9,0-1.7-0.2-2.5-0.7c-1.6-0.9-2.5-2.5-2.5-4.3V749c0-1.8,0.9-3.4,2.4-4.3l23.4-13.9
							c1.5-0.9,3.5-0.9,5-0.1c1.6,0.9,2.5,2.5,2.5,4.3V762c0,1.8-0.9,3.4-2.4,4.3L118,780.2C117.2,780.7,116.3,780.9,115.5,780.9z
							 M120.5,751.8v15.3l13.4-8v-15.3L120.5,751.8z"/>
						<path class="st0" d="M115.4,780.9c-0.9,0-1.8-0.2-2.6-0.7l-23.4-13.9c-1.5-0.9-2.4-2.5-2.4-4.3v-26.9c0-1.8,1-3.5,2.5-4.3
							c1.6-0.9,3.5-0.9,5,0.1l23.4,13.9c1.5,0.9,2.4,2.5,2.4,4.3v26.9c0,1.8-1,3.5-2.5,4.3C117.2,780.7,116.3,780.9,115.4,780.9z
							 M97.1,759.1l13.4,8v-15.3l-13.4-8V759.1z"/>
						<path class="st0" d="M115.4,754c-0.9,0-1.8-0.2-2.6-0.7l-23.4-13.9c-1.5-0.9-2.4-2.5-2.4-4.3c0-1.8,0.9-3.4,2.4-4.3l23.4-13.9
							c1.6-0.9,3.5-0.9,5.1,0l23.4,13.9c1.5,0.9,2.4,2.5,2.4,4.3c0,1.8-0.9,3.4-2.4,4.3L118,753.3C117.2,753.8,116.3,754,115.4,754z
							 M101.8,735.1l13.6,8.1l13.6-8.1l-13.6-8.1L101.8,735.1z"/>
					</g>
					<g>
						<path class="st1" d="M115.5,777.4c-0.3,0-0.5-0.1-0.7-0.2c-0.5-0.3-0.8-0.8-0.8-1.3V749c0-0.5,0.3-1,0.7-1.3l23.4-13.9
							c0.5-0.3,1-0.3,1.5,0c0.5,0.3,0.8,0.8,0.8,1.3V762c0,0.5-0.3,1-0.7,1.3l-23.4,13.9C116,777.3,115.7,777.4,115.5,777.4z
							 M117,749.8v23.4l20.4-12.2v-23.4L117,749.8z"/>
						<path class="st1" d="M115.4,777.4c-0.3,0-0.5-0.1-0.8-0.2l-23.4-13.9c-0.5-0.3-0.7-0.8-0.7-1.3v-26.9c0-0.5,0.3-1,0.8-1.3
							c0.5-0.3,1-0.3,1.5,0l23.4,13.9c0.5,0.3,0.7,0.8,0.7,1.3v26.9c0,0.5-0.3,1-0.8,1.3C116,777.4,115.7,777.4,115.4,777.4z
							 M93.6,761.1l20.4,12.2v-23.4l-20.4-12.2V761.1z"/>
						<path class="st1" d="M115.4,750.5c-0.3,0-0.5-0.1-0.8-0.2l-23.4-13.9c-0.5-0.3-0.7-0.8-0.7-1.3s0.3-1,0.7-1.3l23.4-13.9
							c0.5-0.3,1.1-0.3,1.5,0l23.4,13.9c0.5,0.3,0.7,0.8,0.7,1.3s-0.3,1-0.7,1.3l-23.4,13.9C116,750.4,115.7,750.5,115.4,750.5z
							 M95,735.1l20.5,12.2l20.5-12.2l-20.5-12.2L95,735.1z"/>
					</g>
					<rect x="110.5" y="716.4" class="st0" width="10" height="13.8"/>
					<g class="st13">
						<path class="st1" d="M115.8,735.4c-0.8,0-1.5-0.7-1.5-1.5v-1.5c0-0.8,0.7-1.5,1.5-1.5s1.5,0.7,1.5,1.5v1.5
							C117.3,734.7,116.7,735.4,115.8,735.4z"/>
						<path class="st1" d="M115.8,729.7c-0.8,0-1.5-0.7-1.5-1.5v-3.1c0-0.8,0.7-1.5,1.5-1.5s1.5,0.7,1.5,1.5v3.1
							C117.3,729.1,116.7,729.7,115.8,729.7z M115.8,722.5c-0.8,0-1.5-0.7-1.5-1.5v-3.1c0-0.8,0.7-1.5,1.5-1.5s1.5,0.7,1.5,1.5v3.1
							C117.3,721.8,116.7,722.5,115.8,722.5z"/>
						<path class="st1" d="M115.8,715.2c-0.8,0-1.5-0.7-1.5-1.5v-1.5c0-0.6,0.3-1.1,0.8-1.3l1.3-0.7c0.7-0.4,1.6-0.1,2,0.7
							s0.1,1.6-0.7,2l-0.5,0.3v0.6C117.3,714.6,116.7,715.2,115.8,715.2z"/>
						<path class="st1" d="M119,712.2c-0.6,0-1.1-0.3-1.3-0.8c-0.4-0.7-0.1-1.6,0.7-2l1.4-0.7c0.7-0.4,1.6-0.1,2,0.7
							c0.4,0.7,0.1,1.6-0.7,2l-1.4,0.7C119.5,712.1,119.3,712.2,119,712.2z"/>
						<path class="st1" d="M122.3,710.6c-0.6,0-1.1-0.3-1.3-0.8c-0.2-0.5-0.2-1,0-1.4c-0.2-0.4-0.2-0.9,0-1.4c0.4-0.7,1.3-1,2-0.6
							l1.3,0.7c0.5,0.3,0.8,0.8,0.8,1.3s-0.3,1.1-0.8,1.3l-1.3,0.7C122.7,710.5,122.5,710.6,122.3,710.6z"/>
						<path class="st1" d="M118.9,707.3c-0.2,0-0.5-0.1-0.7-0.2l-2.5-1.4c-0.7-0.4-1-1.3-0.6-2c0.4-0.7,1.3-1,2-0.6l2.5,1.4
							c0.7,0.4,1,1.3,0.6,2C119.9,707,119.4,707.3,118.9,707.3z M112.9,704.1c-0.2,0-0.5-0.1-0.7-0.2l-2.5-1.4c-0.7-0.4-1-1.3-0.6-2
							c0.4-0.7,1.3-1,2-0.6l2.5,1.4c0.7,0.4,1,1.3,0.6,2C114,703.8,113.5,704.1,112.9,704.1z M107,700.8c-0.2,0-0.5-0.1-0.7-0.2
							l-2.5-1.4c-0.7-0.4-1-1.3-0.6-2c0.4-0.7,1.3-1,2-0.6l2.5,1.4c0.7,0.4,1,1.3,0.6,2C108,700.5,107.5,700.8,107,700.8z
							 M101,697.6c-0.2,0-0.5-0.1-0.7-0.2l-2.5-1.4c-0.7-0.4-1-1.3-0.6-2c0.4-0.7,1.3-1,2-0.6l2.5,1.4c0.7,0.4,1,1.3,0.6,2
							C102.1,697.3,101.6,697.6,101,697.6z"/>
						<path class="st1" d="M95.1,694.3c-0.2,0-0.5-0.1-0.7-0.2l-1.3-0.7c-0.6-0.3-0.9-1-0.7-1.7c0.2-0.7,0.7-1.1,1.4-1.1l1.5,0
							c0,0,0,0,0,0c0.8,0,1.5,0.7,1.5,1.5c0,0.3-0.1,0.5-0.2,0.8c0,0.3-0.1,0.5-0.2,0.7C96.1,694,95.6,694.3,95.1,694.3z"/>
						<path class="st1" d="M99.4,693.5c-0.8,0-1.5-0.7-1.5-1.5c0-0.8,0.6-1.5,1.5-1.5l3.1-0.1c0.8,0,1.5,0.6,1.5,1.5
							c0,0.8-0.6,1.5-1.5,1.5L99.4,693.5C99.4,693.5,99.4,693.5,99.4,693.5z M106.7,693.3c-0.8,0-1.5-0.7-1.5-1.5
							c0-0.8,0.6-1.5,1.5-1.5l3.1-0.1c0.8,0,1.5,0.6,1.5,1.5c0,0.8-0.6,1.5-1.5,1.5L106.7,693.3
							C106.7,693.3,106.7,693.3,106.7,693.3z M113.9,693.2c-0.8,0-1.5-0.7-1.5-1.5c0-0.8,0.6-1.5,1.5-1.5l3.1-0.1c0,0,0,0,0,0
							c0.8,0,1.5,0.7,1.5,1.5c0,0.8-0.6,1.5-1.5,1.5L113.9,693.2C113.9,693.2,113.9,693.2,113.9,693.2z M121.1,693
							c-0.8,0-1.5-0.7-1.5-1.5c0-0.8,0.6-1.5,1.5-1.5l3.1-0.1c0.8,0,1.5,0.6,1.5,1.5c0,0.8-0.6,1.5-1.5,1.5L121.1,693
							C121.2,693,121.2,693,121.1,693z M128.4,692.9c-0.8,0-1.5-0.7-1.5-1.5c0-0.8,0.6-1.5,1.5-1.5l3.1-0.1c0.8,0,1.5,0.6,1.5,1.5
							c0,0.8-0.6,1.5-1.5,1.5L128.4,692.9C128.4,692.9,128.4,692.9,128.4,692.9z"/>
						<path class="st1" d="M135.6,692.7c-0.8,0-1.5-0.7-1.5-1.5c0-0.4,0.1-0.7,0.3-1c0-0.3,0.1-0.7,0.3-1c0.5-0.7,1.5-0.8,2.1-0.3
							l1.2,0.9c0.5,0.4,0.7,1.1,0.5,1.7s-0.8,1-1.4,1L135.6,692.7C135.6,692.7,135.6,692.7,135.6,692.7z"/>
						<path class="st1" d="M133.1,689.5c-0.3,0-0.6-0.1-0.9-0.3l-2.2-1.7c-0.7-0.5-0.8-1.5-0.3-2.1c0.5-0.7,1.5-0.8,2.1-0.3l2.2,1.7
							c0.7,0.5,0.8,1.5,0.3,2.1C133.9,689.3,133.5,689.5,133.1,689.5z M128,685.6c-0.3,0-0.6-0.1-0.9-0.3l-2.2-1.7
							c-0.7-0.5-0.8-1.5-0.3-2.1c0.5-0.7,1.5-0.8,2.1-0.3l2.2,1.7c0.7,0.5,0.8,1.5,0.3,2.1C128.9,685.4,128.5,685.6,128,685.6z
							 M123,681.7c-0.3,0-0.6-0.1-0.9-0.3l-2.2-1.7c-0.7-0.5-0.8-1.5-0.3-2.1c0.5-0.7,1.5-0.8,2.1-0.3l2.2,1.7
							c0.7,0.5,0.8,1.5,0.3,2.1C123.9,681.5,123.4,681.7,123,681.7z"/>
						<path class="st1" d="M117.9,677.7c-0.3,0-0.6-0.1-0.9-0.3l-1.2-0.9c-0.4-0.3-0.6-0.7-0.6-1.2v-1.5c0-0.8,0.7-1.5,1.5-1.5
							s1.5,0.7,1.5,1.5v0.8l0.6,0.5c0.7,0.5,0.8,1.5,0.3,2.1C118.8,677.5,118.4,677.7,117.9,677.7z"/>
						<path class="st1" d="M116.7,670.5c-0.8,0-1.5-0.7-1.5-1.5v-3.6c0-0.8,0.7-1.5,1.5-1.5s1.5,0.7,1.5,1.5v3.6
							C118.2,669.8,117.6,670.5,116.7,670.5z"/>
						<path class="st1" d="M116.7,662c-0.8,0-1.5-0.7-1.5-1.5V659c0-0.8,0.7-1.5,1.5-1.5s1.5,0.7,1.5,1.5v1.5
							C118.2,661.3,117.6,662,116.7,662z"/>
					</g>
				</g>
			</g>
			<g>
				<path class="st1" d="M272,1334.5v2.9h-6.8v4.2h5.6v2.9h-5.6v6.4h-3.8v-16.5H272z"/>
				<path class="st1" d="M278,1336.1c0,0.3-0.1,0.5-0.2,0.8c-0.1,0.2-0.3,0.5-0.5,0.6c-0.2,0.2-0.4,0.3-0.7,0.4
					c-0.3,0.1-0.5,0.2-0.8,0.2c-0.3,0-0.6-0.1-0.8-0.2c-0.2-0.1-0.5-0.3-0.7-0.4c-0.2-0.2-0.3-0.4-0.5-0.6c-0.1-0.2-0.2-0.5-0.2-0.8
					c0-0.3,0.1-0.6,0.2-0.8s0.3-0.5,0.5-0.7c0.2-0.2,0.4-0.3,0.7-0.4c0.2-0.1,0.5-0.2,0.8-0.2c0.3,0,0.6,0.1,0.8,0.2
					s0.5,0.3,0.7,0.4c0.2,0.2,0.3,0.4,0.5,0.7S278,1335.8,278,1336.1z M277.6,1339.3v11.7h-3.5v-11.7H277.6z"/>
				<path class="st1" d="M280.5,1351v-11.7h2.2c0.2,0,0.4,0,0.5,0.1c0.1,0.1,0.3,0.2,0.3,0.4l0.2,0.7c0.2-0.2,0.5-0.4,0.7-0.6
					c0.2-0.2,0.5-0.3,0.8-0.5s0.6-0.2,0.9-0.3c0.3-0.1,0.7-0.1,1-0.1c0.6,0,1.2,0.1,1.7,0.3s0.9,0.5,1.2,0.9
					c0.3,0.4,0.6,0.9,0.8,1.4c0.2,0.5,0.3,1.1,0.3,1.8v7.4h-3.5v-7.4c0-0.6-0.1-1-0.4-1.3c-0.3-0.3-0.7-0.5-1.2-0.5
					c-0.4,0-0.7,0.1-1.1,0.2c-0.3,0.2-0.7,0.4-1,0.7v8.4H280.5z"/>
				<path class="st1" d="M301.7,1351c-0.3,0-0.6,0-0.8-0.1s-0.3-0.3-0.4-0.6l-0.2-0.6c-0.3,0.2-0.6,0.5-0.8,0.7
					c-0.3,0.2-0.6,0.3-0.8,0.5c-0.3,0.1-0.6,0.2-0.9,0.3c-0.3,0.1-0.7,0.1-1.1,0.1c-0.5,0-1-0.1-1.5-0.2c-0.4-0.1-0.8-0.3-1.1-0.6
					c-0.3-0.3-0.5-0.6-0.7-1s-0.2-0.9-0.2-1.4c0-0.4,0.1-0.8,0.3-1.3c0.2-0.4,0.6-0.8,1.1-1.2s1.2-0.7,2.1-0.9
					c0.9-0.2,2-0.4,3.3-0.4v-0.5c0-0.7-0.1-1.2-0.4-1.5c-0.3-0.3-0.7-0.5-1.2-0.5c-0.4,0-0.8,0-1,0.1c-0.3,0.1-0.5,0.2-0.7,0.3
					c-0.2,0.1-0.4,0.2-0.6,0.3c-0.2,0.1-0.4,0.1-0.7,0.1c-0.2,0-0.4-0.1-0.6-0.2c-0.2-0.1-0.3-0.3-0.4-0.4l-0.6-1.1
					c0.7-0.6,1.5-1.1,2.4-1.4c0.9-0.3,1.8-0.5,2.8-0.5c0.7,0,1.3,0.1,1.9,0.3c0.6,0.2,1.1,0.5,1.4,1s0.7,0.9,0.9,1.5
					s0.3,1.2,0.3,1.9v7.3H301.7z M297.6,1348.9c0.5,0,0.8-0.1,1.2-0.2s0.7-0.4,1-0.8v-1.6c-0.7,0-1.3,0-1.7,0.1
					c-0.5,0.1-0.8,0.2-1.1,0.3c-0.3,0.1-0.4,0.3-0.5,0.5c-0.1,0.2-0.2,0.4-0.2,0.6c0,0.4,0.1,0.7,0.3,0.8
					C296.9,1348.8,297.2,1348.9,297.6,1348.9z"/>
				<path class="st1" d="M309.4,1334.1v16.9h-3.5v-16.9H309.4z"/>
				<path class="st1" d="M315.8,1334.1v16.9h-3.5v-16.9H315.8z"/>
				<path class="st1" d="M323.4,1354c-0.1,0.2-0.2,0.4-0.4,0.5c-0.2,0.1-0.4,0.2-0.7,0.2h-2.6l2.3-4.7l-4.7-10.7h3.1
					c0.3,0,0.5,0.1,0.6,0.2c0.2,0.1,0.3,0.3,0.3,0.4l1.9,5.1c0.2,0.5,0.3,0.9,0.4,1.4c0.1-0.2,0.2-0.5,0.2-0.7
					c0.1-0.2,0.2-0.5,0.3-0.7l1.7-5c0.1-0.2,0.2-0.3,0.4-0.4c0.2-0.1,0.4-0.2,0.6-0.2h2.8L323.4,1354z"/>
				<path class="st1" d="M267.6,1372.3v6.1h-3.8V1362h5.4c1.2,0,2.2,0.1,3,0.4c0.8,0.2,1.5,0.6,2.1,1c0.5,0.4,0.9,1,1.2,1.5
					c0.2,0.6,0.4,1.2,0.4,1.9c0,0.5-0.1,1-0.2,1.5s-0.4,0.9-0.6,1.3c-0.3,0.4-0.6,0.8-1,1.1c-0.4,0.3-0.9,0.6-1.4,0.8
					c0.3,0.1,0.5,0.3,0.7,0.5s0.4,0.4,0.6,0.7l3.5,5.7h-3.5c-0.6,0-1.1-0.2-1.4-0.7l-2.7-4.8c-0.1-0.2-0.3-0.4-0.4-0.5
					s-0.4-0.1-0.7-0.1H267.6z M267.6,1369.7h1.5c0.5,0,1-0.1,1.3-0.2s0.7-0.3,0.9-0.5c0.2-0.2,0.4-0.5,0.5-0.8
					c0.1-0.3,0.2-0.6,0.2-1c0-0.7-0.2-1.3-0.7-1.7c-0.5-0.4-1.2-0.6-2.2-0.6h-1.5V1369.7z"/>
				<path class="st1" d="M283.8,1366.5c0.8,0,1.5,0.1,2.1,0.4s1.2,0.6,1.7,1.1c0.5,0.5,0.8,1,1.1,1.7c0.3,0.7,0.4,1.4,0.4,2.3
					c0,0.3,0,0.5,0,0.6c0,0.2-0.1,0.3-0.1,0.4c-0.1,0.1-0.1,0.2-0.2,0.2c-0.1,0-0.2,0.1-0.4,0.1h-6.8c0.1,1,0.4,1.7,0.9,2.1
					c0.5,0.4,1.1,0.7,1.9,0.7c0.4,0,0.8,0,1.1-0.1c0.3-0.1,0.6-0.2,0.8-0.3c0.2-0.1,0.4-0.2,0.6-0.3c0.2-0.1,0.4-0.1,0.6-0.1
					c0.3,0,0.5,0.1,0.6,0.3l1,1.3c-0.4,0.4-0.8,0.8-1.2,1s-0.8,0.5-1.3,0.6c-0.4,0.1-0.9,0.2-1.3,0.3c-0.4,0.1-0.9,0.1-1.3,0.1
					c-0.8,0-1.6-0.1-2.3-0.4c-0.7-0.3-1.3-0.7-1.9-1.2s-1-1.2-1.3-2c-0.3-0.8-0.5-1.7-0.5-2.7c0-0.8,0.1-1.5,0.4-2.2
					c0.3-0.7,0.7-1.3,1.2-1.8s1.1-0.9,1.8-1.3C282.1,1366.7,282.9,1366.5,283.8,1366.5z M283.8,1369c-0.7,0-1.2,0.2-1.6,0.6
					c-0.4,0.4-0.6,0.9-0.7,1.6h4.4c0-0.3,0-0.5-0.1-0.8c-0.1-0.3-0.2-0.5-0.4-0.7c-0.2-0.2-0.4-0.4-0.6-0.5
					C284.5,1369,284.2,1369,283.8,1369z"/>
				<path class="st1" d="M299.1,1378.4c-0.3,0-0.6,0-0.8-0.1c-0.2-0.1-0.3-0.3-0.4-0.6l-0.2-0.6c-0.3,0.2-0.6,0.5-0.8,0.7
					c-0.3,0.2-0.6,0.3-0.8,0.5s-0.6,0.2-0.9,0.3c-0.3,0.1-0.7,0.1-1.1,0.1c-0.5,0-1-0.1-1.5-0.2c-0.4-0.1-0.8-0.3-1.1-0.6
					c-0.3-0.3-0.5-0.6-0.7-1c-0.2-0.4-0.2-0.9-0.2-1.4c0-0.4,0.1-0.8,0.3-1.3c0.2-0.4,0.6-0.8,1.1-1.2c0.5-0.4,1.2-0.7,2.1-0.9
					c0.9-0.2,2-0.4,3.3-0.4v-0.5c0-0.7-0.1-1.2-0.4-1.5c-0.3-0.3-0.7-0.5-1.2-0.5c-0.4,0-0.8,0-1,0.1c-0.3,0.1-0.5,0.2-0.7,0.3
					c-0.2,0.1-0.4,0.2-0.6,0.3c-0.2,0.1-0.4,0.1-0.7,0.1c-0.2,0-0.4-0.1-0.6-0.2c-0.2-0.1-0.3-0.3-0.4-0.4l-0.6-1.1
					c0.7-0.6,1.5-1.1,2.4-1.4s1.8-0.5,2.8-0.5c0.7,0,1.3,0.1,1.9,0.3s1.1,0.5,1.4,1c0.4,0.4,0.7,0.9,0.9,1.5s0.3,1.2,0.3,1.9v7.3
					H299.1z M295.1,1376.3c0.5,0,0.8-0.1,1.2-0.2c0.3-0.2,0.7-0.4,1-0.8v-1.6c-0.7,0-1.3,0-1.7,0.1c-0.5,0.1-0.8,0.2-1.1,0.3
					c-0.3,0.1-0.4,0.3-0.5,0.5s-0.2,0.4-0.2,0.6c0,0.4,0.1,0.7,0.3,0.8C294.4,1376.2,294.7,1376.3,295.1,1376.3z"/>
				<path class="st1" d="M311.5,1378.4c-0.2,0-0.4,0-0.5-0.1c-0.1-0.1-0.2-0.2-0.3-0.4l-0.3-0.9c-0.2,0.2-0.5,0.5-0.7,0.7
					c-0.3,0.2-0.5,0.4-0.8,0.5c-0.3,0.1-0.6,0.3-1,0.3c-0.3,0.1-0.7,0.1-1.1,0.1c-0.6,0-1.2-0.1-1.7-0.4c-0.5-0.3-1-0.7-1.3-1.2
					c-0.4-0.5-0.7-1.1-0.9-1.9c-0.2-0.7-0.3-1.6-0.3-2.5c0-0.9,0.1-1.7,0.4-2.4c0.2-0.7,0.6-1.4,1-1.9c0.4-0.5,1-1,1.6-1.3
					c0.6-0.3,1.3-0.5,2-0.5c0.6,0,1.1,0.1,1.5,0.3c0.4,0.2,0.8,0.4,1.1,0.7v-5.9h3.5v16.9H311.5z M307.9,1375.9c0.3,0,0.5,0,0.7-0.1
					c0.2,0,0.4-0.1,0.6-0.2c0.2-0.1,0.3-0.2,0.5-0.3c0.2-0.1,0.3-0.3,0.5-0.5v-5c-0.3-0.3-0.6-0.5-0.9-0.6c-0.3-0.1-0.6-0.2-1-0.2
					c-0.3,0-0.6,0.1-0.9,0.2c-0.3,0.1-0.5,0.3-0.7,0.6c-0.2,0.3-0.4,0.6-0.5,1.1c-0.1,0.5-0.2,1-0.2,1.6c0,0.6,0,1.1,0.1,1.6
					s0.2,0.8,0.4,1c0.2,0.3,0.4,0.4,0.6,0.6C307.4,1375.9,307.6,1375.9,307.9,1375.9z"/>
				<path class="st1" d="M321.1,1381.5c-0.1,0.2-0.2,0.4-0.4,0.5c-0.2,0.1-0.4,0.2-0.7,0.2h-2.6l2.3-4.7l-4.7-10.7h3.1
					c0.3,0,0.5,0.1,0.6,0.2s0.3,0.3,0.3,0.4l1.9,5.1c0.2,0.5,0.3,0.9,0.4,1.4c0.1-0.2,0.2-0.5,0.2-0.7c0.1-0.2,0.2-0.5,0.3-0.7
					l1.7-5c0.1-0.2,0.2-0.3,0.4-0.4c0.2-0.1,0.4-0.2,0.6-0.2h2.8L321.1,1381.5z"/>
			</g>
			<g>
				<path class="st1" d="M295.4,1318.4c-13.5,0-24.4-10.9-24.4-24.4s10.9-24.4,24.4-24.4c13.5,0,24.4,10.9,24.4,24.4
					S308.9,1318.4,295.4,1318.4z M295.4,1270.6c-12.9,0-23.4,10.5-23.4,23.4s10.5,23.4,23.4,23.4s23.4-10.5,23.4-23.4
					S308.3,1270.6,295.4,1270.6z"/>
				<path class="st1" d="M286.1,1304.4c-0.3,0-0.6-0.1-0.9-0.4c-0.5-0.5-0.5-1.3,0-1.8c2.6-2.6,6.3-4,10.2-4c3.9,0,7.6,1.5,10.2,4
					c0.5,0.5,0.5,1.3,0,1.8c-0.5,0.5-1.3,0.5-1.8,0c-2.1-2.1-5.2-3.3-8.4-3.3c-3.2,0-6.3,1.2-8.4,3.3
					C286.7,1304.3,286.4,1304.4,286.1,1304.4z"/>
				<g>
					<circle class="st1" cx="288" cy="1287.3" r="3.2"/>
					<circle class="st1" cx="302.9" cy="1287.3" r="3.2"/>
				</g>
			</g>
		</g>
	</g>
</g>
<g id="guides" class="st76">
</g>
</svg>
