<?xml version="1.0" encoding="utf-8"?>
<!-- Generator: Adobe Illustrator 19.1.0, SVG Export Plug-In . SVG Version: 6.00 Build 0)  -->
<svg version="1.1" id="Layer_1" xmlns="http://www.w3.org/2000/svg" xmlns:xlink="http://www.w3.org/1999/xlink" x="0px" y="0px"
	 viewBox="0 0 32 32" style="enable-background:new 0 0 32 32;" xml:space="preserve">
<style type="text/css">
	.st0{fill:#EFB49A;}
</style>
<path class="st0" d="M16,0C7.2,0,0,7.2,0,16s7.2,16,16,16c8.8,0,16-7.2,16-16S24.8,0,16,0z M4.7,13.8c0-0.6,0.5-1.1,1.1-1.1h6
	c0.6,0,1.1,0.5,1.1,1.1s-0.5,1.1-1.1,1.1h-6C5.2,14.9,4.7,14.4,4.7,13.8z M24.2,22.9H8c-0.6,0-1.1-0.5-1.1-1.1
	c0-0.6,0.5-1.1,1.1-1.1h16.2c0.6,0,1.1,0.5,1.1,1.1C25.3,22.4,24.8,22.9,24.2,22.9z M25.2,14.9h-6c-0.6,0-1.1-0.5-1.1-1.1
	s0.5-1.1,1.1-1.1h6c0.6,0,1.1,0.5,1.1,1.1S25.8,14.9,25.2,14.9z"/>
</svg>
