<?xml version="1.0" encoding="utf-8"?>
<!-- Generator: Adobe Illustrator 19.1.0, SVG Export Plug-In . SVG Version: 6.00 Build 0)  -->
<svg version="1.1" id="Layer_1" xmlns="http://www.w3.org/2000/svg" xmlns:xlink="http://www.w3.org/1999/xlink" x="0px" y="0px"
	 viewBox="0 0 32 32" style="enable-background:new 0 0 32 32;" xml:space="preserve">
<style type="text/css">
	.st0{fill:#B8DDD6;}
</style>
<path class="st0" d="M16,0C7.2,0,0,7.2,0,16s7.2,16,16,16s16-7.2,16-16S24.8,0,16,0z M20.6,9c1,0,1.8,1.2,1.8,2.7s-0.8,2.7-1.8,2.7
	s-1.8-1.2-1.8-2.7C18.8,10.2,19.6,9,20.6,9z M10.4,9c1,0,1.8,1.2,1.8,2.7s-0.8,2.7-1.8,2.7s-1.8-1.2-1.8-2.7C8.6,10.2,9.4,9,10.4,9z
	 M23.3,23.1c-2,2-4.6,3-7.3,3s-5.3-1-7.3-3c-0.4-0.4-0.4-1.1,0-1.6c0.4-0.4,1.1-0.4,1.6,0c3.1,3.1,8.2,3.1,11.4,0
	c0.4-0.4,1.1-0.4,1.6,0C23.7,22,23.7,22.7,23.3,23.1z"/>
</svg>
