<?xml version="1.0" encoding="utf-8"?>
<!-- Generator: Adobe Illustrator 19.1.0, SVG Export Plug-In . SVG Version: 6.00 Build 0)  -->
<svg version="1.1" id="Layer_1" xmlns="http://www.w3.org/2000/svg" xmlns:xlink="http://www.w3.org/1999/xlink" x="0px" y="0px"
	 viewBox="0 0 32 32" style="enable-background:new 0 0 32 32;" xml:space="preserve">
<style type="text/css">
	.st0{fill:#BBBDBF;}
</style>
<g>
	<polygon class="st0" points="23.3,26.4 23.3,19.6 25.6,19.6 25.6,28.6 5.4,28.6 5.4,19.6 7.6,19.6 7.6,26.4 	"/>
	<path class="st0" d="M10.1,19l11,2.3l0.5-2.2l-11-2.3L10.1,19z M11.5,13.7l10.2,4.7l0.9-2l-10.2-4.7L11.5,13.7z M14.4,8.7l8.6,7.2
		l1.4-1.7L15.8,7L14.4,8.7z M19.9,3.4l-1.8,1.3l6.7,9l1.8-1.3L19.9,3.4z M9.9,24.1l11.2,0v-2.2l-11.2,0V24.1z"/>
</g>
</svg>
