<?xml version="1.0" encoding="utf-8"?>
<!-- Generator: Adobe Illustrator 19.1.0, SVG Export Plug-In . SVG Version: 6.00 Build 0)  -->
<svg version="1.1" id="Layer_1" xmlns="http://www.w3.org/2000/svg" xmlns:xlink="http://www.w3.org/1999/xlink" x="0px" y="0px"
	 viewBox="0 0 32 32" style="enable-background:new 0 0 32 32;" xml:space="preserve">
<style type="text/css">
	.st0{fill:#FFFFFF;}
</style>
<path class="st0" d="M13.7,25.3c0,2.3-1.4,4.2-5.5,4.3c-2.4-1.4-4.4-3.3-5.8-5.6c0.7-1.8,3-3.2,5.6-3.2c0.7,0,1.4,0.1,2.1,0.3
	c1.7,1.2,3.1,2,3.5,3.3C13.7,24.7,13.7,25,13.7,25.3L13.7,25.3z M16,0C11.5,0,7.3,1.9,4.5,5c1.1-0.6,2.5-1,3.9-1c2.1,0,7.9,0,7.9,0
	l-1.8,1.9h-2.1c1.5,0.8,2.2,2.6,2.2,4.5c0,1.8-1,3.2-2.3,4.2c-1.3,1-1.6,1.5-1.6,2.4c0,0.8,1.6,1.9,2.3,2.4c2.6,1.9,3.1,3.1,3.1,5.5
	c0,2.4-2.1,4.9-5.7,5.7c1.7,0.7,3.6,1,5.6,1c8.7,0,15.8-7.1,15.8-15.8S24.8,0,16,0L16,0z M23.9,11.9v4h-2v-4h-4v-2h4v-4h2v4h4v2
	H23.9z M11.5,10.5c0.4,2.8-0.9,4.6-3,4.5C6.4,15,4.4,13,4,10.2C3.6,7.4,5,5.3,7.2,5.3S11.1,7.7,11.5,10.5L11.5,10.5z M7,19.8
	c-2.3,0-4.3,0.8-5.6,2c-0.8-1.8-1.2-3.9-1.2-6c0-1.8,0.3-3.4,0.8-5c0.2,3.1,2.4,5.4,6,5.4c0.3,0,0.5,0,0.8,0c-0.2,0.5-0.4,1-0.4,1.5
	c0,0.9,0.5,1.5,1.1,2.1C8,19.8,7.5,19.8,7,19.8L7,19.8z"/>
</svg>
