<?xml version="1.0" encoding="utf-8"?>
<!-- Generator: Adobe Illustrator 19.1.0, SVG Export Plug-In . SVG Version: 6.00 Build 0)  -->
<svg version="1.1" id="Layer_1" xmlns="http://www.w3.org/2000/svg" xmlns:xlink="http://www.w3.org/1999/xlink" x="0px" y="0px"
	 viewBox="0 0 32 32" style="enable-background:new 0 0 32 32;" xml:space="preserve">
<style type="text/css">
	.st0{fill:#BE1E2D;}
</style>
<path class="st0" d="M16,0C7.2,0,0,7.2,0,16s7.2,16,16,16s16-7.2,16-16S24.8,0,16,0z M20.3,10.2c1,0,1.8,1.2,1.8,2.7
	c0,1.5-0.8,2.7-1.8,2.7c-1,0-1.8-1.2-1.8-2.7C18.5,11.4,19.3,10.2,20.3,10.2z M13.3,12.9c0,1.5-0.8,2.7-1.8,2.7
	c-1,0-1.8-1.2-1.8-2.7c0-1.5,0.8-2.7,1.8-2.7C12.5,10.2,13.3,11.4,13.3,12.9z M8.7,7.5c0.5-0.5,1.3-0.6,2-0.5c0.1,0,0.1,0,0.2,0
	c0,0,0.1,0.1,0.1,0.1c0.2,0.8-0.7,1.5-1.4,1.6c-1,0.1-4.1,3.2-4.1,3.2C5.4,11.3,7.9,8.3,8.7,7.5z M23.3,25.1c-0.4,0.4-1.1,0.4-1.6,0
	c-3.1-3.1-8.2-3.1-11.4,0c-0.4,0.4-1.1,0.4-1.6,0c-0.4-0.5-0.4-1.2,0-1.6c2-2,4.6-3,7.3-3s5.3,1,7.3,3
	C23.7,23.9,23.7,24.6,23.3,25.1z M22.5,8.7C21.8,8.6,20.8,8,21,7.1c0,0,0-0.1,0.1-0.1c0,0,0.1,0,0.2,0c0.7,0,1.5,0.1,2,0.5
	c0.8,0.8,3.3,3.8,3.3,4.4C26.6,11.9,23.5,8.8,22.5,8.7z"/>
</svg>
