<?xml version="1.0" encoding="utf-8"?>
<!-- Generator: Adobe Illustrator 19.1.0, SVG Export Plug-In . SVG Version: 6.00 Build 0)  -->
<svg version="1.1" id="Layer_1" xmlns="http://www.w3.org/2000/svg" xmlns:xlink="http://www.w3.org/1999/xlink" x="0px" y="0px"
	 viewBox="-627 389 24 24" style="enable-background:new -627 389 24 24;" xml:space="preserve">
<style type="text/css">
	.st0{fill:#CCCCCC;}
	.st1{fill:#444444;}
</style>
<path class="st0" d="M-617,405.5l6-4.5l-6-4.5V405.5z M-615,391c2.8,0,5.1,1,7.1,2.9c2,2,2.9,4.3,2.9,7.1s-1,5.1-2.9,7.1
	c-2,2-4.3,2.9-7.1,2.9s-5.1-1-7.1-2.9c-2-2-2.9-4.3-2.9-7.1s1-5.1,2.9-7.1C-620.1,392-617.8,391-615,391z"/>
<path class="st1" d="M-617,405.5l6-4.5l-6-4.5V405.5z"/>
</svg>
