<?xml version="1.0" encoding="utf-8"?>
<!-- Generator: Adobe Illustrator 19.0.1, SVG Export Plug-In . SVG Version: 6.00 Build 0)  -->
<!DOCTYPE svg PUBLIC "-//W3C//DTD SVG 1.1//EN" "http://www.w3.org/Graphics/SVG/1.1/DTD/svg11.dtd" [
	<!ENTITY ns_extend "http://ns.adobe.com/Extensibility/1.0/">
	<!ENTITY ns_ai "http://ns.adobe.com/AdobeIllustrator/10.0/">
	<!ENTITY ns_graphs "http://ns.adobe.com/Graphs/1.0/">
	<!ENTITY ns_vars "http://ns.adobe.com/Variables/1.0/">
	<!ENTITY ns_imrep "http://ns.adobe.com/ImageReplacement/1.0/">
	<!ENTITY ns_sfw "http://ns.adobe.com/SaveForWeb/1.0/">
	<!ENTITY ns_custom "http://ns.adobe.com/GenericCustomNamespace/1.0/">
	<!ENTITY ns_adobe_xpath "http://ns.adobe.com/XPath/1.0/">
]>
<svg version="1.1" xmlns:x="&ns_extend;" xmlns:i="&ns_ai;" xmlns:graph="&ns_graphs;"
	 xmlns="http://www.w3.org/2000/svg" xmlns:xlink="http://www.w3.org/1999/xlink" x="0px" y="0px" width="335px" height="582.2px"
	 viewBox="0 0 335 582.2" style="enable-background:new 0 0 335 582.2;" xml:space="preserve">
<style type="text/css">
	.st0{fill:#3781A4;}
	.st1{fill:#FFFFFF;}
	.st2{opacity:0.7;}
	.st3{opacity:0.7;fill:none;stroke:#FFFFFF;stroke-miterlimit:10;}
	.st4{opacity:0.8;}
	.st5{opacity:0.25;}
	.st6{opacity:0.5;fill:#FFFFFF;}
	.st7{opacity:0.5;}
	.st8{fill:#A5B5B8;}
	.st9{fill:#EBEBEC;}
	.st10{fill:#B6B6B7;}
	.st11{fill:#B12843;}
	.st12{fill:#449F6C;}
	.st13{opacity:0.6;}
	.st14{fill:none;stroke:#FFFFFF;stroke-width:2;stroke-linecap:round;stroke-linejoin:round;stroke-miterlimit:10;}
	.st15{fill:none;stroke:#3781A4;stroke-width:6;stroke-miterlimit:10;}
	.st16{fill:none;stroke:#3781A4;stroke-width:5;stroke-miterlimit:10;}
	.st17{opacity:0.6;fill:none;stroke:#FFFFFF;stroke-width:2;stroke-linecap:round;stroke-linejoin:round;stroke-miterlimit:10;}
	.st18{opacity:0.6;fill:#B6B6B7;}
	.st19{opacity:0.35;fill:#B6B6B7;}
	.st20{opacity:0.8;fill:#B6B6B7;}
	.st21{opacity:0.3;fill:#B6B6B7;}
	.st22{opacity:0.7;fill:#B6B6B7;}
	.st23{opacity:0.9;fill:#B6B6B7;}
	.st24{opacity:0.5;fill:#B6B6B7;}
	.st25{opacity:0.2;fill:#B6B6B7;}
	.st26{opacity:0.65;fill:#B6B6B7;}
	.st27{opacity:0.85;fill:#B6B6B7;}
	.st28{opacity:0.45;fill:#B6B6B7;}
	.st29{fill:#485154;}
	.st30{fill:none;stroke:#3781A4;stroke-width:11;stroke-linecap:round;stroke-linejoin:round;stroke-miterlimit:10;}
	.st31{fill:none;stroke:#FFFFFF;stroke-width:3;stroke-linecap:round;stroke-linejoin:round;stroke-miterlimit:10;}
	.st32{fill:none;stroke:#FFFFFF;stroke-width:3;stroke-linecap:round;stroke-linejoin:round;}
	.st33{fill:none;stroke:#FFFFFF;stroke-width:3;stroke-linecap:round;stroke-linejoin:round;stroke-dasharray:2.9465,3.9287;}
	.st34{fill:none;stroke:#FFFFFF;stroke-width:3;stroke-linecap:round;stroke-linejoin:round;stroke-dasharray:2.0068,2.6757;}
	.st35{fill:none;stroke:#FFFFFF;stroke-width:3;stroke-linecap:round;stroke-linejoin:round;stroke-dasharray:2.8093,3.7457;}
	.st36{fill:none;stroke:#FFFFFF;stroke-width:3;stroke-linecap:round;stroke-linejoin:round;stroke-dasharray:3.0503,4.067;}
	.st37{fill:none;stroke:#FFFFFF;stroke-width:3;stroke-linecap:round;stroke-linejoin:round;stroke-dasharray:2.7315,3.642;}
	.st38{fill:none;stroke:#FFFFFF;stroke-width:3;stroke-linecap:round;stroke-linejoin:round;stroke-dasharray:3.1002,4.1336;}
	.st39{fill:none;stroke:#3781A4;stroke-width:10;stroke-linecap:round;stroke-linejoin:round;stroke-miterlimit:10;}
	.st40{fill:none;stroke:#3781A4;stroke-width:10;stroke-miterlimit:10;}
	.st41{fill:none;stroke:#FFFFFF;stroke-width:3;stroke-linecap:round;stroke-linejoin:round;stroke-dasharray:3.1068,4.1424;}
	.st42{fill:none;stroke:#FFFFFF;stroke-width:3;stroke-linecap:round;stroke-linejoin:round;stroke-dasharray:1.5484,2.0645;}
	.st43{fill:none;stroke:#FFFFFF;stroke-width:3;stroke-linecap:round;stroke-linejoin:round;stroke-dasharray:2.9057,3.8743;}
	.st44{fill:none;stroke:#FFFFFF;stroke-width:3;stroke-linecap:round;stroke-linejoin:round;stroke-dasharray:3.1048,4.1397;}
	.st45{fill:none;stroke:#FFFFFF;stroke-width:3;stroke-linecap:round;stroke-linejoin:round;stroke-dasharray:2.7418,3.6557;}
	.st46{fill:none;stroke:#FFFFFF;stroke-width:3;stroke-linecap:round;stroke-linejoin:round;stroke-dasharray:3.6253,4.8338;}
	.st47{fill:none;stroke:#FFFFFF;stroke-miterlimit:10;}
	.st48{fill:none;stroke:#FFFFFF;stroke-width:2.5;stroke-linecap:round;stroke-linejoin:round;stroke-miterlimit:10;}
	.st49{fill:#FAFCFB;}
	.st50{fill:none;stroke:#00A9CD;stroke-miterlimit:10;}
	.st51{fill:none;stroke:#3781A4;stroke-width:0.8989;stroke-miterlimit:10;}
	.st52{fill:none;stroke:#B12843;stroke-width:0.8989;stroke-miterlimit:10;}
	.st53{fill:none;stroke:#3781A4;stroke-miterlimit:10;}
	.st54{fill-rule:evenodd;clip-rule:evenodd;fill:none;stroke:#3781A4;stroke-width:0.8989;stroke-miterlimit:10;}
	.st55{fill:#00A9CD;}
	.st56{fill:#0597C4;}
	.st57{fill:#2A3033;}
	.st58{fill:none;}
	.st59{fill:none;stroke:#A5B5B8;stroke-miterlimit:10;}
	.st60{fill:none;stroke:#D4D4D6;stroke-miterlimit:10;}
	.st61{fill:#231F20;}
	.st62{opacity:0.6;fill:#212628;}
	.st63{opacity:0.85;fill:#FFFFFF;}
	.st64{fill:#0F070A;}
	.st65{opacity:0.85;}
	.st66{fill:#7A7E7F;}
	.st67{opacity:0.9;fill:#FFFFFF;}
	.st68{fill:#F7F7F7;}
	.st69{fill-rule:evenodd;clip-rule:evenodd;fill:#2A3033;}
	.st70{opacity:0.75;}
	.st71{fill:none;stroke:#FFFFFF;stroke-width:2;stroke-miterlimit:10;}
	.st72{fill:#0C0110;}
	.st73{opacity:0.7;fill:#FFFFFF;}
	.st74{fill:none;stroke:#FFFFFF;stroke-width:0.4355;stroke-miterlimit:10;}
	.st75{opacity:0.6;fill:#FFFFFF;}
	.st76{opacity:0.5;fill:#FFFFFF;enable-background:new    ;}
	.st77{display:none;}
	.st78{display:inline;fill:none;}
	.st79{display:inline;}
	.st80{fill:none;stroke:#FFFFFF;stroke-width:0.5319;stroke-miterlimit:10;}
	.st81{fill:none;stroke:#F9F164;stroke-width:0.5;stroke-miterlimit:10;}
</style>
<metadata>
	<sfw  xmlns="&ns_sfw;">
		<slices></slices>
		<sliceSourceBounds  width="10354" height="8656.8" bottomLeftOrigin="true" x="-5542.2" y="-6643.9"></sliceSourceBounds>
		<optimizationSettings>
			<targetSettings  targetSettingsID="0" fileFormat="JPEGFormat">
				
					<JPEGFormat  embedICCProfile="false" optimized="true" quality="60" matteColor="#FFFFFF" progressive="false" blurAmount="0" noMatteColor="false">
					</JPEGFormat>
			</targetSettings>
		</optimizationSettings>
	</sfw>
</metadata>
<g id="Layer_1">
	<g>
		<g>
			<g id="Macbook_base_346_">
				<g>
					<path class="st1" d="M293.1,259.9H142.1c-2.6,0-4.7,2.1-4.7,4.7v96.9c0,2.6,2.1,4.7,4.7,4.7h151.1c2.6,0,4.7-2.1,4.7-4.7v-96.9
						C297.8,262,295.7,259.9,293.1,259.9z"/>
				</g>
			</g>
			<g id="Macbook_base_344_">
				<g>
					<path class="st8" d="M293.1,259.9H142.1c-2.6,0-4.7,2.1-4.7,4.7v4.5h160.5v-4.5C297.8,262,295.7,259.9,293.1,259.9z"/>
				</g>
			</g>
			<g>
				<circle class="st1" cx="143.3" cy="264.5" r="1.4"/>
				<circle class="st1" cx="147.9" cy="264.5" r="1.4"/>
				<circle class="st1" cx="152.5" cy="264.5" r="1.4"/>
			</g>
			<rect x="191" y="263.2" class="st9" width="53.2" height="3.1"/>
		</g>
		<g>
			<g>
				<g id="Macbook_base_342_">
					<g>
						<rect x="212.1" y="291.3" class="st0" width="59.4" height="4.1"/>
					</g>
				</g>
			</g>
			<g>
				<g id="Macbook_base_340_">
					<g>
						<rect x="224.5" y="300.2" class="st10" width="33.8" height="3.2"/>
					</g>
				</g>
				<circle class="st56" cx="218.4" cy="301.9" r="3.6"/>
			</g>
			<g>
				<g id="Macbook_base_338_">
					<g>
						<rect x="224.5" y="309.5" class="st10" width="33.8" height="3.2"/>
					</g>
				</g>
				<circle class="st56" cx="218.4" cy="311.2" r="3.6"/>
			</g>
			<g>
				<g id="Macbook_base_336_">
					<g>
						<rect x="212.1" y="325.4" class="st0" width="59.4" height="4.1"/>
					</g>
				</g>
			</g>
			<g>
				<g id="Macbook_base_334_">
					<g>
						<rect x="224.5" y="334.4" class="st10" width="33.8" height="3.2"/>
					</g>
				</g>
				<circle class="st12" cx="218.4" cy="336.1" r="3.6"/>
			</g>
			<g>
				<g id="Macbook_base_332_">
					<g>
						<rect x="224.5" y="343.7" class="st10" width="33.8" height="3.2"/>
					</g>
				</g>
				<circle class="st12" cx="218.4" cy="345.3" r="3.6"/>
			</g>
			<path class="st11" d="M165.9,348.6h33c1.4,0,2.5-1.1,2.5-2.5v-52.3c0-1.4-1.1-2.5-2.5-2.5h-33c-1.4,0-2.5,1.1-2.5,2.5v52.3
				C163.5,347.5,164.6,348.6,165.9,348.6z"/>
		</g>
		<g id="Macbook_base_330_">
			<g>
				<rect x="137.4" y="269" class="st0" width="160.5" height="9.2"/>
			</g>
		</g>
	</g>
	<g>
		<g>
			<g id="Macbook_base_328_">
				<g>
					<path class="st1" d="M293.1,449.1H142.1c-2.6,0-4.7,2.1-4.7,4.7v96.9c0,2.6,2.1,4.7,4.7,4.7h151.1c2.6,0,4.7-2.1,4.7-4.7v-96.9
						C297.8,451.2,295.7,449.1,293.1,449.1z"/>
				</g>
			</g>
			<g id="Macbook_base_326_">
				<g>
					<path class="st8" d="M293.1,449.1H142.1c-2.6,0-4.7,2.1-4.7,4.7v4.5h160.5v-4.5C297.8,451.2,295.7,449.1,293.1,449.1z"/>
				</g>
			</g>
			<g>
				<circle class="st1" cx="143.3" cy="453.8" r="1.4"/>
				<circle class="st1" cx="147.9" cy="453.8" r="1.4"/>
				<circle class="st1" cx="152.5" cy="453.8" r="1.4"/>
			</g>
			<rect x="191" y="452.4" class="st9" width="53.2" height="3.1"/>
		</g>
		<g>
			<g>
				<g id="Macbook_base_324_">
					<g>
						<rect x="212.1" y="480.5" class="st0" width="59.4" height="4.1"/>
					</g>
				</g>
			</g>
			<g>
				<g id="Macbook_base_322_">
					<g>
						<rect x="224.5" y="489.5" class="st10" width="33.8" height="3.2"/>
					</g>
				</g>
				<circle class="st56" cx="218.4" cy="491.2" r="3.6"/>
			</g>
			<g>
				<g id="Macbook_base_320_">
					<g>
						<rect x="224.5" y="498.8" class="st10" width="33.8" height="3.2"/>
					</g>
				</g>
				<circle class="st56" cx="218.4" cy="500.5" r="3.6"/>
			</g>
			<g>
				<g id="Macbook_base_318_">
					<g>
						<rect x="212.1" y="514.6" class="st0" width="59.4" height="4.1"/>
					</g>
				</g>
			</g>
			<g>
				<g id="Macbook_base_316_">
					<g>
						<rect x="224.5" y="523.6" class="st10" width="33.8" height="3.2"/>
					</g>
				</g>
				<circle class="st12" cx="218.4" cy="525.3" r="3.6"/>
			</g>
			<g>
				<g id="Macbook_base_314_">
					<g>
						<rect x="224.5" y="532.9" class="st10" width="33.8" height="3.2"/>
					</g>
				</g>
				<circle class="st12" cx="218.4" cy="534.6" r="3.6"/>
			</g>
			<path class="st11" d="M165.9,537.8h33c1.4,0,2.5-1.1,2.5-2.5v-52.3c0-1.4-1.1-2.5-2.5-2.5h-33c-1.4,0-2.5,1.1-2.5,2.5v52.3
				C163.5,536.7,164.6,537.8,165.9,537.8z"/>
		</g>
		<g id="Macbook_base_312_">
			<g>
				<rect x="137.4" y="458.1" class="st0" width="160.5" height="9.2"/>
			</g>
		</g>
	</g>
	<g>
		<g>
			<g id="Macbook_base_310_">
				<g>
					<path class="st1" d="M293.1,71.3H142.1c-2.6,0-4.7,2.1-4.7,4.7v96.9c0,2.6,2.1,4.7,4.7,4.7h151.1c2.6,0,4.7-2.1,4.7-4.7V76
						C297.8,73.4,295.7,71.3,293.1,71.3z"/>
				</g>
			</g>
			<g id="Macbook_base_308_">
				<g>
					<path class="st8" d="M293.1,71.3H142.1c-2.6,0-4.7,2.1-4.7,4.7v4.5h160.5V76C297.8,73.4,295.7,71.3,293.1,71.3z"/>
				</g>
			</g>
			<g>
				<circle class="st1" cx="143.3" cy="76" r="1.4"/>
				<circle class="st1" cx="147.9" cy="76" r="1.4"/>
				<circle class="st1" cx="152.5" cy="76" r="1.4"/>
			</g>
			<rect x="191" y="74.6" class="st9" width="53.2" height="3.1"/>
		</g>
		<g>
			<path class="st9" d="M198.5,117.9c-0.1,0.2-0.2,0.3-0.3,0.4c-0.1,0.1-0.2,0.1-0.4,0.1c-0.2,0-0.4-0.1-0.6-0.3s-0.5-0.4-0.9-0.6
				c-0.4-0.2-0.8-0.4-1.3-0.6s-1.1-0.3-1.8-0.3c-0.7,0-1.3,0.1-1.8,0.3s-0.9,0.4-1.3,0.7c-0.3,0.3-0.6,0.7-0.8,1.1
				c-0.2,0.4-0.3,0.9-0.3,1.4c0,0.6,0.2,1.1,0.5,1.6c0.3,0.4,0.7,0.8,1.2,1.1c0.5,0.3,1.1,0.5,1.7,0.8c0.6,0.2,1.3,0.4,2,0.7
				c0.7,0.2,1.3,0.5,2,0.8c0.6,0.3,1.2,0.6,1.7,1.1s0.9,1,1.2,1.6c0.3,0.6,0.5,1.4,0.5,2.3c0,1-0.2,1.9-0.5,2.8
				c-0.3,0.9-0.8,1.6-1.5,2.2c-0.6,0.6-1.4,1.1-2.4,1.5c-0.9,0.4-2,0.5-3.2,0.5c-1.5,0-2.8-0.3-4-0.8c-1.2-0.5-2.2-1.2-3-2.1
				l0.9-1.4c0.1-0.1,0.2-0.2,0.3-0.3c0.1-0.1,0.3-0.1,0.4-0.1c0.1,0,0.3,0.1,0.5,0.2c0.2,0.1,0.4,0.2,0.6,0.4
				c0.2,0.2,0.5,0.3,0.7,0.5c0.3,0.2,0.6,0.4,1,0.5c0.4,0.2,0.8,0.3,1.2,0.4c0.5,0.1,1,0.2,1.5,0.2c0.7,0,1.4-0.1,1.9-0.3
				c0.6-0.2,1-0.5,1.4-0.8c0.4-0.4,0.7-0.8,0.9-1.3s0.3-1.1,0.3-1.7c0-0.7-0.2-1.2-0.5-1.7c-0.3-0.4-0.7-0.8-1.2-1.1
				s-1.1-0.5-1.7-0.7s-1.3-0.4-2-0.6c-0.7-0.2-1.3-0.5-2-0.7s-1.2-0.6-1.7-1.1c-0.5-0.4-0.9-1-1.2-1.7c-0.3-0.7-0.5-1.5-0.5-2.5
				c0-0.8,0.2-1.6,0.5-2.3c0.3-0.7,0.8-1.4,1.3-2c0.6-0.6,1.3-1,2.2-1.4c0.9-0.3,1.8-0.5,3-0.5c1.2,0,2.4,0.2,3.4,0.6
				c1,0.4,1.9,1,2.7,1.7L198.5,117.9z"/>
			<path class="st9" d="M207.5,137c-1.2,0-2.2-0.3-2.9-1c-0.7-0.7-1-1.7-1-3v-9.7h-1.9c-0.2,0-0.3,0-0.4-0.1
				c-0.1-0.1-0.2-0.3-0.2-0.5v-1.1l2.6-0.3l0.6-4.9c0-0.2,0.1-0.3,0.2-0.4c0.1-0.1,0.3-0.1,0.4-0.1h1.4v5.4h4.6v2h-4.6v9.5
				c0,0.7,0.2,1.2,0.5,1.5c0.3,0.3,0.7,0.5,1.2,0.5c0.3,0,0.5,0,0.8-0.1c0.2-0.1,0.4-0.2,0.6-0.3c0.2-0.1,0.3-0.2,0.4-0.3
				s0.2-0.1,0.3-0.1c0.1,0,0.3,0.1,0.4,0.3l0.8,1.3c-0.5,0.4-1.1,0.8-1.7,1.1C208.9,136.8,208.2,137,207.5,137z"/>
			<path class="st9" d="M223.9,136.7c-0.3,0-0.5,0-0.6-0.1s-0.3-0.3-0.3-0.5l-0.3-1.5c-0.4,0.4-0.8,0.7-1.2,1s-0.8,0.5-1.2,0.7
				s-0.9,0.4-1.4,0.5c-0.5,0.1-1,0.2-1.6,0.2c-0.6,0-1.2-0.1-1.7-0.3c-0.5-0.2-1-0.4-1.4-0.8c-0.4-0.3-0.7-0.8-1-1.3
				c-0.2-0.5-0.4-1.1-0.4-1.9c0-0.6,0.2-1.2,0.5-1.8c0.3-0.6,0.9-1.1,1.7-1.5c0.8-0.4,1.8-0.8,3-1.1c1.2-0.3,2.8-0.4,4.6-0.5v-1.2
				c0-1.2-0.3-2.2-0.8-2.8c-0.5-0.6-1.3-0.9-2.3-0.9c-0.7,0-1.3,0.1-1.7,0.3c-0.5,0.2-0.9,0.4-1.2,0.6c-0.3,0.2-0.6,0.4-0.9,0.6
				c-0.2,0.2-0.5,0.3-0.7,0.3c-0.2,0-0.3,0-0.5-0.1c-0.1-0.1-0.2-0.2-0.3-0.4l-0.5-0.9c0.9-0.8,1.8-1.5,2.8-1.9
				c1-0.4,2.1-0.6,3.4-0.6c0.9,0,1.7,0.1,2.4,0.4c0.7,0.3,1.3,0.7,1.7,1.2c0.5,0.5,0.8,1.1,1.1,1.9c0.2,0.7,0.4,1.5,0.4,2.4v10.1
				H223.9z M217.9,135c0.5,0,0.9,0,1.3-0.1c0.4-0.1,0.8-0.2,1.1-0.4c0.4-0.2,0.7-0.4,1-0.7s0.6-0.6,1-0.9v-3.3
				c-1.3,0-2.4,0.1-3.3,0.3s-1.6,0.4-2.2,0.6s-1,0.6-1.2,0.9c-0.3,0.4-0.4,0.7-0.4,1.2c0,0.4,0.1,0.8,0.2,1.1
				c0.1,0.3,0.3,0.5,0.6,0.7c0.2,0.2,0.5,0.3,0.8,0.4C217.2,135,217.5,135,217.9,135z"/>
			<path class="st9" d="M229.3,136.7v-15.8h1.6c0.3,0,0.5,0.1,0.6,0.2c0.1,0.1,0.2,0.3,0.2,0.6l0.2,2.4c0.5-1.1,1.1-1.9,1.8-2.5
				s1.6-0.9,2.7-0.9c0.3,0,0.7,0,1,0.1s0.6,0.2,0.8,0.3l-0.2,2.1c-0.1,0.3-0.2,0.4-0.5,0.4c-0.1,0-0.4,0-0.6-0.1
				c-0.3-0.1-0.6-0.1-1-0.1c-0.5,0-0.9,0.1-1.3,0.2c-0.4,0.2-0.7,0.4-1.1,0.7c-0.3,0.3-0.6,0.6-0.8,1.1c-0.2,0.4-0.5,0.9-0.7,1.4v10
				H229.3z"/>
			<path class="st9" d="M245.5,137c-1.2,0-2.2-0.3-2.9-1c-0.7-0.7-1-1.7-1-3v-9.7h-1.9c-0.2,0-0.3,0-0.4-0.1
				c-0.1-0.1-0.2-0.3-0.2-0.5v-1.1l2.6-0.3l0.6-4.9c0-0.2,0.1-0.3,0.2-0.4c0.1-0.1,0.3-0.1,0.4-0.1h1.4v5.4h4.6v2h-4.6v9.5
				c0,0.7,0.2,1.2,0.5,1.5c0.3,0.3,0.7,0.5,1.2,0.5c0.3,0,0.5,0,0.8-0.1c0.2-0.1,0.4-0.2,0.6-0.3c0.2-0.1,0.3-0.2,0.4-0.3
				s0.2-0.1,0.3-0.1c0.1,0,0.3,0.1,0.4,0.3l0.8,1.3c-0.5,0.4-1.1,0.8-1.7,1.1C246.9,136.8,246.2,137,245.5,137z"/>
		</g>
	</g>
	<g>
		<path class="st1" d="M11.9,552.2v6.5H7.9v-17.5h5.7c1.3,0,2.3,0.1,3.2,0.4c0.9,0.3,1.6,0.6,2.2,1.1c0.6,0.5,1,1,1.2,1.6
			c0.3,0.6,0.4,1.3,0.4,2.1c0,0.6-0.1,1.1-0.2,1.6c-0.2,0.5-0.4,1-0.7,1.4c-0.3,0.4-0.7,0.8-1.1,1.1s-0.9,0.6-1.5,0.8
			c0.3,0.1,0.5,0.3,0.8,0.5s0.4,0.4,0.6,0.7l3.7,6.1h-3.7c-0.7,0-1.2-0.3-1.5-0.8l-2.9-5.1c-0.1-0.2-0.3-0.4-0.5-0.5
			s-0.4-0.1-0.7-0.1H11.9z M11.9,549.4h1.6c0.6,0,1-0.1,1.4-0.2c0.4-0.1,0.7-0.3,1-0.6c0.2-0.2,0.4-0.5,0.5-0.9
			c0.1-0.3,0.2-0.7,0.2-1.1c0-0.8-0.3-1.4-0.8-1.8c-0.5-0.4-1.3-0.6-2.3-0.6h-1.6V549.4z"/>
		<path class="st1" d="M27.9,546c0.8,0,1.6,0.1,2.3,0.4c0.7,0.3,1.3,0.6,1.8,1.1c0.5,0.5,0.9,1.1,1.2,1.8c0.3,0.7,0.4,1.5,0.4,2.4
			c0,0.3,0,0.5,0,0.7c0,0.2-0.1,0.3-0.1,0.4c-0.1,0.1-0.2,0.2-0.3,0.2c-0.1,0-0.2,0.1-0.4,0.1h-7.2c0.1,1,0.4,1.8,0.9,2.3
			c0.5,0.5,1.2,0.7,2,0.7c0.4,0,0.8-0.1,1.1-0.2s0.6-0.2,0.8-0.3c0.2-0.1,0.5-0.2,0.7-0.3c0.2-0.1,0.4-0.2,0.6-0.2
			c0.3,0,0.5,0.1,0.7,0.3l1.1,1.3c-0.4,0.4-0.8,0.8-1.2,1.1s-0.9,0.5-1.4,0.6c-0.5,0.2-0.9,0.3-1.4,0.3c-0.5,0.1-0.9,0.1-1.3,0.1
			c-0.9,0-1.7-0.1-2.5-0.4c-0.8-0.3-1.4-0.7-2-1.3s-1-1.3-1.4-2.1s-0.5-1.8-0.5-2.9c0-0.8,0.1-1.6,0.4-2.4s0.7-1.4,1.2-2
			c0.5-0.6,1.2-1,1.9-1.3S26.9,546,27.9,546z M27.9,548.6c-0.7,0-1.3,0.2-1.7,0.6s-0.7,1-0.8,1.7h4.6c0-0.3,0-0.6-0.1-0.9
			c-0.1-0.3-0.2-0.5-0.4-0.8c-0.2-0.2-0.4-0.4-0.7-0.5C28.7,548.6,28.3,548.6,27.9,548.6z"/>
		<path class="st1" d="M43.6,558.6c-0.4,0-0.6,0-0.8-0.1c-0.2-0.1-0.3-0.3-0.4-0.6l-0.3-0.7c-0.3,0.3-0.6,0.5-0.9,0.7
			c-0.3,0.2-0.6,0.4-0.9,0.5c-0.3,0.1-0.6,0.2-1,0.3s-0.7,0.1-1.2,0.1c-0.6,0-1.1-0.1-1.5-0.2s-0.9-0.4-1.2-0.7s-0.6-0.6-0.8-1.1
			c-0.2-0.4-0.3-0.9-0.3-1.5c0-0.4,0.1-0.9,0.3-1.4c0.2-0.5,0.6-0.9,1.2-1.3c0.6-0.4,1.3-0.7,2.2-1s2.1-0.4,3.5-0.4v-0.5
			c0-0.7-0.2-1.3-0.5-1.6s-0.7-0.5-1.3-0.5c-0.4,0-0.8,0-1.1,0.1c-0.3,0.1-0.5,0.2-0.8,0.3c-0.2,0.1-0.4,0.2-0.6,0.3
			c-0.2,0.1-0.5,0.1-0.7,0.1c-0.3,0-0.5-0.1-0.6-0.2c-0.2-0.1-0.3-0.3-0.4-0.5l-0.7-1.2c0.8-0.7,1.6-1.2,2.5-1.5
			c0.9-0.3,1.9-0.5,2.9-0.5c0.8,0,1.4,0.1,2,0.4c0.6,0.2,1.1,0.6,1.5,1s0.7,1,1,1.6c0.2,0.6,0.3,1.3,0.3,2v7.8H43.6z M39.4,556.4
			c0.5,0,0.9-0.1,1.3-0.3c0.4-0.2,0.7-0.4,1.1-0.8v-1.7c-0.7,0-1.4,0.1-1.8,0.2c-0.5,0.1-0.9,0.2-1.1,0.4c-0.3,0.1-0.5,0.3-0.6,0.5
			c-0.1,0.2-0.2,0.4-0.2,0.6c0,0.4,0.1,0.7,0.3,0.9C38.6,556.3,38.9,556.4,39.4,556.4z"/>
		<path class="st1" d="M56.7,558.6c-0.5,0-0.8-0.2-0.9-0.6l-0.3-0.9c-0.2,0.3-0.5,0.5-0.8,0.7s-0.6,0.4-0.9,0.6
			c-0.3,0.2-0.7,0.3-1,0.4s-0.8,0.1-1.2,0.1c-0.6,0-1.2-0.1-1.8-0.4c-0.6-0.3-1-0.7-1.4-1.2c-0.4-0.5-0.7-1.2-0.9-2
			s-0.3-1.7-0.3-2.7c0-0.9,0.1-1.8,0.4-2.6c0.3-0.8,0.6-1.5,1.1-2.1c0.5-0.6,1-1,1.7-1.4s1.4-0.5,2.2-0.5c0.6,0,1.2,0.1,1.6,0.3
			c0.4,0.2,0.8,0.4,1.2,0.7v-6.3H59v18H56.7z M52.9,556c0.3,0,0.5,0,0.7-0.1c0.2-0.1,0.4-0.1,0.6-0.2c0.2-0.1,0.4-0.2,0.5-0.4
			c0.2-0.1,0.3-0.3,0.5-0.5v-5.3c-0.3-0.3-0.6-0.5-0.9-0.7c-0.3-0.1-0.7-0.2-1-0.2c-0.3,0-0.7,0.1-0.9,0.2c-0.3,0.1-0.5,0.4-0.8,0.7
			c-0.2,0.3-0.4,0.7-0.5,1.2s-0.2,1.1-0.2,1.7c0,0.7,0,1.2,0.1,1.7s0.2,0.8,0.4,1.1s0.4,0.5,0.6,0.6C52.4,555.9,52.6,556,52.9,556z"
			/>
		<path class="st1" d="M66.7,561.9c-0.1,0.2-0.2,0.4-0.4,0.5c-0.2,0.1-0.4,0.2-0.8,0.2h-2.8l2.4-5l-5-11.4h3.3
			c0.3,0,0.5,0.1,0.7,0.2c0.2,0.1,0.3,0.3,0.3,0.5l2,5.4c0.2,0.5,0.3,1,0.5,1.5c0.1-0.3,0.2-0.5,0.3-0.8c0.1-0.3,0.2-0.5,0.3-0.8
			l1.8-5.3c0.1-0.2,0.2-0.3,0.4-0.5c0.2-0.1,0.4-0.2,0.6-0.2h3L66.7,561.9z"/>
		<path class="st1" d="M74.5,556.7c0-0.3,0.1-0.6,0.2-0.8c0.1-0.2,0.3-0.5,0.4-0.6c0.2-0.2,0.4-0.3,0.7-0.4c0.3-0.1,0.5-0.2,0.8-0.2
			c0.3,0,0.6,0.1,0.8,0.2c0.3,0.1,0.5,0.3,0.7,0.4c0.2,0.2,0.3,0.4,0.4,0.6c0.1,0.2,0.2,0.5,0.2,0.8c0,0.3-0.1,0.6-0.2,0.8
			c-0.1,0.3-0.3,0.5-0.4,0.7c-0.2,0.2-0.4,0.3-0.7,0.4c-0.3,0.1-0.5,0.2-0.8,0.2c-0.3,0-0.6-0.1-0.8-0.2c-0.3-0.1-0.5-0.2-0.7-0.4
			c-0.2-0.2-0.3-0.4-0.4-0.7C74.6,557.3,74.5,557,74.5,556.7z M78.4,541.1v6.9c0,0.7,0,1.5-0.1,2.2c-0.1,0.7-0.2,1.5-0.3,2.2h-2.5
			c-0.1-0.8-0.3-1.5-0.3-2.2c-0.1-0.7-0.1-1.5-0.1-2.2v-6.9H78.4z"/>
	</g>
	<g>
		<polygon class="st1" points="32.3,514.3 27.4,505.4 29.1,504.4 33,511.5 54.6,498.8 55.6,500.5 		"/>
		<path class="st1" d="M40.8,528.4c-13.3,0-24.2-10.8-24.2-24.2c0-13.3,10.8-24.2,24.2-24.2c13.3,0,24.2,10.8,24.2,24.2
			C65,517.5,54.1,528.4,40.8,528.4z M40.8,481.1c-12.8,0-23.2,10.4-23.2,23.2c0,12.8,10.4,23.2,23.2,23.2S64,517,64,504.2
			C64,491.5,53.6,481.1,40.8,481.1z"/>
	</g>
	<g>
		<path class="st6" d="M144.8,17.8h28.6h1.9l2-7.6v0h-32.4l0,0l-2,7.6H144.8z M148.4,14c-0.2,0.7-0.9,1.2-1.6,1.2s-1.1-0.6-0.9-1.2
			c0.2-0.7,0.9-1.2,1.6-1.2C148.2,12.8,148.6,13.3,148.4,14z M151.7,14c-0.2,0.7-0.9,1.2-1.6,1.2s-1.1-0.6-0.9-1.2
			c0.2-0.7,0.9-1.2,1.6-1.2C151.5,12.8,151.9,13.3,151.7,14z M171.3,15.3h-16.5l0.7-2.5H172L171.3,15.3z"/>
		<polygon class="st1" points="171.3,15.3 154.9,15.3 155.5,12.7 172,12.7 		"/>
		<polygon class="st1" points="154.8,22.5 154.8,22.5 153.3,28 153.3,28 159.4,28 160.9,22.5 		"/>
		<rect x="273.4" y="5.2" class="st6" width="1.5" height="2.4"/>
		<path class="st6" d="M273.4,35.3c0,4.3-1,5.7-6,8.4l0.6,1.3c5.6-2.9,6.9-4.8,6.9-9.7V13.9h-1.5V35.3z"/>
		<path class="st6" d="M286.5,23.5c-5-0.8-6.2-1.6-6.2-4.3c0-3.5,3-4.3,5.8-4.3c3,0,7.4,0.7,7.4,0.7l0.1-1.4c0,0-4.1-0.7-7.5-0.7
			c-3.5,0-7.4,1.2-7.4,5.8c0,4,2.3,4.9,7.3,5.6c5.2,0.8,6.7,1.4,6.7,4.5c0,4.2-2.6,5.1-6.7,5.1c-2.2,0-6.9-0.7-6.9-0.7l-0.2,1.4
			c0,0,4.7,0.7,7.2,0.7c5.1,0,8.3-1.6,8.3-6.6C294.4,25.3,292.2,24.4,286.5,23.5z"/>
		<path class="st1" d="M195.6,14c0,0-3.1-0.6-4.7-0.6c-5.9,0-9,3.3-9,11.1c0,7.6,1.9,11.6,8.5,11.6c2.2,0,5.2-1.3,5.2-1.3v0.9h5.8
			V5.2h-5.8V14z M195.6,30.1c0,0-2.5,0.6-4.2,0.6c-2.7-0.1-3.6-1.8-3.6-6.2c0-4.3,1.3-5.9,3.5-5.9c1.9,0,4.3,0.4,4.3,0.4V30.1z"/>
		<path class="st1" d="M214.1,13.4c-7.6,0-10,4.6-10,11.3c0,6.7,2.4,11.4,10,11.4s10-4.7,10-11.4C224.1,18.1,221.7,13.4,214.1,13.4z
			 M214.1,30.9c-3.2,0-4.1-2.1-4.1-6.1c0-4,0.9-6.1,4.1-6.1c3.2,0,4.1,2.1,4.1,6.1C218.2,28.7,217.4,30.9,214.1,30.9z"/>
		<path class="st1" d="M238,13.4c-2,0-5.4,1.5-5.4,1.5v-1h-5.8v21.7h5.8v-16c0,0,2.7-0.7,4.2-0.7c2.6,0,3,2.1,3,5.4v11.3h5.8V24.3
			C245.7,17.2,244.1,13.4,238,13.4z"/>
		<path class="st1" d="M267.1,23.2c0-6.6-3.1-9.8-9.5-9.8c-6.3,0-9.6,3.9-9.6,11.6c0,7.8,2.8,11.1,9.3,11.1c4,0,9-1.2,9-1.2
			l-0.1-4.5c0,0-4.5,0.4-8,0.4c-3.1,0-4.3-1-4.4-3.5h12.8L267.1,23.2z M253.9,22.8c0-2.9,1-4.2,3.8-4.2c2.7,0,3.7,1.1,3.7,4.2H253.9
			z"/>
		<polygon class="st1" points="173.3,17.8 173.3,17.8 172.1,22.5 167,22.5 167,22.5 165.5,28 165.5,28 170.7,28 169.2,33.2 
			164.1,33.2 165.5,28 159.4,28 159.4,28 158,33.2 151.9,33.2 153.3,28 147.2,28 147.2,28 145.8,33.2 140.7,33.2 142.1,28 147.2,28 
			148.7,22.5 143.5,22.5 144.8,17.8 144.8,17.8 142.8,17.8 141.3,23.5 141.3,23.4 136.4,41.8 137,41.9 141.7,35 170.7,35 
			175.3,17.8 		"/>
		<g>
			<polygon class="st1" points="149.9,17.8 148.7,22.5 148.7,22.5 154.8,22.5 156,17.8 156,17.8 			"/>
			<polygon class="st1" points="162.1,17.8 160.9,22.5 160.9,22.5 167,22.5 168.2,17.8 			"/>
		</g>
	</g>
	<g>
		<path class="st75" d="M223.8,234.7c-0.4-0.4-1.1-0.3-1.4,0.1l-3.7,4.4v-9.1l-1,0.6l-1-0.6v9.1l-3.7-4.4c-0.4-0.4-1-0.5-1.4-0.1
			c-0.4,0.4-0.5,1-0.1,1.4l5.5,6.5c0.2,0.2,0.5,0.4,0.8,0.4s0.6-0.1,0.8-0.4l5.5-6.5C224.2,235.7,224.2,235.1,223.8,234.7z"/>
		<path class="st1" d="M229.5,207.8C229.5,207.9,229.5,207.9,229.5,207.8C229.5,207.9,229.5,207.9,229.5,207.8z"/>
		<path class="st1" d="M229.4,207.6C229.4,207.6,229.4,207.7,229.4,207.6C229.4,207.7,229.4,207.6,229.4,207.6z"/>
		<path class="st1" d="M229.2,207.4c0,0,0.1,0.1,0.1,0.1C229.3,207.5,229.2,207.4,229.2,207.4z"/>
		<polygon class="st1" points="229.1,207.3 229.1,207.3 229.1,207.3 		"/>
		<path class="st1" d="M217.1,228.2c0,0,0.1,0,0.1,0C217.2,228.2,217.2,228.2,217.1,228.2C217.1,228.2,217.1,228.2,217.1,228.2z"/>
		<path class="st1" d="M217.6,228.3C217.7,228.3,217.7,228.3,217.6,228.3C217.7,228.3,217.7,228.3,217.6,228.3L217.6,228.3z"/>
		<path class="st1" d="M217.6,228.3c-0.1,0-0.1,0-0.2,0C217.4,228.3,217.5,228.3,217.6,228.3z"/>
		<path class="st1" d="M218,228.2c0,0-0.1,0-0.1,0C217.9,228.3,218,228.3,218,228.2z"/>
		<path class="st1" d="M206,207.5c0,0,0.1-0.1,0.1-0.1C206.1,207.4,206,207.5,206,207.5z"/>
		<polygon class="st1" points="206.2,207.3 206.2,207.3 206.2,207.3 		"/>
		<path class="st1" d="M205.8,207.7C205.8,207.7,205.9,207.6,205.8,207.7C205.9,207.6,205.8,207.7,205.8,207.7z"/>
		<path class="st1" d="M205.7,207.9C205.7,207.9,205.8,207.9,205.7,207.9C205.8,207.9,205.7,207.9,205.7,207.9z"/>
		<path class="st1" d="M229.5,207.9C229.5,207.9,229.5,207.9,229.5,207.9c-0.1-0.1-0.1-0.2-0.1-0.2c0,0,0-0.1-0.1-0.1
			c0,0-0.1-0.1-0.1-0.1c0,0-0.1-0.1-0.1-0.1c0,0-0.1-0.1-0.1-0.1l0,0l0,0l-8.9-5.3v2.3l6.5,3.9l-2,1.2l-7,4.2l-7-4.2l-2-1.2l6.5-3.9
			V202l-8.9,5.3l0,0l0,0c0,0-0.1,0-0.1,0.1c0,0-0.1,0.1-0.1,0.1c0,0-0.1,0.1-0.1,0.1c0,0-0.1,0.1-0.1,0.1c0,0,0,0.1-0.1,0.1
			c0,0,0,0.1,0,0.1c0,0.1,0,0.2,0,0.3v12.6c0,0.4,0.2,0.7,0.5,0.9l10.9,6.5c0,0,0,0,0,0c0,0,0.1,0,0.1,0.1c0,0,0.1,0,0.1,0
			c0.1,0,0.1,0,0.2,0c0,0,0,0,0.1,0c0,0,0,0,0,0c0,0,0,0,0.1,0c0.1,0,0.1,0,0.2,0c0,0,0.1,0,0.1,0c0,0,0.1,0,0.1,0c0,0,0,0,0,0
			c0,0,0,0,0,0l10.9-6.5c0.3-0.2,0.5-0.5,0.5-0.9v-12.6C229.6,208.1,229.6,208,229.5,207.9z M216.6,223.2v2.3l-8.9-5.3V210l2,1.2
			l6.9,4.1V223.2z M227.6,220.2l-8.9,5.3v-2.3v-7.9l6.9-4.1l2-1.2V220.2z"/>
		<path class="st75" d="M217.6,192.3c-0.6,0-1,0.4-1,1v13.5v0.7c0,0.6,0.4,1,1,1s1-0.4,1-1v-0.7v-13.5
			C218.6,192.7,218.2,192.3,217.6,192.3z"/>
	</g>
	<g>
		<path class="st75" d="M223.7,423.5c-0.4-0.4-1.1-0.3-1.4,0.1l-3.7,4.4V419l-1,0.6l-1-0.6v9.1l-3.7-4.4c-0.4-0.4-1-0.5-1.4-0.1
			c-0.4,0.4-0.5,1-0.1,1.4l5.5,6.5c0.2,0.2,0.5,0.4,0.8,0.4s0.6-0.1,0.8-0.4l5.5-6.5C224.2,424.5,224.1,423.8,223.7,423.5z"/>
		<path class="st1" d="M229.5,396.6C229.5,396.6,229.5,396.7,229.5,396.6C229.5,396.7,229.5,396.6,229.5,396.6z"/>
		<path class="st1" d="M229.3,396.4C229.3,396.4,229.4,396.4,229.3,396.4C229.4,396.4,229.3,396.4,229.3,396.4z"/>
		<path class="st1" d="M229.1,396.2c0,0,0.1,0.1,0.1,0.1C229.2,396.2,229.2,396.2,229.1,396.2z"/>
		<polygon class="st1" points="229,396.1 229,396.1 229,396.1 		"/>
		<path class="st1" d="M217.1,416.9c0,0,0.1,0,0.1,0C217.2,417,217.1,417,217.1,416.9C217.1,416.9,217.1,416.9,217.1,416.9z"/>
		<path class="st1" d="M217.6,417.1C217.6,417.1,217.6,417.1,217.6,417.1C217.6,417.1,217.6,417.1,217.6,417.1L217.6,417.1z"/>
		<path class="st1" d="M217.5,417.1c-0.1,0-0.1,0-0.2,0C217.4,417.1,217.5,417.1,217.5,417.1z"/>
		<path class="st1" d="M218,417c0,0-0.1,0-0.1,0C217.9,417,217.9,417,218,417z"/>
		<path class="st1" d="M205.9,396.3c0,0,0.1-0.1,0.1-0.1C206,396.2,206,396.2,205.9,396.3z"/>
		<polygon class="st1" points="206.2,396.1 206.2,396.1 206.2,396.1 		"/>
		<path class="st1" d="M205.8,396.5C205.8,396.4,205.8,396.4,205.8,396.5C205.8,396.4,205.8,396.4,205.8,396.5z"/>
		<path class="st1" d="M205.7,396.7C205.7,396.7,205.7,396.6,205.7,396.7C205.7,396.6,205.7,396.7,205.7,396.7z"/>
		<path class="st1" d="M229.5,396.7C229.5,396.7,229.5,396.6,229.5,396.7c-0.1-0.1-0.1-0.2-0.1-0.2c0,0,0-0.1-0.1-0.1
			c0,0-0.1-0.1-0.1-0.1c0,0-0.1-0.1-0.1-0.1c0,0-0.1-0.1-0.1-0.1l0,0l0,0l-8.9-5.3v2.3l6.5,3.9l-2,1.2l-7,4.2l-7-4.2l-2-1.2l6.5-3.9
			v-2.3l-8.9,5.3l0,0l0,0c0,0-0.1,0-0.1,0.1c0,0-0.1,0.1-0.1,0.1c0,0-0.1,0.1-0.1,0.1c0,0-0.1,0.1-0.1,0.1c0,0,0,0.1-0.1,0.1
			c0,0,0,0.1,0,0.1c0,0.1,0,0.2,0,0.3v12.6c0,0.4,0.2,0.7,0.5,0.9l10.9,6.5c0,0,0,0,0,0c0,0,0.1,0,0.1,0.1c0,0,0.1,0,0.1,0
			c0.1,0,0.1,0,0.2,0c0,0,0,0,0.1,0h0c0,0,0,0,0.1,0c0.1,0,0.1,0,0.2,0c0,0,0.1,0,0.1,0c0,0,0.1,0,0.1,0c0,0,0,0,0,0c0,0,0,0,0,0
			l10.9-6.5c0.3-0.2,0.5-0.5,0.5-0.9V397C229.5,396.9,229.5,396.8,229.5,396.7z M216.6,412v2.3l-8.9-5.3v-10.3l2,1.2l6.9,4.1V412z
			 M227.5,409l-8.9,5.3V412V404l6.9-4.1l2-1.2V409z"/>
		<path class="st75" d="M217.6,381c-0.6,0-1,0.4-1,1v13.5v0.7c0,0.6,0.4,1,1,1s1-0.4,1-1v-0.7V382C218.6,381.5,218.1,381,217.6,381z
			"/>
	</g>
</g>
<g id="guides" class="st77">
</g>
</svg>
