<?xml version="1.0" encoding="utf-8"?>
<!-- Generator: Adobe Illustrator 19.1.0, SVG Export Plug-In . SVG Version: 6.00 Build 0)  -->
<!DOCTYPE svg PUBLIC "-//W3C//DTD SVG 1.1//EN" "http://www.w3.org/Graphics/SVG/1.1/DTD/svg11.dtd" [
	<!ENTITY ns_extend "http://ns.adobe.com/Extensibility/1.0/">
	<!ENTITY ns_ai "http://ns.adobe.com/AdobeIllustrator/10.0/">
	<!ENTITY ns_graphs "http://ns.adobe.com/Graphs/1.0/">
	<!ENTITY ns_vars "http://ns.adobe.com/Variables/1.0/">
	<!ENTITY ns_imrep "http://ns.adobe.com/ImageReplacement/1.0/">
	<!ENTITY ns_sfw "http://ns.adobe.com/SaveForWeb/1.0/">
	<!ENTITY ns_custom "http://ns.adobe.com/GenericCustomNamespace/1.0/">
	<!ENTITY ns_adobe_xpath "http://ns.adobe.com/XPath/1.0/">
]>
<svg version="1.1" id="Layer_1" xmlns:x="&ns_extend;" xmlns:i="&ns_ai;" xmlns:graph="&ns_graphs;"
	 xmlns="http://www.w3.org/2000/svg" xmlns:xlink="http://www.w3.org/1999/xlink" x="0px" y="0px" width="137.3px" height="24.9px"
	 viewBox="0 0 137.3 24.9" style="enable-background:new 0 0 137.3 24.9;" xml:space="preserve">
<style type="text/css">
	.st0{fill:#3686A4;}
	.st1{fill:#FFFFFF;}
	.st2{fill:#120B14;}
</style>
<metadata>
	<sfw  xmlns="&ns_sfw;">
		<slices></slices>
		<sliceSourceBounds  x="-18.3" y="-62.4" width="136.6" height="23.3" bottomLeftOrigin="true"></sliceSourceBounds>
	</sfw>
</metadata>
<g>
	<g>
		<path class="st0" d="M57.5,6.6h21.1H80L81.5,1v0H57.6l0,0l-1.5,5.6H57.5z M60.2,3.7c-0.1,0.5-0.6,0.9-1.2,0.9
			c-0.5,0-0.8-0.4-0.7-0.9c0.1-0.5,0.6-0.9,1.2-0.9C60,2.8,60.3,3.2,60.2,3.7z M62.6,3.7c-0.1,0.5-0.6,0.9-1.2,0.9s-0.8-0.4-0.7-0.9
			c0.1-0.5,0.6-0.9,1.2-0.9C62.5,2.8,62.8,3.2,62.6,3.7z M77.1,4.7H64.9l0.5-1.9h12.2L77.1,4.7z"/>
		<polygon class="st1" points="77.1,4.7 64.9,4.7 65.4,2.8 77.6,2.8 		"/>
		<polygon class="st1" points="64.9,10.1 64.8,10.1 63.8,14.1 63.8,14.1 68.3,14.1 69.3,10.1 		"/>
		<polygon class="st1" points="78.6,6.6 78.6,6.6 77.7,10.1 73.9,10.1 73.8,10.1 72.8,14.1 72.8,14.1 76.6,14.1 75.6,17.9 
			71.8,17.9 72.8,14.1 68.3,14.1 68.3,14.1 67.3,17.9 62.8,17.9 63.8,14.1 59.3,14.1 59.3,14.1 58.3,17.9 54.5,17.9 55.5,14.1 
			59.3,14.1 60.3,10.1 56.6,10.1 57.5,6.6 57.5,6.6 56.1,6.6 55,10.7 54.9,10.7 51.3,24.2 51.9,24.2 55.2,19.3 76.6,19.3 80,6.6 		
			"/>
		<g>
			<polygon class="st1" points="61.3,6.6 60.3,10.1 60.4,10.1 64.8,10.1 65.8,6.6 65.8,6.6 			"/>
			<polygon class="st1" points="70.3,6.6 69.3,10.1 69.4,10.1 73.8,10.1 74.8,6.6 			"/>
		</g>
		<path class="st2" d="M60.2,3.7c-0.1,0.5-0.6,0.9-1.2,0.9c-0.5,0-0.8-0.4-0.7-0.9c0.1-0.5,0.6-0.9,1.2-0.9
			C60,2.8,60.3,3.2,60.2,3.7z"/>
		<path class="st2" d="M62.6,3.7c-0.1,0.5-0.6,0.9-1.2,0.9s-0.8-0.4-0.7-0.9c0.1-0.5,0.6-0.9,1.2-0.9C62.5,2.8,62.8,3.2,62.6,3.7z"
			/>
	</g>
	<g>
		<path class="st1" d="M90.6,7.3c0.5,0,0.9,0.1,1.3,0.3c0.4,0.2,0.7,0.4,1,0.6c0.3,0.3,0.5,0.6,0.6,0.9c0.1,0.3,0.2,0.7,0.2,1.1
			c0,0.3,0,0.7-0.1,0.9c-0.1,0.3-0.2,0.6-0.4,0.8c-0.2,0.3-0.4,0.5-0.6,0.7c-0.2,0.2-0.5,0.5-0.7,0.7c-0.6,0.6-1.2,1.2-1.8,1.8
			c0.2-0.1,0.5-0.1,0.7-0.1c0.2,0,0.4,0,0.7,0c0.6,0,1.2,0.1,1.8,0.1c0.2,0,0.4,0.1,0.5,0.2c0.1,0.1,0.2,0.3,0.2,0.5
			c0,0.4,0,0.8,0,1.2c-2.2-0.1-4.4-0.3-6.6-0.4c0-0.2,0-0.4,0-0.6c0-0.1,0-0.3,0.1-0.4c0.1-0.1,0.1-0.3,0.3-0.4
			c0.9-0.9,1.8-1.7,2.7-2.6c0.2-0.2,0.4-0.4,0.6-0.6c0.2-0.2,0.3-0.4,0.4-0.6c0.1-0.2,0.2-0.4,0.3-0.6c0.1-0.2,0.1-0.4,0.1-0.6
			c0-0.4-0.1-0.7-0.3-0.9C91.2,9.1,90.9,9,90.5,9c-0.2,0-0.3,0-0.4,0c-0.1,0-0.2,0.1-0.3,0.2c-0.1,0.1-0.2,0.1-0.3,0.2
			c-0.1,0.1-0.1,0.2-0.2,0.3c-0.1,0.2-0.2,0.3-0.3,0.4c-0.1,0.1-0.3,0.1-0.4,0.1c0,0-0.1,0-0.1,0c-0.1,0-0.1,0-0.2,0
			C88,10.1,87.6,10,87.3,10c0.1-0.5,0.2-0.9,0.4-1.2c0.2-0.3,0.4-0.6,0.7-0.8c0.3-0.2,0.6-0.4,1-0.5C89.8,7.4,90.2,7.3,90.6,7.3z"/>
		<path class="st1" d="M102.8,13c0,0.8-0.1,1.5-0.3,2.1c-0.2,0.6-0.4,1.1-0.7,1.4c-0.3,0.4-0.7,0.6-1.1,0.8
			c-0.4,0.2-0.9,0.2-1.4,0.2c-0.5,0-1-0.2-1.4-0.4c-0.4-0.2-0.8-0.5-1.1-1c-0.3-0.4-0.6-0.9-0.7-1.5c-0.2-0.6-0.3-1.3-0.3-2.2
			c0-0.8,0.1-1.5,0.3-2.1c0.2-0.6,0.4-1.1,0.7-1.4c0.3-0.4,0.7-0.6,1.1-0.8c0.4-0.2,0.9-0.2,1.4-0.2c0.5,0,1,0.2,1.4,0.4
			c0.4,0.2,0.8,0.6,1.1,1c0.3,0.4,0.6,0.9,0.7,1.6C102.7,11.5,102.8,12.2,102.8,13z M100.7,12.8c0-0.6,0-1.2-0.1-1.6
			c-0.1-0.4-0.2-0.8-0.3-1c-0.1-0.2-0.3-0.4-0.5-0.5c-0.2-0.1-0.3-0.2-0.5-0.2c-0.2,0-0.3,0-0.5,0.1c-0.2,0.1-0.3,0.2-0.5,0.5
			c-0.1,0.2-0.2,0.5-0.3,1c-0.1,0.4-0.1,0.9-0.1,1.6c0,0.7,0,1.2,0.1,1.6c0.1,0.4,0.2,0.8,0.3,1c0.1,0.2,0.3,0.4,0.5,0.5
			c0.2,0.1,0.3,0.2,0.5,0.2c0.2,0,0.4,0,0.5-0.1c0.2-0.1,0.3-0.2,0.5-0.5c0.1-0.2,0.2-0.5,0.3-1C100.7,14,100.7,13.5,100.7,12.8z"/>
		<path class="st1" d="M112,13.9c0,0.8-0.1,1.5-0.3,2.1c-0.2,0.6-0.4,1.1-0.7,1.4c-0.3,0.4-0.7,0.6-1.1,0.8
			c-0.4,0.1-0.9,0.2-1.4,0.1c-0.5-0.1-1-0.2-1.4-0.4c-0.4-0.2-0.8-0.6-1.1-1c-0.3-0.4-0.6-0.9-0.7-1.6c-0.2-0.6-0.3-1.3-0.3-2.2
			c0-0.8,0.1-1.5,0.3-2.1c0.2-0.6,0.4-1.1,0.7-1.4c0.3-0.4,0.7-0.6,1.1-0.8c0.4-0.2,0.9-0.2,1.4-0.1c0.5,0.1,1,0.2,1.4,0.4
			c0.4,0.2,0.8,0.6,1.1,1c0.3,0.4,0.6,1,0.7,1.6C111.9,12.4,112,13.1,112,13.9z M110,13.7c0-0.6,0-1.2-0.1-1.6
			c-0.1-0.4-0.2-0.8-0.3-1c-0.1-0.3-0.3-0.4-0.5-0.5c-0.2-0.1-0.3-0.2-0.5-0.2c-0.2,0-0.3,0-0.5,0.1c-0.2,0.1-0.3,0.2-0.5,0.4
			c-0.1,0.2-0.2,0.5-0.3,0.9c-0.1,0.4-0.1,0.9-0.1,1.6c0,0.7,0,1.2,0.1,1.6c0.1,0.4,0.2,0.8,0.3,1c0.1,0.3,0.3,0.4,0.5,0.5
			c0.2,0.1,0.3,0.2,0.5,0.2c0.2,0,0.4,0,0.5-0.1c0.2-0.1,0.3-0.2,0.5-0.4c0.1-0.2,0.2-0.5,0.3-0.9C109.9,14.9,110,14.3,110,13.7z"/>
		<path class="st1" d="M120,10.2c0,0.3,0,0.6,0,0.8c0,0.2,0,0.4-0.1,0.6c-0.1,0.1-0.1,0.3-0.1,0.4c-1.1,2.2-2.2,4.4-3.3,6.5
			c-0.1,0.2-0.2,0.3-0.4,0.4c-0.2,0.1-0.4,0.1-0.7,0.1c-0.5-0.1-1-0.1-1.5-0.2c1.1-2.1,2.2-4.2,3.4-6.3c0.1-0.2,0.2-0.3,0.3-0.5
			c0.1-0.1,0.2-0.3,0.3-0.4c-1.4-0.2-2.8-0.3-4.1-0.5c-0.1,0-0.1,0-0.2-0.1c-0.1,0-0.1-0.1-0.1-0.1c0,0-0.1-0.1-0.1-0.2
			c0-0.1,0-0.1,0-0.2c0-0.4,0-0.9,0-1.3C115.6,9.6,117.8,9.9,120,10.2z"/>
		<g>
			<path class="st0" d="M0.4,17.6c3.9-0.7,7.8-1.3,11.7-1.9c0-0.3,0-0.5,0-0.8c-3.9,0.6-7.8,1.2-11.7,1.9C0.4,17,0.4,17.3,0.4,17.6z
				"/>
			<path class="st0" d="M125.2,15.7c3.9,0.6,7.8,1.2,11.7,1.9c0-0.3,0-0.5,0-0.8c-3.9-0.7-7.8-1.3-11.7-1.9
				C125.2,15.2,125.2,15.4,125.2,15.7z"/>
		</g>
		<g>
			<path class="st1" d="M23.9,9.6c0,0.5,0,1.1,0,1.6c-1.2,0.1-2.4,0.3-3.7,0.4c0,0.7,0,1.4,0,2.1c0.9-0.1,1.9-0.2,2.8-0.3
				c0,0.5,0,1,0,1.5c-0.9,0.1-1.9,0.2-2.8,0.3c0,0.7,0,1.4,0,2.1c1.2-0.1,2.4-0.3,3.7-0.4c0,0.5,0,1.1,0,1.6
				c-1.9,0.2-3.8,0.4-5.7,0.7c0-3,0-6,0-8.9C20.1,10,22,9.8,23.9,9.6z"/>
			<path class="st1" d="M32.4,10.5c-0.1,0.1-0.1,0.2-0.2,0.2c-0.1,0.1-0.2,0.1-0.3,0.1c-0.1,0-0.2,0-0.3-0.1c-0.1,0-0.2-0.1-0.4-0.2
				c-0.1-0.1-0.3-0.1-0.5-0.2c-0.2,0-0.4-0.1-0.6,0c-0.4,0-0.7,0.1-0.9,0.3C29.1,11,29,11.2,29,11.5c0,0.2,0.1,0.3,0.2,0.4
				c0.1,0.1,0.3,0.2,0.5,0.3c0.2,0.1,0.4,0.1,0.6,0.2c0.2,0,0.5,0.1,0.7,0.2c0.2,0.1,0.5,0.1,0.7,0.2c0.2,0.1,0.5,0.2,0.6,0.4
				c0.2,0.2,0.3,0.4,0.5,0.6C33,14,33,14.3,33,14.7c0,0.4-0.1,0.8-0.2,1.2c-0.1,0.4-0.4,0.7-0.6,1c-0.3,0.3-0.6,0.5-1,0.7
				c-0.4,0.2-0.9,0.3-1.4,0.4c-0.3,0-0.6,0-0.8,0c-0.3,0-0.6-0.1-0.8-0.2c-0.3-0.1-0.5-0.2-0.8-0.3c-0.2-0.1-0.4-0.3-0.6-0.4
				c0.2-0.3,0.4-0.7,0.6-1c0-0.1,0.1-0.1,0.2-0.2c0.1-0.1,0.2-0.1,0.3-0.1c0.1,0,0.2,0,0.4,0.1c0.1,0.1,0.3,0.1,0.4,0.2
				c0.2,0.1,0.3,0.1,0.5,0.2c0.2,0.1,0.4,0.1,0.7,0c0.4,0,0.7-0.1,0.9-0.3c0.2-0.2,0.3-0.5,0.3-0.8c0-0.2-0.1-0.4-0.2-0.5
				c-0.1-0.1-0.3-0.2-0.5-0.3c-0.2-0.1-0.4-0.1-0.6-0.2c-0.2,0-0.5-0.1-0.7-0.1c-0.2-0.1-0.5-0.1-0.7-0.2c-0.2-0.1-0.5-0.2-0.6-0.4
				c-0.2-0.2-0.3-0.4-0.5-0.7c-0.1-0.3-0.2-0.6-0.2-1c0-0.3,0.1-0.7,0.2-1c0.1-0.3,0.3-0.6,0.6-0.9c0.3-0.3,0.6-0.5,1-0.7
				c0.4-0.2,0.8-0.3,1.3-0.4c0.3,0,0.5,0,0.8,0c0.3,0,0.5,0.1,0.7,0.1c0.2,0.1,0.4,0.1,0.7,0.2c0.2,0.1,0.4,0.2,0.5,0.3
				C32.7,9.8,32.5,10.2,32.4,10.5z"/>
			<path class="st1" d="M42.3,7.9c0,0.5,0,1.1,0,1.6c-0.8,0.1-1.7,0.1-2.5,0.2c0,2.4,0,4.9,0,7.3c-0.7,0.1-1.4,0.1-2.1,0.2
				c0-2.4,0-4.9,0-7.3C36.8,10,36,10,35.2,10.1c0-0.5,0-1.1,0-1.6C37.5,8.3,39.9,8.1,42.3,7.9z"/>
			<path class="st1" d="M42.4,15.9c0-0.1,0-0.3,0.1-0.4c0.1-0.1,0.1-0.2,0.2-0.3c0.1-0.1,0.2-0.2,0.3-0.2c0.1-0.1,0.3-0.1,0.4-0.1
				c0.2,0,0.3,0,0.4,0.1c0.1,0,0.2,0.1,0.3,0.2c0.1,0.1,0.2,0.2,0.2,0.3c0.1,0.1,0.1,0.3,0.1,0.4c0,0.1,0,0.3-0.1,0.4
				c-0.1,0.1-0.1,0.2-0.2,0.3c-0.1,0.1-0.2,0.2-0.3,0.2c-0.1,0.1-0.3,0.1-0.4,0.1c-0.2,0-0.3,0-0.4-0.1c-0.1,0-0.2-0.1-0.3-0.2
				c-0.1-0.1-0.2-0.2-0.2-0.3C42.4,16.2,42.4,16,42.4,15.9z"/>
		</g>
	</g>
</g>
</svg>
