<?xml version="1.0" encoding="utf-8"?>
<!-- Generator: Adobe Illustrator 19.1.0, SVG Export Plug-In . SVG Version: 6.00 Build 0)  -->
<svg version="1.1" id="Layer_1" xmlns="http://www.w3.org/2000/svg" xmlns:xlink="http://www.w3.org/1999/xlink" x="0px" y="0px"
	 viewBox="0 0 32 32" style="enable-background:new 0 0 32 32;" xml:space="preserve">
<style type="text/css">
	.st0{fill:#FFFFFF;}
</style>
<path class="st0" d="M16,0C7.3,0,0.2,7.1,0.2,15.8S7.3,31.7,16,31.7s15.8-7.1,15.8-15.8S24.8,0,16,0z M23.9,11.8c0,0.2,0,0.3,0,0.5
	c0,5.4-4.1,11.6-11.6,11.6c-2.3,0-4.4-0.7-6.2-1.8c0.3,0,0.6,0.1,1,0.1c1.9,0,3.7-0.6,5-1.7c-1.8,0-3.3-1.2-3.8-2.8
	c0.2,0,0.5,0.1,0.8,0.1c0.4,0,0.7,0,1.1-0.1c-1.9-0.4-3.3-2-3.3-4c0,0,0,0,0-0.1c0.5,0.3,1.2,0.5,1.8,0.5C7.7,13.2,7,12,7,10.6
	c0-0.7,0.2-1.4,0.6-2c2,2.5,5,4.1,8.4,4.2c-0.1-0.3-0.1-0.6-0.1-0.9c0-2.2,1.8-4.1,4.1-4.1c1.2,0,2.2,0.5,3,1.3
	c0.9-0.2,1.8-0.5,2.6-1c-0.3,0.9-0.9,1.7-1.8,2.2c0.8-0.1,1.6-0.3,2.3-0.6C25.4,10.5,24.7,11.2,23.9,11.8L23.9,11.8z"/>
</svg>
