<?xml version="1.0" encoding="utf-8"?>
<!-- Generator: Adobe Illustrator 19.1.0, SVG Export Plug-In . SVG Version: 6.00 Build 0)  -->
<svg version="1.1" id="Layer_1" xmlns="http://www.w3.org/2000/svg" xmlns:xlink="http://www.w3.org/1999/xlink" x="0px" y="0px"
	 viewBox="0 0 32 32" style="enable-background:new 0 0 32 32;" xml:space="preserve">
<style type="text/css">
	.st0{fill:#DDDAAC;}
</style>
<path class="st0" d="M16,0C7.2,0,0,7.2,0,16s7.2,16,16,16s16-7.2,16-16S24.8,0,16,0z M4.8,13.4c-0.1,0.5-0.6,0.8-1.1,0.8
	c-0.1,0-0.2,0-0.3-0.1c-0.6-0.2-0.9-0.8-0.7-1.4c0.5-1.7,1.7-3,3.2-3.9C7.5,8,9.3,7.8,11,8.4c0.6,0.2,0.9,0.8,0.7,1.4
	c-0.2,0.6-0.8,0.9-1.4,0.7C9.2,10.1,8,10.2,7,10.8C5.9,11.3,5.1,12.3,4.8,13.4z M8.8,15.8c0-0.1,0-0.3,0.1-0.4
	c-1.4,0.1-3.2,0.4-3.2,0.4c0.8-1.3,4.9-1.8,4.9-1.8c1,0,1.8,0.8,1.8,1.8s-0.8,1.8-1.8,1.8C9.7,17.6,8.8,16.8,8.8,15.8z M8.9,24.3
	c13.7-0.8,13.1-5.2,13.1-5.2C26.8,27.4,8.9,24.3,8.9,24.3z M23.2,17.6c-1,0-1.8-0.8-1.8-1.8c0-0.1,0-0.3,0.1-0.4
	c-1.4,0.1-3.2,0.4-3.2,0.4c0.8-1.3,4.9-1.8,4.9-1.8c1,0,1.8,0.8,1.8,1.8C25.1,16.8,24.2,17.6,23.2,17.6z M28.5,13.3
	c-0.2,0.1-0.4,0.1-0.5,0.1c-0.4,0-0.8-0.2-1-0.6c-0.6-1-1.5-1.8-2.7-2.1c-1.1-0.3-2.3-0.2-3.4,0.4c-0.5,0.3-1.2,0.1-1.5-0.4
	s-0.1-1.2,0.4-1.5c1.6-0.9,3.4-1.1,5.1-0.6s3.1,1.6,4,3.2C29.2,12.3,29,13,28.5,13.3z"/>
</svg>
