<?xml version="1.0" encoding="utf-8"?>
<!-- Generator: Adobe Illustrator 19.1.0, SVG Export Plug-In . SVG Version: 6.00 Build 0)  -->
<svg version="1.1" id="Layer_1" xmlns="http://www.w3.org/2000/svg" xmlns:xlink="http://www.w3.org/1999/xlink" x="0px" y="0px"
	 viewBox="0 0 32 32" style="enable-background:new 0 0 32 32;" xml:space="preserve">
<style type="text/css">
	.st0{fill:#666666;}
</style>
<path class="st0" d="M10.2,25.1c0,0,0-0.2-0.5-0.3c0,0-0.5,0-0.5,0.3c0,0-0.1,1.1-0.7,3.3l0.1,2.3c0.1-1.3,0.1-1.9,0.2-2.2
	c0-0.1,0-0.2,0-0.3c0-0.2,0.2-0.3,0.2-0.3c0.1,0,0.1,0.2,0.1,0.4c0,0.2-0.1,0.3-0.2,0.3c0,0.3-0.1,0.9-0.2,2.2L9,29.5
	c0,0,0.2-0.9,1.1-1.2C10.1,28.4,9.6,27,10.2,25.1z"/>
<g>
	<path class="st0" d="M23.6,1.1c-0.3,0-0.5,0.1-0.8,0.1c-0.3,0.1-0.5,0.2-0.8,0.4c-0.1,0.1-0.1,0.1-0.2,0.1C21.5,2.3,21.2,3,21.2,3
		c-0.1-0.2-0.1-0.6,0-1c-0.3,0.2-0.5,0.3-0.8,0.5c-0.8,0.5-2.3,1.5-3,2.3c-0.2,0.2-0.4,0.5-0.5,0.7c-0.2,0.3-0.5,3.5-0.5,3.5
		c-0.2-0.3-0.1-2.9-0.1-2.9l-0.9,1.1l-0.3,3.3C14.8,10.1,15,7.8,15,7.8c-0.6,0.5-3.5,4.2-4.1,5.5c-0.7,1.3,0.3,4.1,0.3,4.1
		c-1.4-1.4-1.4-2.4-1.4-2.4c-0.6,1.2,1,5.5,1,5.5C9.1,18.5,9,16.9,9,16.9c-0.3,1-0.1,2,0.1,2.7c0.1,0.5,0.7,1.8,1.1,2.5
		c-0.3-0.2-0.9-0.5-2-0.1c0,0,1.5,0,1.8,0.5c-0.1,0.4-0.3,1.2-0.5,2.2c0.1,0,0.3,0,0.3,0c0.2,0.1,0.3,0.1,0.4,0.2
		c0.1-0.3,0.1-0.6,0.2-1c0.1-0.7,0.3-1.4,0.5-2.1c0.2-0.4,0.3-0.9,0.5-1.3c0.5-1.2,1-2.4,1.5-3.5c0.7-1.5,1.5-3,2.3-4.5
		c1-1.8,2-3.5,3.2-5.1C18.8,6.6,19.4,5.8,20,5c-0.4,0.5-6,8.4-8.9,18c2.8-1.2,4.5-3.1,4.9-3.7c-0.5,0.7-4,2.2-4,2.2l0.5-0.5
		c1.2-1,2.3-2.1,3.3-3.2c1-1.2,1.8-2.5,2.6-3.9c0.3-0.4,0.5-0.9,0.7-1.3c0.2-0.3,0.3-0.7,0.5-1.1c0-0.1,0-0.1-0.1-0.1
		c-0.9,0.4-3.6,1.4-3.6,1.4s0-0.2,0.3-0.4c0.2-0.2,4.6-2.4,5.4-3.2C22.5,8.4,23.5,6,23.5,6c-0.2,0.5-1.2,1.2-1.2,1.2
		c0.3-0.5,1-2.1,1-2.1c-0.2,0.4-2.4,2.3-2.4,2.3C21,7,22.4,4.7,23,4.1c0.2-0.2,0.2-0.3,0.5-0.5c-0.3,0-0.5-0.2-0.8-0.2
		c0,0,0.3-0.2,1.2-0.2l0,0c-0.1-0.1-0.4-0.2-0.6-0.2c0,0,0.3-0.2,0.8-0.1C24.2,3,24.2,3,24.3,2.9c0.3-0.3,0.3-0.7,0.4-1.1
		c0,0,0.2-0.8,0.2-0.8C24.4,1,24,1,23.6,1.1z"/>
	<path class="st0" d="M16.1,19.3C16.2,19.2,16.2,19.2,16.1,19.3L16.1,19.3z"/>
	<path class="st0" d="M16.1,19.3C16.1,19.3,16.1,19.3,16.1,19.3C16.1,19.3,16.1,19.3,16.1,19.3L16.1,19.3z"/>
</g>
</svg>
