<?xml version="1.0" encoding="utf-8"?>
<!-- Generator: Adobe Illustrator 19.1.0, SVG Export Plug-In . SVG Version: 6.00 Build 0)  -->
<svg version="1.1" id="Layer_1" xmlns="http://www.w3.org/2000/svg" xmlns:xlink="http://www.w3.org/1999/xlink" x="0px" y="0px"
	 viewBox="0 0 32 32" style="enable-background:new 0 0 32 32;" xml:space="preserve">
<style type="text/css">
	.st0{fill:#666666;}
</style>
<path class="st0" d="M29.7,20.7l-1.9-6.9l-3.3-0.9l-1.1-4.2c0,0,0,0,0,0c0-0.1-0.1-0.1-0.2-0.2l-4.1-1.1l-0.9-3.2l-7-1.9l0,0.1
	l0.8,3.1l-0.7-0.2c-0.1,0-0.2,0-0.2,0.1L11,5.7l-0.8-2.9l-5,5L6,10.7l-3.3,3.3c0,0,0,0-0.1,0c0,0,0,0,0,0.1c0,0.1,0,0.1,0,0.2
	c0,0,0,0.1,0,0.1l1.2,4.4l-2.1,2.1l1.8,6.9l2.1-2.1L5.8,26c0,0.1,0.1,0.1,0.2,0.2l0.6,0.2l-2.2,2.2l6.9,1.8l2.2-2.2l4.2,1
	c0,0,0.1-0.1,0.1-0.1c0,0,0,0,0.1,0c0.1,0,0.1,0.2,0.2,0.1l3.3-3.2l3,0.9l5-5l-3-0.8l0.3-0.3c0.1-0.1,0.1-0.1,0.1-0.2l-0.2-0.7
	L29.7,20.7L29.7,20.7z M7.1,14.6l5-5l-0.9-3.5l0.3-0.3l0.9,0.2l0.9,3.3l6.9,1.8l0.1,0l-0.9-3.3l3.5,0.9l-3.4,3.4l-6.7-1.8L8,15.3
	L3.3,14l2.9-2.9L7.1,14.6z M9.3,23.5L6.9,26l-0.7-0.2L6,25.2l2.5-2.5l-1.8-6.9l-2.5,2.5l-1-3.9l4.7,1.3l1.8,6.6l6.6,1.8l1.3,4.8
	l-3.8-1l2.5-2.5L9.3,23.5z M26.1,20.5l-0.4,0.4L22.4,20l-5,5l3.4,0.9L18,28.7L16.7,24l4.8-4.8l-1.8-6.6l3.4-3.4l1,3.6l-3.2-0.9
	l0,0.1l1.8,6.9l3.2,0.9L26.1,20.5z"/>
</svg>
