<?xml version="1.0" encoding="utf-8"?>
<!-- Generator: Adobe Illustrator 19.1.0, SVG Export Plug-In . SVG Version: 6.00 Build 0)  -->
<svg version="1.1" id="Layer_1" xmlns="http://www.w3.org/2000/svg" xmlns:xlink="http://www.w3.org/1999/xlink" x="0px" y="0px"
	 viewBox="0 0 32 32" style="enable-background:new 0 0 32 32;" xml:space="preserve">
<style type="text/css">
	.st0{fill:#666666;}
</style>
<g>
	<path class="st0" d="M27.9,25l2.4-1.1l-3.6-7.7l-11.8,5.5l1,2.1c-0.1,0-0.2,0.1-0.3,0.2l-3.1-1.5c-0.9-0.4-2.1,0-2.5,0.9
		c-0.4,0.9,0,2.1,0.9,2.5l4.4,2.1c0.3,0.1,0.5,0.2,0.8,0.2c0.6,0.2,1.2,0.2,1.8,0l0.6,1.2l2.9-1.4c0,0,0,0,0,0.1
		c0.8,1.8,3,2.6,4.8,1.7C28,29,28.8,26.8,27.9,25C27.9,25,27.9,25,27.9,25z"/>
	<path class="st0" d="M17.9,19.3L12.8,8.4c-0.4-0.9-1.6-1.3-2.5-0.9C9.4,7.9,9,9,9.4,10l5.1,10.9L17.9,19.3z"/>
	<path class="st0" d="M22.9,16.9l3.4-1.6l-1.7-3.7c-0.4-0.9-1.6-1.3-2.5-0.9c-0.9,0.4-1.3,1.6-0.9,2.5L22.9,16.9z"/>
	<path class="st0" d="M22.1,17.3l-2.7-5.7c0-0.1-0.1-0.2-0.2-0.3c-0.5-0.7-1.5-1-2.3-0.6c-0.9,0.4-1.3,1.6-0.9,2.5l2.7,5.7
		L22.1,17.3z"/>
	<path class="st0" d="M15.2,11.4c0.2-0.5,0.6-1,1.2-1.3c0-0.2,0-0.4,0-0.5c0-2.9-2.3-5.3-5.1-5.3c-2.8,0-5.1,2.4-5.1,5.3
		c0,2.7,2,4.9,4.6,5.2l-0.6-1.3c-1.7-0.5-2.9-2.1-2.9-4c0-2.3,1.8-4.2,4-4.2c2.2,0,4,1.9,4,4.2c0,0.5-0.1,1-0.3,1.5L15.2,11.4z"/>
	<path class="st0" d="M12.4,18.3L11.8,17c-0.1,0-0.3,0-0.5,0c-4,0-7.3-3.4-7.3-7.6c0-4.2,3.3-7.6,7.3-7.6s7.3,3.4,7.3,7.6
		c0,0.1,0,0.2,0,0.3c0.5,0.2,0.9,0.4,1.3,0.9c0-0.4,0.1-0.8,0.1-1.1c0-4.9-3.9-8.9-8.6-8.9s-8.6,4-8.6,8.9c0,4.9,3.9,8.9,8.6,8.9
		C11.6,18.4,12,18.4,12.4,18.3z"/>
</g>
</svg>
