<?xml version="1.0" encoding="utf-8"?>
<!-- Generator: Adobe Illustrator 19.0.1, SVG Export Plug-In . SVG Version: 6.00 Build 0)  -->
<!DOCTYPE svg PUBLIC "-//W3C//DTD SVG 1.1//EN" "http://www.w3.org/Graphics/SVG/1.1/DTD/svg11.dtd" [
	<!ENTITY ns_extend "http://ns.adobe.com/Extensibility/1.0/">
	<!ENTITY ns_ai "http://ns.adobe.com/AdobeIllustrator/10.0/">
	<!ENTITY ns_graphs "http://ns.adobe.com/Graphs/1.0/">
	<!ENTITY ns_vars "http://ns.adobe.com/Variables/1.0/">
	<!ENTITY ns_imrep "http://ns.adobe.com/ImageReplacement/1.0/">
	<!ENTITY ns_sfw "http://ns.adobe.com/SaveForWeb/1.0/">
	<!ENTITY ns_custom "http://ns.adobe.com/GenericCustomNamespace/1.0/">
	<!ENTITY ns_adobe_xpath "http://ns.adobe.com/XPath/1.0/">
]>
<svg version="1.1" xmlns:x="&ns_extend;" xmlns:i="&ns_ai;" xmlns:graph="&ns_graphs;"
	 xmlns="http://www.w3.org/2000/svg" xmlns:xlink="http://www.w3.org/1999/xlink" x="0px" y="0px" width="71.5px" height="1400px"
	 viewBox="0 0 71.5 1400" style="enable-background:new 0 0 71.5 1400;" xml:space="preserve">
<style type="text/css">
	.st0{fill:#3781A4;}
	.st1{fill:#FFFFFF;}
	.st2{opacity:0.7;}
	.st3{opacity:0.7;fill:none;stroke:#FFFFFF;stroke-miterlimit:10;}
	.st4{opacity:0.8;}
	.st5{opacity:0.25;}
	.st6{opacity:0.5;fill:#FFFFFF;}
	.st7{opacity:0.5;}
	.st8{fill:#A5B5B8;}
	.st9{fill:#EBEBEC;}
	.st10{fill:#B6B6B7;}
	.st11{fill:#B12843;}
	.st12{fill:#449F6C;}
	.st13{opacity:0.6;}
	.st14{fill:none;stroke:#FFFFFF;stroke-width:2;stroke-linecap:round;stroke-linejoin:round;stroke-miterlimit:10;}
	.st15{fill:none;stroke:#3781A4;stroke-width:6;stroke-miterlimit:10;}
	.st16{fill:none;stroke:#3781A4;stroke-width:5;stroke-miterlimit:10;}
	.st17{opacity:0.6;fill:none;stroke:#FFFFFF;stroke-width:2;stroke-linecap:round;stroke-linejoin:round;stroke-miterlimit:10;}
	.st18{opacity:0.6;fill:#B6B6B7;}
	.st19{opacity:0.35;fill:#B6B6B7;}
	.st20{opacity:0.8;fill:#B6B6B7;}
	.st21{opacity:0.3;fill:#B6B6B7;}
	.st22{opacity:0.7;fill:#B6B6B7;}
	.st23{opacity:0.9;fill:#B6B6B7;}
	.st24{opacity:0.5;fill:#B6B6B7;}
	.st25{opacity:0.2;fill:#B6B6B7;}
	.st26{opacity:0.65;fill:#B6B6B7;}
	.st27{opacity:0.85;fill:#B6B6B7;}
	.st28{opacity:0.45;fill:#B6B6B7;}
	.st29{fill:#485154;}
	.st30{fill:none;stroke:#3781A4;stroke-width:11;stroke-linecap:round;stroke-linejoin:round;stroke-miterlimit:10;}
	.st31{fill:none;stroke:#FFFFFF;stroke-width:3;stroke-linecap:round;stroke-linejoin:round;stroke-miterlimit:10;}
	.st32{fill:none;stroke:#FFFFFF;stroke-width:3;stroke-linecap:round;stroke-linejoin:round;}
	.st33{fill:none;stroke:#FFFFFF;stroke-width:3;stroke-linecap:round;stroke-linejoin:round;stroke-dasharray:2.9465,3.9287;}
	.st34{fill:none;stroke:#FFFFFF;stroke-width:3;stroke-linecap:round;stroke-linejoin:round;stroke-dasharray:2.0068,2.6757;}
	.st35{fill:none;stroke:#FFFFFF;stroke-width:3;stroke-linecap:round;stroke-linejoin:round;stroke-dasharray:2.8093,3.7457;}
	.st36{fill:none;stroke:#FFFFFF;stroke-width:3;stroke-linecap:round;stroke-linejoin:round;stroke-dasharray:3.0503,4.067;}
	.st37{fill:none;stroke:#FFFFFF;stroke-width:3;stroke-linecap:round;stroke-linejoin:round;stroke-dasharray:2.7315,3.642;}
	.st38{fill:none;stroke:#FFFFFF;stroke-width:3;stroke-linecap:round;stroke-linejoin:round;stroke-dasharray:3.1002,4.1336;}
	.st39{fill:none;stroke:#3781A4;stroke-width:10;stroke-linecap:round;stroke-linejoin:round;stroke-miterlimit:10;}
	.st40{fill:none;stroke:#3781A4;stroke-width:10;stroke-miterlimit:10;}
	.st41{fill:none;stroke:#FFFFFF;stroke-width:3;stroke-linecap:round;stroke-linejoin:round;stroke-dasharray:3.1068,4.1424;}
	.st42{fill:none;stroke:#FFFFFF;stroke-width:3;stroke-linecap:round;stroke-linejoin:round;stroke-dasharray:1.5484,2.0645;}
	.st43{fill:none;stroke:#FFFFFF;stroke-width:3;stroke-linecap:round;stroke-linejoin:round;stroke-dasharray:2.9057,3.8743;}
	.st44{fill:none;stroke:#FFFFFF;stroke-width:3;stroke-linecap:round;stroke-linejoin:round;stroke-dasharray:3.1048,4.1397;}
	.st45{fill:none;stroke:#FFFFFF;stroke-width:3;stroke-linecap:round;stroke-linejoin:round;stroke-dasharray:2.7418,3.6557;}
	.st46{fill:none;stroke:#FFFFFF;stroke-width:3;stroke-linecap:round;stroke-linejoin:round;stroke-dasharray:3.6253,4.8338;}
	.st47{fill:none;stroke:#FFFFFF;stroke-miterlimit:10;}
	.st48{fill:none;stroke:#FFFFFF;stroke-width:2.5;stroke-linecap:round;stroke-linejoin:round;stroke-miterlimit:10;}
	.st49{fill:#FAFCFB;}
	.st50{fill:none;stroke:#00A9CD;stroke-miterlimit:10;}
	.st51{fill:none;stroke:#3781A4;stroke-width:0.8989;stroke-miterlimit:10;}
	.st52{fill:none;stroke:#B12843;stroke-width:0.8989;stroke-miterlimit:10;}
	.st53{fill:none;stroke:#3781A4;stroke-miterlimit:10;}
	.st54{fill-rule:evenodd;clip-rule:evenodd;fill:none;stroke:#3781A4;stroke-width:0.8989;stroke-miterlimit:10;}
	.st55{fill:#00A9CD;}
	.st56{fill:#0597C4;}
	.st57{fill:#2A3033;}
	.st58{fill:none;}
	.st59{fill:none;stroke:#A5B5B8;stroke-miterlimit:10;}
	.st60{fill:none;stroke:#D4D4D6;stroke-miterlimit:10;}
	.st61{fill:#231F20;}
	.st62{opacity:0.6;fill:#2A3033;}
	.st63{opacity:0.85;fill:#FFFFFF;}
	.st64{fill:#0F070A;}
	.st65{opacity:0.85;}
	.st66{fill:#7B8081;}
	.st67{opacity:0.9;fill:#FFFFFF;}
	.st68{fill:#F7F7F7;}
	.st69{fill-rule:evenodd;clip-rule:evenodd;fill:#2A3033;}
	.st70{opacity:0.75;}
	.st71{fill:none;stroke:#FFFFFF;stroke-width:2;stroke-miterlimit:10;}
	.st72{fill:#00ADEE;}
	.st73{fill:#0C0110;}
	.st74{opacity:0.7;fill:#FFFFFF;}
	.st75{fill:none;stroke:#FFFFFF;stroke-width:0.4355;stroke-miterlimit:10;}
	.st76{opacity:0.6;fill:#FFFFFF;}
	.st77{display:none;}
	.st78{display:inline;fill:none;}
	.st79{display:inline;}
	.st80{fill:none;stroke:#FFFFFF;stroke-width:0.5319;stroke-miterlimit:10;}
	.st81{fill:none;stroke:#F9F164;stroke-width:0.5;stroke-miterlimit:10;}
</style>
<metadata>
	<sfw  xmlns="&ns_sfw;">
		<slices></slices>
		<sliceSourceBounds  width="10247.2" height="8656.8" x="-5542.2" y="-6643.9" bottomLeftOrigin="true"></sliceSourceBounds>
		<optimizationSettings>
			<targetSettings  fileFormat="JPEGFormat" targetSettingsID="0">
				
					<JPEGFormat  quality="60" matteColor="#FFFFFF" noMatteColor="false" progressive="false" blurAmount="0" embedICCProfile="false" optimized="true">
					</JPEGFormat>
			</targetSettings>
		</optimizationSettings>
	</sfw>
</metadata>
<g id="Layer_1">
	<g>
		<g>
			<path class="st1" d="M20.1,463.1c-0.1,0.1-0.1,0.1-0.2,0.2s-0.1,0.1-0.2,0.2c0.2-0.1,0.4-0.1,0.6-0.2s0.4-0.1,0.7-0.1
				c0.4,0,0.9,0.1,1.3,0.2c0.4,0.1,0.8,0.4,1.1,0.7c0.3,0.3,0.6,0.7,0.8,1.1c0.2,0.5,0.3,1,0.3,1.6c0,0.6-0.1,1.1-0.3,1.6
				c-0.2,0.5-0.5,0.9-0.9,1.3c-0.4,0.4-0.8,0.7-1.4,0.9c-0.5,0.2-1.1,0.3-1.8,0.3c-0.7,0-1.3-0.1-1.8-0.3c-0.5-0.2-1-0.5-1.4-0.9
				s-0.7-0.8-0.9-1.4c-0.2-0.5-0.3-1.1-0.3-1.7c0-1.2,0.5-2.4,1.4-3.6l2.7-3.7c0.1-0.2,0.3-0.3,0.5-0.4c0.2-0.1,0.5-0.2,0.8-0.2h2.3
				L20.1,463.1z M18.4,467c0,0.3,0,0.6,0.1,0.8c0.1,0.2,0.2,0.4,0.3,0.6c0.1,0.2,0.3,0.3,0.6,0.4c0.2,0.1,0.5,0.1,0.8,0.1
				c0.3,0,0.5,0,0.7-0.1c0.2-0.1,0.4-0.2,0.6-0.4c0.2-0.2,0.3-0.4,0.4-0.6c0.1-0.2,0.1-0.5,0.1-0.8c0-0.3,0-0.6-0.1-0.8
				s-0.2-0.4-0.4-0.6c-0.2-0.2-0.4-0.3-0.6-0.4s-0.5-0.1-0.8-0.1c-0.3,0-0.5,0-0.7,0.1c-0.2,0.1-0.4,0.2-0.6,0.4s-0.3,0.4-0.4,0.6
				C18.4,466.5,18.4,466.7,18.4,467z"/>
			<path class="st1" d="M34.3,464.8c0,1.1-0.1,2-0.3,2.7c-0.2,0.8-0.5,1.4-0.9,1.9c-0.4,0.5-0.9,0.9-1.4,1.1
				c-0.5,0.2-1.1,0.4-1.8,0.4s-1.2-0.1-1.8-0.4s-1-0.6-1.4-1.1c-0.4-0.5-0.7-1.1-0.9-1.9c-0.2-0.8-0.3-1.7-0.3-2.7s0.1-2,0.3-2.7
				c0.2-0.8,0.5-1.4,0.9-1.9c0.4-0.5,0.9-0.9,1.4-1.1s1.1-0.4,1.8-0.4s1.2,0.1,1.8,0.4c0.5,0.2,1,0.6,1.4,1.1
				c0.4,0.5,0.7,1.1,0.9,1.9C34.2,462.9,34.3,463.8,34.3,464.8z M31.6,464.8c0-0.8-0.1-1.5-0.2-2c-0.1-0.5-0.2-0.9-0.4-1.3
				c-0.2-0.3-0.4-0.5-0.6-0.6s-0.4-0.2-0.7-0.2c-0.2,0-0.4,0.1-0.7,0.2s-0.4,0.3-0.6,0.6c-0.2,0.3-0.3,0.7-0.4,1.3
				c-0.1,0.5-0.2,1.2-0.2,2c0,0.8,0.1,1.5,0.2,2.1c0.1,0.5,0.2,0.9,0.4,1.3c0.2,0.3,0.4,0.5,0.6,0.6c0.2,0.1,0.4,0.2,0.7,0.2
				c0.2,0,0.4-0.1,0.7-0.2c0.2-0.1,0.4-0.3,0.6-0.6c0.2-0.3,0.3-0.7,0.4-1.3S31.6,465.7,31.6,464.8z"/>
			<path class="st1" d="M35.5,470.9v-8.6h1.6c0.3,0,0.5,0.1,0.6,0.4l0.1,0.5c0.1-0.1,0.3-0.3,0.4-0.4s0.3-0.2,0.5-0.3
				c0.2-0.1,0.4-0.2,0.6-0.2c0.2-0.1,0.4-0.1,0.7-0.1c0.5,0,0.9,0.1,1.3,0.4c0.3,0.3,0.6,0.6,0.8,1.1c0.1-0.3,0.3-0.5,0.5-0.7
				c0.2-0.2,0.4-0.3,0.7-0.5c0.2-0.1,0.5-0.2,0.8-0.3c0.3-0.1,0.5-0.1,0.8-0.1c0.5,0,0.9,0.1,1.3,0.2c0.4,0.1,0.7,0.4,1,0.6
				c0.3,0.3,0.5,0.6,0.6,1c0.1,0.4,0.2,0.9,0.2,1.4v5.5h-2.6v-5.5c0-0.9-0.4-1.3-1.1-1.3c-0.3,0-0.6,0.1-0.9,0.3
				c-0.2,0.2-0.3,0.6-0.3,1v5.5h-2.6v-5.5c0-0.5-0.1-0.8-0.3-1c-0.2-0.2-0.5-0.3-0.9-0.3c-0.2,0-0.5,0.1-0.7,0.2
				c-0.2,0.1-0.4,0.2-0.6,0.4v6.2H35.5z"/>
			<path class="st1" d="M55,464.2c-0.1,0.1-0.1,0.2-0.2,0.2c-0.1,0-0.2,0.1-0.3,0.1c-0.1,0-0.2,0-0.4-0.1c-0.1-0.1-0.3-0.1-0.4-0.2
				c-0.1-0.1-0.3-0.1-0.5-0.2c-0.2-0.1-0.4-0.1-0.6-0.1c-0.3,0-0.6,0.1-0.7,0.2c-0.2,0.1-0.3,0.3-0.3,0.5c0,0.2,0.1,0.3,0.2,0.4
				c0.1,0.1,0.3,0.2,0.5,0.3c0.2,0.1,0.4,0.2,0.6,0.2c0.2,0.1,0.5,0.2,0.7,0.2c0.2,0.1,0.5,0.2,0.7,0.3c0.2,0.1,0.5,0.3,0.6,0.4
				c0.2,0.2,0.3,0.4,0.5,0.6s0.2,0.5,0.2,0.9c0,0.4-0.1,0.8-0.2,1.2c-0.2,0.4-0.4,0.7-0.7,0.9c-0.3,0.3-0.7,0.5-1.1,0.6
				c-0.4,0.1-1,0.2-1.6,0.2c-0.3,0-0.6,0-0.9-0.1c-0.3-0.1-0.6-0.1-0.8-0.2c-0.3-0.1-0.5-0.2-0.8-0.3c-0.2-0.1-0.4-0.3-0.6-0.4
				l0.6-0.9c0.1-0.1,0.2-0.2,0.3-0.3s0.2-0.1,0.4-0.1c0.1,0,0.3,0,0.4,0.1c0.1,0.1,0.2,0.1,0.4,0.2c0.1,0.1,0.3,0.1,0.5,0.2
				c0.2,0.1,0.4,0.1,0.7,0.1c0.2,0,0.4,0,0.5-0.1c0.1,0,0.2-0.1,0.3-0.2c0.1-0.1,0.1-0.2,0.2-0.2c0-0.1,0.1-0.2,0.1-0.3
				c0-0.2-0.1-0.3-0.2-0.4s-0.3-0.2-0.5-0.3c-0.2-0.1-0.4-0.2-0.6-0.2c-0.2-0.1-0.5-0.1-0.7-0.2c-0.2-0.1-0.5-0.2-0.7-0.3
				c-0.2-0.1-0.5-0.3-0.6-0.5c-0.2-0.2-0.3-0.4-0.5-0.7c-0.1-0.3-0.2-0.6-0.2-1c0-0.4,0.1-0.7,0.2-1s0.4-0.6,0.6-0.9
				s0.6-0.4,1.1-0.6c0.4-0.1,0.9-0.2,1.5-0.2c0.3,0,0.6,0,0.9,0.1c0.3,0.1,0.6,0.1,0.8,0.2c0.3,0.1,0.5,0.2,0.7,0.4
				c0.2,0.1,0.4,0.3,0.6,0.4L55,464.2z"/>
		</g>
		<g>
			<path class="st1" d="M12.4,754.4h2.3v-6.1c0-0.3,0-0.6,0-0.9l-1.4,1.1c-0.1,0.1-0.2,0.1-0.4,0.2c-0.1,0-0.2,0-0.3,0
				c-0.1,0-0.2-0.1-0.3-0.1c-0.1-0.1-0.1-0.1-0.2-0.2l-0.8-1.1l3.8-3.2h2.1v10.2h2v1.9h-6.9V754.4z"/>
			<path class="st1" d="M25.1,744.1c0.6,0,1.1,0.1,1.6,0.3c0.5,0.2,0.9,0.4,1.2,0.7c0.3,0.3,0.6,0.7,0.8,1.1
				c0.2,0.4,0.3,0.9,0.3,1.4c0,0.4-0.1,0.8-0.2,1.2c-0.1,0.4-0.3,0.7-0.5,1.1c-0.2,0.3-0.5,0.7-0.7,1c-0.3,0.3-0.6,0.6-0.9,1
				l-2.4,2.4c0.3-0.1,0.6-0.2,0.9-0.2c0.3-0.1,0.6-0.1,0.8-0.1h2.2c0.3,0,0.5,0.1,0.7,0.2c0.2,0.2,0.2,0.4,0.2,0.6v1.5h-8.5v-0.8
				c0-0.2,0-0.3,0.1-0.5c0.1-0.2,0.2-0.3,0.3-0.5l3.5-3.5c0.3-0.3,0.6-0.6,0.8-0.9s0.4-0.5,0.5-0.8c0.1-0.3,0.3-0.5,0.3-0.8
				c0.1-0.3,0.1-0.5,0.1-0.8c0-0.5-0.1-0.8-0.3-1.1s-0.6-0.4-1-0.4c-0.4,0-0.7,0.1-1,0.3s-0.4,0.5-0.5,0.7c-0.1,0.3-0.3,0.5-0.5,0.6
				s-0.5,0.1-0.8,0.1l-1.4-0.2c0.1-0.6,0.3-1.1,0.5-1.6s0.6-0.8,0.9-1.1c0.4-0.3,0.8-0.5,1.3-0.7S24.6,744.1,25.1,744.1z"/>
			<path class="st1" d="M39.1,750.3c0,1.1-0.1,2-0.3,2.7c-0.2,0.8-0.5,1.4-0.9,1.9c-0.4,0.5-0.9,0.9-1.4,1.1s-1.1,0.4-1.8,0.4
				s-1.2-0.1-1.8-0.4s-1-0.6-1.4-1.1c-0.4-0.5-0.7-1.1-0.9-1.9c-0.2-0.8-0.3-1.7-0.3-2.7s0.1-2,0.3-2.7c0.2-0.8,0.5-1.4,0.9-1.9
				c0.4-0.5,0.9-0.9,1.4-1.1s1.1-0.4,1.8-0.4s1.2,0.1,1.8,0.4s1,0.6,1.4,1.1c0.4,0.5,0.7,1.1,0.9,1.9
				C39,748.3,39.1,749.2,39.1,750.3z M36.4,750.3c0-0.8-0.1-1.5-0.2-2c-0.1-0.5-0.2-0.9-0.4-1.3c-0.2-0.3-0.4-0.5-0.6-0.6
				s-0.4-0.2-0.7-0.2c-0.2,0-0.4,0.1-0.7,0.2s-0.4,0.3-0.6,0.6c-0.2,0.3-0.3,0.7-0.4,1.3c-0.1,0.5-0.2,1.2-0.2,2
				c0,0.8,0.1,1.5,0.2,2.1c0.1,0.5,0.2,0.9,0.4,1.3c0.2,0.3,0.4,0.5,0.6,0.6c0.2,0.1,0.4,0.2,0.7,0.2c0.2,0,0.4-0.1,0.7-0.2
				c0.2-0.1,0.4-0.3,0.6-0.6c0.2-0.3,0.3-0.7,0.4-1.3S36.4,751.1,36.4,750.3z"/>
			<path class="st1" d="M40.3,756.3v-8.6h1.6c0.3,0,0.5,0.1,0.6,0.4l0.1,0.5c0.1-0.1,0.3-0.3,0.4-0.4s0.3-0.2,0.5-0.3
				c0.2-0.1,0.4-0.2,0.6-0.2c0.2-0.1,0.4-0.1,0.7-0.1c0.5,0,0.9,0.1,1.3,0.4c0.3,0.3,0.6,0.6,0.8,1.1c0.1-0.3,0.3-0.5,0.5-0.7
				c0.2-0.2,0.4-0.3,0.7-0.5c0.2-0.1,0.5-0.2,0.8-0.3c0.3-0.1,0.5-0.1,0.8-0.1c0.5,0,0.9,0.1,1.3,0.2c0.4,0.1,0.7,0.4,1,0.6
				c0.3,0.3,0.5,0.6,0.6,1c0.1,0.4,0.2,0.9,0.2,1.4v5.5h-2.6v-5.5c0-0.9-0.4-1.3-1.1-1.3c-0.3,0-0.6,0.1-0.9,0.3
				c-0.2,0.2-0.3,0.6-0.3,1v5.5h-2.6v-5.5c0-0.5-0.1-0.8-0.3-1c-0.2-0.2-0.5-0.3-0.9-0.3c-0.2,0-0.5,0.1-0.7,0.2
				c-0.2,0.1-0.4,0.2-0.6,0.4v6.2H40.3z"/>
			<path class="st1" d="M59.8,749.6c-0.1,0.1-0.1,0.2-0.2,0.2c-0.1,0-0.2,0.1-0.3,0.1c-0.1,0-0.2,0-0.4-0.1
				c-0.1-0.1-0.3-0.1-0.4-0.2c-0.1-0.1-0.3-0.1-0.5-0.2c-0.2-0.1-0.4-0.1-0.6-0.1c-0.3,0-0.6,0.1-0.7,0.2c-0.2,0.1-0.3,0.3-0.3,0.5
				c0,0.2,0.1,0.3,0.2,0.4c0.1,0.1,0.3,0.2,0.5,0.3c0.2,0.1,0.4,0.2,0.6,0.2c0.2,0.1,0.5,0.2,0.7,0.2c0.2,0.1,0.5,0.2,0.7,0.3
				c0.2,0.1,0.5,0.3,0.6,0.4c0.2,0.2,0.3,0.4,0.5,0.6s0.2,0.5,0.2,0.9c0,0.4-0.1,0.8-0.2,1.2c-0.2,0.4-0.4,0.7-0.7,0.9
				c-0.3,0.3-0.7,0.5-1.1,0.6c-0.4,0.1-1,0.2-1.6,0.2c-0.3,0-0.6,0-0.9-0.1c-0.3-0.1-0.6-0.1-0.8-0.2c-0.3-0.1-0.5-0.2-0.8-0.3
				c-0.2-0.1-0.4-0.3-0.6-0.4l0.6-0.9c0.1-0.1,0.2-0.2,0.3-0.3s0.2-0.1,0.4-0.1c0.1,0,0.3,0,0.4,0.1c0.1,0.1,0.2,0.1,0.4,0.2
				c0.1,0.1,0.3,0.1,0.5,0.2c0.2,0.1,0.4,0.1,0.7,0.1c0.2,0,0.4,0,0.5-0.1c0.1,0,0.2-0.1,0.3-0.2c0.1-0.1,0.1-0.2,0.2-0.2
				c0-0.1,0.1-0.2,0.1-0.3c0-0.2-0.1-0.3-0.2-0.4s-0.3-0.2-0.5-0.3c-0.2-0.1-0.4-0.2-0.6-0.2c-0.2-0.1-0.5-0.1-0.7-0.2
				c-0.2-0.1-0.5-0.2-0.7-0.3c-0.2-0.1-0.5-0.3-0.6-0.5c-0.2-0.2-0.3-0.4-0.5-0.7c-0.1-0.3-0.2-0.6-0.2-1c0-0.4,0.1-0.7,0.2-1
				s0.4-0.6,0.6-0.9s0.6-0.4,1.1-0.6c0.4-0.1,0.9-0.2,1.5-0.2c0.3,0,0.6,0,0.9,0.1c0.3,0.1,0.6,0.1,0.8,0.2c0.3,0.1,0.5,0.2,0.7,0.4
				c0.2,0.1,0.4,0.3,0.6,0.4L59.8,749.6z"/>
		</g>
		<g>
			<path class="st1" d="M12.4,1040.1h2.3v-6.1c0-0.3,0-0.6,0-0.9l-1.4,1.1c-0.1,0.1-0.2,0.1-0.4,0.2c-0.1,0-0.2,0-0.3,0
				c-0.1,0-0.2-0.1-0.3-0.1c-0.1-0.1-0.1-0.1-0.2-0.2l-0.8-1.1l3.8-3.2h2.1v10.2h2v1.9h-6.9V1040.1z"/>
			<path class="st1" d="M25,1042.1c-0.6,0-1.2-0.1-1.8-0.3s-1-0.4-1.4-0.7c-0.4-0.3-0.7-0.7-0.9-1.1c-0.2-0.4-0.3-0.9-0.3-1.5
				c0-0.3,0-0.6,0.1-0.9c0.1-0.3,0.2-0.6,0.4-0.8c0.2-0.2,0.4-0.5,0.6-0.6c0.3-0.2,0.6-0.3,0.9-0.5c-0.6-0.2-1-0.6-1.2-1
				c-0.3-0.4-0.4-1-0.4-1.6c0-0.5,0.1-0.9,0.3-1.3s0.5-0.7,0.8-1c0.3-0.3,0.8-0.5,1.2-0.7c0.5-0.2,1-0.3,1.6-0.3
				c0.6,0,1.1,0.1,1.6,0.3c0.5,0.2,0.9,0.4,1.2,0.7c0.3,0.3,0.6,0.6,0.8,1c0.2,0.4,0.3,0.8,0.3,1.3c0,0.6-0.1,1.1-0.4,1.6
				c-0.3,0.4-0.7,0.8-1.2,1c0.4,0.1,0.7,0.3,0.9,0.5s0.5,0.4,0.6,0.6c0.2,0.2,0.3,0.5,0.4,0.8c0.1,0.3,0.1,0.6,0.1,0.9
				c0,0.5-0.1,1-0.3,1.5s-0.5,0.8-0.9,1.1c-0.4,0.3-0.8,0.6-1.4,0.7S25.6,1042.1,25,1042.1z M25,1040.2c0.3,0,0.5,0,0.7-0.1
				c0.2-0.1,0.4-0.2,0.5-0.4c0.1-0.2,0.2-0.3,0.3-0.5s0.1-0.4,0.1-0.7c0-0.3,0-0.5-0.1-0.7c-0.1-0.2-0.1-0.4-0.3-0.5
				c-0.1-0.2-0.3-0.3-0.5-0.4c-0.2-0.1-0.5-0.1-0.8-0.1s-0.6,0-0.8,0.1s-0.4,0.2-0.5,0.4c-0.1,0.2-0.2,0.3-0.3,0.5
				c-0.1,0.2-0.1,0.5-0.1,0.7c0,0.2,0,0.5,0.1,0.7c0.1,0.2,0.2,0.4,0.3,0.5c0.1,0.2,0.3,0.3,0.5,0.4
				C24.5,1040.1,24.7,1040.2,25,1040.2z M25,1034.8c0.3,0,0.5,0,0.7-0.1c0.2-0.1,0.3-0.2,0.4-0.4c0.1-0.2,0.2-0.3,0.2-0.5
				c0-0.2,0.1-0.4,0.1-0.6c0-0.2,0-0.4-0.1-0.5c0-0.2-0.1-0.3-0.2-0.5c-0.1-0.1-0.3-0.2-0.4-0.3c-0.2-0.1-0.4-0.1-0.6-0.1
				c-0.3,0-0.5,0-0.7,0.1c-0.2,0.1-0.3,0.2-0.4,0.3c-0.1,0.1-0.2,0.3-0.2,0.5c0,0.2-0.1,0.4-0.1,0.5c0,0.2,0,0.4,0.1,0.6
				c0,0.2,0.1,0.4,0.2,0.5c0.1,0.2,0.2,0.3,0.4,0.4S24.7,1034.8,25,1034.8z"/>
			<path class="st1" d="M39.1,1035.9c0,1.1-0.1,2-0.3,2.7c-0.2,0.8-0.5,1.4-0.9,1.9c-0.4,0.5-0.9,0.9-1.4,1.1s-1.1,0.4-1.8,0.4
				s-1.2-0.1-1.8-0.4s-1-0.6-1.4-1.1c-0.4-0.5-0.7-1.1-0.9-1.9c-0.2-0.8-0.3-1.7-0.3-2.7s0.1-2,0.3-2.7c0.2-0.8,0.5-1.4,0.9-1.9
				c0.4-0.5,0.9-0.9,1.4-1.1s1.1-0.4,1.8-0.4s1.2,0.1,1.8,0.4s1,0.6,1.4,1.1c0.4,0.5,0.7,1.1,0.9,1.9
				C39,1034,39.1,1034.9,39.1,1035.9z M36.4,1035.9c0-0.8-0.1-1.5-0.2-2c-0.1-0.5-0.2-0.9-0.4-1.3c-0.2-0.3-0.4-0.5-0.6-0.6
				s-0.4-0.2-0.7-0.2c-0.2,0-0.4,0.1-0.7,0.2s-0.4,0.3-0.6,0.6c-0.2,0.3-0.3,0.7-0.4,1.3c-0.1,0.5-0.2,1.2-0.2,2
				c0,0.8,0.1,1.5,0.2,2.1c0.1,0.5,0.2,0.9,0.4,1.3c0.2,0.3,0.4,0.5,0.6,0.6c0.2,0.1,0.4,0.2,0.7,0.2c0.2,0,0.4-0.1,0.7-0.2
				c0.2-0.1,0.4-0.3,0.6-0.6c0.2-0.3,0.3-0.7,0.4-1.3S36.4,1036.8,36.4,1035.9z"/>
			<path class="st1" d="M40.3,1042v-8.6h1.6c0.3,0,0.5,0.1,0.6,0.4l0.1,0.5c0.1-0.1,0.3-0.3,0.4-0.4s0.3-0.2,0.5-0.3
				c0.2-0.1,0.4-0.2,0.6-0.2c0.2-0.1,0.4-0.1,0.7-0.1c0.5,0,0.9,0.1,1.3,0.4c0.3,0.3,0.6,0.6,0.8,1.1c0.1-0.3,0.3-0.5,0.5-0.7
				c0.2-0.2,0.4-0.3,0.7-0.5c0.2-0.1,0.5-0.2,0.8-0.3c0.3-0.1,0.5-0.1,0.8-0.1c0.5,0,0.9,0.1,1.3,0.2c0.4,0.1,0.7,0.4,1,0.6
				c0.3,0.3,0.5,0.6,0.6,1c0.1,0.4,0.2,0.9,0.2,1.4v5.5h-2.6v-5.5c0-0.9-0.4-1.3-1.1-1.3c-0.3,0-0.6,0.1-0.9,0.3
				c-0.2,0.2-0.3,0.6-0.3,1v5.5h-2.6v-5.5c0-0.5-0.1-0.8-0.3-1c-0.2-0.2-0.5-0.3-0.9-0.3c-0.2,0-0.5,0.1-0.7,0.2
				c-0.2,0.1-0.4,0.2-0.6,0.4v6.2H40.3z"/>
			<path class="st1" d="M59.8,1035.3c-0.1,0.1-0.1,0.2-0.2,0.2c-0.1,0-0.2,0.1-0.3,0.1c-0.1,0-0.2,0-0.4-0.1
				c-0.1-0.1-0.3-0.1-0.4-0.2c-0.1-0.1-0.3-0.1-0.5-0.2c-0.2-0.1-0.4-0.1-0.6-0.1c-0.3,0-0.6,0.1-0.7,0.2c-0.2,0.1-0.3,0.3-0.3,0.5
				c0,0.2,0.1,0.3,0.2,0.4c0.1,0.1,0.3,0.2,0.5,0.3c0.2,0.1,0.4,0.2,0.6,0.2c0.2,0.1,0.5,0.2,0.7,0.2c0.2,0.1,0.5,0.2,0.7,0.3
				c0.2,0.1,0.5,0.3,0.6,0.4c0.2,0.2,0.3,0.4,0.5,0.6s0.2,0.5,0.2,0.9c0,0.4-0.1,0.8-0.2,1.2c-0.2,0.4-0.4,0.7-0.7,0.9
				c-0.3,0.3-0.7,0.5-1.1,0.6c-0.4,0.1-1,0.2-1.6,0.2c-0.3,0-0.6,0-0.9-0.1c-0.3-0.1-0.6-0.1-0.8-0.2c-0.3-0.1-0.5-0.2-0.8-0.3
				c-0.2-0.1-0.4-0.3-0.6-0.4l0.6-0.9c0.1-0.1,0.2-0.2,0.3-0.3s0.2-0.1,0.4-0.1c0.1,0,0.3,0,0.4,0.1c0.1,0.1,0.2,0.1,0.4,0.2
				c0.1,0.1,0.3,0.1,0.5,0.2c0.2,0.1,0.4,0.1,0.7,0.1c0.2,0,0.4,0,0.5-0.1c0.1,0,0.2-0.1,0.3-0.2c0.1-0.1,0.1-0.2,0.2-0.2
				c0-0.1,0.1-0.2,0.1-0.3c0-0.2-0.1-0.3-0.2-0.4s-0.3-0.2-0.5-0.3c-0.2-0.1-0.4-0.2-0.6-0.2c-0.2-0.1-0.5-0.1-0.7-0.2
				c-0.2-0.1-0.5-0.2-0.7-0.3c-0.2-0.1-0.5-0.3-0.6-0.5c-0.2-0.2-0.3-0.4-0.5-0.7c-0.1-0.3-0.2-0.6-0.2-1c0-0.4,0.1-0.7,0.2-1
				s0.4-0.6,0.6-0.9s0.6-0.4,1.1-0.6c0.4-0.1,0.9-0.2,1.5-0.2c0.3,0,0.6,0,0.9,0.1c0.3,0.1,0.6,0.1,0.8,0.2c0.3,0.1,0.5,0.2,0.7,0.4
				c0.2,0.1,0.4,0.3,0.6,0.4L59.8,1035.3z"/>
		</g>
		<g class="st5">
			<rect x="34" y="200.3" class="st6" width="3.4" height="249.4"/>
			<rect x="34" y="484.9" class="st6" width="3.4" height="249.4"/>
			<rect x="34" y="770.6" class="st6" width="3.4" height="249.4"/>
			<rect x="34" y="1056.3" class="st6" width="3.4" height="249.4"/>
		</g>
		<g>
			<path class="st1" d="M15.5,1315.5c0.6,0,1.1,0.1,1.6,0.3c0.5,0.2,0.9,0.4,1.2,0.7c0.3,0.3,0.6,0.7,0.8,1.1
				c0.2,0.4,0.3,0.9,0.3,1.4c0,0.4-0.1,0.8-0.2,1.2c-0.1,0.4-0.3,0.7-0.5,1.1c-0.2,0.3-0.5,0.7-0.7,1c-0.3,0.3-0.6,0.6-0.9,1
				l-2.4,2.4c0.3-0.1,0.6-0.2,0.9-0.2c0.3-0.1,0.6-0.1,0.8-0.1h2.2c0.3,0,0.5,0.1,0.7,0.2c0.2,0.2,0.2,0.4,0.2,0.6v1.5h-8.5v-0.8
				c0-0.2,0-0.3,0.1-0.5c0.1-0.2,0.2-0.3,0.3-0.5l3.5-3.5c0.3-0.3,0.6-0.6,0.8-0.9c0.2-0.3,0.4-0.5,0.5-0.8c0.1-0.3,0.3-0.5,0.3-0.8
				c0.1-0.3,0.1-0.5,0.1-0.8c0-0.5-0.1-0.8-0.3-1.1s-0.6-0.4-1-0.4c-0.4,0-0.7,0.1-1,0.3s-0.4,0.5-0.5,0.7c-0.1,0.3-0.3,0.5-0.5,0.6
				s-0.5,0.1-0.8,0.1l-1.4-0.2c0.1-0.6,0.3-1.1,0.5-1.6s0.6-0.8,0.9-1.1c0.4-0.3,0.8-0.5,1.3-0.7S15,1315.5,15.5,1315.5z"/>
			<path class="st1" d="M28.2,1323h1.2v1.4c0,0.1,0,0.2-0.1,0.3c-0.1,0.1-0.2,0.1-0.4,0.1h-0.7v2.8H26v-2.8h-4.8
				c-0.2,0-0.3,0-0.4-0.1c-0.1-0.1-0.2-0.2-0.2-0.4l-0.3-1.3l5.6-7.5h2.4V1323z M26,1319.8c0-0.2,0-0.4,0-0.6c0-0.2,0-0.5,0.1-0.7
				l-3.2,4.5H26V1319.8z"/>
			<path class="st1" d="M39.1,1321.6c0,1.1-0.1,2-0.3,2.7c-0.2,0.8-0.5,1.4-0.9,1.9c-0.4,0.5-0.9,0.9-1.4,1.1s-1.1,0.4-1.8,0.4
				s-1.2-0.1-1.8-0.4s-1-0.6-1.4-1.1c-0.4-0.5-0.7-1.1-0.9-1.9c-0.2-0.8-0.3-1.7-0.3-2.7s0.1-2,0.3-2.7c0.2-0.8,0.5-1.4,0.9-1.9
				c0.4-0.5,0.9-0.9,1.4-1.1s1.1-0.4,1.8-0.4s1.2,0.1,1.8,0.4s1,0.6,1.4,1.1c0.4,0.5,0.7,1.1,0.9,1.9
				C39,1319.7,39.1,1320.6,39.1,1321.6z M36.4,1321.6c0-0.8-0.1-1.5-0.2-2c-0.1-0.5-0.2-0.9-0.4-1.3c-0.2-0.3-0.4-0.5-0.6-0.6
				s-0.4-0.2-0.7-0.2c-0.2,0-0.4,0.1-0.7,0.2s-0.4,0.3-0.6,0.6c-0.2,0.3-0.3,0.7-0.4,1.3c-0.1,0.5-0.2,1.2-0.2,2
				c0,0.8,0.1,1.5,0.2,2.1c0.1,0.5,0.2,0.9,0.4,1.3c0.2,0.3,0.4,0.5,0.6,0.6c0.2,0.1,0.4,0.2,0.7,0.2c0.2,0,0.4-0.1,0.7-0.2
				c0.2-0.1,0.4-0.3,0.6-0.6c0.2-0.3,0.3-0.7,0.4-1.3S36.4,1322.5,36.4,1321.6z"/>
			<path class="st1" d="M40.3,1327.7v-8.6h1.6c0.3,0,0.5,0.1,0.6,0.4l0.1,0.5c0.1-0.1,0.3-0.3,0.4-0.4s0.3-0.2,0.5-0.3
				c0.2-0.1,0.4-0.2,0.6-0.2c0.2-0.1,0.4-0.1,0.7-0.1c0.5,0,0.9,0.1,1.3,0.4c0.3,0.3,0.6,0.6,0.8,1.1c0.1-0.3,0.3-0.5,0.5-0.7
				c0.2-0.2,0.4-0.3,0.7-0.5c0.2-0.1,0.5-0.2,0.8-0.3c0.3-0.1,0.5-0.1,0.8-0.1c0.5,0,0.9,0.1,1.3,0.2c0.4,0.1,0.7,0.4,1,0.6
				c0.3,0.3,0.5,0.6,0.6,1c0.1,0.4,0.2,0.9,0.2,1.4v5.5h-2.6v-5.5c0-0.9-0.4-1.3-1.1-1.3c-0.3,0-0.6,0.1-0.9,0.3
				c-0.2,0.2-0.3,0.6-0.3,1v5.5h-2.6v-5.5c0-0.5-0.1-0.8-0.3-1c-0.2-0.2-0.5-0.3-0.9-0.3c-0.2,0-0.5,0.1-0.7,0.2
				c-0.2,0.1-0.4,0.2-0.6,0.4v6.2H40.3z"/>
			<path class="st1" d="M59.8,1321c-0.1,0.1-0.1,0.2-0.2,0.2c-0.1,0-0.2,0.1-0.3,0.1c-0.1,0-0.2,0-0.4-0.1c-0.1-0.1-0.3-0.1-0.4-0.2
				c-0.1-0.1-0.3-0.1-0.5-0.2c-0.2-0.1-0.4-0.1-0.6-0.1c-0.3,0-0.6,0.1-0.7,0.2c-0.2,0.1-0.3,0.3-0.3,0.5c0,0.2,0.1,0.3,0.2,0.4
				c0.1,0.1,0.3,0.2,0.5,0.3c0.2,0.1,0.4,0.2,0.6,0.2c0.2,0.1,0.5,0.2,0.7,0.2c0.2,0.1,0.5,0.2,0.7,0.3c0.2,0.1,0.5,0.3,0.6,0.4
				c0.2,0.2,0.3,0.4,0.5,0.6s0.2,0.5,0.2,0.9c0,0.4-0.1,0.8-0.2,1.2c-0.2,0.4-0.4,0.7-0.7,0.9c-0.3,0.3-0.7,0.5-1.1,0.6
				c-0.4,0.1-1,0.2-1.6,0.2c-0.3,0-0.6,0-0.9-0.1c-0.3-0.1-0.6-0.1-0.8-0.2c-0.3-0.1-0.5-0.2-0.8-0.3c-0.2-0.1-0.4-0.3-0.6-0.4
				l0.6-0.9c0.1-0.1,0.2-0.2,0.3-0.3s0.2-0.1,0.4-0.1c0.1,0,0.3,0,0.4,0.1c0.1,0.1,0.2,0.1,0.4,0.2c0.1,0.1,0.3,0.1,0.5,0.2
				c0.2,0.1,0.4,0.1,0.7,0.1c0.2,0,0.4,0,0.5-0.1c0.1,0,0.2-0.1,0.3-0.2c0.1-0.1,0.1-0.2,0.2-0.2c0-0.1,0.1-0.2,0.1-0.3
				c0-0.2-0.1-0.3-0.2-0.4s-0.3-0.2-0.5-0.3c-0.2-0.1-0.4-0.2-0.6-0.2c-0.2-0.1-0.5-0.1-0.7-0.2c-0.2-0.1-0.5-0.2-0.7-0.3
				c-0.2-0.1-0.5-0.3-0.6-0.5c-0.2-0.2-0.3-0.4-0.5-0.7c-0.1-0.3-0.2-0.6-0.2-1c0-0.4,0.1-0.7,0.2-1s0.4-0.6,0.6-0.9
				s0.6-0.4,1.1-0.6c0.4-0.1,0.9-0.2,1.5-0.2c0.3,0,0.6,0,0.9,0.1c0.3,0.1,0.6,0.1,0.8,0.2c0.3,0.1,0.5,0.2,0.7,0.4
				c0.2,0.1,0.4,0.3,0.6,0.4L59.8,1321z"/>
		</g>
		<g>
			<path class="st1" d="M40.2,185.4c0,1.1-0.1,2-0.3,2.7c-0.2,0.8-0.5,1.4-0.9,1.9c-0.4,0.5-0.9,0.9-1.4,1.1s-1.1,0.4-1.8,0.4
				s-1.2-0.1-1.8-0.4s-1-0.6-1.4-1.1c-0.4-0.5-0.7-1.1-0.9-1.9c-0.2-0.8-0.3-1.7-0.3-2.7s0.1-2,0.3-2.7c0.2-0.8,0.5-1.4,0.9-1.9
				c0.4-0.5,0.9-0.9,1.4-1.1s1.1-0.4,1.8-0.4s1.2,0.1,1.8,0.4s1,0.6,1.4,1.1c0.4,0.5,0.7,1.1,0.9,1.9
				C40.1,183.4,40.2,184.3,40.2,185.4z M37.6,185.4c0-0.8-0.1-1.5-0.2-2c-0.1-0.5-0.2-0.9-0.4-1.3c-0.2-0.3-0.4-0.5-0.6-0.6
				s-0.4-0.2-0.7-0.2c-0.2,0-0.4,0.1-0.7,0.2s-0.4,0.3-0.6,0.6c-0.2,0.3-0.3,0.7-0.4,1.3c-0.1,0.5-0.2,1.2-0.2,2
				c0,0.8,0.1,1.5,0.2,2.1c0.1,0.5,0.2,0.9,0.4,1.3c0.2,0.3,0.4,0.5,0.6,0.6c0.2,0.1,0.4,0.2,0.7,0.2c0.2,0,0.4-0.1,0.7-0.2
				c0.2-0.1,0.4-0.3,0.6-0.6c0.2-0.3,0.3-0.7,0.4-1.3S37.6,186.2,37.6,185.4z"/>
		</g>
	</g>
</g>
<g id="guides" class="st77">
</g>
</svg>
