<?xml version="1.0" encoding="utf-8"?>
<!-- Generator: Adobe Illustrator 18.1.0, SVG Export Plug-In . SVG Version: 6.00 Build 0)  -->
<svg version="1.1" id="Layer_1" xmlns="http://www.w3.org/2000/svg" xmlns:xlink="http://www.w3.org/1999/xlink" x="0px" y="0px"
	 viewBox="0 0 129 41" enable-background="new 0 0 129 41" xml:space="preserve">
<g>
	<g>
		<polygon fill="#FF5F00" points="9.7,37.8 6,26.9 15.7,20.2 25.5,26.9 21.8,37.8 		"/>
	</g>
	<g>
		<polygon fill="#D83D47" points="6.8,28.1 2.5,15 13.7,6.8 25,15 20.7,28.1 		"/>
	</g>
	<g>
		<polygon fill="#39B54A" points="23.4,28.2 19.4,16.1 29.9,8.6 40.3,16.1 36.3,28.2 		"/>
	</g>
	<g>
		<polygon fill="#4F86A0" points="21.6,38 18.1,28.2 27.4,22.1 36.7,28.2 33.1,38 		"/>
	</g>
	<g>
		<polygon fill="#3E7ABE" points="17,27.1 10.5,9.2 21.3,2.2 32.1,9.2 28,20.6 		"/>
	</g>
	<g>
		<path fill="#8C8C8C" d="M33.8,38.9H9L1.4,15.3l20-14.5l20,14.5L33.8,38.9z M9.9,37.7h23L40,15.8L21.4,2.3L2.8,15.8L9.9,37.7z"/>
	</g>
	<g>
		<polygon fill="#FFFFFF" points="19.7,25.2 15.5,18 10.3,22.8 19.7,33.9 32.6,17.9 28,8.7 		"/>
	</g>
</g>
<g>
	<path d="M58.9,8v23.9h-2v-1.2c-1.7,1-3.5,1.6-5.3,1.6c-0.8,0-1.5-0.1-2.1-0.3c-0.6-0.2-1.2-0.6-1.8-1.1c-1.3-1.1-1.9-3.3-1.9-6.6
		c0-3.3,0.5-5.6,1.6-7.1c1.1-1.4,2.8-2.2,5.4-2.2c1,0,2.4,0.1,4.2,0.4V8H58.9z M50.4,30.2c0.4,0.2,0.9,0.2,1.6,0.2
		c0.7,0,1.4-0.1,2.3-0.4c0.9-0.2,1.5-0.5,2-0.7L57,29V17.1c-1.8-0.3-3.1-0.4-4.1-0.4c-1.9,0-3.2,0.6-3.9,1.7
		c-0.7,1.1-1.1,2.9-1.1,5.3c0,2.8,0.4,4.7,1.3,5.5C49.6,29.7,50,30,50.4,30.2z"/>
	<path d="M61.5,23.6c0-3.1,0.5-5.3,1.6-6.6c1-1.3,2.8-2,5.4-2c2.5,0,4.3,0.7,5.4,2c1,1.3,1.6,3.5,1.6,6.6c0,3.1-0.5,5.3-1.4,6.7
		c-1,1.3-2.8,2-5.5,2c-2.7,0-4.5-0.7-5.5-2C62,28.9,61.5,26.7,61.5,23.6z M63.6,23.5c0,2.6,0.3,4.4,0.9,5.4c0.6,1,1.9,1.5,4,1.5
		c2,0,3.4-0.5,4-1.5c0.6-1,0.9-2.8,0.9-5.4c0-2.6-0.3-4.4-1-5.3s-2-1.4-3.9-1.4c-1.9,0-3.2,0.5-3.9,1.4
		C63.9,19.1,63.6,20.9,63.6,23.5z"/>
	<path d="M80,31.9h-2V15.3h2v1.2c1.9-1,3.7-1.6,5.4-1.6c2.2,0,3.7,0.6,4.4,1.8c0.7,1.2,1.1,3.3,1.1,6.4v8.7h-2v-8.6
		c0-2.5-0.2-4.3-0.7-5.2c-0.5-0.9-1.5-1.3-3.1-1.3c-0.8,0-1.6,0.1-2.4,0.3c-0.9,0.2-1.5,0.5-2,0.7L80,18.2V31.9z"/>
	<path d="M105,30.2l1-0.1l0.1,1.6c-2.5,0.3-4.6,0.5-6.3,0.5c-2.4,0-4.1-0.7-5-2.1c-0.9-1.4-1.4-3.5-1.4-6.4c0-5.8,2.3-8.7,6.8-8.7
		c2.2,0,3.8,0.6,4.9,1.9c1.1,1.2,1.6,3.2,1.6,6l-0.1,1.6H95.3c0,2,0.3,3.5,1,4.5s1.9,1.5,3.6,1.5S103.3,30.4,105,30.2z M95.3,22.8
		h9.3c0-2.2-0.4-3.7-1.1-4.7c-0.7-0.9-1.9-1.4-3.4-1.4s-2.8,0.5-3.6,1.4C95.7,19.1,95.3,20.6,95.3,22.8z"/>
</g>
<g>
	<path fill="#BBBDC0" d="M113.2,16h1.1v15.9c0,3.7-1,4.9-4.8,7.1l-0.4-1c3.3-2,4.1-3,4.1-6.2V16z M113.2,9.6h1.1v1.8h-1.1V9.6z"/>
	<path fill="#BBBDC0" d="M127.3,17.2c0,0-3.1-0.5-5.3-0.5c-2.1,0-4.1,0.7-4.1,3.2c0,1.8,0.8,2.6,4.4,3.2c4.2,0.6,5.7,1.3,5.7,4.3
		c0,3.8-2.3,4.9-5.9,4.9c-1.8,0-5.1-0.5-5.1-0.5l0.1-1.1c0,0,3.3,0.5,4.9,0.5c3,0,4.8-0.7,4.8-3.8c0-2.2-1-2.7-4.8-3.3
		c-3.7-0.6-5.3-1.4-5.3-4.2c0-3.3,2.7-4.3,5.3-4.3c2.5,0,5.3,0.4,5.3,0.4L127.3,17.2z"/>
</g>
</svg>
