<?xml version="1.0" encoding="utf-8"?>
<!-- Generator: Adobe Illustrator 19.0.1, SVG Export Plug-In . SVG Version: 6.00 Build 0)  -->
<!DOCTYPE svg PUBLIC "-//W3C//DTD SVG 1.1//EN" "http://www.w3.org/Graphics/SVG/1.1/DTD/svg11.dtd" [
	<!ENTITY ns_extend "http://ns.adobe.com/Extensibility/1.0/">
	<!ENTITY ns_ai "http://ns.adobe.com/AdobeIllustrator/10.0/">
	<!ENTITY ns_graphs "http://ns.adobe.com/Graphs/1.0/">
	<!ENTITY ns_vars "http://ns.adobe.com/Variables/1.0/">
	<!ENTITY ns_imrep "http://ns.adobe.com/ImageReplacement/1.0/">
	<!ENTITY ns_sfw "http://ns.adobe.com/SaveForWeb/1.0/">
	<!ENTITY ns_custom "http://ns.adobe.com/GenericCustomNamespace/1.0/">
	<!ENTITY ns_adobe_xpath "http://ns.adobe.com/XPath/1.0/">
]>
<svg version="1.1" xmlns:x="&ns_extend;" xmlns:i="&ns_ai;" xmlns:graph="&ns_graphs;"
	 xmlns="http://www.w3.org/2000/svg" xmlns:xlink="http://www.w3.org/1999/xlink" x="0px" y="0px" width="124.9px" height="85px"
	 viewBox="0 0 124.9 85" style="enable-background:new 0 0 124.9 85;" xml:space="preserve">
<style type="text/css">
	.st0{fill:#3781A4;}
	.st1{fill:#FFFFFF;}
	.st2{opacity:0.7;}
	.st3{opacity:0.7;fill:none;stroke:#FFFFFF;stroke-miterlimit:10;}
	.st4{opacity:0.8;}
	.st5{opacity:0.25;}
	.st6{opacity:0.5;fill:#FFFFFF;}
	.st7{opacity:0.5;}
	.st8{fill:#A5B5B8;}
	.st9{fill:#EBEBEC;}
	.st10{fill:#B6B6B7;}
	.st11{fill:#B12843;}
	.st12{fill:#449F6C;}
	.st13{opacity:0.6;}
	.st14{fill:none;stroke:#FFFFFF;stroke-width:2;stroke-linecap:round;stroke-linejoin:round;stroke-miterlimit:10;}
	.st15{fill:none;stroke:#3781A4;stroke-width:6;stroke-miterlimit:10;}
	.st16{fill:none;stroke:#3781A4;stroke-width:5;stroke-miterlimit:10;}
	.st17{opacity:0.6;fill:none;stroke:#FFFFFF;stroke-width:2;stroke-linecap:round;stroke-linejoin:round;stroke-miterlimit:10;}
	.st18{opacity:0.6;fill:#B6B6B7;}
	.st19{opacity:0.35;fill:#B6B6B7;}
	.st20{opacity:0.8;fill:#B6B6B7;}
	.st21{opacity:0.3;fill:#B6B6B7;}
	.st22{opacity:0.7;fill:#B6B6B7;}
	.st23{opacity:0.9;fill:#B6B6B7;}
	.st24{opacity:0.5;fill:#B6B6B7;}
	.st25{opacity:0.2;fill:#B6B6B7;}
	.st26{opacity:0.65;fill:#B6B6B7;}
	.st27{opacity:0.85;fill:#B6B6B7;}
	.st28{opacity:0.45;fill:#B6B6B7;}
	.st29{fill:#485154;}
	.st30{fill:none;stroke:#3781A4;stroke-width:11;stroke-linecap:round;stroke-linejoin:round;stroke-miterlimit:10;}
	.st31{fill:none;stroke:#FFFFFF;stroke-width:3;stroke-linecap:round;stroke-linejoin:round;stroke-miterlimit:10;}
	.st32{fill:none;stroke:#FFFFFF;stroke-width:3;stroke-linecap:round;stroke-linejoin:round;}
	.st33{fill:none;stroke:#FFFFFF;stroke-width:3;stroke-linecap:round;stroke-linejoin:round;stroke-dasharray:2.9465,3.9287;}
	.st34{fill:none;stroke:#FFFFFF;stroke-width:3;stroke-linecap:round;stroke-linejoin:round;stroke-dasharray:2.0068,2.6757;}
	.st35{fill:none;stroke:#FFFFFF;stroke-width:3;stroke-linecap:round;stroke-linejoin:round;stroke-dasharray:2.8093,3.7457;}
	.st36{fill:none;stroke:#FFFFFF;stroke-width:3;stroke-linecap:round;stroke-linejoin:round;stroke-dasharray:3.0503,4.067;}
	.st37{fill:none;stroke:#FFFFFF;stroke-width:3;stroke-linecap:round;stroke-linejoin:round;stroke-dasharray:2.7315,3.642;}
	.st38{fill:none;stroke:#FFFFFF;stroke-width:3;stroke-linecap:round;stroke-linejoin:round;stroke-dasharray:3.1002,4.1336;}
	.st39{fill:none;stroke:#3781A4;stroke-width:10;stroke-linecap:round;stroke-linejoin:round;stroke-miterlimit:10;}
	.st40{fill:none;stroke:#3781A4;stroke-width:10;stroke-miterlimit:10;}
	.st41{fill:none;stroke:#FFFFFF;stroke-width:3;stroke-linecap:round;stroke-linejoin:round;stroke-dasharray:3.1068,4.1424;}
	.st42{fill:none;stroke:#FFFFFF;stroke-width:3;stroke-linecap:round;stroke-linejoin:round;stroke-dasharray:1.5484,2.0645;}
	.st43{fill:none;stroke:#FFFFFF;stroke-width:3;stroke-linecap:round;stroke-linejoin:round;stroke-dasharray:2.9057,3.8743;}
	.st44{fill:none;stroke:#FFFFFF;stroke-width:3;stroke-linecap:round;stroke-linejoin:round;stroke-dasharray:3.1048,4.1397;}
	.st45{fill:none;stroke:#FFFFFF;stroke-width:3;stroke-linecap:round;stroke-linejoin:round;stroke-dasharray:2.7418,3.6557;}
	.st46{fill:none;stroke:#FFFFFF;stroke-width:3;stroke-linecap:round;stroke-linejoin:round;stroke-dasharray:3.6253,4.8338;}
	.st47{fill:none;stroke:#FFFFFF;stroke-miterlimit:10;}
	.st48{fill:none;stroke:#FFFFFF;stroke-width:2.5;stroke-linecap:round;stroke-linejoin:round;stroke-miterlimit:10;}
	.st49{fill:#FAFCFB;}
	.st50{fill:none;stroke:#00A9CD;stroke-miterlimit:10;}
	.st51{fill:none;stroke:#3781A4;stroke-width:0.8989;stroke-miterlimit:10;}
	.st52{fill:none;stroke:#B12843;stroke-width:0.8989;stroke-miterlimit:10;}
	.st53{fill:none;stroke:#3781A4;stroke-miterlimit:10;}
	.st54{fill-rule:evenodd;clip-rule:evenodd;fill:none;stroke:#3781A4;stroke-width:0.8989;stroke-miterlimit:10;}
	.st55{fill:#00A9CD;}
	.st56{fill:#0597C4;}
	.st57{fill:#2A3033;}
	.st58{fill:none;}
	.st59{fill:none;stroke:#A5B5B8;stroke-miterlimit:10;}
	.st60{fill:none;stroke:#D4D4D6;stroke-miterlimit:10;}
	.st61{fill:#231F20;}
	.st62{opacity:0.6;fill:#2A3033;}
	.st63{opacity:0.85;fill:#FFFFFF;}
	.st64{fill:#0F070A;}
	.st65{opacity:0.85;}
	.st66{fill:#7B8081;}
	.st67{opacity:0.9;fill:#FFFFFF;}
	.st68{fill:#F7F7F7;}
	.st69{fill-rule:evenodd;clip-rule:evenodd;fill:#2A3033;}
	.st70{opacity:0.75;}
	.st71{fill:none;stroke:#FFFFFF;stroke-width:2;stroke-miterlimit:10;}
	.st72{fill:#00ADEE;}
	.st73{fill:#0C0110;}
	.st74{opacity:0.7;fill:#FFFFFF;}
	.st75{opacity:0.6;fill:#FFFFFF;}
	.st76{display:none;}
	.st77{display:inline;fill:none;}
	.st78{display:inline;}
	.st79{fill:none;stroke:#FFFFFF;stroke-width:0.5319;stroke-miterlimit:10;}
	.st80{fill:none;stroke:#F9F164;stroke-width:0.5;stroke-miterlimit:10;}
</style>
<metadata>
	<sfw  xmlns="&ns_sfw;">
		<slices></slices>
		<sliceSourceBounds  width="10247.2" height="8656.8" x="-5542.2" y="-6643.9" bottomLeftOrigin="true"></sliceSourceBounds>
		<optimizationSettings>
			<targetSettings  fileFormat="JPEGFormat" targetSettingsID="0">
				
					<JPEGFormat  progressive="false" quality="60" optimized="true" noMatteColor="false" blurAmount="0" embedICCProfile="false" matteColor="#FFFFFF">
					</JPEGFormat>
			</targetSettings>
		</optimizationSettings>
	</sfw>
</metadata>
<g id="Layer_1">
	<g>
		<g id="screen_15_">
			<g>
				<rect x="1.5" y="9.1" class="st0" width="122.2" height="15.5"/>
			</g>
		</g>
		<path class="st55" d="M119.8,83.3H5c-2.2,0-4.1-1.8-4.1-4.1V5.6C1,3.3,2.8,1.5,5,1.5h114.8c2.2,0,4.1,1.8,4.1,4.1v73.6
			C123.9,81.5,122.1,83.3,119.8,83.3z M5,2.5C3.3,2.5,2,3.9,2,5.6v73.6c0,1.7,1.4,3.1,3.1,3.1h114.8c1.7,0,3.1-1.4,3.1-3.1V5.6
			c0-1.7-1.4-3.1-3.1-3.1H5z"/>
		<path class="st55" d="M123.9,9.5H1V5.6C1,3.3,2.8,1.5,5,1.5h114.8c2.2,0,4.1,1.8,4.1,4.1V9.5z M2,8.5h120.9V5.6
			c0-1.7-1.4-3.1-3.1-3.1H5C3.3,2.5,2,3.9,2,5.6V8.5z"/>
		<path class="st0" d="M51.3,54H27.1c-0.7,0-1.2,0.5-1.2,1.2v4c0,0.7,0.5,1.2,1.2,1.2h24.1c0.7,0,1.2-0.5,1.2-1.2v-4
			C52.5,54.6,52,54,51.3,54z"/>
		<rect x="25.8" y="31.8" class="st8" width="45.8" height="4.1"/>
		<rect x="25.8" y="38.4" class="st8" width="33.9" height="4.1"/>
		<rect x="25.8" y="45" class="st8" width="40.3" height="4.1"/>
		<path class="st1" d="M26.9,20.9h16.4c0.8,0,1.5-0.7,1.5-1.5v-4.4c0-0.8-0.7-1.5-1.5-1.5H26.9c-0.8,0-1.5,0.7-1.5,1.5v4.4
			C25.4,20.2,26.1,20.9,26.9,20.9z M26.4,14.9c0-0.3,0.2-0.5,0.5-0.5h16.4c0.3,0,0.5,0.2,0.5,0.5v4.4c0,0.3-0.2,0.5-0.5,0.5H26.9
			c-0.3,0-0.5-0.2-0.5-0.5V14.9z"/>
		<path class="st1" d="M49.6,13.4c-0.8,0-1.5,0.7-1.5,1.5v4.4c0,0.8,0.7,1.5,1.5,1.5H66c0.8,0,1.5-0.7,1.5-1.5v-4.4
			c0-0.8-0.7-1.5-1.5-1.5H49.6z M66.5,14.9v4.4c0,0.3-0.2,0.5-0.5,0.5H49.6c-0.3,0-0.5-0.2-0.5-0.5v-4.4c0-0.3,0.2-0.5,0.5-0.5H66
			C66.3,14.4,66.5,14.7,66.5,14.9z"/>
		<path class="st1" d="M88.6,13.4H72.2c-0.8,0-1.5,0.7-1.5,1.5v4.4c0,0.8,0.7,1.5,1.5,1.5h16.4c0.8,0,1.5-0.7,1.5-1.5v-4.4
			C90.2,14.1,89.5,13.4,88.6,13.4z M89.2,19.3c0,0.3-0.2,0.5-0.5,0.5H72.2c-0.3,0-0.5-0.2-0.5-0.5v-4.4c0-0.3,0.2-0.5,0.5-0.5h16.4
			c0.3,0,0.5,0.2,0.5,0.5V19.3z"/>
		<path class="st0" d="M6,4C5.2,4,4.5,4.7,4.5,5.5S5.2,7,6,7s1.5-0.7,1.5-1.5S6.8,4,6,4z M6,6.1c-0.3,0-0.6-0.3-0.6-0.6
			S5.7,4.9,6,4.9s0.6,0.3,0.6,0.6S6.3,6.1,6,6.1z"/>
		<path class="st0" d="M9.5,4C8.6,4,8,4.7,8,5.5S8.6,7,9.5,7c0.8,0,1.5-0.7,1.5-1.5S10.3,4,9.5,4z M9.5,6.1c-0.3,0-0.6-0.3-0.6-0.6
			s0.3-0.6,0.6-0.6S10,5.2,10,5.5S9.8,6.1,9.5,6.1z"/>
		<path class="st0" d="M12.9,4c-0.8,0-1.5,0.7-1.5,1.5S12.1,7,12.9,7c0.8,0,1.5-0.7,1.5-1.5S13.7,4,12.9,4z M12.9,6.1
			c-0.3,0-0.6-0.3-0.6-0.6s0.3-0.6,0.6-0.6c0.3,0,0.6,0.3,0.6,0.6S13.3,6.1,12.9,6.1z"/>
		<path class="st0" d="M83.1,4.1H41.8v3.2h41.3V4.1z M82.2,6.4H42.7V5h39.5V6.4z"/>
	</g>
</g>
<g id="guides" class="st76">
</g>
</svg>
