<?xml version="1.0" encoding="utf-8"?>
<!-- Generator: Adobe Illustrator 19.1.0, SVG Export Plug-In . SVG Version: 6.00 Build 0)  -->
<svg version="1.1" id="Layer_1" xmlns="http://www.w3.org/2000/svg" xmlns:xlink="http://www.w3.org/1999/xlink" x="0px" y="0px"
	 viewBox="-456 326 366 150" style="enable-background:new -456 326 366 150;" xml:space="preserve">
<style type="text/css">
	.st0{fill:#666666;}
</style>
<g>
	<path class="st0" d="M-189.9,471.6l-6.9-13.8l-1-2l2-1.1c2.1-1.2,4-2.3,5.7-3.5c1.6-1.1,2.9-2.2,4-3.2c1-1,1.9-2,2.6-3.2
		c0.7-1.1,1.3-2.3,1.6-3.5l0,0l0,0c0.1-0.3,0.2-0.7,0.3-1.1c0.1-0.5,0.2-0.9,0.3-1.2c0.4-2.2,0.6-4.8,0.6-7.8l0,0v-62.9V366h2.3
		h19.4h2.3v2.3v62.6l0,0c0,0.6,0,1.1,0,1.7c0,0.6,0,1.2,0,1.7c-0.1,2.9-0.4,5.8-0.8,8.6l0,0c-0.1,0.6-0.2,1.2-0.3,1.7
		c-0.1,0.5-0.2,1.1-0.4,1.7c-0.7,2.9-1.8,5.6-3.2,8.2l0,0c-1.1,1.9-2.4,3.7-3.9,5.4c-1.5,1.7-3.3,3.3-5.4,4.8l0,0l0,0l0,0
		c-0.6,0.5-1.2,0.9-1.8,1.3c-0.6,0.4-1.3,0.8-2,1.2c-3.5,2-7.6,3.8-12.5,5.4l-1.9,0.6L-189.9,471.6L-189.9,471.6z M-125.3,451.7
		c-2.3,0-4.4-0.1-6.3-0.2c-1.8-0.1-3.7-0.3-5.4-0.6l0,0c-1.7-0.3-3.3-0.6-4.8-0.9c-1.6-0.4-3-0.7-4.3-1.2c-1.3-0.4-2.5-0.9-3.7-1.5
		c-1.2-0.5-2.3-1.1-3.3-1.6l-1.8-1l0.7-1.9l5.4-13.8l0.8-2.1l2.1,0.8l0,0l0,0c0.3,0.1,0.6,0.2,0.9,0.3c0.1,0,0.4,0.1,0.9,0.3
		c1.6,0.5,3.2,1,4.5,1.3l0,0c1,0.3,2,0.5,3.1,0.7c1.1,0.2,2.2,0.3,3.2,0.4h0.1c1.1,0.1,2.2,0.2,3.5,0.3c1.3,0.1,2.6,0.1,4,0.1l0,0
		c2.2,0,4.2-0.2,5.8-0.5c0.4-0.1,0.6-0.1,0.7-0.2c1.2-0.3,2.1-0.7,2.9-1.1l0,0l0,0l0,0l0,0l0,0c0.2-0.1,0.4-0.3,0.6-0.4l0,0
		c0.2-0.1,0.3-0.3,0.5-0.5c0.7-0.7,1.1-1.7,1.1-2.8c0-0.7-0.2-1.3-0.5-1.9s-0.8-1.2-1.5-1.7l0,0c-0.8-0.6-1.7-1.2-2.8-1.8
		c-1.1-0.6-2.3-1.2-3.6-1.7l0,0c-1.5-0.6-3-1.2-4.5-1.8c-1.2-0.5-2.8-1.1-4.7-2c-1.7-0.7-3.3-1.5-4.9-2.3c-1.6-0.9-3.1-1.8-4.6-2.8
		l0,0c-1.6-1-3-2.3-4.3-3.6c-1.3-1.4-2.4-2.9-3.4-4.5l0,0c-0.3-0.5-0.6-1-0.8-1.5c-0.2-0.5-0.5-1-0.7-1.6c-1.1-2.7-1.6-5.9-1.7-9.3
		V389c0-2.1,0.3-4,0.7-5.9c0.5-1.9,1.2-3.6,2.1-5.2l0,0c0.9-1.5,2-2.9,3.2-4.2s2.6-2.4,4-3.4l0,0c1.5-1,3.1-1.8,4.7-2.5
		c1.6-0.7,3.4-1.3,5.2-1.7l0,0c1.8-0.5,3.6-0.8,5.4-1s3.7-0.3,5.5-0.3l0,0c2.2,0,4.2,0.1,6,0.2c0.4,0,0.7,0.1,0.9,0.1
		c1.4,0.1,2.8,0.3,4.2,0.6l0,0l0,0c0.5,0.1,0.9,0.2,1.3,0.2c0.4,0.1,0.8,0.2,1.2,0.3c2,0.4,3.9,1,5.7,1.6l0,0
		c1.2,0.4,2.4,0.9,3.4,1.3c1.1,0.4,2.2,0.9,3.2,1.4l2.1,0.9l-0.9,2.1l-5.5,13.3l-0.8,1.9l-2-0.6l0,0l0,0c-1.9-0.6-3.8-1.1-5.6-1.6
		h-0.1c-1-0.3-1.9-0.5-2.7-0.7c-1-0.2-1.9-0.4-2.9-0.5l0,0c-0.9-0.1-1.9-0.2-3.2-0.3c-1.2-0.1-2.4-0.1-3.6-0.1
		c-1.8,0-3.3,0.2-4.5,0.5c-1,0.2-1.8,0.6-2.3,0.9l0,0l0,0c-0.2,0.1-0.3,0.3-0.4,0.4s-0.2,0.2-0.3,0.4c-0.4,0.6-0.6,1.2-0.6,1.9l0,0
		c0,0.2,0,0.3,0,0.4c0,0.1,0.1,0.2,0.1,0.4c0.2,0.7,0.8,1.4,1.8,2l0.1,0.1c0.8,0.6,1.8,1.2,2.9,1.8s2.3,1.2,3.8,1.8l0,0
		c1.1,0.5,1,0.4,1.2,0.5c1.1,0.5,1,0.4,1.3,0.5c2,0.8,4.2,1.8,6.8,3c1.7,0.8,3.4,1.6,5,2.5s3.2,1.9,4.7,3l0,0c1.5,1.1,3,2.4,4.3,3.7
		c1.3,1.4,2.5,2.9,3.4,4.5l0,0c1.1,1.7,1.9,3.5,2.4,5.5s0.8,4.1,0.8,6.4v0.1l0,0c0,0.7,0,1.4-0.1,1.9c0,0.5-0.1,1.1-0.2,1.9
		c-0.4,3.2-1.4,6-2.9,8.5c-1,1.7-2.2,3.3-3.6,4.7c-1.4,1.4-2.9,2.6-4.7,3.7l0,0c-1.7,1-3.5,1.9-5.4,2.7c-1.9,0.7-3.8,1.3-5.9,1.8
		s-4.1,0.8-6.2,1.1C-121,451.6-123.1,451.7-125.3,451.7L-125.3,451.7z"/>
	<path class="st0" d="M-377.3,442.9c-14.2,3.9-30.2,6.5-45,3.6c-5.7-1.1-10.9-3.5-15.8-6.9c-4.9-3.8-8.9-9.2-12-16.3
		c-3.2-7.2-4.8-17-4.8-29.2c0-12.2,1.9-21.9,5.5-29.4c3.4-7.4,7.7-13,13.1-16.7c5.2-3.7,10.7-6.2,16.4-7.4
		c5.6-1.2,10.8-1.7,15.5-1.7c6.9,0.1,22,1.9,29.2,6.7v23.8c-7.4-3.8-17.7-5.7-26-5.9c-2.5,0-5,0.3-7.3,0.8c-2.4,0.7-4.5,2.1-6.5,4.2
		c-1.8,2.1-3.3,5.3-4.4,9.3c-1.4,4.2-2,9.5-2,16.3c0,6,0.5,10.8,1.6,14.5c0.8,3.8,1.8,6.9,3.6,8.9c6.4,7.7,20.7,5.1,30.5,2.5
		C-384.9,427.9-382.9,436.4-377.3,442.9L-377.3,442.9z"/>
	<path class="st0" d="M-322.7,396.3l-5.9,0.2c-6.4,0-11.1,1.1-13.9,3.4c-2.9,2.3-4.3,6.4-4.2,12.5c0,5.1,0.9,8.4,2.8,10.3
		c1.8,1.9,4.3,2.7,7.1,2.6c3.5-0.1,6.1-0.9,8.7-2.3c0,3.4,0,6.8,0,10.3c0,3.4,0.6,6,1.7,8c-3.8,1.7-6.3,3.1-10.5,4.2
		c-5.1,1.5-10.2,2.5-13.6,2.6c-23.7,0.7-29.7-17.1-29.7-33.9c0-7.2,1.4-13.1,4.2-17.7c2.6-4.6,5.7-7.9,9.7-10.3
		c4.2-2.5,8.4-4.2,12.9-5.2c4.5-0.7,8.6-1,12.5-1h18.2v-6.2c0-4.1-1-6.8-3.2-8.1c-2.1-1.2-5.5-1.8-10.3-1.8
		c-5.8,0.1-28.1,2.4-33.3,5.7v-24.5c11.6-4.5,31.7-6.1,38.6-6.2c11.9-0.1,21.7,2,29.5,6.4c3.9,2.6,6.8,6.2,9.1,10.7
		c2,4.8,3,10.8,3,18.1c0,24,0.1,48,0.1,72h-0.1v0.4h-9.6c-11.1,0-23.9,1.2-23.9-14.3c0-8.7,0-17.5,0-26.2L-322.7,396.3L-322.7,396.3
		z"/>
	<path class="st0" d="M-283.5,340.9h28.5l4.4,10.7c0.1-0.3,3.4-2.5,9.9-6.4c3.1-1.8,6.9-3.1,11.1-4.4c4-1.2,8.2-1.9,12.8-2
		c8.9-0.1,16.2,2,21.7,6.6c5.6,4.7,8.5,13,8.5,24.8v61.5c0,15.5-12.9,14.3-23.9,14.3h-9.6v-71.7c0-3.5-0.5-5.9-1.8-7.1
		c-1.2-1.2-3.8-1.7-7.3-1.7c-5.1,0.1-9.6,1.1-13.9,3.1c-4.5,2.1-6.8,3.3-6.9,3.4v74.2h-33.3C-283.3,410.8-283.5,376.1-283.5,340.9
		L-283.5,340.9z"/>
	<path class="st0" d="M-169.4,328.9c8.6,0,15.6,7,15.6,15.7c0,8.6-7,15.7-15.6,15.7s-15.6-7-15.6-15.7
		C-185.1,336-178,328.9-169.4,328.9L-169.4,328.9z"/>
</g>
</svg>
